<?xml version="1.0" encoding="UTF-8"?>
<!DOCTYPE svg PUBLIC "-//W3C//DTD SVG 1.1//EN" "http://www.w3.org/Graphics/SVG/1.1/DTD/svg11.dtd">
<!-- Creator: CorelDRAW (Evaluation Version) -->
<svg xmlns="http://www.w3.org/2000/svg" xml:space="preserve" width="273.533mm" height="100.137mm" version="1.1" style="shape-rendering:geometricPrecision; text-rendering:geometricPrecision; image-rendering:optimizeQuality; fill-rule:evenodd; clip-rule:evenodd"
viewBox="0 0 27353.3 10013.7"
 xmlns:xlink="http://www.w3.org/1999/xlink"
 xmlns:xodm="http://www.corel.com/coreldraw/odm/2003">
 <defs>
  <style type="text/css">
   <![CDATA[
    .fil2 {fill:#2B2A29}
    .fil1 {fill:#2B2A29}
    .fil0 {fill:#2B2A29;fill-rule:nonzero}
   ]]>
  </style>
 </defs>
 <g id="Layer_x0020_1">
  <metadata id="CorelCorpID_0Corel-Layer"/>
  <polygon class="fil0" points="5879.06,5672.82 6292.04,5063.77 6500.64,5063.77 6500.64,8455.18 6292.04,8455.18 6292.04,5355.81 5879.06,5964.84 5466.09,5355.81 5466.09,8455.18 5257.54,8455.18 5257.54,5063.77 5466.09,5063.77 "/>
  <path class="fil0" d="M5465.4 8794.03l-1.14 489.39 827.25 0.43 0.08 -489.42 -826.19 -0.4zm1034.54 -131.43l0 752.98 -1085.95 0.46 -162.01 -0.81 0 -752.98 1103.38 -0.46 144.58 0.81z"/>
  <path class="fil0" d="M5899.44 7167.56c-351.53,0 -651.62,-78.6 -900.28,-235.79 -248.64,-157.18 -435.84,-363.68 -561.6,-619.47 -125.74,-255.79 -188.61,-528.02 -188.61,-816.69 0,-288.64 62.87,-560.87 188.61,-816.66 125.76,-255.79 312.96,-462.29 561.6,-619.47 248.66,-157.21 548.75,-235.79 900.28,-235.79 351.54,0 652.36,78.58 902.42,235.79 250.07,157.18 438,363.68 563.74,619.47 125.76,255.79 188.63,528.02 188.63,816.66 0,288.67 -62.87,560.9 -188.63,816.69 -125.74,255.79 -313.67,462.29 -563.74,619.47 -250.06,157.19 -550.88,235.79 -902.42,235.79zm0 -171.49c305.81,0 568.03,-70.72 786.68,-212.19 218.64,-141.48 382.98,-326.54 493,-555.18 110.03,-228.63 165.04,-471.58 165.04,-728.8 0,-260.08 -55.01,-505.15 -165.04,-735.22 -110.02,-230.06 -274.36,-415.83 -493,-557.31 -218.65,-141.47 -480.87,-212.22 -786.68,-212.22 -305.81,0 -566.59,70.75 -782.38,212.22 -215.78,141.48 -378.69,326.52 -488.71,555.18 -110.03,228.63 -165.07,472.98 -165.07,733.06 0,260.08 55.04,504.46 165.07,733.09 110.02,228.64 272.93,413.7 488.71,555.18 215.79,141.47 476.57,212.19 782.38,212.19z"/>
  <path class="fil1" d="M-5.44 5937.68c0,-1023.97 223.05,-1989.66 669.14,-2897.05 446.1,-907.38 1110.17,-1639.9 1992.21,-2197.51 882.03,-557.6 1946.58,-836.42 3193.62,-836.42 1247.02,0 2314.07,278.82 3201.19,836.42 887.11,557.61 1553.72,1290.13 1999.81,2197.51 476.22,968.64 694.38,2000.28 666.8,3077.91l-745.08 -0.05c33.01,-948.69 -174.16,-1918.3 -583.25,-2773.72 -390.27,-816.07 -973.28,-1475.14 -1748.88,-1976.98 -775.58,-501.86 -1705.8,-752.79 -2790.59,-752.79 -1084.81,0 -2009.96,250.93 -2775.41,752.79 -765.46,501.84 -1343.34,1158.32 -1733.66,1969.39 -390.33,811.08 -585.49,1677.92 -585.49,2600.5 0,1309.7 0.81,2770.59 1.3,4080.31l-762.3 0c0.11,-1309.75 0.59,-2770.58 0.59,-4080.31z"/>
  <path class="fil1" d="M1584.18 5766.63c0,-742.49 161.72,-1442.7 485.18,-2100.64 323.47,-657.94 804.98,-1189.09 1444.53,-1593.4 639.56,-404.31 1411.47,-606.49 2315.69,-606.49 904.21,0 1677.89,202.18 2321.15,606.49 643.23,404.31 1126.57,935.46 1450.04,1593.4 413.18,840.44 493.38,1542.68 482.15,2452.55l-536.17 0c6.18,-822.55 -60.79,-1469.09 -425.63,-2232.01 -283.03,-591.78 -705.72,-1069.62 -1268.1,-1433.49 -562.39,-363.9 -1236.87,-545.86 -2023.44,-545.86 -786.59,0 -1457.43,181.96 -2012.44,545.86 -555.01,363.87 -974.03,839.88 -1257.06,1427.98 -283.03,588.11 -424.53,1216.65 -424.53,1885.61 0,943.88 -2.83,3292.77 -2.51,4253.77l-547.56 0c0.03,-978.68 -1.3,-3318.91 -1.3,-4253.77z"/>
  <path class="fil1" d="M2726.33 5549.57c0,-546.27 118.99,-1061.44 356.96,-1545.51 237.98,-484.05 592.24,-874.83 1062.79,-1172.3 470.53,-297.47 1038.44,-446.2 1703.7,-446.2 665.25,0 1234.49,148.73 1707.74,446.2 473.25,297.47 828.86,688.25 1066.84,1172.3 323.57,658.1 389.54,1390.43 366.65,2114.48l-404.12 0c21.81,-677.7 -17.33,-1328.94 -315.42,-1952.22 -208.23,-435.38 -519.22,-786.94 -932.98,-1054.67 -413.75,-267.72 -910,-401.58 -1488.71,-401.58 -578.72,0 -1072.27,133.86 -1480.6,401.58 -408.35,267.73 -716.62,617.94 -924.85,1050.62 -208.23,432.68 -312.34,895.13 -312.34,1387.3 0,643.18 0.38,3479.22 0.62,4470.83l-399.88 0c-0.86,-995.01 -6.4,-3828.33 -6.4,-4470.83z"/>
  <path class="fil2" d="M25542.88 6725.6c116.26,0 215.54,20.28 297.79,60.85 82.24,40.57 143.68,93.77 184.26,159.59 40.57,65.83 60.85,136.03 60.85,210.58 0,76.77 -20.8,149.73 -62.51,218.8 -41.67,69.1 -103.64,124.5 -185.88,166.18 -82.28,41.7 -180.43,62.51 -294.51,62.51l0 1878.8 -164.53 0 0 -2757.31 164.53 0zm0 746.9l0 0c125.05,-6.59 223.2,-41.68 294.51,-105.3 71.27,-63.61 106.91,-135.99 106.91,-217.16 0,-81.15 -35.08,-150.25 -105.29,-207.28 -70.17,-57.05 -168.9,-85.55 -296.13,-85.55l0 615.29z"/>
  <path class="fil2" d="M10003.67 7194.4c0,-131.62 35.09,-233.6 105.29,-306.01 70.2,-72.38 154.66,-108.57 253.36,-108.57 98.7,0 184.26,36.74 256.67,110.23 72.35,73.48 108.57,174.94 108.57,304.35l0 2342.77 -164.53 0 0 -1724.18 -394.87 0 0 1724.18 -164.49 0 0 -2342.77zm164.49 496.85l0 0 394.87 0 0 -496.85c0,-89.91 -19.76,-160.12 -59.23,-210.59 -39.5,-50.43 -85.56,-75.65 -138.2,-75.65 -52.62,0 -98.7,25.22 -138.2,75.65 -39.47,50.47 -59.24,120.68 -59.24,210.59l0 496.85z"/>
  <path class="fil2" d="M19377.69 6725.6c116.26,0 215.54,20.28 297.76,60.85 82.27,40.57 143.68,93.77 184.29,159.59 40.57,65.83 60.85,136.03 60.85,210.58 0,76.77 -20.83,149.73 -62.51,218.8 -41.67,69.1 -103.67,124.5 -185.88,166.18 -82.28,41.7 -180.46,62.51 -294.51,62.51l0 1878.8 -164.53 0 0 -2757.31 164.53 0zm0 746.9l0 0c125.05,-6.59 223.17,-41.68 294.51,-105.3 71.28,-63.61 106.91,-135.99 106.91,-217.16 0,-81.15 -35.08,-150.25 -105.29,-207.28 -70.2,-57.05 -168.9,-85.55 -296.13,-85.55l0 615.29z"/>
  <path class="fil2" d="M9073.22 7760.35c135.99,43.88 253.91,112.98 353.71,207.3 99.78,94.32 175.5,202.92 227.04,325.74 51.54,122.85 77.31,248.97 77.31,378.41 0,153.52 -36.19,296.14 -108.54,427.72 -72.44,131.64 -182.11,237.49 -329.08,317.53 -146.96,80.07 -327.94,120.12 -542.9,120.12l-164.53 0 0 -2757.35 164.53 0c127.23,0 235.8,24.7 325.73,74.04 89.94,49.36 157.39,113.5 202.4,192.47 44.96,78.97 67.42,164.52 67.42,256.64 0,94.35 -23.57,182.08 -70.76,263.25 -47.16,81.21 -114.6,145.86 -202.33,194.13zm-322.46 1645.18l0 0c182.08,-4.39 333.98,-41.13 455.69,-110.23 121.78,-69.1 212.27,-158.52 271.47,-268.13 59.24,-109.67 88.87,-229.27 88.87,-358.68 0,-138.2 -33.47,-271.99 -100.39,-401.39 -66.89,-129.44 -162.32,-233.66 -286.24,-312.63 -123.95,-78.97 -267.06,-118.43 -429.4,-118.43l0 1569.49zm0 -1691.24l0 0 23.04 0c89.94,0 167.25,-19.8 231.97,-59.23 64.69,-39.5 114.05,-90.46 148.07,-153.01 33.98,-62.51 50.99,-128.85 50.99,-199.08 0,-260.87 -208.96,-401.4 -454.07,-401.4l0 812.72z"/>
  <path class="fil2" d="M26320.69 9117.7c57.03,74.59 122.88,131.03 197.44,169.46 74.59,38.37 150.27,57.58 227.04,57.58 78.96,0 151.89,-19.21 218.79,-57.58 66.92,-38.43 120.64,-93.22 161.24,-164.55 40.58,-71.28 60.89,-155.18 60.89,-251.71 0,-96.49 -20.31,-191.92 -60.89,-286.24 -40.6,-94.35 -90.49,-182.08 -149.72,-263.22 -59.2,-81.18 -138.17,-182.08 -236.9,-302.73 -114.06,-138.2 -202.34,-252.28 -264.85,-342.19 -62.55,-89.97 -110.26,-183.19 -143.17,-279.68 -26.29,-78.97 -39.47,-151.38 -39.47,-217.17 0,-92.15 21.39,-172.74 64.17,-241.84 42.78,-69.1 100.36,-122.3 172.74,-159.59 72.38,-37.29 149.17,-55.95 230.34,-55.95 72.38,0 142.03,14.83 208.93,44.43 66.89,29.63 127.78,74.03 182.6,133.24l-111.85 82.27c-85.58,-92.14 -178.8,-138.2 -279.68,-138.2 -83.38,0 -154.65,31.29 -213.89,93.8 -59.2,62.51 -88.83,142.03 -88.83,238.53 0,57.03 10.97,115.19 32.88,174.42 37.29,96.5 86.66,189.19 148.07,278.03 61.44,88.83 148.06,204.54 259.94,347.12 142.59,175.47 250.63,323.54 324.12,444.21 73.48,120.64 114.6,245.67 123.4,375.1 2.17,15.33 3.28,36.19 3.28,62.52 0,129.4 -29.05,242.94 -87.21,340.57 -58.1,97.6 -134.34,172.18 -228.7,223.72 -94.28,51.55 -196.3,77.32 -306,77.32 -96.5,0 -189.71,-21.94 -279.65,-65.79 -89.94,-43.89 -170.01,-108.6 -240.21,-194.13l115.15 -121.75z"/>
  <path class="fil2" d="M24908.59 6725.6l164.49 0 0 2365.78c-2.2,131.58 -41.09,234.73 -116.78,309.28 -75.66,74.59 -165.04,111.88 -268.16,111.88 -100.91,0 -188.09,-36.77 -261.57,-110.22 -73.48,-73.48 -110.25,-177.15 -110.25,-310.94l0 -2365.78 164.52 0 0 2365.78c0,89.91 21.39,160.11 64.17,210.55 42.77,50.47 92.69,75.72 149.72,75.72 59.23,0 109.67,-25.25 151.35,-75.72 41.7,-50.44 62.51,-120.64 62.51,-210.55l0 -2365.78z"/>
  <polygon class="fil2" points="24076.87,9482.91 23905.76,9482.91 23376.03,7485.67 23300.31,7584.37 23300.31,9482.91 23135.81,9482.91 23135.81,6725.6 23300.31,6725.6 23300.31,7380.38 23784.01,6725.6 23958.4,6725.6 23497.74,7327.74 "/>
  <path class="fil2" d="M22653.49 9321.7c-179.91,107.49 -398.15,161.21 -654.79,161.21 -282.99,0 -525.38,-65.24 -727.2,-195.75 -201.78,-130.51 -353.71,-301.1 -455.69,-511.65 -102.01,-210.61 -153,-435.44 -153,-674.55 0,-239.08 50.99,-463.94 153,-674.52 101.98,-210.58 253.91,-381.14 455.69,-511.65 201.82,-130.51 444.21,-195.78 727.2,-195.78 184.26,0 352.58,34.53 505.06,103.63 152.45,69.1 281.31,160.7 386.63,274.75l-78.97 105.32c-98.7,-109.7 -220.45,-195.78 -365.24,-258.32 -144.78,-62.51 -293.93,-93.77 -447.48,-93.77 -247.9,0 -460.11,58.68 -636.71,176.05 -176.56,117.36 -309.83,271.99 -399.77,463.94 -89.94,191.95 -134.92,395.39 -134.92,610.35 0,214.99 44.98,418.43 134.92,610.38 89.94,191.92 223.21,346.58 399.77,463.94 176.6,117.37 388.81,176.02 636.71,176.02 107.47,0 214.41,-13.7 320.81,-41.13 106.39,-27.39 194.67,-63.03 264.88,-106.94l69.1 118.47z"/>
  <polygon class="fil2" points="20192.98,9482.91 20192.98,6725.6 20357.51,6725.6 20357.51,9482.91 "/>
  <polygon class="fil2" points="17526.42,6779.82 17526.42,6901.57 17187.5,6901.57 17187.5,9537.17 17022.98,9537.17 17022.98,6901.57 16684.06,6901.57 16684.06,6779.82 "/>
  <polygon class="fil2" points="16214.27,7276.67 16214.27,6779.82 16378.77,6779.82 16378.77,9537.17 16214.27,9537.17 16214.27,7480.67 15756.89,6983.81 15756.89,9537.17 15592.4,9537.17 15592.4,6779.82 15756.89,6779.82 "/>
  <polygon class="fil2" points="15287.1,6773.23 15287.1,6904.85 14783.66,6904.85 14783.66,7270.08 15287.1,7270.08 15287.1,7401.7 14783.66,7401.7 14783.66,9405.53 15287.1,9405.53 15287.1,9537.17 14619.16,9537.17 14619.16,6773.23 "/>
  <polygon class="fil2" points="13823.6,7260.22 14149.37,6779.82 14313.9,6779.82 14313.9,9537.17 14149.37,9537.17 14149.37,7010.17 13823.6,7490.53 13497.86,7010.17 13497.86,9537.17 13333.37,9537.17 13333.37,6779.82 13497.86,6779.82 "/>
  <polygon class="fil2" points="13082,6773.23 13082,6904.85 12578.57,6904.85 12578.57,7270.08 13082,7270.08 13082,7401.7 12578.57,7401.7 12578.57,9405.53 13082,9405.53 13082,9537.17 12414.07,9537.17 12414.07,6773.23 "/>
  <path class="fil2" d="M11055.23 9171.93c57.02,74.59 122.84,131.06 197.4,169.46 74.59,38.36 150.27,57.58 227.04,57.58 78.96,0 151.89,-19.22 218.82,-57.58 66.89,-38.4 120.64,-93.22 161.21,-164.56 40.58,-71.27 60.89,-155.17 60.89,-251.67 0,-96.53 -20.31,-191.95 -60.89,-286.27 -40.57,-94.32 -90.49,-182.05 -149.69,-263.23 -59.23,-81.17 -138.2,-182.08 -236.9,-302.72 -114.09,-138.2 -202.37,-252.29 -264.88,-342.19 -62.55,-89.94 -110.23,-183.19 -143.14,-279.69 -26.32,-78.96 -39.5,-151.37 -39.5,-217.16 0,-92.15 21.39,-172.74 64.17,-241.84 42.81,-69.1 100.39,-122.3 172.74,-159.59 72.41,-37.3 149.17,-55.96 230.34,-55.96 72.38,0 142.03,14.83 208.93,44.44 66.92,29.63 127.78,74.03 182.6,133.26l-111.85 82.25c-85.55,-92.14 -178.77,-138.2 -279.68,-138.2 -83.35,0 -154.65,31.29 -213.86,93.8 -59.23,62.51 -88.83,142.03 -88.83,238.53 0,57.02 10.94,115.18 32.88,174.42 37.29,96.49 86.63,189.19 148.07,278.02 61.44,88.84 148.06,204.55 259.94,347.13 142.56,175.47 250.6,323.53 324.09,444.21 73.51,120.64 114.6,245.66 123.4,375.1 2.2,15.35 3.28,36.19 3.28,62.51 0,129.44 -29.05,242.94 -87.18,340.57 -58.13,97.6 -134.37,172.19 -228.69,223.73 -94.32,51.54 -196.34,77.31 -306.01,77.31 -96.53,0 -189.74,-21.94 -279.68,-65.79 -89.94,-43.88 -169.98,-108.6 -240.18,-194.12l115.16 -121.75z"/>
 </g>
</svg>
