<?xml version="1.0" encoding="UTF-8"?>
<!DOCTYPE svg PUBLIC "-//W3C//DTD SVG 1.1//EN" "http://www.w3.org/Graphics/SVG/1.1/DTD/svg11.dtd">
<!-- Creator: CorelDRAW (Evaluation Version) -->
<svg xmlns="http://www.w3.org/2000/svg" xml:space="preserve" width="38.303mm" height="58.531mm" version="1.1" style="shape-rendering:geometricPrecision; text-rendering:geometricPrecision; image-rendering:optimizeQuality; fill-rule:evenodd; clip-rule:evenodd"
viewBox="0 0 3830.3 5853.1"
 xmlns:xlink="http://www.w3.org/1999/xlink"
 xmlns:xodm="http://www.corel.com/coreldraw/odm/2003">
 <defs>
  <style type="text/css">
   <![CDATA[
    .fil1 {fill:#E4B050}
    .fil0 {fill:#E4B050;fill-rule:nonzero}
   ]]>
  </style>
 </defs>
 <g id="Layer_x0020_1">
  <metadata id="CorelCorpID_0Corel-Layer"/>
  <path class="fil0" d="M2058.91 4950.08c37.94,0 70.34,6.62 97.18,19.86 26.84,13.24 46.89,30.6 60.13,52.08 13.24,21.48 19.86,44.39 19.86,68.72 0,25.05 -6.79,48.86 -20.4,71.4 -13.6,22.55 -33.82,40.63 -60.66,54.23 -26.85,13.61 -58.88,20.4 -96.11,20.4l0 613.12 -53.69 0 0 -899.81 53.69 0zm0 243.74c40.81,-2.15 72.84,-13.6 96.11,-34.36 23.26,-20.76 34.89,-44.38 34.89,-70.87 0,-26.48 -11.45,-49.03 -34.36,-67.64 -22.9,-18.62 -55.12,-27.92 -96.64,-27.92l0 200.79z"/>
  <path class="fil0" d="M455.85 3827.46c0,-42.95 11.45,-76.23 34.36,-99.86 22.91,-23.62 50.47,-35.43 82.68,-35.43 32.21,0 60.13,11.99 83.76,35.97 23.61,23.98 35.43,57.09 35.43,99.32l0 764.53 -53.69 0 0 -562.66 -128.86 0 0 562.66 -53.68 0 0 -764.53zm53.68 162.14l128.86 0 0 -162.14c0,-29.34 -6.45,-52.25 -19.33,-68.72 -12.89,-16.46 -27.92,-24.69 -45.1,-24.69 -17.17,0 -32.21,8.23 -45.1,24.69 -12.88,16.47 -19.33,39.38 -19.33,68.72l0 162.14z"/>
  <path class="fil0" d="M46.98 4950.08c37.94,0 70.34,6.62 97.17,19.86 26.85,13.24 46.89,30.6 60.14,52.08 13.24,21.48 19.86,44.39 19.86,68.72 0,25.05 -6.8,48.86 -20.4,71.4 -13.6,22.55 -33.83,40.63 -60.66,54.23 -26.85,13.61 -58.89,20.4 -96.11,20.4l0 613.12 -53.69 0 0 -899.81 53.69 0zm0 243.74c40.81,-2.15 72.83,-13.6 96.11,-34.36 23.26,-20.76 34.89,-44.38 34.89,-70.87 0,-26.48 -11.45,-49.03 -34.36,-67.64 -22.91,-18.62 -55.12,-27.92 -96.64,-27.92l0 200.79z"/>
  <path class="fil0" d="M152.21 4012.15c44.38,14.32 82.86,36.87 115.43,67.65 32.56,30.78 57.27,66.22 74.09,106.3 16.82,40.09 25.23,81.25 25.23,123.49 0,50.1 -11.81,96.64 -35.42,139.58 -23.64,42.96 -59.43,77.5 -107.39,103.62 -47.96,26.13 -107.02,39.2 -177.17,39.2l-53.69 0 0 -899.82 53.69 0c41.52,0 76.95,8.06 106.3,24.16 29.35,16.11 51.36,37.04 66.05,62.81 14.67,25.77 22,53.69 22,83.75 0,30.79 -7.69,59.42 -23.09,85.91 -15.39,26.5 -37.4,47.6 -66.03,63.35zm-105.23 536.88c59.42,-1.43 108.99,-13.42 148.71,-35.97 39.74,-22.55 69.27,-51.73 88.59,-87.5 19.33,-35.79 29,-74.82 29,-117.05 0,-45.1 -10.92,-88.76 -32.76,-130.99 -21.83,-42.24 -52.97,-76.25 -93.41,-102.02 -40.45,-25.77 -87.15,-38.65 -140.13,-38.65l0 512.18zm0 -551.91l7.52 0c29.35,0 54.58,-6.46 75.7,-19.33 21.11,-12.89 37.22,-29.52 48.32,-49.93 11.09,-20.4 16.64,-42.05 16.64,-64.97 0,-85.13 -68.19,-130.99 -148.18,-130.99l0 265.22z"/>
  <path class="fil0" d="M2312.74 5730.71c18.61,24.34 40.1,42.76 64.43,55.3 24.34,12.52 49.04,18.79 74.09,18.79 25.77,0 49.57,-6.27 71.4,-18.79 21.84,-12.54 39.37,-30.42 52.62,-53.7 13.24,-23.26 19.87,-50.64 19.87,-82.14 0,-31.49 -6.63,-62.63 -19.87,-93.41 -13.25,-30.79 -29.53,-59.42 -48.86,-85.9 -19.32,-26.49 -45.09,-59.42 -77.31,-98.79 -37.22,-45.1 -66.03,-82.33 -86.43,-111.67 -20.41,-29.36 -35.98,-59.78 -46.72,-91.27 -8.58,-25.77 -12.88,-49.4 -12.88,-70.87 0,-30.07 6.98,-56.37 20.94,-78.92 13.96,-22.55 32.75,-39.91 56.37,-52.08 23.62,-12.17 48.68,-18.26 75.17,-18.26 23.62,0 46.35,4.84 68.18,14.5 21.83,9.67 41.7,24.16 59.59,43.48l-36.5 26.85c-27.93,-30.07 -58.35,-45.1 -91.27,-45.1 -27.21,0 -50.47,10.21 -69.8,30.61 -19.32,20.4 -28.99,46.35 -28.99,77.84 0,18.61 3.58,37.59 10.73,56.92 12.17,31.49 28.28,61.74 48.32,90.73 20.05,28.99 48.32,66.75 84.83,113.28 46.53,57.26 81.79,105.58 105.77,144.96 23.98,39.37 37.4,80.17 40.27,122.41 0.71,5 1.07,11.81 1.07,20.4 0,42.23 -9.48,79.28 -28.46,111.14 -18.96,31.85 -43.84,56.19 -74.63,73.01 -30.77,16.82 -64.06,25.23 -99.86,25.23 -31.49,0 -61.91,-7.16 -91.26,-21.47 -29.35,-14.32 -55.48,-35.44 -78.39,-63.35l37.58 -39.73z"/>
  <path class="fil0" d="M1851.91 4950.08l53.69 0 0 772.04c-0.72,42.94 -13.42,76.6 -38.12,100.93 -24.69,24.34 -53.86,36.51 -87.51,36.51 -32.93,0 -61.38,-12 -85.36,-35.97 -23.98,-23.98 -35.98,-57.81 -35.98,-101.47l0 -772.04 53.69 0 0 772.04c0,29.34 6.98,52.25 20.94,68.71 13.96,16.47 30.25,24.71 48.86,24.71 19.33,0 35.79,-8.24 49.39,-24.71 13.61,-16.46 20.4,-39.37 20.4,-68.71l0 -772.04z"/>
  <polygon class="fil0" points="1580.49,5849.89 1524.65,5849.89 1351.78,5198.12 1327.07,5230.33 1327.07,5849.89 1273.39,5849.89 1273.39,4950.08 1327.07,4950.08 1327.07,5163.76 1484.92,4950.08 1541.83,4950.08 1391.5,5146.58 "/>
  <path class="fil0" d="M1115.99 5797.28c-58.71,35.08 -129.93,52.61 -213.68,52.61 -92.35,0 -171.45,-21.29 -237.31,-63.88 -65.85,-42.59 -115.43,-98.26 -148.71,-166.97 -33.29,-68.73 -49.93,-142.1 -49.93,-220.13 0,-78.02 16.64,-151.4 49.93,-220.12 33.28,-68.72 82.86,-124.38 148.71,-166.97 65.86,-42.59 144.96,-63.89 237.31,-63.89 60.13,0 115.06,11.27 164.82,33.82 49.75,22.55 91.8,52.44 126.17,89.66l-25.77 34.37c-32.21,-35.8 -71.94,-63.89 -119.19,-84.3 -47.25,-20.4 -95.92,-30.6 -146.03,-30.6 -80.9,0 -150.15,19.15 -207.78,57.45 -57.62,38.3 -101.11,88.76 -130.46,151.4 -29.35,62.64 -44.03,129.03 -44.03,199.18 0,70.16 14.68,136.55 44.03,199.19 29.35,62.63 72.84,113.1 130.46,151.4 57.63,38.3 126.88,57.44 207.78,57.44 35.07,0 69.97,-4.47 104.69,-13.42 34.72,-8.94 63.53,-20.57 86.44,-34.9l22.55 38.66z"/>
  <polygon class="fil0" points="313.04,5849.89 313.04,4950.08 366.73,4950.08 366.73,5849.89 "/>
  <polygon class="fil0" points="2910.8,3692.17 2910.8,3731.9 2800.2,3731.9 2800.2,4591.99 2746.51,4591.99 2746.51,3731.9 2635.91,3731.9 2635.91,3692.17 "/>
  <polygon class="fil0" points="2482.6,3854.31 2482.6,3692.17 2536.28,3692.17 2536.28,4591.99 2482.6,4591.99 2482.6,3920.88 2333.34,3758.74 2333.34,4591.99 2279.66,4591.99 2279.66,3692.17 2333.34,3692.17 "/>
  <polygon class="fil0" points="2180.03,3690.02 2180.03,3732.97 2015.74,3732.97 2015.74,3852.16 2180.03,3852.16 2180.03,3895.11 2015.74,3895.11 2015.74,4549.03 2180.03,4549.03 2180.03,4591.99 1962.06,4591.99 1962.06,3690.02 "/>
  <polygon class="fil0" points="1702.43,3848.94 1808.74,3692.17 1862.43,3692.17 1862.43,4591.99 1808.74,4591.99 1808.74,3767.34 1702.43,3924.1 1596.13,3767.34 1596.13,4591.99 1542.45,4591.99 1542.45,3692.17 1596.13,3692.17 "/>
  <polygon class="fil0" points="1919.39,1853.71 2054.03,1655.15 2122.04,1655.15 2122.04,2760.83 2054.03,2760.83 2054.03,1750.36 1919.39,1948.92 1784.75,1750.36 1784.75,2760.83 1716.76,2760.83 1716.76,1655.15 1784.75,1655.15 "/>
  <polygon class="fil0" points="1460.42,3690.02 1460.42,3732.97 1296.13,3732.97 1296.13,3852.16 1460.42,3852.16 1460.42,3895.11 1296.13,3895.11 1296.13,4549.03 1460.42,4549.03 1460.42,4591.99 1242.45,4591.99 1242.45,3690.02 "/>
  <path class="fil0" d="M1784.53 2871.3l-0.37 159.56 269.7 0.14 0.03 -159.57 -269.36 -0.13zm337.29 -42.85l0 245.49 -354.05 0.15 -52.82 -0.26 0 -245.49 359.73 -0.15 47.14 0.26z"/>
  <path class="fil0" d="M799.01 4472.8c18.61,24.34 40.09,42.77 64.42,55.3 24.34,12.52 49.04,18.79 74.09,18.79 25.77,0 49.57,-6.27 71.41,-18.79 21.83,-12.53 39.37,-30.42 52.61,-53.7 13.24,-23.26 19.87,-50.64 19.87,-82.13 0,-31.5 -6.63,-62.64 -19.87,-93.42 -13.24,-30.78 -29.53,-59.41 -48.85,-85.9 -19.33,-26.49 -45.1,-59.42 -77.31,-98.79 -37.23,-45.1 -66.04,-82.33 -86.44,-111.67 -20.41,-29.35 -35.97,-59.78 -46.71,-91.27 -8.59,-25.77 -12.89,-49.4 -12.89,-70.87 0,-30.07 6.98,-56.37 20.94,-78.92 13.97,-22.55 32.76,-39.91 56.37,-52.08 23.63,-12.17 48.68,-18.26 75.17,-18.26 23.62,0 46.35,4.84 68.18,14.5 21.84,9.67 41.7,24.16 59.59,43.49l-36.5 26.84c-27.92,-30.07 -58.34,-45.1 -91.27,-45.1 -27.2,0 -50.47,10.21 -69.79,30.61 -19.33,20.4 -28.99,46.35 -28.99,77.84 0,18.61 3.57,37.59 10.73,56.92 12.17,31.49 28.27,61.74 48.32,90.73 20.05,28.99 48.32,66.75 84.83,113.28 46.52,57.26 81.78,105.58 105.76,144.96 23.99,39.37 37.4,80.17 40.27,122.41 0.72,5.01 1.07,11.81 1.07,20.4 0,42.24 -9.48,79.28 -28.45,111.14 -18.97,31.85 -43.85,56.19 -74.63,73.01 -30.78,16.82 -64.07,25.23 -99.86,25.23 -31.5,0 -61.92,-7.16 -91.27,-21.47 -29.35,-14.32 -55.47,-35.44 -78.38,-63.35l37.58 -39.73z"/>
  <path class="fil0" d="M1926.04 2341.03c-114.61,0 -212.45,-25.62 -293.52,-76.87 -81.06,-51.24 -142.09,-118.57 -183.09,-201.96 -40.99,-83.4 -61.49,-172.15 -61.49,-266.26 0,-94.11 20.5,-182.86 61.49,-266.25 41,-83.4 102.03,-150.72 183.09,-201.97 81.07,-51.25 178.91,-76.87 293.52,-76.87 114.61,0 212.68,25.62 294.21,76.87 81.53,51.25 142.8,118.57 183.79,201.97 41,83.39 61.5,172.14 61.5,266.25 0,94.11 -20.5,182.86 -61.5,266.26 -40.99,83.39 -102.26,150.72 -183.79,201.96 -81.53,51.25 -179.6,76.87 -294.21,76.87zm0 -55.91c99.7,0 185.19,-23.05 256.47,-69.18 71.29,-46.12 124.86,-106.46 160.74,-181 35.87,-74.54 53.8,-153.74 53.8,-237.6 0,-84.8 -17.93,-164.7 -53.8,-239.7 -35.88,-75.01 -89.45,-135.57 -160.74,-181.7 -71.28,-46.12 -156.77,-69.19 -256.47,-69.19 -99.7,0 -184.72,23.07 -255.08,69.19 -70.35,46.13 -123.46,106.45 -159.33,181 -35.87,74.54 -53.82,154.21 -53.82,239 0,84.79 17.95,164.46 53.82,239 35.87,74.54 88.98,134.88 159.33,181 70.36,46.13 155.38,69.18 255.08,69.18z"/>
  <path class="fil1" d="M0.9 1940.06c0,-333.83 72.72,-648.67 218.16,-944.5 145.44,-295.83 361.94,-534.65 649.51,-716.45 287.56,-181.79 634.63,-272.69 1041.2,-272.69 406.55,0 754.44,90.9 1043.66,272.69 289.22,181.8 506.55,420.62 651.99,716.45 155.26,315.79 226.38,652.13 217.39,1003.47l-242.91 -0.02c10.76,-309.29 -56.78,-625.41 -190.16,-904.3 -127.23,-266.06 -317.31,-480.93 -570.17,-644.54 -252.86,-163.62 -556.14,-245.43 -909.8,-245.43 -353.68,0 -655.3,81.81 -904.86,245.43 -249.55,163.61 -437.96,377.64 -565.21,642.07 -127.26,264.43 -190.88,547.04 -190.88,847.82 0,427 0.26,903.28 0.42,1330.28l-248.53 0c0.04,-427.01 0.19,-903.27 0.19,-1330.28z"/>
  <path class="fil1" d="M519.16 1884.3c0,-242.07 52.72,-470.36 158.18,-684.86 105.46,-214.51 262.44,-387.67 470.95,-519.49 208.51,-131.81 460.17,-197.73 754.97,-197.73 294.79,0 547.04,65.92 756.75,197.73 209.71,131.82 367.29,304.98 472.75,519.49 134.71,274 160.85,502.95 157.19,799.59l-174.8 0c2.01,-268.17 -19.82,-478.96 -138.77,-727.69 -92.27,-192.94 -230.08,-348.72 -413.43,-467.35 -183.35,-118.64 -403.25,-177.97 -659.69,-177.97 -256.44,0 -475.16,59.33 -656.1,177.97 -180.95,118.63 -317.56,273.82 -409.84,465.55 -92.27,191.74 -138.4,396.66 -138.4,614.76 0,307.72 -0.93,1073.52 -0.82,1386.83l-178.52 0c0.01,-319.07 -0.42,-1082.05 -0.42,-1386.83z"/>
  <path class="fil1" d="M891.53 1813.53c0,-178.1 38.79,-346.05 116.38,-503.87 77.58,-157.81 193.08,-285.22 346.49,-382.2 153.4,-96.98 338.56,-145.47 555.45,-145.47 216.88,0 402.47,48.49 556.76,145.47 154.29,96.98 270.23,224.39 347.82,382.2 105.49,214.55 127,453.31 119.53,689.37l-131.75 0c7.11,-220.95 -5.65,-433.27 -102.83,-636.47 -67.89,-141.95 -169.28,-256.57 -304.18,-343.85 -134.89,-87.28 -296.68,-130.92 -485.35,-130.92 -188.68,0 -349.59,43.64 -482.71,130.92 -133.14,87.28 -233.64,201.46 -301.53,342.53 -67.88,141.06 -101.83,291.83 -101.83,452.29 0,209.69 0.12,1134.31 0.2,1457.6l-130.37 0c-0.28,-324.4 -2.08,-1248.13 -2.08,-1457.6z"/>
 </g>
</svg>
