<svg xmlns="http://www.w3.org/2000/svg" viewBox="0 0 400 300" role="img" aria-label="Aging an Alnico Magnet article placeholder">
  <rect width="400" height="300" fill="#181410"/>
  <g fill="none" stroke="#c9a24a" stroke-width="1" stroke-linecap="square">
    <path d="M14 30 L14 14 L30 14"/>
    <path d="M370 14 L386 14 L386 30"/>
    <path d="M14 270 L14 286 L30 286"/>
    <path d="M370 286 L386 286 L386 270"/>
  </g>
  <g fill="none" stroke="#c9a24a" stroke-width="0.9">
    <rect x="100" y="100" width="40" height="100"/>
    <rect x="160" y="100" width="40" height="100"/>
    <rect x="220" y="100" width="40" height="100"/>
    <rect x="280" y="100" width="40" height="100"/>
  </g>
  <g fill="#c9a24a" font-family="Inter, system-ui, sans-serif" font-size="9" letter-spacing="1" text-anchor="middle">
    <text x="120" y="118">N</text>
    <text x="120" y="194">S</text>
    <text x="180" y="118">N</text>
    <text x="180" y="194">S</text>
    <text x="240" y="118">N</text>
    <text x="240" y="194">S</text>
    <text x="300" y="118">N</text>
    <text x="300" y="194">S</text>
  </g>
  <g fill="none" stroke="#c9a24a" stroke-width="0.6" stroke-opacity="0.55">
    <line x1="120" y1="135" x2="120" y2="175"/>
    <line x1="180" y1="135" x2="180" y2="175"/>
    <line x1="240" y1="135" x2="240" y2="175"/>
    <line x1="300" y1="135" x2="300" y2="175"/>
  </g>
  <text x="200" y="248" text-anchor="middle" font-family="Inter, system-ui, sans-serif" font-size="10" fill="#9a8e74" letter-spacing="2.5">AGING AN ALNICO MAGNET</text>
</svg>
