<?xml version="1.0" encoding="utf-8"?>
<!-- Generator: Adobe Illustrator 27.5.0, SVG Export Plug-In . SVG Version: 6.00 Build 0)  -->
<svg version="1.1" xmlns="http://www.w3.org/2000/svg" xmlns:xlink="http://www.w3.org/1999/xlink" x="0px" y="0px"
	 viewBox="0 0 500 500" style="enable-background:new 0 0 500 500;" xml:space="preserve">
<g id="BACKGROUND">
	<rect style="fill:#18263B;" width="500" height="500"/>
</g>
<g id="OBJECTS">
	<linearGradient id="SVGID_1_" gradientUnits="userSpaceOnUse" x1="111.8381" y1="161.4681" x2="384.4698" y2="-18.8885">
		<stop  offset="0" style="stop-color:#AF6A23"/>
		<stop  offset="0.0211" style="stop-color:#BB7C25"/>
		<stop  offset="0.071" style="stop-color:#D5A12B"/>
		<stop  offset="0.1113" style="stop-color:#E5B82E"/>
		<stop  offset="0.1368" style="stop-color:#EBC02F"/>
		<stop  offset="0.1574" style="stop-color:#E8BA2D"/>
		<stop  offset="0.1855" style="stop-color:#E0A828"/>
		<stop  offset="0.2177" style="stop-color:#D38C1F"/>
		<stop  offset="0.2486" style="stop-color:#C46A15"/>
		<stop  offset="0.5017" style="stop-color:#EBC957"/>
		<stop  offset="0.5468" style="stop-color:#E8C353"/>
		<stop  offset="0.609" style="stop-color:#E1B146"/>
		<stop  offset="0.6811" style="stop-color:#D59432"/>
		<stop  offset="0.7602" style="stop-color:#C56B16"/>
		<stop  offset="0.7625" style="stop-color:#C46A15"/>
		<stop  offset="0.8694" style="stop-color:#EBC02F"/>
		<stop  offset="0.9023" style="stop-color:#E9BA2D"/>
		<stop  offset="0.947" style="stop-color:#E3A829"/>
		<stop  offset="0.9983" style="stop-color:#DA8C21"/>
		<stop  offset="1" style="stop-color:#DA8B21"/>
	</linearGradient>
	<path style="fill:url(#SVGID_1_);" d="M294.684,69.318c-0.03-1.777-0.163-3.528-0.395-5.25h20.087h3.874h89.755
		c0.126,1.122,1.07,2,2.225,2c1.24,0,2.25-1.009,2.25-2.25c0-1.241-1.01-2.25-2.25-2.25c-1.155,0-2.098,0.878-2.225,2h-89.761
		c-0.135-13.528-11.177-24.493-24.736-24.493c-3.328,0-6.547,0.656-9.58,1.932c-8.205-9.566-20.366-15.644-33.927-15.644
		c-13.561,0-25.722,6.078-33.927,15.644c-3.034-1.277-6.251-1.933-9.58-1.933c-13.559,0-24.601,10.965-24.736,24.493H91.995
		c-0.126-1.122-1.07-2-2.225-2c-1.241,0-2.25,1.009-2.25,2.25c0,1.241,1.009,2.25,2.25,2.25c1.155,0,2.099-0.878,2.225-2h89.755
		h3.874h20.087c-0.232,1.721-0.366,3.473-0.395,5.25H59.899v1.5h145.398h0.75h6.504H250h37.448h6.505h0.75h145.398v-1.5H294.684z
		 M410.229,62.069c0.965,0,1.75,0.785,1.75,1.75c0,0.965-0.785,1.75-1.75,1.75c-0.965,0-1.75-0.785-1.75-1.75
		C408.479,62.854,409.265,62.069,410.229,62.069z M89.771,65.569c-0.965,0-1.75-0.785-1.75-1.75c0-0.965,0.785-1.75,1.75-1.75
		c0.965,0,1.75,0.785,1.75,1.75C91.521,64.784,90.735,65.569,89.771,65.569z M294.674,62.299l9.344-16.186
		c1.407,0.838,2.711,1.827,3.876,2.965L294.674,62.299z M308.249,49.432c1.137,1.165,2.127,2.47,2.965,3.876l-16.187,9.346
		L308.249,49.432z M311.473,53.735c0.794,1.409,1.419,2.922,1.866,4.51l-18.062,4.84L311.473,53.735z M295.407,63.569l18.057-4.839
		c0.396,1.553,0.629,3.169,0.649,4.839H295.407z M185.887,63.569c0.02-1.67,0.253-3.286,0.649-4.839l18.056,4.839H185.887z
		 M186.661,58.246c0.447-1.589,1.072-3.101,1.866-4.511l16.195,9.35L186.661,58.246z M188.787,53.308
		c0.838-1.406,1.827-2.711,2.965-3.876l13.221,13.222L188.787,53.308z M192.105,49.078c1.165-1.138,2.47-2.127,3.876-2.965
		l9.345,16.187L192.105,49.078z M196.409,45.853c1.409-0.794,2.922-1.419,4.511-1.866l4.84,18.062L196.409,45.853z M206.242,60.917
		c-0.04,0.193-0.074,0.388-0.112,0.582l-4.726-17.638c1.553-0.396,3.169-0.629,4.838-0.649V60.917z M185.387,63.569h-3.136
		c0.134-13.253,10.956-23.993,24.241-23.993c3.207,0,6.308,0.62,9.236,1.83c-0.701,0.836-1.367,1.702-2.006,2.589
		c-2.314-0.845-4.739-1.294-7.231-1.294C194.932,42.701,185.523,52.04,185.387,63.569z M213.421,44.418
		c-0.926,1.316-1.787,2.68-2.569,4.095l1.216-4.539C212.525,44.103,212.973,44.258,213.421,44.418z M206.742,43.213
		c1.648,0.02,3.265,0.243,4.84,0.644l-1.797,6.705c-1.271,2.61-2.296,5.361-3.043,8.223V43.213z M212.82,69.318
		c0.056-2.803,0.419-5.531,1.065-8.15l30.417,8.15H212.82z M214.277,59.72c0.773-2.665,1.832-5.209,3.15-7.592l27.265,15.741
		L214.277,59.72z M218.175,50.828c1.429-2.355,3.118-4.532,5.017-6.508l22.251,22.251L218.175,50.828z M224.252,43.259
		c1.976-1.898,4.153-3.588,6.508-5.016l15.742,27.267L224.252,43.259z M232.06,37.495c2.383-1.318,4.927-2.376,7.592-3.15
		l8.149,30.414L232.06,37.495z M249.25,64.371l-8.15-30.417c2.619-0.646,5.347-1.009,8.15-1.065V64.371z M250.75,64.371V32.889
		c2.803,0.056,5.531,0.419,8.15,1.065L250.75,64.371z M260.348,34.345c2.665,0.773,5.209,1.832,7.592,3.15l-15.741,27.264
		L260.348,34.345z M269.24,38.243c2.354,1.429,4.532,3.118,6.508,5.016l-22.25,22.25L269.24,38.243z M276.809,44.32
		c1.898,1.976,3.587,4.153,5.016,6.508l-27.267,15.743L276.809,44.32z M282.573,52.128c1.318,2.383,2.376,4.927,3.149,7.592
		l-30.414,8.149L282.573,52.128z M255.698,69.318l30.417-8.15c0.646,2.619,1.009,5.347,1.065,8.15H255.698z M287.679,69.318
		C287.277,48.877,270.536,32.37,250,32.37s-37.277,16.508-37.68,36.949h-5.517C207.204,45.84,226.428,26.865,250,26.865
		s42.796,18.975,43.196,42.454H287.679z M286.579,44.418c0.448-0.16,0.896-0.316,1.353-0.444l1.216,4.54
		C288.366,47.099,287.505,45.735,286.579,44.418z M293.258,58.785c-0.747-2.864-1.773-5.616-3.045-8.227l-1.796-6.702
		c1.575-0.401,3.192-0.624,4.841-0.644V58.785z M286.277,43.994c-0.639-0.887-1.305-1.752-2.006-2.588
		c2.928-1.209,6.03-1.83,9.236-1.83c13.284,0,24.107,10.74,24.241,23.993h-3.136c-0.136-11.529-9.545-20.868-21.105-20.868
		C291.016,42.701,288.591,43.149,286.277,43.994z M293.87,61.501c-0.038-0.194-0.072-0.39-0.113-0.584V43.213
		c1.67,0.02,3.286,0.253,4.839,0.649L293.87,61.501z M299.081,43.987c1.589,0.447,3.101,1.072,4.51,1.866l-9.35,16.196
		L299.081,43.987z M410.229,74.18c-1.155,0-2.098,0.878-2.225,2H250H91.995c-0.126-1.122-1.07-2-2.225-2
		c-1.241,0-2.25,1.009-2.25,2.25s1.009,2.25,2.25,2.25c1.155,0,2.099-0.878,2.225-2H250h158.005c0.126,1.122,1.07,2,2.225,2
		c1.24,0,2.25-1.009,2.25-2.25S411.47,74.18,410.229,74.18z M89.771,78.18c-0.965,0-1.75-0.785-1.75-1.75
		c0-0.965,0.785-1.75,1.75-1.75c0.965,0,1.75,0.785,1.75,1.75C91.521,77.395,90.735,78.18,89.771,78.18z M410.229,78.18
		c-0.965,0-1.75-0.785-1.75-1.75c0-0.965,0.785-1.75,1.75-1.75c0.965,0,1.75,0.785,1.75,1.75
		C411.979,77.395,411.194,78.18,410.229,78.18z"/>
	<g>
		
			<linearGradient id="SVGID_00000045614713932162614830000012796562051885952657_" gradientUnits="userSpaceOnUse" x1="263.3878" y1="115.011" x2="263.8878" y2="115.011" gradientTransform="matrix(0 -1 1 0 134.9887 365.0113)">
			<stop  offset="0" style="stop-color:#AF6A23"/>
			<stop  offset="0.0211" style="stop-color:#BB7C25"/>
			<stop  offset="0.071" style="stop-color:#D5A12B"/>
			<stop  offset="0.1113" style="stop-color:#E5B82E"/>
			<stop  offset="0.1368" style="stop-color:#EBC02F"/>
			<stop  offset="0.1574" style="stop-color:#E8BA2D"/>
			<stop  offset="0.1855" style="stop-color:#E0A828"/>
			<stop  offset="0.2177" style="stop-color:#D38C1F"/>
			<stop  offset="0.2486" style="stop-color:#C46A15"/>
			<stop  offset="0.5017" style="stop-color:#EBC957"/>
			<stop  offset="0.5468" style="stop-color:#E8C353"/>
			<stop  offset="0.609" style="stop-color:#E1B146"/>
			<stop  offset="0.6811" style="stop-color:#D59432"/>
			<stop  offset="0.7602" style="stop-color:#C56B16"/>
			<stop  offset="0.7625" style="stop-color:#C46A15"/>
			<stop  offset="0.8694" style="stop-color:#EBC02F"/>
			<stop  offset="0.9023" style="stop-color:#E9BA2D"/>
			<stop  offset="0.947" style="stop-color:#E3A829"/>
			<stop  offset="0.9983" style="stop-color:#DA8C21"/>
			<stop  offset="1" style="stop-color:#DA8B21"/>
		</linearGradient>
		
			<rect x="243.513" y="101.123" style="fill:url(#SVGID_00000045614713932162614830000012796562051885952657_);" width="12.973" height="0.5"/>
	</g>
	
		<linearGradient id="SVGID_00000006693857998036137640000016600212739618021046_" gradientUnits="userSpaceOnUse" x1="111.8381" y1="219.2327" x2="384.4698" y2="38.8761">
		<stop  offset="0" style="stop-color:#AF6A23"/>
		<stop  offset="0.0211" style="stop-color:#BB7C25"/>
		<stop  offset="0.071" style="stop-color:#D5A12B"/>
		<stop  offset="0.1113" style="stop-color:#E5B82E"/>
		<stop  offset="0.1368" style="stop-color:#EBC02F"/>
		<stop  offset="0.1574" style="stop-color:#E8BA2D"/>
		<stop  offset="0.1855" style="stop-color:#E0A828"/>
		<stop  offset="0.2177" style="stop-color:#D38C1F"/>
		<stop  offset="0.2486" style="stop-color:#C46A15"/>
		<stop  offset="0.5017" style="stop-color:#EBC957"/>
		<stop  offset="0.5468" style="stop-color:#E8C353"/>
		<stop  offset="0.609" style="stop-color:#E1B146"/>
		<stop  offset="0.6811" style="stop-color:#D59432"/>
		<stop  offset="0.7602" style="stop-color:#C56B16"/>
		<stop  offset="0.7625" style="stop-color:#C46A15"/>
		<stop  offset="0.8694" style="stop-color:#EBC02F"/>
		<stop  offset="0.9023" style="stop-color:#E9BA2D"/>
		<stop  offset="0.947" style="stop-color:#E3A829"/>
		<stop  offset="0.9983" style="stop-color:#DA8C21"/>
		<stop  offset="1" style="stop-color:#DA8B21"/>
	</linearGradient>
	<path style="fill:url(#SVGID_00000006693857998036137640000016600212739618021046_);" d="M412.227,127.083l-9.107-9.107h-91.236
		l-8.797,8.797l-17.714-17.714h-33.968l6.142-6.142L250,95.369l-7.547,7.547l6.142,6.142h-33.968l-17.714,17.714l-8.797-8.797H96.88
		l-9.107,9.107H59.899v1.5h27.874l9.107,9.107h91.236l8.797-8.797l17.714,17.714h33.967l-6.142,6.142l7.547,7.547l7.547-7.547
		l-6.141-6.142h33.967l17.714-17.714l8.797,8.797h91.236l9.107-9.107h27.874v-1.5H412.227z M185.995,119.476l-7.607,7.607h-71.779
		l-7.607-7.607H185.995z M97.44,120.036l7.047,7.047H97.44V120.036z M96.94,135.63l-7.047-7.047h7.047V135.63z M96.94,127.083
		h-7.047l7.047-7.047V127.083z M97.44,128.583h7.047l-7.047,7.047V128.583z M99.001,136.19l7.607-7.607h71.779l7.607,7.607H99.001z
		 M187.555,135.63l-7.047-7.047h7.047V135.63z M187.555,127.083h-7.047l7.047-7.047V127.083z M188.055,135.63v-7.047h7.047
		L188.055,135.63z M188.055,127.083v-7.047l7.047,7.047H188.055z M283.252,110.559l-16.525,16.524H256.4l16.525-16.524H283.252z
		 M250.25,97.74l5.176,5.176l-5.176,5.176V97.74z M244.574,102.916l5.176-5.176v10.353L244.574,102.916z M250,110.559h9.231
		L250,119.79l-9.231-9.231H250z M238.647,110.559L250,121.911l11.353-11.353h10.866l-16.525,16.524h-11.387l-16.525-16.524H238.647z
		 M227.075,110.559l16.524,16.524h-10.327l-16.524-16.524H227.075z M214.938,110.869l16.214,16.214h-32.428L214.938,110.869z
		 M198.723,128.583h32.428l-16.214,16.214L198.723,128.583z M216.748,145.108l16.524-16.525h10.327l-16.524,16.525H216.748z
		 M249.75,157.926l-5.176-5.176l0.155-0.155h5.021V157.926z M249.75,152.095h-4.521l4.521-4.521V152.095z M255.426,152.749
		l-5.176,5.176v-5.331h5.021L255.426,152.749z M254.771,152.095h-4.521v-4.521L254.771,152.095z M250,145.108h-9.232l9.232-9.232
		l9.232,9.232H250z M261.353,145.108L250,133.755l-11.353,11.353h-10.866l16.525-16.525h11.387l16.525,16.525H261.353z
		 M272.926,145.108L256.4,128.583h10.327l16.525,16.525H272.926z M285.063,144.797l-16.214-16.214h32.428L285.063,144.797z
		 M268.849,127.083l16.214-16.214l16.214,16.214H268.849z M400.999,119.476l-7.607,7.607h-71.779l-7.607-7.607H400.999z
		 M312.444,120.036l7.047,7.047h-7.047V120.036z M311.944,135.63l-7.047-7.047h7.047V135.63z M311.944,127.083h-7.047l7.047-7.047
		V127.083z M312.444,128.583h7.047l-7.047,7.047V128.583z M314.005,136.19l7.607-7.607h71.779l7.607,7.607H314.005z M402.56,135.63
		l-7.047-7.047h7.047V135.63z M402.56,127.083h-7.047l7.047-7.047V127.083z M403.06,135.63v-7.047h7.047L403.06,135.63z
		 M403.06,127.083v-7.047l7.047,7.047H403.06z"/>
	
		<linearGradient id="SVGID_00000043416260495380583810000009682274262751897994_" gradientUnits="userSpaceOnUse" x1="111.888" y1="297.1028" x2="384.4208" y2="116.8117">
		<stop  offset="0" style="stop-color:#AF6A23"/>
		<stop  offset="0.0211" style="stop-color:#BB7C25"/>
		<stop  offset="0.071" style="stop-color:#D5A12B"/>
		<stop  offset="0.1113" style="stop-color:#E5B82E"/>
		<stop  offset="0.1368" style="stop-color:#EBC02F"/>
		<stop  offset="0.1574" style="stop-color:#E8BA2D"/>
		<stop  offset="0.1855" style="stop-color:#E0A828"/>
		<stop  offset="0.2177" style="stop-color:#D38C1F"/>
		<stop  offset="0.2486" style="stop-color:#C46A15"/>
		<stop  offset="0.5017" style="stop-color:#EBC957"/>
		<stop  offset="0.5468" style="stop-color:#E8C353"/>
		<stop  offset="0.609" style="stop-color:#E1B146"/>
		<stop  offset="0.6811" style="stop-color:#D59432"/>
		<stop  offset="0.7602" style="stop-color:#C56B16"/>
		<stop  offset="0.7625" style="stop-color:#C46A15"/>
		<stop  offset="0.8694" style="stop-color:#EBC02F"/>
		<stop  offset="0.9023" style="stop-color:#E9BA2D"/>
		<stop  offset="0.947" style="stop-color:#E3A829"/>
		<stop  offset="0.9983" style="stop-color:#DA8C21"/>
		<stop  offset="1" style="stop-color:#DA8B21"/>
	</linearGradient>
	<path style="fill:url(#SVGID_00000043416260495380583810000009682274262751897994_);" d="M440.032,204.986h-37.156l10.127-10.127
		h-94.866c-0.128-1.261-1.183-2.253-2.478-2.253c-1.38,0-2.502,1.123-2.502,2.503s1.122,2.502,2.502,2.502
		c1.294,0,2.35-0.991,2.478-2.252h93.659l-9.627,9.627h-0.793l-4.9-4.9H275.138c-1.594-1.848-3.947-3.025-6.574-3.025
		c-2.123,0-4.068,0.768-5.578,2.037l-6.341-6.341c1.272-1.511,2.042-3.459,2.042-5.584c0-4.79-3.896-8.687-8.686-8.687
		c-4.79,0-8.687,3.897-8.687,8.687c0,2.125,0.77,4.073,2.042,5.584l-6.335,6.335c-1.511-1.272-3.458-2.042-5.584-2.042
		c-2.632,0-4.99,1.181-6.584,3.037H103.524l-4.9,4.9h-0.793l-9.627-9.627h93.659c0.128,1.261,1.183,2.252,2.477,2.252
		c1.38,0,2.502-1.122,2.502-2.502s-1.123-2.503-2.502-2.503c-1.294,0-2.35,0.991-2.477,2.253H86.997l10.127,10.127H59.968v1.5
		h37.156l-10.127,10.127h94.866c0.128,1.261,1.183,2.252,2.477,2.252c1.38,0,2.502-1.123,2.502-2.502s-1.123-2.503-2.502-2.503
		c-1.294,0-2.35,0.991-2.477,2.253H88.204l9.627-9.627h0.793l4.9,4.9h121.328c1.594,1.855,3.952,3.037,6.584,3.037
		c2.125,0,4.073-0.77,5.584-2.042l6.335,6.335c-1.272,1.511-2.042,3.458-2.042,5.584c0,4.79,3.897,8.686,8.687,8.686
		c4.79,0,8.686-3.897,8.686-8.686c0-2.125-0.77-4.073-2.042-5.584l6.329-6.329c1.512,1.275,3.461,2.047,5.59,2.047
		c2.638,0,5-1.186,6.595-3.048h121.318l4.9-4.9h0.793l9.627,9.627h-93.659c-0.128-1.261-1.183-2.253-2.478-2.253
		c-1.38,0-2.502,1.123-2.502,2.503s1.122,2.502,2.502,2.502c1.294,0,2.35-0.991,2.478-2.252h94.866l-10.127-10.127h37.156V204.986z
		 M315.659,197.112c-1.103,0-2.002-0.898-2.002-2.002c0-1.104,0.898-2.003,2.002-2.003c1.105,0,2.003,0.898,2.003,2.003
		C317.662,196.213,316.764,197.112,315.659,197.112z M184.34,193.107c1.104,0,2.002,0.898,2.002,2.003
		c0,1.104-0.898,2.002-2.002,2.002c-1.104,0-2.002-0.898-2.002-2.002C182.338,194.005,183.236,193.107,184.34,193.107z
		 M184.34,214.361c1.104,0,2.002,0.898,2.002,2.003s-0.898,2.002-2.002,2.002c-1.104,0-2.002-0.898-2.002-2.002
		S183.236,214.361,184.34,214.361z M275.709,204.986h-1.552c-0.267-1.969-1.549-3.618-3.303-4.4h2.7
		C274.733,201.728,275.527,203.266,275.709,204.986z M263.414,205.734c0.003-1.147,0.395-2.196,1.034-3.051l3.054,3.054
		l-3.064,3.064c-0.636-0.857-1.026-1.906-1.026-3.053c0-0.003,0.001-0.005,0.001-0.008l0.003-0.003L263.414,205.734z
		 M265.51,201.623c0.857-0.636,1.906-1.026,3.053-1.026c2.579,0,4.702,1.912,5.073,4.389h-4.763L265.51,201.623z M268.874,206.486
		h4.765c-0.357,2.451-2.429,4.345-4.965,4.4h-0.111v0.011c-1.152,0-2.206-0.394-3.065-1.036L268.874,206.486z M268.564,198.561
		c1.663,0,3.192,0.573,4.412,1.525h-4.412v0.011c-1.285,0-2.467,0.436-3.417,1.161l-1.096-1.096
		C265.285,199.163,266.855,198.561,268.564,198.561z M262.988,201.221l1.096,1.096c-0.637,0.83-1.051,1.839-1.146,2.94l-1.321-1.321
		C261.88,202.93,262.35,202.006,262.988,201.221z M262.71,205.736l-1.223,1.223c-0.067-0.395-0.11-0.798-0.11-1.211
		c0-0.421,0.044-0.83,0.113-1.231L262.71,205.736z M261.924,200.158c-0.642,0.761-1.149,1.635-1.501,2.585l-7.427-7.427
		c0.951-0.351,1.826-0.857,2.588-1.498L261.924,200.158z M260.237,208.209l-7.767,7.767c-0.784-0.233-1.612-0.363-2.47-0.363
		c-0.859,0-1.686,0.13-2.47,0.363l-7.77-7.77c0.233-0.784,0.363-1.612,0.363-2.47c0-0.858-0.13-1.686-0.363-2.47l7.77-7.77
		c0.784,0.233,1.612,0.363,2.47,0.363c0.858,0,1.686-0.13,2.47-0.363l7.772,7.772c-0.235,0.786-0.365,1.617-0.365,2.479
		C259.877,206.603,260.006,207.428,260.237,208.209z M250,218.446l-1.221-1.221c0.398-0.069,0.804-0.112,1.221-0.112
		s0.823,0.043,1.221,0.112L250,218.446z M250.003,219.15c1.148,0.001,2.199,0.392,3.056,1.03L250,223.239l-3.059-3.059
		c0.857-0.638,1.907-1.03,3.056-1.03l0.003,0.003L250.003,219.15z M249.521,218.674c-1.102,0.093-2.113,0.505-2.944,1.142
		l-1.096-1.096c0.786-0.638,1.71-1.107,2.717-1.368L249.521,218.674z M250,225.36l4.12-4.12c0.639,0.858,1.031,1.91,1.031,3.059
		c0,2.84-2.311,5.15-5.15,5.15c-2.84,0-5.15-2.31-5.15-5.15c0-1.149,0.392-2.201,1.031-3.059L250,225.36z M253.423,219.816
		c-0.832-0.637-1.842-1.048-2.944-1.142l1.323-1.323c1.008,0.262,1.932,0.731,2.717,1.368L253.423,219.816z M250,193.026
		l1.221,1.221c-0.398,0.069-0.804,0.112-1.221,0.112s-0.824-0.043-1.221-0.112L250,193.026z M249.997,192.322
		c-1.148-0.001-2.199-0.392-3.056-1.03l3.059-3.059l3.059,3.059c-0.857,0.638-1.908,1.029-3.056,1.03L250,192.319L249.997,192.322z
		 M250.479,192.798c1.102-0.093,2.113-0.505,2.944-1.142l1.096,1.096c-0.786,0.638-1.71,1.107-2.717,1.368L250.479,192.798z
		 M250,186.112l-4.119,4.119c-0.639-0.858-1.031-1.91-1.031-3.059c0-2.84,2.31-5.15,5.15-5.15c2.84,0,5.15,2.31,5.15,5.15
		c0,1.15-0.392,2.201-1.031,3.059L250,186.112z M246.576,191.657c0.832,0.637,1.842,1.048,2.944,1.142l-1.323,1.323
		c-1.008-0.262-1.932-0.731-2.717-1.368L246.576,191.657z M242.813,187.173c0-3.963,3.224-7.187,7.187-7.187
		c3.963,0,7.186,3.224,7.186,7.187c0,1.712-0.604,3.284-1.606,4.52l-1.096-1.096c0.728-0.951,1.166-2.136,1.166-3.424
		c0-3.115-2.535-5.65-5.65-5.65c-3.115,0-5.65,2.535-5.65,5.65c0,1.288,0.438,2.472,1.166,3.423l-1.096,1.096
		C243.417,190.457,242.813,188.885,242.813,187.173z M244.416,193.817c0.762,0.641,1.637,1.147,2.587,1.498l-7.424,7.424
		c-0.351-0.951-0.857-1.826-1.498-2.588L244.416,193.817z M238.623,205.736c0,0.417-0.043,0.824-0.112,1.221l-1.221-1.221
		l1.221-1.221C238.58,204.913,238.623,205.319,238.623,205.736z M238.385,203.934l-1.323,1.323
		c-0.093-1.102-0.505-2.113-1.142-2.944l1.096-1.096C237.654,202.002,238.123,202.926,238.385,203.934z M236.586,205.739
		c-0.001,1.148-0.392,2.199-1.03,3.056l-3.059-3.059l3.059-3.059c0.638,0.857,1.029,1.908,1.03,3.056l-0.003,0.003L236.586,205.739z
		 M231.126,206.486l3.369,3.37c-0.858,0.639-1.91,1.03-3.059,1.03c-2.583,0-4.707-1.917-5.074-4.4H231.126z M226.362,204.986
		c0.367-2.483,2.491-4.4,5.074-4.4c1.149,0,2.201,0.392,3.059,1.031l-3.369,3.369H226.362z M231.436,198.55
		c1.712,0,3.284,0.604,4.52,1.606l-1.096,1.096c-0.951-0.728-2.136-1.166-3.424-1.166h-4.427
		C228.231,199.127,229.766,198.55,231.436,198.55z M226.435,200.586h2.69c-1.746,0.787-3.02,2.434-3.283,4.4h-1.553
		C224.469,203.267,225.258,201.729,226.435,200.586z M103.731,200.586h120.727c-0.928,1.254-1.529,2.76-1.67,4.4H99.331
		L103.731,200.586z M103.731,210.886l-4.4-4.4h123.457c0.141,1.64,0.742,3.146,1.67,4.4H103.731z M224.29,206.486h1.553
		c0.263,1.966,1.536,3.613,3.283,4.4h-2.69C225.258,209.743,224.469,208.205,224.29,206.486z M231.436,212.923
		c-1.67,0-3.205-0.577-4.427-1.537h4.427c1.288,0,2.472-0.438,3.424-1.166l1.096,1.096
		C234.72,212.319,233.148,212.923,231.436,212.923z M237.017,210.256l-1.096-1.096c0.637-0.832,1.048-1.842,1.142-2.944l1.323,1.323
		C238.123,208.546,237.654,209.47,237.017,210.256z M238.081,211.32c0.641-0.762,1.147-1.637,1.498-2.587l7.424,7.424
		c-0.951,0.351-1.826,0.857-2.587,1.499L238.081,211.32z M257.186,224.3c0,3.963-3.224,7.186-7.186,7.186
		c-3.963,0-7.187-3.224-7.187-7.186c0-1.712,0.604-3.284,1.606-4.52l1.096,1.096c-0.728,0.951-1.166,2.136-1.166,3.424
		c0,3.115,2.535,5.65,5.65,5.65c3.115,0,5.65-2.535,5.65-5.65c0-1.288-0.438-2.472-1.166-3.424l1.096-1.096
		C256.583,221.016,257.186,222.588,257.186,224.3z M255.584,217.655c-0.762-0.641-1.637-1.147-2.588-1.498l7.421-7.421
		c0.35,0.951,0.855,1.827,1.496,2.59L255.584,217.655z M261.612,207.541l1.324-1.324c0.091,1.103,0.502,2.115,1.138,2.948
		l-1.096,1.096C262.341,209.474,261.873,208.549,261.612,207.541z M268.564,212.934c-1.715,0-3.29-0.605-4.526-1.611l1.096-1.096
		c0.952,0.731,2.14,1.171,3.43,1.171c0.075,0,0.147-0.008,0.221-0.011h4.22C271.781,212.352,270.24,212.934,268.564,212.934z
		 M273.578,210.886h-2.679c1.738-0.793,3.003-2.438,3.261-4.4h1.552C275.536,208.204,274.75,209.742,273.578,210.886z
		 M396.269,210.886H275.551c0.925-1.254,1.523-2.761,1.662-4.4h123.456L396.269,210.886z M277.211,204.986
		c-0.143-1.64-0.747-3.147-1.677-4.4h120.734l4.4,4.4H277.211z M315.659,218.366c-1.103,0-2.002-0.898-2.002-2.002
		s0.898-2.003,2.002-2.003c1.105,0,2.003,0.898,2.003,2.003S316.764,218.366,315.659,218.366z"/>
	
		<linearGradient id="SVGID_00000070108165459475017750000014157076811816810637_" gradientUnits="userSpaceOnUse" x1="111.8381" y1="455.3206" x2="384.4698" y2="274.964">
		<stop  offset="0" style="stop-color:#AF6A23"/>
		<stop  offset="0.0211" style="stop-color:#BB7C25"/>
		<stop  offset="0.071" style="stop-color:#D5A12B"/>
		<stop  offset="0.1113" style="stop-color:#E5B82E"/>
		<stop  offset="0.1368" style="stop-color:#EBC02F"/>
		<stop  offset="0.1574" style="stop-color:#E8BA2D"/>
		<stop  offset="0.1855" style="stop-color:#E0A828"/>
		<stop  offset="0.2177" style="stop-color:#D38C1F"/>
		<stop  offset="0.2486" style="stop-color:#C46A15"/>
		<stop  offset="0.5017" style="stop-color:#EBC957"/>
		<stop  offset="0.5468" style="stop-color:#E8C353"/>
		<stop  offset="0.609" style="stop-color:#E1B146"/>
		<stop  offset="0.6811" style="stop-color:#D59432"/>
		<stop  offset="0.7602" style="stop-color:#C56B16"/>
		<stop  offset="0.7625" style="stop-color:#C46A15"/>
		<stop  offset="0.8694" style="stop-color:#EBC02F"/>
		<stop  offset="0.9023" style="stop-color:#E9BA2D"/>
		<stop  offset="0.947" style="stop-color:#E3A829"/>
		<stop  offset="0.9983" style="stop-color:#DA8C21"/>
		<stop  offset="1" style="stop-color:#DA8B21"/>
	</linearGradient>
	<path style="fill:url(#SVGID_00000070108165459475017750000014157076811816810637_);" d="M440.102,363.171H403.46l9.412-8.632
		h-93.744c-2.405-2.408-5.728-3.9-9.393-3.9c-2.017,0-3.922,0.465-5.636,1.272c-3.287-3.636-8.023-5.938-13.299-5.938
		c-0.244,0-0.482,0.027-0.723,0.037c-4.339-3.994-10.126-6.439-16.475-6.439c-6.247,0-11.95,2.366-16.265,6.247
		c-4.157-6.202-6.586-13.655-6.586-21.666h-1.5c0,8.011-2.43,15.464-6.586,21.666c-4.315-3.881-10.018-6.247-16.265-6.247
		c-6.349,0-12.136,2.445-16.476,6.439c-0.242-0.01-0.479-0.037-0.723-0.037c-5.276,0-10.013,2.302-13.3,5.938
		c-1.714-0.807-3.619-1.272-5.636-1.272c-3.665,0-6.987,1.492-9.393,3.9H87.128l9.413,8.632H59.899v1.5h36.642l-9.413,8.633h93.745
		c2.406,2.408,5.728,3.9,9.392,3.9c2.017,0,3.923-0.465,5.636-1.273c3.287,3.636,8.023,5.938,13.299,5.938
		c0.244,0,0.48-0.027,0.722-0.036c4.34,3.995,10.127,6.44,16.477,6.44c6.247,0,11.95-2.366,16.265-6.247
		c4.157,6.202,6.586,13.655,6.586,21.666h1.5c0-8.011,2.429-15.464,6.586-21.666c4.315,3.881,10.018,6.247,16.265,6.247
		c6.349,0,12.136-2.445,16.476-6.44c0.241,0.01,0.479,0.037,0.723,0.037c5.276,0,10.012-2.302,13.299-5.938
		c1.714,0.808,3.62,1.273,5.637,1.273c3.665,0,6.987-1.492,9.393-3.9h93.744l-9.412-8.633h36.641V363.171z M321.48,363.171h-2.4
		c-0.302-3.794-2.868-6.954-6.346-8.132h4.72C319.76,357.046,321.274,359.931,321.48,363.171z M303.044,363.171h-2.153
		c0.119-1.414,0.573-2.731,1.279-3.88C302.663,360.5,302.961,361.806,303.044,363.171z M302.498,358.789
		c0.745-1.047,1.708-1.924,2.827-2.567c1.112,2.09,1.772,4.449,1.885,6.949h-3.666C303.453,361.621,303.095,360.144,302.498,358.789
		z M300.391,363.171h-2.4c0.159-2.51,1.097-4.809,2.589-6.651c0.522,0.688,0.972,1.43,1.341,2.22
		C301.062,360.03,300.52,361.543,300.391,363.171z M297.435,358.927c-0.483-2.307-1.293-4.494-2.38-6.512
		c1.728,0.641,3.275,1.652,4.537,2.949C298.697,356.423,297.966,357.623,297.435,358.927z M296.433,363.171h-5.421
		c-0.177-4.133-1.79-7.891-4.363-10.795c1.299-0.469,2.692-0.737,4.151-0.737c0.748,0,1.477,0.078,2.188,0.207
		C295.056,355.153,296.298,359.023,296.433,363.171z M290.512,363.171h-0.742c-3.827,0-7.524-0.563-11.021-1.595
		c0.795-4.093,3.626-7.463,7.395-9.014C288.714,355.397,290.332,359.095,290.512,363.171z M278.556,363.171
		c0.002-0.031,0.003-0.062,0.005-0.092c0.098,0.028,0.193,0.065,0.292,0.092H278.556z M278.852,364.671
		c-0.099,0.028-0.193,0.064-0.292,0.092c-0.002-0.031-0.003-0.062-0.005-0.092H278.852z M278.264,361.438
		c-1.181-0.365-2.336-0.787-3.467-1.258c1.055-4.511,3.964-8.309,7.884-10.545c1.132,0.722,2.174,1.57,3.103,2.533
		C281.958,353.805,279.091,357.258,278.264,361.438z M278.055,363.171h-3.666c0.023-0.509,0.067-1.011,0.135-1.507
		c1.156,0.472,2.337,0.893,3.543,1.258C278.062,363.005,278.06,363.088,278.055,363.171z M278.068,364.919
		c-1.206,0.365-2.387,0.786-3.543,1.258c-0.069-0.496-0.112-0.998-0.135-1.507h3.666
		C278.06,364.754,278.062,364.837,278.068,364.919z M273.409,359.562c-4.261-1.977-8.109-4.695-11.373-7.996
		c3.032-2.84,7.093-4.594,11.566-4.594c2.73,0,5.302,0.664,7.589,1.815C277.371,351.222,274.54,355.054,273.409,359.562z
		 M273.1,361.072c-0.111,0.688-0.181,1.388-0.21,2.099h-16.198c0.178-4.039,1.769-7.709,4.3-10.534
		C264.458,356.139,268.556,359.012,273.1,361.072z M272.89,364.671c0.03,0.711,0.1,1.411,0.21,2.099
		c-4.544,2.06-8.642,4.933-12.109,8.435c-2.531-2.825-4.122-6.494-4.3-10.534H272.89z M273.409,368.28
		c1.131,4.509,3.962,8.341,7.781,10.774c-2.286,1.151-4.859,1.815-7.588,1.815c-4.472,0-8.534-1.754-11.565-4.594
		C265.3,372.974,269.148,370.256,273.409,368.28z M274.797,367.663c1.13-0.471,2.286-0.893,3.467-1.259
		c0.826,4.18,3.694,7.633,7.52,9.272c-0.929,0.962-1.97,1.81-3.102,2.532C278.761,375.971,275.853,372.173,274.797,367.663z
		 M278.748,366.266c3.498-1.032,7.194-1.595,11.021-1.595h0.742c-0.18,4.076-1.798,7.775-4.369,10.61
		C282.374,373.73,279.543,370.359,278.748,366.266z M291.012,364.671h5.421c-0.135,4.148-1.378,8.019-3.445,11.327
		c-0.711,0.129-1.44,0.207-2.188,0.207c-1.459,0-2.852-0.269-4.151-0.737C289.221,372.562,290.835,368.804,291.012,364.671z
		 M297.435,368.915c0.531,1.304,1.262,2.504,2.158,3.564c-1.262,1.297-2.81,2.308-4.538,2.949
		C296.142,373.41,296.952,371.223,297.435,368.915z M297.99,364.671h2.4c0.13,1.629,0.672,3.142,1.53,4.431
		c-0.369,0.79-0.819,1.532-1.341,2.22C299.087,369.48,298.149,367.181,297.99,364.671z M300.891,364.671h2.153
		c-0.083,1.365-0.381,2.671-0.875,3.88C301.463,367.402,301.01,366.085,300.891,364.671z M303.544,364.671h3.666
		c-0.114,2.501-0.773,4.86-1.885,6.95c-1.118-0.643-2.082-1.521-2.826-2.567C303.095,367.699,303.453,366.221,303.544,364.671z
		 M308.71,364.671h9.869c-0.383,4.548-4.199,8.133-8.844,8.133c-1.074,0-2.099-0.201-3.052-0.552
		C307.885,369.97,308.596,367.397,308.71,364.671z M308.71,363.171c-0.113-2.726-0.824-5.298-2.026-7.58
		c0.953-0.35,1.978-0.551,3.052-0.551c4.644,0,8.461,3.585,8.844,8.132H308.71z M309.735,352.139c2.667,0,5.122,0.901,7.098,2.4
		h-7.098c-1.16,0-2.267,0.221-3.294,0.608c-0.404-0.717-0.862-1.397-1.357-2.048C306.512,352.483,308.084,352.139,309.735,352.139z
		 M303.737,353.798c0.493,0.629,0.942,1.293,1.341,1.99c-1.103,0.634-2.061,1.485-2.824,2.495c-0.377-0.762-0.825-1.48-1.339-2.147
		C301.726,355.217,302.677,354.428,303.737,353.798z M302.745,352.648c-1.045,0.65-1.99,1.439-2.815,2.344
		c-1.445-1.477-3.241-2.607-5.255-3.249c-0.882-1.521-1.92-2.941-3.099-4.231C295.969,347.719,299.911,349.647,302.745,352.648z
		 M292.628,351.285c-0.599-0.086-1.206-0.146-1.829-0.146c-1.59,0-3.108,0.305-4.513,0.838c-0.93-0.987-1.966-1.872-3.102-2.622
		c1.918-1.007,4.056-1.64,6.323-1.818C290.675,348.672,291.723,349.926,292.628,351.285z M273.602,341.07
		c5.463,0,10.483,1.93,14.419,5.14c-2.278,0.357-4.412,1.138-6.322,2.268c-2.422-1.275-5.174-2.006-8.097-2.006
		c-4.606,0-8.788,1.807-11.91,4.733c-1.255-1.302-2.42-2.689-3.487-4.154C262.27,343.339,267.675,341.07,273.602,341.07z
		 M260.65,352.27c-2.628,2.918-4.28,6.717-4.459,10.901h-5.422c0.189-5.833,2.574-11.118,6.355-15.057
		C258.203,349.58,259.387,350.963,260.65,352.27z M256.255,346.853c-1.718,1.745-3.172,3.749-4.305,5.945
		c1.21-3.692,2.745-6.065,3.519-7.109C255.719,346.086,255.991,346.466,256.255,346.853z M255.196,345.223
		c-0.813,1.064-2.716,3.886-4.046,8.47c0.838-4.878,2.062-8.678,2.784-10.664C254.329,343.777,254.756,344.504,255.196,345.223z
		 M253.63,342.41c-0.631,1.679-1.814,5.16-2.709,9.753c0.524-5.024,1.237-9.358,1.693-11.877
		C252.929,341.007,253.275,341.711,253.63,342.41z M252.266,339.42c-0.394,2.102-1.093,6.137-1.656,10.996
		c0.251-5.479,0.575-10.434,0.778-13.331C251.656,337.875,251.952,338.651,252.266,339.42z M250.25,332.997
		c0.212,0.945,0.453,1.878,0.73,2.797c-0.157,2.151-0.463,6.56-0.73,11.745V332.997z M248.611,337.084
		c0.204,2.897,0.528,7.852,0.778,13.33c-0.562-4.86-1.261-8.894-1.655-10.995C248.048,338.65,248.344,337.874,248.611,337.084z
		 M247.386,340.285c0.456,2.519,1.17,6.854,1.694,11.88c-0.895-4.594-2.078-8.077-2.709-9.756
		C246.725,341.71,247.071,341.007,247.386,340.285z M246.066,343.029c0.722,1.986,1.946,5.786,2.784,10.665
		c-1.33-4.584-3.233-7.407-4.047-8.471C245.244,344.504,245.671,343.777,246.066,343.029z M244.53,345.689
		c0.774,1.044,2.309,3.416,3.519,7.108c-1.133-2.196-2.587-4.199-4.304-5.944C244.008,346.466,244.28,346.086,244.53,345.689z
		 M242.876,348.113c3.781,3.939,6.165,9.224,6.355,15.058h-5.422c-0.179-4.184-1.831-7.983-4.459-10.901
		C240.613,350.963,241.797,349.58,242.876,348.113z M221.945,363.171c-0.005-0.083-0.006-0.166-0.013-0.249
		c1.206-0.365,2.387-0.786,3.543-1.258c0.068,0.496,0.112,0.998,0.135,1.507H221.945z M225.611,364.671
		c-0.023,0.509-0.067,1.011-0.135,1.507c-1.156-0.472-2.337-0.893-3.543-1.258c0.006-0.082,0.008-0.166,0.013-0.249H225.611z
		 M218.811,348.788c2.286-1.151,4.859-1.815,7.588-1.815c4.472,0,8.533,1.754,11.565,4.594c-3.264,3.301-7.112,6.019-11.373,7.996
		C225.46,355.053,222.63,351.222,218.811,348.788z M225.203,360.179c-1.13,0.472-2.286,0.894-3.467,1.259
		c-0.827-4.179-3.694-7.632-7.52-9.271c0.929-0.962,1.97-1.81,3.103-2.532C221.24,351.871,224.148,355.668,225.203,360.179z
		 M221.147,363.171c0.099-0.028,0.194-0.064,0.293-0.093c0.002,0.031,0.003,0.062,0.005,0.093H221.147z M221.445,364.671
		c-0.002,0.031-0.003,0.062-0.005,0.093c-0.099-0.028-0.194-0.065-0.293-0.093H221.445z M221.252,361.575
		c-3.498,1.032-7.195,1.595-11.022,1.595h-0.741c0.18-4.076,1.798-7.774,4.369-10.609
		C217.626,354.112,220.457,357.483,221.252,361.575z M208.989,363.171h-5.422c0.135-4.148,1.377-8.018,3.445-11.326
		c0.712-0.129,1.441-0.207,2.189-0.207c1.458,0,2.852,0.269,4.151,0.737C210.779,355.28,209.166,359.038,208.989,363.171z
		 M202.564,358.927c-0.531-1.304-1.262-2.504-2.157-3.563c1.262-1.297,2.809-2.307,4.537-2.949
		C203.857,354.433,203.047,356.62,202.564,358.927z M202.009,363.171h-2.4c-0.13-1.628-0.672-3.142-1.529-4.431
		c0.369-0.79,0.819-1.532,1.341-2.219C200.912,358.362,201.85,360.661,202.009,363.171z M199.109,363.171h-2.153
		c0.083-1.364,0.381-2.67,0.875-3.88C198.537,360.44,198.99,361.757,199.109,363.171z M196.456,363.171h-3.666
		c0.114-2.5,0.773-4.859,1.885-6.949c1.118,0.643,2.082,1.52,2.827,2.567C196.905,360.144,196.547,361.621,196.456,363.171z
		 M191.29,363.171h-9.869c0.383-4.547,4.2-8.132,8.844-8.132c1.073,0,2.098,0.201,3.051,0.551
		C192.115,357.873,191.403,360.445,191.29,363.171z M191.29,364.671c0.113,2.727,0.825,5.299,2.027,7.581
		c-0.953,0.35-1.978,0.552-3.052,0.552c-4.645,0-8.462-3.585-8.844-8.133H191.29z M192.79,364.671h3.666
		c0.091,1.55,0.449,3.028,1.046,4.382c-0.745,1.047-1.708,1.924-2.826,2.567C193.563,369.531,192.904,367.172,192.79,364.671z
		 M196.956,364.671h2.153c-0.119,1.414-0.573,2.731-1.278,3.88C197.337,367.342,197.039,366.036,196.956,364.671z M199.609,364.671
		h2.4c-0.159,2.509-1.097,4.809-2.589,6.651c-0.522-0.688-0.971-1.43-1.341-2.219C198.938,367.813,199.48,366.3,199.609,364.671z
		 M202.564,368.916c0.483,2.307,1.293,4.494,2.38,6.512c-1.728-0.641-3.275-1.652-4.537-2.949
		C201.302,371.419,202.033,370.219,202.564,368.916z M203.566,364.671h5.422c0.177,4.133,1.79,7.892,4.363,10.796
		c-1.299,0.469-2.693,0.737-4.151,0.737c-0.748,0-1.477-0.078-2.189-0.207C204.944,372.69,203.701,368.819,203.566,364.671z
		 M209.489,364.671h0.741c3.828,0,7.525,0.563,11.022,1.595c-0.795,4.093-3.626,7.464-7.394,9.015
		C211.287,372.446,209.668,368.747,209.489,364.671z M221.736,366.404c1.181,0.365,2.336,0.787,3.467,1.259
		c-1.055,4.51-3.963,8.308-7.884,10.545c-1.132-0.722-2.174-1.57-3.102-2.532C218.042,374.037,220.91,370.584,221.736,366.404z
		 M226.591,368.28c4.261,1.977,8.109,4.695,11.372,7.996c-3.032,2.84-7.093,4.593-11.565,4.593c-2.73,0-5.302-0.664-7.588-1.815
		C222.629,376.62,225.46,372.789,226.591,368.28z M226.9,366.77c0.11-0.688,0.181-1.388,0.21-2.099h16.198
		c-0.178,4.039-1.769,7.709-4.3,10.534C235.542,371.703,231.444,368.831,226.9,366.77z M227.111,363.171
		c-0.03-0.712-0.1-1.411-0.21-2.099c4.544-2.06,8.642-4.933,12.109-8.435c2.531,2.825,4.122,6.494,4.3,10.534H227.111z
		 M226.399,341.07c5.926,0,11.331,2.268,15.396,5.981c-1.066,1.465-2.232,2.852-3.486,4.154c-3.122-2.926-7.304-4.732-11.91-4.732
		c-2.923,0-5.674,0.731-8.097,2.006c-1.911-1.131-4.045-1.912-6.323-2.268C215.915,343,220.935,341.07,226.399,341.07z
		 M210.492,347.538c2.268,0.178,4.406,0.811,6.324,1.818c-1.136,0.75-2.172,1.634-3.102,2.622c-1.406-0.533-2.923-0.838-4.513-0.838
		c-0.623,0-1.23,0.06-1.829,0.146C208.277,349.926,209.325,348.672,210.492,347.538z M208.423,347.512
		c-1.179,1.29-2.216,2.71-3.099,4.231c-2.014,0.643-3.81,1.772-5.255,3.249c-0.825-0.905-1.77-1.694-2.815-2.345
		C200.089,349.647,204.03,347.719,208.423,347.512z M196.263,353.798c1.059,0.63,2.01,1.419,2.822,2.338
		c-0.515,0.667-0.963,1.385-1.339,2.147c-0.763-1.01-1.722-1.861-2.824-2.495C195.321,355.091,195.77,354.427,196.263,353.798z
		 M190.265,352.139c1.651,0,3.223,0.344,4.65,0.96c-0.495,0.652-0.953,1.331-1.357,2.048c-1.027-0.387-2.133-0.608-3.294-0.608
		h-7.098C185.144,353.04,187.598,352.139,190.265,352.139z M182.548,355.039h4.719c-3.478,1.178-6.044,4.338-6.346,8.132h-2.4
		C178.726,359.931,180.24,357.046,182.548,355.039z M88.413,355.039h92.005c-1.97,2.181-3.221,5.011-3.397,8.132H97.28
		L88.413,355.039z M88.413,372.804l8.867-8.133h79.741c0.176,3.121,1.428,5.951,3.397,8.133H88.413z M178.521,364.671h2.4
		c0.302,3.795,2.868,6.955,6.346,8.133h-4.719C180.241,370.796,178.726,367.911,178.521,364.671z M190.265,375.704
		c-2.666,0-5.121-0.901-7.098-2.4h7.098c1.16,0,2.267-0.222,3.294-0.608c0.404,0.717,0.862,1.396,1.357,2.048
		C193.488,375.359,191.916,375.704,190.265,375.704z M196.264,374.044c-0.493-0.629-0.942-1.292-1.341-1.99
		c1.102-0.634,2.061-1.485,2.824-2.495c0.376,0.762,0.825,1.48,1.339,2.147C198.274,372.625,197.323,373.414,196.264,374.044z
		 M197.255,375.194c1.044-0.65,1.99-1.439,2.814-2.344c1.445,1.477,3.241,2.607,5.255,3.249c0.882,1.521,1.919,2.94,3.098,4.23
		C204.03,380.123,200.089,378.195,197.255,375.194z M207.371,376.558c0.599,0.086,1.207,0.146,1.829,0.146
		c1.591,0,3.108-0.305,4.514-0.839c0.93,0.987,1.966,1.871,3.102,2.621c-1.918,1.007-4.057,1.64-6.325,1.818
		C209.324,379.171,208.276,377.916,207.371,376.558z M226.399,386.772c-5.464,0-10.484-1.93-14.421-5.141
		c2.279-0.357,4.413-1.138,6.324-2.269c2.422,1.275,5.174,2.006,8.097,2.006c4.606,0,8.788-1.807,11.909-4.732
		c1.255,1.302,2.421,2.689,3.487,4.154C237.73,384.504,232.325,386.772,226.399,386.772z M239.35,375.572
		c2.628-2.918,4.28-6.717,4.459-10.901h5.422c-0.19,5.834-2.574,11.119-6.355,15.058
		C241.797,378.262,240.613,376.879,239.35,375.572z M243.745,380.99c1.717-1.745,3.171-3.748,4.304-5.944
		c-1.21,3.691-2.744,6.064-3.519,7.107C244.281,381.757,244.009,381.377,243.745,380.99z M244.804,382.619
		c0.814-1.064,2.716-3.887,4.047-8.471c-0.838,4.879-2.062,8.679-2.784,10.665C245.671,384.066,245.244,383.338,244.804,382.619z
		 M246.37,385.433c0.631-1.679,1.814-5.161,2.709-9.755c-0.524,5.026-1.237,9.361-1.694,11.879
		C247.071,386.835,246.725,386.132,246.37,385.433z M247.734,388.424c0.394-2.101,1.093-6.136,1.655-10.996
		c-0.251,5.478-0.574,10.433-0.778,13.33C248.344,389.968,248.048,389.192,247.734,388.424z M249.75,394.845
		c-0.212-0.945-0.453-1.878-0.73-2.797c0.157-2.152,0.462-6.56,0.73-11.746V394.845z M249.75,347.54
		c-0.268-5.186-0.573-9.594-0.73-11.746c0.277-0.919,0.518-1.852,0.73-2.797V347.54z M250.25,394.845v-14.543
		c0.267,5.186,0.573,9.594,0.73,11.745C250.703,392.967,250.462,393.9,250.25,394.845z M251.389,390.758
		c-0.204-2.898-0.528-7.853-0.778-13.332c0.562,4.86,1.262,8.895,1.656,10.997C251.952,389.191,251.656,389.967,251.389,390.758z
		 M252.614,387.556c-0.456-2.519-1.17-6.853-1.694-11.878c0.895,4.594,2.078,8.075,2.709,9.754
		C253.275,386.132,252.929,386.835,252.614,387.556z M253.934,384.814c-0.722-1.986-1.946-5.786-2.784-10.664
		c1.33,4.584,3.233,7.406,4.046,8.47C254.756,383.338,254.329,384.066,253.934,384.814z M255.469,382.153
		c-0.775-1.044-2.309-3.417-3.519-7.109c1.133,2.196,2.587,4.2,4.305,5.945C255.991,381.377,255.719,381.757,255.469,382.153z
		 M257.124,379.729c-3.781-3.94-6.165-9.225-6.355-15.058h5.422c0.179,4.184,1.831,7.982,4.459,10.901
		C259.387,376.879,258.203,378.262,257.124,379.729z M273.602,386.772c-5.926,0-11.332-2.268-15.397-5.981
		c1.066-1.465,2.232-2.852,3.487-4.154c3.122,2.925,7.304,4.732,11.91,4.732c2.922,0,5.674-0.731,8.097-2.006
		c1.911,1.131,4.045,1.912,6.323,2.268C284.086,384.842,279.065,386.772,273.602,386.772z M289.509,380.304
		c-2.268-0.178-4.406-0.811-6.324-1.818c1.136-0.75,2.172-1.634,3.102-2.621c1.406,0.533,2.923,0.839,4.514,0.839
		c0.622,0,1.23-0.06,1.828-0.146C291.723,377.916,290.675,379.17,289.509,380.304z M291.577,380.33
		c1.178-1.29,2.216-2.709,3.098-4.23c2.014-0.643,3.811-1.773,5.256-3.25c0.825,0.905,1.77,1.694,2.815,2.344
		C299.911,378.195,295.969,380.123,291.577,380.33z M303.736,374.044c-1.059-0.63-2.01-1.419-2.822-2.338
		c0.515-0.667,0.963-1.385,1.339-2.147c0.763,1.01,1.721,1.861,2.824,2.495C304.678,372.752,304.23,373.416,303.736,374.044z
		 M309.735,375.704c-1.652,0-3.223-0.345-4.651-0.961c0.495-0.652,0.953-1.331,1.357-2.048c1.027,0.387,2.134,0.609,3.294,0.609
		h7.098C314.856,374.803,312.402,375.704,309.735,375.704z M317.453,372.804h-4.719c3.478-1.178,6.044-4.338,6.346-8.133h2.4
		C321.274,367.911,319.76,370.796,317.453,372.804z M411.587,372.804h-92.004c1.97-2.182,3.222-5.012,3.397-8.133h79.74
		L411.587,372.804z M402.72,363.171H322.98c-0.176-3.12-1.427-5.95-3.397-8.132h92.004L402.72,363.171z"/>
	
		<linearGradient id="SVGID_00000162328461192115959930000006171514972774640039_" gradientUnits="userSpaceOnUse" x1="111.8381" y1="538.7845" x2="384.4698" y2="358.4279">
		<stop  offset="0" style="stop-color:#AF6A23"/>
		<stop  offset="0.0211" style="stop-color:#BB7C25"/>
		<stop  offset="0.071" style="stop-color:#D5A12B"/>
		<stop  offset="0.1113" style="stop-color:#E5B82E"/>
		<stop  offset="0.1368" style="stop-color:#EBC02F"/>
		<stop  offset="0.1574" style="stop-color:#E8BA2D"/>
		<stop  offset="0.1855" style="stop-color:#E0A828"/>
		<stop  offset="0.2177" style="stop-color:#D38C1F"/>
		<stop  offset="0.2486" style="stop-color:#C46A15"/>
		<stop  offset="0.5017" style="stop-color:#EBC957"/>
		<stop  offset="0.5468" style="stop-color:#E8C353"/>
		<stop  offset="0.609" style="stop-color:#E1B146"/>
		<stop  offset="0.6811" style="stop-color:#D59432"/>
		<stop  offset="0.7602" style="stop-color:#C56B16"/>
		<stop  offset="0.7625" style="stop-color:#C46A15"/>
		<stop  offset="0.8694" style="stop-color:#EBC02F"/>
		<stop  offset="0.9023" style="stop-color:#E9BA2D"/>
		<stop  offset="0.947" style="stop-color:#E3A829"/>
		<stop  offset="0.9983" style="stop-color:#DA8C21"/>
		<stop  offset="1" style="stop-color:#DA8B21"/>
	</linearGradient>
	<path style="fill:url(#SVGID_00000162328461192115959930000006171514972774640039_);" d="M440.102,446.635h-45.515l12.353-12.353
		h-66.472l-13.126,6.206h-4.911l-13.049,6.146h-2.262l-6.134-2.976v-0.052h-0.106l-7.159-3.473v-0.056h-0.114l-7.175-3.48v-0.047
		h-0.097l-5.725-2.777l-0.359-0.175v13.035h-5.885c-0.208-6.327-2.833-12.051-6.986-16.275l3.822-3.822h5.548v-5.902h-5.901v5.549
		l-3.824,3.824c-4.398-4.295-10.406-6.95-17.025-6.95c-6.619,0-12.626,2.654-17.025,6.95l-3.824-3.824v-5.549h-5.902v5.902h5.548
		l3.822,3.822c-4.153,4.224-6.778,9.948-6.986,16.275h-5.885V433.6l-6.085,2.952h-0.096v0.047l-7.175,3.481h-0.114v0.055
		l-7.159,3.473h-0.106v0.052l-6.134,2.976h-2.257l-12.947-6.122l-0.051-0.024h-4.968l-13.126-6.206H93.06l12.353,12.353H59.899v1.5
		h45.717L93.06,460.691h66.473l12.998-6.206h5.094l13.3-6.351h1.693l20.95,10.064v0.019h0.04l6.141,2.95v-13.033h5.882
		c0.178,6.345,2.787,12.089,6.932,16.333l-3.766,3.766h-5.548v5.901h5.902v-5.548l3.764-3.764
		c4.403,4.329,10.436,7.006,17.084,7.006c6.648,0,12.681-2.677,17.084-7.007l3.764,3.764v5.548h5.901v-5.901h-5.548l-3.766-3.766
		c4.145-4.244,6.754-9.989,6.932-16.333h5.882v13.033l6.141-2.95h0.04v-0.019l20.949-10.064h1.693l13.251,6.326l0.051,0.025h5.094
		l12.998,6.206h66.474l-12.557-12.557h45.718V446.635z M271.349,421.135h4.901v4.902h-4.901V421.135z M228.652,426.037h-4.902
		v-4.902h4.902V426.037z M177.513,440.988l11.941,5.646h-3.797l-11.942-5.646H177.513z M96.681,435.782h62.514l9.954,4.706h-54.854
		l-3.923-3.923l-4.173,4.173l4.173,4.173l3.923-3.923h55.912l11.943,5.646h-74.615L96.681,435.782z M113.837,440.738l-3.466,3.466
		l-3.466-3.466l3.466-3.466L113.837,440.738z M170.096,453.985h-55.802l-3.923-3.924l-4.173,4.174l4.173,4.173l3.923-3.923h54.755
		l-9.856,4.706H96.681l11.057-11.057h74.612L170.096,453.985z M113.837,454.235l-3.466,3.466l-3.466-3.466l3.466-3.467
		L113.837,454.235z M177.512,453.985h-3.934l12.254-5.851h3.933L177.512,453.985z M219.25,460.373l-4.487-2.155h4.487V460.373z
		 M219.25,457.718h-5.528l-6.302-3.027h11.83V457.718z M219.25,454.19h-12.87l-6.302-3.027l19.173-0.001V454.19z M219.25,450.662
		l-20.213,0.001l-5.263-2.528h25.477V450.662z M219.25,446.635h-25.225l5.21-2.527l20.015-0.001V446.635z M219.25,443.606
		l-18.984,0.001l6.243-3.028h12.741V443.606z M219.25,440.079h-11.711l6.241-3.027h5.47V440.079z M219.25,436.552h-4.439
		l4.439-2.153V436.552z M228.652,473.635h-4.902v-4.901h4.902V473.635z M236.467,429.003l12.473,12.473l-2.248,2.248l-12.656-12.656
		C234.797,430.325,235.608,429.634,236.467,429.003z M245.901,446.635l1.497-1.497l1.497,1.497H245.901z M248.897,448.135
		l-1.498,1.498l-1.498-1.498H248.897z M233.681,431.419l12.657,12.657l-2.247,2.247l-12.483-12.483
		C232.242,432.986,232.936,432.178,233.681,431.419z M230.744,435.099l11.536,11.536h-15.145
		C227.283,442.397,228.588,438.451,230.744,435.099z M227.132,448.135h15.148l-11.582,11.582
		C228.55,456.349,227.259,452.387,227.132,448.135z M231.559,460.977l12.531-12.531l2.248,2.248l-12.715,12.715
		C232.882,462.646,232.191,461.835,231.559,460.977z M233.976,463.763l12.716-12.716l2.247,2.247l-12.541,12.541
		C235.543,465.201,234.734,464.507,233.976,463.763z M249.25,470.31c-4.26-0.138-8.227-1.445-11.595-3.611l11.595-11.595V470.31z
		 M249.25,451.483l-1.497-1.497l1.497-1.497V451.483z M249.25,446.281l-1.498-1.498l1.498-1.498V446.281z M249.25,439.665
		l-11.523-11.523c3.352-2.139,7.293-3.428,11.523-3.565V439.665z M271.349,468.733h4.901v4.901h-4.901V468.733z M272.865,446.635
		H257.72l11.536-11.536C271.412,438.451,272.717,442.397,272.865,446.635z M268.392,433.842l-12.483,12.483l-2.247-2.247
		l12.657-12.657C267.064,432.178,267.758,432.986,268.392,433.842z M251.104,446.635l1.497-1.497l1.497,1.497H251.104z
		 M254.099,448.135l-1.498,1.498l-1.498-1.498H254.099z M265.965,431.068l-12.656,12.656l-2.248-2.248l12.473-12.473
		C264.392,429.634,265.203,430.325,265.965,431.068z M250.75,424.577c4.23,0.137,8.171,1.426,11.523,3.565l-11.523,11.523V424.577z
		 M250.75,443.286l1.498,1.498l-1.498,1.498V443.286z M250.75,448.488l1.497,1.497l-1.497,1.497V448.488z M250.75,470.31v-15.206
		l11.594,11.595C258.977,468.865,255.01,470.172,250.75,470.31z M263.602,465.835l-12.541-12.541l2.247-2.247l12.716,12.716
		C265.266,464.507,264.457,465.201,263.602,465.835z M266.376,463.408l-12.715-12.715l2.248-2.248l12.531,12.531
		C267.809,461.835,267.118,462.646,266.376,463.408z M269.301,459.716l-11.582-11.582h15.148
		C272.741,452.387,271.45,456.349,269.301,459.716z M280.75,434.398l4.439,2.153h-4.439V434.398z M280.75,437.052h5.47l6.241,3.027
		h-11.71V437.052z M280.75,440.579h12.741l6.243,3.028l-18.984-0.001V440.579z M280.75,444.106l20.014,0.001l5.21,2.527H280.75
		V444.106z M280.75,460.373v-2.155h4.487L280.75,460.373z M286.277,457.718h-5.527v-3.027h11.829L286.277,457.718z M293.62,454.19
		h-12.87v-3.028l19.172,0.001L293.62,454.19z M300.963,450.663l-20.213-0.001v-2.527h25.476L300.963,450.663z M322.487,440.988
		h3.798l-11.942,5.646h-3.797L322.487,440.988z M322.488,453.985l-12.253-5.851h3.933l12.254,5.851H322.488z M403.319,459.191
		h-62.513l-9.856-4.706h54.755l3.923,3.923l4.174-4.173l-4.174-4.174l-3.923,3.924h-55.802l-12.253-5.851h74.611L403.319,459.191z
		 M386.163,454.235l3.466-3.467l3.467,3.467l-3.467,3.466L386.163,454.235z M392.466,446.635h-74.614l11.942-5.646h55.912
		l3.923,3.923l4.174-4.173l-4.174-4.173l-3.923,3.923h-54.854l9.953-4.706h62.515L392.466,446.635z M386.163,440.738l3.466-3.466
		l3.467,3.466l-3.467,3.466L386.163,440.738z"/>
	
		<linearGradient id="SVGID_00000013883352593027277450000010618152347228379539_" gradientUnits="userSpaceOnUse" x1="111.8382" y1="370.0873" x2="384.4702" y2="189.7305">
		<stop  offset="0" style="stop-color:#AF6A23"/>
		<stop  offset="0.0211" style="stop-color:#BB7C25"/>
		<stop  offset="0.071" style="stop-color:#D5A12B"/>
		<stop  offset="0.1113" style="stop-color:#E5B82E"/>
		<stop  offset="0.1368" style="stop-color:#EBC02F"/>
		<stop  offset="0.1574" style="stop-color:#E8BA2D"/>
		<stop  offset="0.1855" style="stop-color:#E0A828"/>
		<stop  offset="0.2177" style="stop-color:#D38C1F"/>
		<stop  offset="0.2486" style="stop-color:#C46A15"/>
		<stop  offset="0.5017" style="stop-color:#EBC957"/>
		<stop  offset="0.5468" style="stop-color:#E8C353"/>
		<stop  offset="0.609" style="stop-color:#E1B146"/>
		<stop  offset="0.6811" style="stop-color:#D59432"/>
		<stop  offset="0.7602" style="stop-color:#C56B16"/>
		<stop  offset="0.7625" style="stop-color:#C46A15"/>
		<stop  offset="0.8694" style="stop-color:#EBC02F"/>
		<stop  offset="0.9023" style="stop-color:#E9BA2D"/>
		<stop  offset="0.947" style="stop-color:#E3A829"/>
		<stop  offset="0.9983" style="stop-color:#DA8C21"/>
		<stop  offset="1" style="stop-color:#DA8B21"/>
	</linearGradient>
	<path style="fill:url(#SVGID_00000013883352593027277450000010618152347228379539_);" d="M440.102,277.938H365.13l3.593-3.593
		h41.507v-0.5h-41.714l-4.093,4.093h-0.793l-4.196-4.196l-4.195,4.196h-0.793l-4.196-4.196l-4.196,4.196h-0.793l-4.196-4.196
		l-4.196,4.196h-0.793l-7.35-7.351h-33.216v-8.17h-34.268L250,251.176l-11.241,11.241h-34.268v8.17h-33.216l-7.35,7.351h-0.793
		l-4.196-4.196l-4.196,4.196h-0.793l-4.196-4.196l-4.196,4.196h-0.793l-4.196-4.196l-4.196,4.196h-0.793l-4.093-4.093H89.771v0.5
		h41.506l3.593,3.593H59.899v1.5h74.971l-3.593,3.593H89.771v0.5h41.713l4.093-4.093h0.793l4.196,4.196l4.196-4.196h0.793
		l4.196,4.196l4.196-4.196h0.793l4.196,4.196l4.196-4.196h0.786l7.356,7.447h33.217v8.17h34.267L250,306.297l11.242-11.242h34.267
		v-8.17h33.217l7.356-7.447h0.786l4.196,4.196l4.196-4.196h0.793l4.196,4.196l4.196-4.196h0.793l4.195,4.196l4.196-4.196h0.793
		l4.093,4.093h41.714v-0.5h-41.507l-3.593-3.593h74.972V277.938z M140.566,282.927l-3.489-3.489h6.979L140.566,282.927z
		 M137.077,277.938l3.489-3.489l3.489,3.489H137.077z M149.751,282.927l-3.489-3.489h6.978L149.751,282.927z M146.263,277.938
		l3.489-3.489l3.489,3.489H146.263z M158.937,282.927l-3.489-3.489h6.979L158.937,282.927z M155.448,277.938l3.489-3.489
		l3.489,3.489H155.448z M204.492,286.385h-33.008l-6.862-6.947h39.87V286.385z M204.492,277.938h-39.859l6.85-6.851h33.009V277.938z
		 M250,253.297l9.12,9.12h-18.24L250,253.297z M239.38,263.917h21.24l6.67,6.67H250h-17.29L239.38,263.917z M225.36,277.938
		l6.851-6.851H250h17.79l6.851,6.851H225.36z M274.739,279.438l-6.947,6.947H250h-17.791l-6.947-6.947H274.739z M205.992,263.917
		h31.268l-6.67,6.67h-24.598V263.917z M205.992,271.087h24.098l-6.851,6.851h-17.247V271.087z M205.992,279.438h17.149l6.947,6.947
		h-24.097V279.438z M205.992,293.555v-6.67h24.597l6.67,6.67H205.992z M250,304.176l-9.121-9.121h18.242L250,304.176z
		 M260.622,293.555h-21.242l-6.67-6.67H250h17.291L260.622,293.555z M294.009,293.555h-31.267l6.67-6.67h24.597V293.555z
		 M294.009,286.385h-24.097l6.947-6.947h17.149V286.385z M294.009,277.938h-17.247l-6.851-6.851h24.098V277.938z M294.009,270.587
		h-24.598l-6.67-6.67h31.268V270.587z M295.509,271.087h33.009l6.85,6.851h-39.859V271.087z M328.517,286.385h-33.008v-6.947h39.87
		L328.517,286.385z M341.064,282.927l-3.489-3.489h6.979L341.064,282.927z M337.575,277.938l3.489-3.489l3.489,3.489H337.575z
		 M350.249,282.927l-3.489-3.489h6.978L350.249,282.927z M346.76,277.938l3.489-3.489l3.489,3.489H346.76z M359.434,282.927
		l-3.488-3.489h6.978L359.434,282.927z M355.946,277.938l3.488-3.489l3.489,3.489H355.946z"/>
</g>
</svg>
