<?xml version="1.0" encoding="UTF-8"?>
<svg width="1200pt" height="1200pt" version="1.1" viewBox="0 0 1200 1200" xmlns="http://www.w3.org/2000/svg">
 <path d="m737.36 951.07c2.3125 2.3125 2.3125 6.0586 0 8.3672l-87.445 87.445 34.566 34.566 129.29-129.29-90.719-90.719-37.66 37.66zm-274.72-702.15c-2.3125-2.3125-2.3125-6.0586 0-8.3672l87.445-87.445-34.566-34.566-129.29 129.29 90.719 90.719 37.66-37.66zm12.551-4.1836 51.965 51.965c2.3125 2.3125 2.3125 6.0586 0 8.3672l-295.45 295.45 293.28 293.28c2.3125 2.3125 2.3125 6.0586 0 8.3672l-51.98 51.98 83.266 83.254 33.719-33.719-52.766-52.766c-2.3086-2.3125-2.3086-6.0586 0-8.3672l58.91-58.91c2.3125-2.3125 6.0586-2.3125 8.3672 0l55.953 55.953c2.3125 2.3125 2.3125 6.0586 0 8.3672l-54.086 54.086c-0.03125 0.36719-0.09375 0.73438-0.19141 1.0938l35.375 35.375 83.262-83.258-51.965-51.965c-2.3125-2.3125-2.3125-6.0586 0-8.3672l295.45-295.45-293.28-293.28c-2.3125-2.3125-2.3125-6.0586 0-8.3672l51.98-51.98-83.266-83.254-33.719 33.719 52.766 52.766c2.3086 2.3125 2.3086 6.0586 0 8.3672l-58.91 58.91c-2.3125 2.3125-6.0586 2.3125-8.3672 0l-55.953-55.953c-2.3125-2.3125-2.3125-6.0586 0-8.3672l54.086-54.086c0.03125-0.36719 0.09375-0.73438 0.19141-1.0938l-35.375-35.375zm-251.86 364.16-90.816 90.816 156.68 156.68c2.3125 2.3125 2.3125 6.0586 0 8.3672-2.3086 2.3086-6.0586 2.3086-8.3672 0l-260.13-260.13c-2.3125-2.3086-2.3125-6.0586 0-8.3672 0.41797-0.41797 0.88672-0.76172 1.3828-1.0273 0.22266-0.34766 0.48828-0.67578 0.79297-0.98047l96.262-96.262c0.21484-0.32031 0.46094-0.62891 0.74609-0.91016 0.28516-0.28516 0.58984-0.53125 0.91016-0.74609l162.21-162.21c2.3125-2.3125 6.0586-2.3125 8.3672 0 2.3125 2.3086 2.3125 6.0586 0 8.3672l-158.86 158.86 90.816 90.816 245.24-245.24-94.902-94.902c-2.3125-2.3125-2.3125-6.0586 0-8.3672l137.7-137.7c2.3125-2.3125 6.0586-2.3125 8.3672 0 0.21875 0.21875 0.41406 0.44922 0.59375 0.69141l38.109 38.109 33.52-33.52-38.93-38.93c-2.3125-2.3125-2.3125-6.0586 0-8.3672l45.422-45.422c2.3125-2.3125 6.0586-2.3125 8.3672 0l43.141 43.141c2.3086 2.3125 2.3086 6.0586 0 8.3672l-41.074 41.074 34.805 34.801 38.137-38.137c0.17578-0.24219 0.375-0.47266 0.59375-0.69141 2.3086-2.3125 6.0586-2.3125 8.3672 0l137.7 137.7c2.3086 2.3125 2.3086 6.0586 0 8.3672l-94.902 94.902 243.07 243.07 90.816-90.816-156.68-156.68c-2.3125-2.3125-2.3125-6.0586 0-8.3672 2.3086-2.3086 6.0586-2.3086 8.3672 0l260.13 260.13c2.3125 2.3086 2.3125 6.0586 0 8.3672-0.41797 0.41797-0.88672 0.76172-1.3828 1.0273-0.22266 0.34766-0.48828 0.67578-0.79297 0.98047l-96.262 96.262c-0.21484 0.32031-0.46094 0.62891-0.74609 0.91016-0.28516 0.28516-0.58984 0.53125-0.91016 0.74609l-162.21 162.21c-2.3125 2.3125-6.0586 2.3125-8.3672 0-2.3125-2.3086-2.3125-6.0586 0-8.3672l158.86-158.86-90.816-90.816-245.24 245.24 94.902 94.902c2.3125 2.3125 2.3125 6.0586 0 8.3672l-137.7 137.7c-2.3125 2.3125-6.0586 2.3125-8.3672 0-0.21875-0.21875-0.41406-0.44922-0.59375-0.69141l-38.109-38.109-33.52 33.52 38.93 38.93c2.3125 2.3125 2.3125 6.0586 0 8.3672l-45.422 45.422c-2.3125 2.3125-6.0586 2.3125-8.3672 0l-43.141-43.141c-2.3086-2.3125-2.3086-6.0586 0-8.3672l41.074-41.074-34.805-34.801-38.137 38.137c-0.17578 0.24219-0.375 0.47266-0.59375 0.69141-2.3086 2.3125-6.0586 2.3125-8.3672 0l-137.7-137.7c-2.3086-2.3125-2.3086-6.0586 0-8.3672l94.902-94.902zm-99.184 82.445 90.816-90.816-90.816-90.816-90.816 90.816zm860.88-91.871 90.816 90.816 90.816-90.816-90.816-90.816zm-382.39-393.8-50.543 50.543 47.586 47.586 50.543-50.543zm-35.828-52.562 34.828 34.828 33.719-33.719-34.832-34.824zm35.828-122.05-37.055 37.055 34.746 34.746 4.1836-4.1836c0.15625-0.15625 0.32031-0.30469 0.49219-0.44141l32.402-32.402-34.773-34.773zm49.426 123.2 87.082 87.066c0.13281 0.10938 0.26172 0.22656 0.38281 0.35156 2.3125 2.3125 2.3125 6.0586 0 8.3672l-51.965 51.965 37.66 37.66 90.719-90.719-129.29-129.29-34.594 34.594zm-54.711 840.07 50.543-50.543-47.586-47.586-50.543 50.543zm35.828 52.562-34.828-34.828-33.719 33.719 34.832 34.824zm-35.828 122.05 37.055-37.055-34.746-34.746-4.1836 4.1836c-0.15625 0.15625-0.32031 0.30469-0.49219 0.44141l-32.402 32.402 34.773 34.773zm-49.426-123.2-87.082-87.066c-0.13281-0.10938-0.26172-0.22656-0.38281-0.35156-2.3125-2.3125-2.3125-6.0586 0-8.3672l51.965-51.965-37.66-37.66-90.719 90.719 129.29 129.29 34.594-34.594z"/>
</svg>
