<?xml version="1.0" encoding="UTF-8"?>
<svg width="1200pt" height="1200pt" version="1.1" viewBox="0 0 1200 1200" xmlns="http://www.w3.org/2000/svg">
 <path d="m1015.3 155.84c0-4.4219 3.5781-8 8-8s8 3.5781 8 8v510.3h86.641l0.67969-594.4c0-4.3984 3.5586-7.9609 7.9609-7.9609 4.3984 0 7.9609 3.5586 7.9609 7.9609l-0.69922 602.4c0 4.3984-3.5586 7.9609-7.9609 7.9609v0.039063h-94.602v84.359h94.559c4.3984 0 7.9609 3.5586 7.9609 7.9609l0.17969 145.74c0 4.3984-3.5586 7.9609-7.9609 7.9609l-94.738-0.10156v87.539l94.961-0.30078c4.3984 0 7.9609 3.5586 7.9609 7.9609l0.12109 103.64c0 4.3594-3.5195 7.9219-7.8789 7.9609l-101.06 1.3008c-4.3984 0.058594-8.0195-3.4805-8.0586-7.8789v-0.10156h-0.039062v-95.379h-87.539l0.10156 94.738c0 4.3984-3.5586 7.9609-7.9609 7.9609l-145.74-0.17969c-4.3984 0-7.9609-3.5586-7.9609-7.9609v-94.559h-84.359v94.602h-0.039063c0 4.3984-3.5586 7.9609-7.9609 7.9609l-602.4 0.69922c-4.3984 0-7.9609-3.5586-7.9609-7.9609 0-4.3984 3.5586-7.9609 7.9609-7.9609l594.4-0.67969v-86.641h-510.3c-4.4219 0-8-3.5781-8-8 0-4.4219 3.5781-8 8-8h610.66v-85.441l-517.22-0.058594c-4.3984 0-7.9609-3.5586-7.9609-7.9609 0-4.3984 3.5586-7.9609 7.9609-7.9609l525.18 0.058593c4.3984 0 7.9609 3.5586 7.9609 7.9609v93.398h129.66v-86.441h-92.762v-0.039062c-4.3789 0-7.9414-3.5195-7.9609-7.8984l-0.92188-102.36c-0.019532-4.3984 3.5391-7.9805 7.9414-8l99.961-0.71875c0.26172-0.019531 0.5-0.039063 0.76172-0.039063 4.4219 0 8 3.5781 8 8v92.762h86.441v-129.66h-93.398c-4.3984 0-7.9609-3.5586-7.9609-7.9609l-0.058594-525.18c0-4.3984 3.5586-7.9609 7.9609-7.9609 4.3984 0 7.9609 3.5586 7.9609 7.9609l0.058593 517.22h85.441v-610.66zm16 626.6v129.7l86.762 0.10156-0.16016-129.78h-86.602zm-16 145.66h-85.461v88.738h85.461zm-102.44-13.699v-87.02l-84.641 0.62109 0.78125 86.422h83.879zm205.46 116.88-84.961 0.26172v88.621l85.078-1.1016-0.10156-87.781zm-204.44 1.5586h-129.7v86.602l129.78 0.16016-0.10156-86.762z"/>
</svg>
