<?xml version="1.0" encoding="UTF-8"?>
<svg width="1200pt" height="1200pt" version="1.1" viewBox="0 0 1200 1200" xmlns="http://www.w3.org/2000/svg">
 <path d="m1183.6 504.84-26.602-26.602v-217.06l-5.0508 0.39062c-5.7461 0.44531-10.805 0.66016-15.461 0.66016-11.223 0-22.215-0.98828-32.934-2.793v-45.754c10.613 2.3398 21.625 3.6094 32.934 3.6094 5.3438 0 10.836-0.29688 16.316-0.875l-0.98828-9.3242c-5.1562 0.54688-10.312 0.82422-15.328 0.82422-11.336 0-22.352-1.3594-32.934-3.8555v-98.238h48.758v-9.375h-48.758v-48.754h-9.375v48.754h-97.586c-2.3672-10.324-3.6602-21.055-3.6602-32.09 0-5.2109 0.3125-10.641 0.92969-16.145l-9.3164-1.043c-0.65234 5.8477-0.98437 11.633-0.98437 17.188 0 11.008 1.1953 21.734 3.4141 32.09h-45.707c-1.7109-10.449-2.6406-21.16-2.6406-32.09 0-4.9844 0.23828-10.312 0.72266-16.285l0.41406-5.0703h-217.99l-26.609-26.598h-190.3l-26.602 26.602h-217.07l0.39062 5.0508c0.44531 5.7461 0.66016 10.805 0.66016 15.461 0 11.223-0.98828 22.215-2.793 32.934h-45.75c2.3398-10.613 3.6094-21.625 3.6094-32.934 0-5.3438-0.29688-10.836-0.875-16.316l-9.3242 0.98828c0.54688 5.1562 0.82422 10.312 0.82422 15.328 0 11.336-1.3594 22.352-3.8555 32.934h-98.238v-48.758h-9.375v48.758h-48.754v9.375h48.754v97.586c-10.324 2.3672-21.055 3.6602-32.09 3.6602-5.2109 0-10.641-0.3125-16.145-0.92969l-1.043 9.3164c5.8477 0.65234 11.633 0.98437 17.188 0.98437 11.008 0 21.734-1.1953 32.09-3.4141v45.707c-10.449 1.7109-21.16 2.6406-32.09 2.6406-4.9844 0-10.312-0.23828-16.285-0.72266l-5.0703-0.41406v218l-26.598 26.609v190.3l26.602 26.602v217.06l5.0508-0.39062c5.7461-0.44531 10.805-0.66016 15.461-0.66016 11.223 0 22.215 0.98828 32.934 2.793v45.754c-10.613-2.3398-21.625-3.6094-32.934-3.6094-5.3438 0-10.836 0.29687-16.316 0.875l0.98828 9.3242c5.1562-0.54688 10.312-0.82422 15.328-0.82422 11.336 0 22.352 1.3594 32.934 3.8555v98.238l-48.758-0.003907v9.375h48.758v48.754h9.375v-48.754h97.586c2.3672 10.324 3.6602 21.055 3.6602 32.09 0 5.2109-0.3125 10.641-0.92969 16.145l9.3164 1.043c0.65234-5.8477 0.98437-11.633 0.98437-17.188 0-11.008-1.1953-21.734-3.4141-32.09h45.707c1.7109 10.449 2.6406 21.16 2.6406 32.09 0 4.9844-0.23828 10.312-0.72266 16.285l-0.41406 5.0703h217.99l26.609 26.598h190.3l26.602-26.602h217.07l-0.39062-5.0508c-0.44531-5.7461-0.66016-10.805-0.66016-15.461 0-11.223 0.98828-22.215 2.793-32.934h45.754c-2.3398 10.613-3.6094 21.625-3.6094 32.934 0 5.3438 0.29687 10.836 0.875 16.316l9.3242-0.98828c-0.54688-5.1562-0.82422-10.312-0.82422-15.328 0-11.336 1.3594-22.352 3.8555-32.934h98.238v48.758h9.375v-48.758h48.754v-9.375h-48.754v-97.586c10.324-2.3672 21.055-3.6602 32.09-3.6602 5.2109 0 10.641 0.3125 16.145 0.92969l1.043-9.3164c-5.8477-0.65234-11.633-0.98437-17.188-0.98437-11.008 0-21.734 1.1953-32.09 3.4141v-45.707c10.449-1.7109 21.16-2.6406 32.09-2.6406 4.9844 0 10.312 0.23828 16.285 0.72266l5.0703 0.41406v-218l26.594-26.609zm-807.84 598.7 43.988 43.988h-53.852l-43.988-43.988zm57.242 43.988-17.305-17.309h35.789l17.309 17.309zm22.371-26.68h-49.051l-17.305-17.305h133.14l-42.047 42.047zm353.41-17.305-17.305 17.305h-46.848l-24.738 24.742-42.047-42.047zm-77.574 43.984 17.309-17.309h33.59l-17.309 17.309zm46.844 0 17.309-17.309h0.17578v-0.17578l26.504-26.504h53.852l-43.988 43.988zm-109.58-53.359h-66.531l-1.9414-1.9414-1.9414 1.9414h-331.46c-16.473-80.789-80.094-144.63-160.76-161.43v-330.79l1.9414-1.9414-1.9414-1.9414v-331.48c80.789-16.473 144.63-80.094 161.43-160.76h330.81l1.9414 1.9414 1.9414-1.9414h331.46c16.473 80.789 80.094 144.63 160.76 161.43v330.79l-1.9414 1.9414 1.9414 1.9414v331.48c-80.789 16.473-144.63 80.094-161.43 160.76zm-616-362.96 17.309 17.309v33.578l-17.309-17.309zm1.9414-11.316 42.047-42.047v130.93l-17.305-17.305v-46.836zm-1.9414-286.91 17.309-17.305v35.801l-17.309 17.309zm26.68 22.383v-49.062l17.305-17.305v133.15l-42.047-42.047zm17.309-79.625-43.988 43.988v-53.852l43.988-43.988zm-48.676 110.99 48.676 48.676v53.27l-21.992-21.992-21.996 21.996v-55.73l-25.453-25.449zm46.73 113.26-20.051 20.051-20.051-20.051 20.051-20.051zm-51.418-63.16v61.223l-1.9414 1.9414 1.9414 1.9414v61.219l-17.309 17.309v-160.94zm9.375 130.21v-55.73l21.996 21.992 21.992-21.992v53.27l-48.676 48.676-20.766-20.766zm0 111 17.309 17.309v0.1875h0.1875l26.496 26.496v53.852l-43.988-43.988zm771.79-681.59-43.988-43.988h53.852l43.988 43.988zm-57.242-43.988 17.305 17.309h-35.789l-17.309-17.309zm-22.371 26.68h49.051l17.305 17.305h-133.14l42.047-42.047zm-353.41 17.305 17.305-17.305h46.848l24.738-24.742 42.047 42.047zm77.574-43.984-17.309 17.309h-33.59l17.309-17.309zm-46.844 0-17.309 17.309h-0.17578v0.17578l-26.504 26.504h-53.852l43.988-43.988zm725.58 536.21-21.996-21.992-21.992 21.992v-53.27l48.676-48.676 20.766 20.766-25.453 25.449zm-1.9414 11.32-20.051 20.051-20.051-20.051 20.051-20.051zm1.9414 167.01-17.309 17.305v-35.801l17.309-17.309zm-26.68-22.383v49.062l-17.305 17.305v-133.15l42.047 42.047zm26.68-275.84-17.309-17.309v-33.578l17.309 17.309zm-1.9414 11.316-42.047 42.047v-130.93l17.305 17.305v46.836zm1.9414-58.148-17.309-17.309v-0.1875h-0.1875l-26.496-26.496v-53.852l43.988 43.988zm-43.988 402.3 43.988-43.988v53.852l-43.988 43.988zm48.676-110.99-48.676-48.676 0.003906-53.27 21.992 21.992 21.996-21.996v55.73l25.453 25.449zm4.6875-50.102v-61.223l1.9414-1.9414-1.9414-1.9414v-61.219l17.309-17.309v160.94zm-20.43-391.55c3.4766 0 7.1523-0.11328 11.137-0.34375v30.125h-0.082032v53.461l-43.988-43.988v-41.879c10.73 1.7188 21.727 2.625 32.934 2.625zm-42.309-165.78v95.723c-45.469-14.051-81.336-50.137-95.117-95.723zm-104.86 0.003906c14.32 50.758 54.223 90.863 104.86 105.47v46.332c-75.477-16.512-134.96-76.203-151.15-151.8zm-57.582-9.375h-40.367l-43.988-43.988h30.012v-0.082032h52.246c-0.26172 4.2461-0.39062 8.1992-0.39062 11.98 0.003907 10.91 0.85547 21.629 2.4883 32.09zm-218.46-48.676-48.676 48.676h-53.27l21.992-21.992-21.996-21.996h55.73l25.449-25.453zm-113.27 46.734-20.051-20.051 20.051-20.051 20.051 20.051zm0-53.367-1.9414 1.9414h-61.219l-17.309-17.305h160.94l-17.309 17.309h-61.219zm-92.496-14.133 25.449 25.453h55.73l-21.996 21.996 21.992 21.992h-53.27l-48.676-48.676zm-236.25 25.371h30.133v0.082032h53.449l-43.988 43.988h-41.879c1.7188-10.73 2.6289-21.727 2.6289-32.934 0-3.4766-0.11328-7.1523-0.34375-11.137zm-165.44 53.445h95.723c-14.051 45.469-50.137 81.336-95.723 95.117zm0.003906 104.86c50.758-14.32 90.863-54.223 105.47-104.86h46.332c-16.512 75.477-76.203 134.96-151.8 151.15zm-41.465 60.066c10.91 0 21.629-0.85547 32.09-2.4883v40.367l-43.988 43.988v-30h-0.082032v-52.258c4.2461 0.26562 8.1992 0.39062 11.98 0.39062zm-0.84375 657.64c-3.4766 0-7.1523 0.11328-11.137 0.34375v-30.121h0.082032v-53.461l43.988 43.988v41.879c-10.73-1.7227-21.727-2.6289-32.934-2.6289zm42.309 165.78v-95.723c45.469 14.051 81.336 50.137 95.117 95.723zm104.86-0.003906c-14.32-50.758-54.223-90.863-104.86-105.47v-46.332c75.477 16.512 134.96 76.203 151.15 151.8zm57.582 9.375h40.367l43.988 43.988h-30.012v0.082032h-52.246c0.26172-4.2461 0.39062-8.1992 0.39062-11.98-0.003907-10.91-0.85547-21.629-2.4883-32.09zm218.46 48.676 48.676-48.676h53.27l-21.992 21.992 21.996 21.996h-55.73l-25.449 25.453zm113.27-46.734 20.051 20.051-20.051 20.051-20.051-20.051zm0 53.367 1.9414-1.9414h61.219l17.309 17.305h-160.94l17.309-17.309h61.219zm92.496 14.133-25.449-25.453h-55.73l21.996-21.996-21.992-21.992h53.27l48.676 48.676zm236.25-25.371h-30.133v-0.082032h-53.449l43.988-43.988h41.879c-1.7188 10.73-2.6289 21.727-2.6289 32.934 0 3.4766 0.11328 7.1523 0.34375 11.137zm165.44-53.445h-95.723c14.051-45.469 50.137-81.336 95.723-95.117zm-0.003906-104.86c-50.758 14.32-90.863 54.223-105.47 104.86h-46.332c16.512-75.477 76.203-134.96 151.8-151.15zm41.465-60.066c-10.91 0-21.629 0.85547-32.09 2.4883v-40.367l43.988-43.988v30h0.082032v52.258c-4.2461-0.26562-8.1992-0.39062-11.98-0.39062z"/>
</svg>
