<?xml version="1.0" encoding="UTF-8"?>
<svg width="1200pt" height="1200pt" version="1.1" viewBox="0 0 1200 1200" xmlns="http://www.w3.org/2000/svg">
 <path d="m1076.5 439.54c-107.68 41.34-192.32 103.64-255.88 173.06-79.5 86.84-126.02 184.76-143.38 266.74 39.52-79.059 111.08-177.82 196.52-251.08 69.262-59.379 147.84-102.2 226.44-104.84l-23.699-83.879zm-540.02 497.54c-2.3789-4.0391-1.0391-9.2383 2.9805-11.621 4.0391-2.3789 9.2383-1.0391 11.621 2.9805 14.879 25.141 22.961 53.078 27.16 81.441 4.1211 27.859 4.4609 56.238 3.8008 82.738-0.12109 4.6797-3.9805 8.3789-8.6602 8.2617-4.6797-0.12109-8.3789-3.9805-8.2617-8.6602 0.64063-25.602 0.32031-52.98-3.6602-79.879-3.8984-26.398-11.359-52.238-24.98-75.262zm118.98-8.6406c2.3789-4.0391 7.5781-5.3789 11.621-2.9805 4.0391 2.3789 5.3789 7.5781 2.9805 11.621-13.621 23.02-21.059 48.879-24.98 75.262-3.9805 26.898-4.3008 54.281-3.6602 79.879 0.12109 4.6797-3.6016 8.5586-8.2617 8.6602-4.6797 0.12109-8.5586-3.6016-8.6602-8.2617-0.66016-26.5-0.33984-54.859 3.8008-82.738 4.1992-28.379 12.301-56.301 27.16-81.441zm-58.48-184.88-12.262 28.539c-1.8594 4.3008-6.8398 6.3008-11.16 4.4414-2.5781-1.1211-4.3398-3.3594-4.9219-5.8984-14-49.762-26.34-101.14-38.699-152.68-38.66-161.1-77.719-323.76-175.8-461.6-2.7188-3.8203-1.8203-9.1016 2-11.82 0.78125-0.53906 1.6016-0.96094 2.4609-1.1992v-0.019532l145.04-43.859c4.3008-1.3008 8.8398 0.98047 10.398 5.1211 67.922 154.7 75.422 387.18 81.102 563.18 0.82031 25.199 1.5781 49.219 2.5195 72.078 0.058593 1.3008-0.19922 2.5586-0.67969 3.6797h0.019531zm-18.32-0.39844 1.9609-4.5781c-0.87891-21.801-1.6406-45.48-2.4414-70.262-5.5391-172.08-12.859-398.58-76.922-550.38l-126.6 38.281c95 138.3 133.54 298.84 171.72 457.84 10.359 43.18 20.699 86.262 32.262 129.1zm-7.8789 65.719-6.4609 27.781c-1.0391 4.5586-5.6016 7.4219-10.16 6.3789-2.8203-0.64062-5-2.6406-6-5.1406-36.52-83.281-86.699-182.9-151.52-274.54-64.578-91.32-143.64-174.64-238.08-225.64-4.1211-2.2188-5.6797-7.3594-3.4609-11.48 0.32031-0.60156 0.69922-1.1406 1.1406-1.6211l110.18-123.68c3.1211-3.5 8.4805-3.8203 11.98-0.69922 0.14063 0.12109 0.28125 0.26172 0.42188 0.39844 151.5 133.16 210.86 332.7 266.02 518.2 8.5195 28.66 16.961 57 25.82 85.34 0.5 1.6016 0.5 3.2188 0.10156 4.7188zm-17.262-0.64062 0.28125-1.2383c-8.3789-26.859-16.738-54.98-25.199-83.422-53.781-180.82-111.58-375.14-255.12-505.08l-97.5 109.44c92.922 52.762 170.76 135.44 234.56 225.64 59.699 84.422 107.1 175.5 142.98 254.66zm-432.7-387.88c114.48 42.301 204.14 107.68 271.08 180.82 82.602 90.238 130.62 192.34 148.06 277.46 0.21875 1.1016 0.21875 2.1992 0.019531 3.2617l-5.1211 26.898c-0.85938 4.6016-5.3008 7.6406-9.8984 6.7812-2.9414-0.55859-5.2383-2.5586-6.3008-5.1406-35.16-80.34-110.96-190-203.42-269.28-69.762-59.82-148.8-102.16-226.46-100.9-4.6797 0.078125-8.5195-3.6602-8.6016-8.3398-0.019532-0.83984 0.10156-1.6602 0.32031-2.4219h-0.019531l29.238-103.44c1.2617-4.5195 5.9414-7.1406 10.461-5.8789 0.21875 0.058593 0.42188 0.12109 0.62109 0.19922zm258.6 192.24c-63.559-69.422-148.2-131.72-255.88-173.06l-23.699 83.879c78.602 2.6406 157.18 45.461 226.44 104.84 85.441 73.262 157 172.02 196.52 251.08-17.359-81.98-63.879-179.9-143.38-266.74zm239.98 125.98 1.9609 4.5781c11.559-42.84 21.898-85.922 32.262-129.1 38.16-159.02 76.699-319.54 171.72-457.84l-126.6-38.281c-64.059 151.82-71.359 378.3-76.922 550.38-0.80078 24.781-1.5586 48.461-2.4414 70.262zm-4.0781 33.52-12.262-28.539h0.019531c-0.48047-1.1211-0.73828-2.3789-0.67969-3.6797 0.92188-22.859 1.6992-46.879 2.5195-72.078 5.6797-176.02 13.18-408.48 81.102-563.18 1.5586-4.1406 6.1016-6.4414 10.398-5.1211l145.04 43.859v0.019531c0.85938 0.26172 1.6992 0.66016 2.4609 1.1992 3.8203 2.7188 4.6992 8 2 11.82-98.102 137.84-137.14 300.5-175.8 461.6-12.359 51.539-24.699 102.92-38.699 152.68-0.57812 2.5391-2.3398 4.7812-4.9219 5.8984-4.3008 1.8594-9.3008-0.14062-11.16-4.4414zm30.922 34.922 0.28125 1.2383c35.879-79.16 83.281-170.24 142.98-254.66 63.781-90.199 141.64-172.88 234.56-225.64l-97.5-109.44c-143.54 129.94-201.34 324.26-255.12 505.08-8.4609 28.441-16.82 56.559-25.199 83.422zm-10.52 29.641-6.4609-27.781c-0.39844-1.5-0.39844-3.1211 0.10156-4.7188 8.8594-28.359 17.301-56.68 25.82-85.34 55.18-185.5 114.52-385.04 266.02-518.2 0.14062-0.14062 0.28125-0.28125 0.42188-0.39844 3.5-3.1211 8.8594-2.8008 11.98 0.69922l110.18 123.68c0.44141 0.48047 0.82031 1.0195 1.1406 1.6211 2.2188 4.1211 0.67969 9.2617-3.4609 11.48-94.441 51.02-173.52 134.34-238.08 225.64-64.82 91.66-115 191.28-151.52 274.54-1 2.5-3.1602 4.5-6 5.1406-4.5586 1.0391-9.1211-1.8008-10.16-6.3789zm172.42-235.48c66.941-73.121 156.6-138.52 271.08-180.82 0.19922-0.078125 0.42188-0.14062 0.62109-0.19922 4.5195-1.2617 9.1992 1.3594 10.461 5.8789l29.238 103.44h-0.019532c0.21875 0.76172 0.32031 1.5781 0.32031 2.4219-0.078125 4.6797-3.9219 8.3984-8.6016 8.3398-77.66-1.2617-156.7 41.078-226.46 100.9-92.48 79.281-168.26 188.94-203.42 269.28-1.0586 2.5781-3.3594 4.6016-6.3008 5.1406-4.6016 0.85938-9.0391-2.1797-9.8984-6.7812l-5.1211-26.898c-0.19922-1.0391-0.19922-2.1406 0.019531-3.2617 17.441-85.121 65.461-187.22 148.06-277.46z"/>
</svg>
