<?xml version="1.0" encoding="UTF-8"?>
<svg width="1200pt" height="1200pt" version="1.1" viewBox="0 0 1200 1200" xmlns="http://www.w3.org/2000/svg">
 <path d="m619.92 674.84 105.16 98.441c2.3594 2.1992 2.4805 5.8984 0.28125 8.2617l-102.42 109.42c-2.1992 2.3594-5.8984 2.4805-8.2617 0.28125l-109.42-102.42c-2.3594-2.1992-2.4805-5.8984-0.28125-8.2617l98.441-105.16-100.92-94.48-98.621 105.26c-2.1992 2.3398-5.8789 2.4609-8.2383 0.30078l-224.92-207.74-40.059 42.801c-2.1992 2.3594-5.8984 2.4805-8.2617 0.28125-0.94141-0.87891-1.5195-1.9805-1.7383-3.1406h-0.019531l-10.441-53.34-18.48 19.762c-2.1992 2.3594-5.8984 2.4805-8.2617 0.28125-0.94141-0.87891-1.5195-1.9805-1.7383-3.1406h-0.019532l-21.52-109.96c-0.62109-3.1797 1.4609-6.2617 4.6406-6.8789 0.80078-0.16016 1.5781-0.14062 2.3203 0.019532l110.68 14.16c3.1992 0.39844 5.4805 3.3398 5.0586 6.5391-0.17969 1.3789-0.80078 2.5781-1.7383 3.4609l-18.301 19.559 53.922 6.8984c3.1992 0.39844 5.4805 3.3398 5.0586 6.5391-0.17969 1.3789-0.80078 2.5781-1.7383 3.4609l-41.359 44.18 220.58 203.72 94.621-101-105.1-98.379c-2.3594-2.1992-2.4805-5.8984-0.28125-8.2617l204.86-218.84c2.1992-2.3594 5.8984-2.4805 8.2617-0.28125l218.84 204.86c2.3594 2.1992 2.4805 5.8984 0.28125 8.2617l-98.441 105.16 100.86 94.422 203.4-219.96-42.961-40.199c-2.3594-2.1992-2.4805-5.8984-0.28125-8.2617 0.87891-0.94141 1.9805-1.5195 3.1406-1.7383v-0.019531l53.34-10.441-19.762-18.48c-2.3594-2.1992-2.4805-5.8984-0.28125-8.2617 0.87891-0.94141 1.9805-1.5195 3.1406-1.7383v-0.019531l109.96-21.52c3.1797-0.62109 6.2617 1.4609 6.8789 4.6406 0.16016 0.80078 0.14062 1.5781-0.019531 2.3203l-14.16 110.68c-0.39844 3.1992-3.3398 5.4805-6.5391 5.0586-1.3789-0.17969-2.5781-0.80078-3.4609-1.7383l-19.559-18.301-6.8984 53.922c-0.39844 3.1992-3.3398 5.4805-6.5391 5.0586-1.3789-0.17969-2.5781-0.80078-3.4609-1.7383l-44.039-41.238-207.34 224.24c-2.1992 2.3594-5.8789 2.5195-8.2617 0.32031l-105.18-98.461-94.441 100.9zm4.6406 279.58-8.6211-7.9609 7.9609-8.6211 8.6211 7.9609zm-135.38-129.08-7.9609 8.6211-8.6211-7.9609 7.9609-8.6211zm103.52 95.578-7.9609 8.6211-8.6211-7.9609 7.9609-8.6211zm-34.5-31.859-7.9609 8.6211-8.6211-7.9609 7.9609-8.6211zm-34.5-31.859-7.9609 8.6211-8.6211-7.9609 7.9609-8.6211zm235.26-35.5-8.6211-7.9609 7.9609-8.6211 8.6211 7.9609zm-95.578 103.52-8.6211-7.9609 7.9609-8.6211 8.6211 7.9609zm31.859-34.5-8.6211-7.9609 7.9609-8.6211 8.6211 7.9609zm31.859-34.5-8.6211-7.9609 7.9609-8.6211 8.6211 7.9609zm-539.76-325.24-7.9609 8.6211-8.6211-7.9609 7.9609-8.6211zm138.02 127.44-7.9609 8.6211-8.6211-7.9609 7.9609-8.6211zm-34.5-31.859-7.9609 8.6211-8.6211-7.9609 7.9609-8.6211zm-34.5-31.859-7.9609 8.6211-8.6211-7.9609 7.9609-8.6211zm-34.5-31.859-7.9609 8.6211-8.6211-7.9609 7.9609-8.6211zm810.24-55.18-8.6211-7.9609 7.9609-8.6211 8.6211 7.9609zm-127.44 138.02-8.6211-7.9609 7.9609-8.6211 8.6211 7.9609zm31.859-34.5-8.6211-7.9609 7.9609-8.6211 8.6211 7.9609zm31.859-34.5-8.6211-7.9609 7.9609-8.6211 8.6211 7.9609zm31.859-34.5-8.6211-7.9609 7.9609-8.6211 8.6211 7.9609zm-892.78-90.961-8.3203-42.48c-0.62109-3.1797 1.4609-6.2617 4.6406-6.8789 0.80078-0.16016 1.5781-0.14062 2.3203 0.019531l42.461 5.4414 16.461-17.578-91.762-11.738 17.781 90.781 16.422-17.559zm52.281-30.68-47.52-6.0781 17.781 90.781 73.98-79.039-44.238-5.6602zm894.32-44.059 42.48-8.3203c3.1797-0.62109 6.2617 1.4609 6.8789 4.6406 0.16016 0.80078 0.14062 1.5781-0.019531 2.3203l-5.4414 42.461 17.578 16.461 11.738-91.762-90.781 17.781 17.559 16.422zm30.68 52.281 6.0781-47.52-90.781 17.781 79.039 73.98 5.6602-44.238zm-378.86 137.26-100.88-94.441-94.48 100.86 100.92 94.48 94.441-100.9zm-203.92-1.5781 98.48-105.14 0.019531 0.019531c2.1992-2.3398 5.8984-2.4609 8.2383-0.26172l105.16 98.441 94.441-100.9-210.32-196.88-196.88 210.32 100.84 94.398zm210.92 213.44-100.9-94.441-94.441 100.9 100.9 94.441z"/>
</svg>
