<?xml version="1.0" encoding="UTF-8"?>
<svg width="1200pt" height="1200pt" version="1.1" viewBox="0 0 1200 1200" xmlns="http://www.w3.org/2000/svg">
 <path d="m590.67 814.67c44 0 80-12 110.67-34.668 30.668-22.668 54.668-54.668 76-93.332 4-9.332 9.332-13.332 14.668-13.332 8 0 12 4 12 10.668 0 5.332-9.332 21.332-26.668 49.332-17.332 28-42.668 52-74.668 74.668-32 22.668-66.668 32-105.33 32-54.668 0-102.67-18.668-145.33-56-42.668-37.332-69.332-86.668-78.668-148h-21.332c-16 0-24-4-24-13.332s8-14.668 24-14.668h17.332c-1.332-13.332-1.332-24-1.332-32 0-13.332 1.332-25.332 2.668-37.332h-18.668c-16 0-24-4-24-13.332 0-9.332 8-14.668 24-14.668h21.332c12-64 40-113.33 84-146.67 44-33.332 90.668-50.668 140-50.668 33.332 0 64 6.668 90.668 21.332 26.668 14.668 49.332 33.332 66.668 56 17.332 22.668 26.668 36 26.668 40 0 2.668-1.332 5.332-4 6.668-2.668 1.332-5.332 2.668-8 2.668-2.668 0-5.332-1.332-8-4-2.668-2.668-8-10.668-17.332-22.668-20-28-42.668-48-68-60-25.332-12-49.332-17.332-69.332-17.332-5.332 0-10.668 0-16 1.332l-1.332 173.33h98.668c16 0 24 5.332 24 14.668 0 8-8 13.332-24 13.332h-100l-1.332 37.332 1.332 32h98.668c16 0 24 5.332 24 14.668 0 8-8 13.332-24 13.332h-100c2.6523 105.33 3.9883 165.33 3.9883 178.67z"/>
</svg>
