<?xml version="1.0" encoding="UTF-8"?>
<svg width="1200pt" height="1200pt" version="1.1" viewBox="0 0 1200 1200" xmlns="http://www.w3.org/2000/svg">
 <path d="m750.94 69.188c-40.074-39.906-94.348-62.27-150.9-62.18-56.555 0.089844-110.76 22.625-150.7 62.656-39.945 40.031-62.367 94.285-62.336 150.84v134.25h-156.38c-4.6367-0.027344-9.1172 1.6602-12.578 4.7422-3.4648 3.082-5.6602 7.3398-6.1719 11.945l-82.875 801c-0.54297 5.2578 1.1602 10.5 4.6875 14.438 3.543 3.9297 8.5859 6.1758 13.875 6.1875h904.88c5.2891-0.011719 10.332-2.2578 13.875-6.1875 3.5273-3.9375 5.2305-9.1797 4.6875-14.438l-83.062-801c-0.51172-4.6055-2.707-8.8633-6.1719-11.945-3.4609-3.082-7.9414-4.7695-12.578-4.7422h-155.81v-134.25c-0.035156-56.699-22.477-111.09-62.438-151.31zm-326.44 151.31c0-46.594 18.512-91.281 51.457-124.23 32.949-32.945 77.637-51.457 124.23-51.457s91.281 18.512 124.23 51.457c32.945 32.949 51.457 77.637 51.457 124.23v134.25h-351.38zm527.81 171.75 78.938 763.31h-862.5l79.312-763.31h139.31v119.44c-0.24219 10.734 0.51172 21.469 2.25 32.062 1.3398 6.6992 6.1523 12.176 12.621 14.363 6.4727 2.1875 13.621 0.75781 18.75-3.75 5.1328-4.5117 7.4688-11.414 6.1289-18.113-1.3828-7.9219-2.0117-15.957-1.875-24v-120h350.62v119.44c0.082031 8.0469-0.60938 16.086-2.0625 24-0.99609 4.875-0.015625 9.9414 2.7305 14.094 2.7422 4.1484 7.0195 7.0391 11.895 8.0312h3.75c4.3867 0.089844 8.6641-1.3633 12.09-4.1055 3.4258-2.7383 5.7852-6.5938 6.6602-10.895 1.9766-10.383 2.918-20.934 2.8125-31.5v-119.06z"/>
</svg>
