<?xml version="1.0" encoding="UTF-8"?>
<svg width="1200pt" height="1200pt" version="1.1" viewBox="0 0 1200 1200" xmlns="http://www.w3.org/2000/svg">
 <path d="m839.9 664.18-60.32-61.359c-3.0781-3.1211-3.0391-8.1406 0.039063-11.238l-0.019532-0.019531 58.02-58.02-237.64-237.64-237.64 237.64 58.02 58.02-0.019531 0.019531c3.1016 3.1016 3.1211 8.1016 0.039062 11.238l-60.32 61.359 239.9 239.9 239.9-239.9zm-512.2-32.422 34.539-34.539-31.762-31.762-34.539 34.539zm-4.3008-73.359-19.32-19.32-60.941 60.941 356.88 356.88 356.88-356.88-60.941-60.941-19.32 19.32 38.059 38.059c1.9609 1.9609 1.9609 5.1211 0 7.0781l-311.14 311.14c-1.9609 1.9609-5.1211 1.9609-7.0781 0l-311.14-311.14c-1.9609-1.9609-1.9609-5.1211 0-7.0781l38.059-38.059zm-30.641-30.641-58.922-58.922-128.4 128.4 128.4 128.4 56.16-56.16-63.82-63.82c-3.1211-3.1211-3.1211-8.1797 0-11.32l66.578-66.578zm4.3008 148.78-59.699 59.699c-1.9609 1.9609-5.1211 1.9609-7.0781 0l-135.46-135.46c-1.9609-1.9609-1.9609-5.1211 0-7.0781l135.46-135.46c1.9609-1.9609 5.1211-1.9609 7.0781 0l135.46 135.46c1.9609 1.9609 1.9609 5.1211 0 7.0781l-38.059 38.059 14.059 14.059 54.66-55.602-169.68-169.68-169.6 169.6 169.6 169.6 76.762-76.762-13.539-13.539zm547.66-150.06 19.32-19.32-264.04-264.04-264.04 264.04 19.32 19.32 241.16-241.16c1.9609-1.9609 5.1211-1.9609 7.0781 0l241.16 241.16zm24.84 38.98-31.762 31.762 34.539 34.539 31.762-31.762zm-4.3008 73.359-38.059-38.059c-1.9609-1.9609-1.9609-5.1211 0-7.0781l135.46-135.46c1.9609-1.9609 5.1211-1.9609 7.0781 0l135.46 135.46c1.9609 1.9609 1.9609 5.1211 0 7.0781l-135.46 135.46c-1.9609 1.9609-5.1211 1.9609-7.0781 0l-59.699-59.699-13.539 13.539 76.762 76.762 169.6-169.6-169.6-169.6-169.68 169.68 54.66 55.602 14.059-14.059zm-540.58-143 269.68-269.68c3.1211-3.1211 8.1797-3.1211 11.32 0l269.68 269.68 85.18-85.18c3.1211-3.1211 8.1797-3.1211 11.32 0l180.92 180.92c3.1211 3.1211 3.1211 8.1797 0 11.32l-180.92 180.92c-3.1211 3.1211-8.1797 3.1211-11.32 0l-82.422-82.422-272.46 272.46c-3.1211 3.1211-8.1797 3.1211-11.32 0l-272.46-272.46-82.422 82.422c-3.1211 3.1211-8.1797 3.1211-11.32 0l-180.92-180.92c-3.1211-3.1211-3.1211-8.1797 0-11.32l180.92-180.92c3.1211-3.1211 8.1797-3.1211 11.32 0l85.18 85.18zm582.6 31.922 66.578 66.578c3.1211 3.1211 3.1211 8.1797 0 11.32l-63.82 63.82 56.16 56.16 128.4-128.4-128.4-128.4-58.922 58.922z"/>
</svg>
