<?xml version="1.0" encoding="UTF-8"?>
<svg width="1200pt" height="1200pt" version="1.1" viewBox="0 0 1200 1200" xmlns="http://www.w3.org/2000/svg">
 <path d="m92.453 1115.5c0 4.418-3.582 8-8 8s-8-3.582-8-8v-539.49c0-4.418 3.582-8 8-8 0.19922 0 0.39844 0.007813 0.59375 0.023438l247.01-0.046875v-227.18c0-2.4102 1.0664-4.5703 2.75-6.0391 1.4648-1.6875 3.6289-2.75 6.0391-2.75h226.5l0.71875-247.63c0.011719-4.3984 3.582-7.9531 7.9766-7.9531v-0.023438h539.49c4.418 0 8 3.582 8 8s-3.582 8-8 8h-531.54l-1.4062 483.53c-0.011719 4.3867-3.5625 7.9414-7.9531 7.9531l-482.19 0.09375v531.52zm572.54-891.9 23.336 143.79c11.293-0.34766 22.859-2.0977 34.426-5.2188 13.305-3.5898 26.602-9 39.477-16.176l-84.125-128.83c-3.9453 2.3594-7.9961 4.3711-12.102 6.0273-0.33594 0.13672-0.67578 0.26953-1.0117 0.39844zm13.234 143.73-22.832-140.67c-5.3477 1.3359-10.711 2.0703-15.969 2.1914l-0.62109 130.06 0.046875-0.11328c12.207 5.0859 25.512 7.9062 39.371 8.5273zm8.1445-155.74 84.449 129.32c12.137-7.6367 23.797-16.887 34.621-27.711 9.2266-9.2266 17.309-19.062 24.219-29.289l-129.83-84.781c-1.2227 1.375-2.4961 2.7266-3.8164 4.0469-3.0703 3.0703-6.2969 5.875-9.6367 8.4102zm31.445-43.258 141.87 23.027c-0.054688-15.18-2.6914-29.785-7.9844-43.121h-130.09c-0.30469 6.6367-1.582 13.41-3.7969 20.098zm141.54 33.066-145.35-23.59c-2.1875 4.6172-4.8359 9.1406-7.9336 13.488l128.96 84.211c9.1758-15.23 15.844-31.156 19.91-47.07 2.3203-9.0664 3.793-18.125 4.4102-27.039zm-219.85 11.48c6.7031-0.20312 13.68-1.7109 20.535-4.4766 8.6875-3.5039 17.168-9.043 24.656-16.531 7.3438-7.3438 12.812-15.648 16.332-24.176 2.6758-6.4883 4.2266-13.082 4.6172-19.453h-65.828l-0.30859 64.641zm229.18-64.641c8.7383 25.785 9.1836 55.035 1.7305 84.176-8.2969 32.441-26.375 64.82-53.656 92.102-26.625 26.625-58.137 44.488-89.844 53.043-30.559 8.2461-61.328 7.8281-88.184-1.7227l-0.33203 69.078c35.195 4.918 73.438 0.19531 110.84-13.719 37.297-13.875 73.738-36.914 105.51-68.688 32-32 55.148-68.762 68.992-106.38 13.391-36.371 18.082-73.527 13.66-107.9h-68.723zm84.836 0c4.3008 36.316-0.76953 75.328-14.793 113.42-14.633 39.75-39.012 78.516-72.66 112.16-33.375 33.375-71.809 57.637-111.25 72.312-39.117 14.551-79.25 19.648-116.49 14.844l-0.80469 168.59c-0.011719 4.3867-3.5625 7.9414-7.9531 7.9531l-168.54 0.78516c4.7969 37.227-0.30078 77.352-14.848 116.45-14.676 39.445-38.934 77.879-72.312 111.25-33.648 33.648-72.418 58.031-112.16 72.66-38.094 14.023-77.105 19.09-113.42 14.793v106.21c0 4.418-3.582 8-8 8-4.418 0-8-3.582-8-8v-427.86c0-4.418 3.582-8 8-8 0.1875 0 0.37109 0.007812 0.55469 0.019531l480.77-2.2461 2.3008-481.39c0.011718-4.3984 3.582-7.9531 7.9766-7.9531v-0.023437h427.86c4.418 0 8 3.582 8 8 0 4.418-3.582 8-8 8h-106.21zm-386.37 256.58-161.95 0.33984-0.34375 162.82 161.82-0.03125 0.47266-163.13zm-178.24 163.16 0.35938-170.8c0.011719-4.3867 3.5625-7.9414 7.9531-7.9531l169.98-0.35938 0.11719-40.844h-219.25v219.96l40.84-0.007813zm-162.2 87.375 140.67 22.832c-0.62109-13.859-3.4414-27.164-8.5273-39.371l0.054687-0.023438-130 0.60547c-0.12109 5.2539-0.85547 10.613-2.1914 15.957zm140.74 32.934-143.79-23.336c-0.13281 0.33594-0.26562 0.67578-0.39844 1.0117-1.6562 4.1055-3.668 8.1562-6.0273 12.102l128.83 84.125c7.1758-12.871 12.586-26.168 16.176-39.477 3.1211-11.566 4.8711-23.133 5.2188-34.426zm-26.484 82.488-129.32-84.449c-2.5352 3.3398-5.3398 6.5664-8.4102 9.6367-1.3203 1.3203-2.6719 2.5938-4.0469 3.8164l84.781 129.83c10.223-6.9141 20.062-14.996 29.289-24.219 10.824-10.824 20.074-22.488 27.711-34.621zm-163.11-56.812 23.59 145.35c8.9141-0.61719 17.973-2.0938 27.039-4.4102 15.914-4.0703 31.84-10.734 47.07-19.91l-84.211-128.96c-4.3477 3.0977-8.8711 5.7461-13.488 7.9336zm13.551 145.68-23.027-141.87c-6.6875 2.2188-13.461 3.4922-20.098 3.7969v130.09c13.336 5.293 27.941 7.9258 43.121 7.9844zm-43.121-154.04c6.3711-0.38672 12.969-1.9414 19.453-4.6172 8.5273-3.5195 16.832-8.9883 24.176-16.332 7.4883-7.4883 13.027-15.969 16.531-24.656 2.7656-6.8516 4.2734-13.828 4.4766-20.527l-64.641 0.30078v65.828zm227.61-66.891c9.5391 26.852 9.9531 57.609 1.7109 88.16-8.5547 31.707-26.418 63.219-53.043 89.844-27.281 27.281-59.66 45.363-92.102 53.656-29.145 7.4531-58.395 7.0117-84.176-1.7305v68.723c34.371 4.418 71.527-0.27344 107.9-13.66 37.613-13.848 74.375-36.992 106.38-68.992 31.77-31.77 54.812-68.215 68.688-105.51 13.91-37.395 18.633-75.621 13.727-110.81l-69.074 0.32422z"/>
</svg>
