<?xml version="1.0" encoding="UTF-8"?>
<svg width="1200pt" height="1200pt" version="1.1" viewBox="0 0 1200 1200" xmlns="http://www.w3.org/2000/svg">
 <path d="m635.36 59.953c-2.1445-2.1445-2.1445-5.625 0-7.7734 2.1445-2.1445 5.625-2.1445 7.7734 0l208.52 208.52c2.1445 2.1445 2.1445 5.625 0 7.7734-2.1445 2.1445-5.625 2.1445-7.7734 0zm-70.711 0c2.1445-2.1445 2.1445-5.625 0-7.7734-2.1445-2.1445-5.625-2.1445-7.7734 0l-208.52 208.52c-2.1445 2.1445-2.1445 5.625 0 7.7734 2.1445 2.1445 5.625 2.1445 7.7734 0zm-8.5312 1087.9c2.1445 2.1445 5.625 2.1445 7.7734 0 2.1445-2.1445 2.1445-5.625 0-7.7734l-208.51-208.52c-2.1445-2.1445-5.625-2.1445-7.7734 0-2.1445 2.1445-2.1445 5.625 0 7.7734l208.52 208.52zm-119.39-214.11c-2.1445-2.1445-5.625-2.1445-7.7734 0-2.1445 2.1445-2.1445 5.625 0 7.7734l166.75 166.75c1.1797 1.1797 2.7578 1.7109 4.3008 1.5938 1.543 0.11719 3.1211-0.41406 4.3008-1.5938l166.75-166.75c2.1445-2.1445 2.1445-5.625 0-7.7734-2.1445-2.1445-5.625-2.1445-7.7734 0l-163.28 163.28zm-52.93-127.65v82.164h-82.164v-39.848h36.82c3.0352 0 5.4961-2.4609 5.4961-5.4961v-36.82zm10.988 87.656v-93.152c0-3.0352-2.4609-5.4961-5.4961-5.4961h-45.344v-45.344c0-3.0352-2.4609-5.4961-5.4961-5.4961h-43.621l-0.011718-28.891c0.11719-1.5391-0.41406-3.1211-1.5938-4.2969l-30.965-30.965 73.336-73.336c2.1445-2.1445 2.1445-5.625 0-7.7734l-75.809-75.809 34.195-34.195c1.1797-1.1797 1.7109-2.7578 1.5938-4.2969l0.011719-28.891h43.621c3.0352 0 5.4961-2.4609 5.4961-5.4961v-45.344h45.344c3.0352 0 5.4961-2.4609 5.4961-5.4961v-93.152c0-3.0352-2.4609-5.4961-5.4961-5.4961h-93.152c-3.0352 0-5.4961 2.4609-5.4961 5.4961v45.344h-45.344c-3.0352 0-5.4961 2.4609-5.4961 5.4961v43.414l-29.621-0.11328c-1.5195-0.003906-2.8945 0.60938-3.8906 1.6055l-0.011718-0.011719-114.45 114.45c-0.33594 0.21484-0.65625 0.46484-0.94922 0.76172l-79.168 79.168c-2.1445 2.1445-2.1445 5.625 0 7.7734l193.81 193.81 0.011718-0.011719c0.99609 0.99609 2.3711 1.6094 3.8906 1.6055l29.621-0.11328v43.414c0 3.0352 2.4609 5.4961 5.4961 5.4961h45.344v45.344c0 3.0352 2.4609 5.4961 5.4961 5.4961h93.152c3.0352 0 5.4961-2.4609 5.4961-5.4961zm-140.3-221.41-71.922-71.922 69.449-69.449 71.922 71.922zm-79.695-79.695-31.801-31.801 69.449-69.449 31.801 31.801zm-39.574-39.574-31.824-31.824 109.82-109.82 27.352 0.10156v38.781c0 3.0352 2.4609 5.4961 5.4961 5.4961h38.574l-0.011719 27.008-32.605 32.605-35.688-35.688c-2.1445-2.1445-5.625-2.1445-7.7734 0zm166.41 284.35v-31.324h31.324v31.324zm-10.988-36.82v36.82h-39.848v-37.957l38.594-0.14453c0.50391 0 0.99219-0.070313 1.457-0.19922-0.13281 0.47266-0.20312 0.96875-0.20312 1.4844zm5.4961-5.4961c-0.51562 0-1.0117 0.070312-1.4844 0.20312 0.13281-0.47266 0.20312-0.97266 0.19922-1.4883l-0.015625-38.562h38.121v39.848zm-45.344-6.6055v-33.242h33.082l0.015625 33.117zm-10.988-38.738v38.781l-27.352 0.10156-109.06-109.06 29.352-29.352 75.809 75.809c2.1445 2.1445 5.625 2.1445 7.7734 0l38.16-38.16 29.371 29.371 0.011719 27.008h-38.574c-3.0352 0-5.4961 2.4609-5.4961 5.4961zm-144.18-220.74 31.824 31.824-38.16 38.16c-2.1445 2.1445-2.1445 5.625 0 7.7734l35.688 35.688-28.688 28.688-71.398-71.398zm39.598 39.598 31.801 31.801-34.273 34.273-31.801-31.801zm39.574 39.574 71.922 71.922-34.273 34.273-71.922-71.922zm254.92-349.63c-2.1445 2.1445-2.1445 5.625 0 7.7734 2.1445 2.1445 5.625 2.1445 7.7734 0l162.52-162.52 162.52 162.52c2.1445 2.1445 5.625 2.1445 7.7734 0 2.1445-2.1445 2.1445-5.625 0-7.7734l-164.81-164.81c-0.26562-0.70703-0.6875-1.3711-1.2578-1.9414-1.1602-1.1602-2.7109-1.6914-4.2305-1.5977-1.5195-0.09375-3.0703 0.4375-4.2305 1.5977-0.57031 0.57031-0.98828 1.2344-1.2578 1.9414zm-45.156 53.262v82.164h-39.848v-36.82c0-3.0352-2.4609-5.4961-5.4961-5.4961h-36.82v-39.848zm-93.152 50.836v36.82c0 0.51562 0.070312 1.0117 0.20312 1.4844-0.46484-0.12891-0.95312-0.19922-1.457-0.19922l-38.594-0.14453v-37.961zm10.988 31.324v-31.324h31.324v31.324zm-6.9805 10.785c0.47266 0.13281 0.96875 0.20312 1.4844 0.20312h36.82v39.848h-38.121l0.015625-38.562c0-0.51563-0.070313-1.0156-0.19922-1.4883zm-43.859 40.051v-33.242l33.098 0.125-0.015626 33.117zm392.34 703.04c-2.1445 2.1445-5.625 2.1445-7.7734 0-2.1445-2.1445-2.1445-5.625 0-7.7734l208.51-208.52c2.1445-2.1445 5.625-2.1445 7.7734 0 2.1445 2.1445 2.1445 5.625 0 7.7734l-208.52 208.52zm172.32-341.76v82.164h82.164v-39.848h-36.82c-3.0352 0-5.4961-2.4609-5.4961-5.4961v-36.82zm-10.988 87.656v-93.152c0-3.0352 2.4609-5.4961 5.4961-5.4961h45.344v-45.344c0-3.0352 2.4609-5.4961 5.4961-5.4961h43.621l0.011718-28.891c-0.11719-1.5391 0.41406-3.1211 1.5938-4.2969l30.965-30.965-73.336-73.336c-2.1445-2.1445-2.1445-5.625 0-7.7734l75.809-75.809-34.195-34.195c-1.1797-1.1797-1.7109-2.7578-1.5938-4.2969l-0.011719-28.891h-43.621c-3.0352 0-5.4961-2.4609-5.4961-5.4961v-45.344h-45.344c-3.0352 0-5.4961-2.4609-5.4961-5.4961v-93.152c0-3.0352 2.4609-5.4961 5.4961-5.4961h93.152c3.0352 0 5.4961 2.4609 5.4961 5.4961v45.344h45.344c3.0352 0 5.4961 2.4609 5.4961 5.4961v43.414l29.621-0.11328c1.5195-0.003906 2.8945 0.60938 3.8906 1.6055l0.011718-0.011719 114.45 114.45c0.33594 0.21484 0.65625 0.46484 0.94922 0.76172l79.168 79.168c2.1445 2.1445 2.1445 5.625 0 7.7734l-193.81 193.81-0.011719-0.011718c-0.99609 0.99609-2.3711 1.6094-3.8906 1.6055l-29.621-0.11328v43.414c0 3.0352-2.4609 5.4961-5.4961 5.4961h-45.344v45.344c0 3.0352-2.4609 5.4961-5.4961 5.4961h-93.152c-3.0352 0-5.4961-2.4609-5.4961-5.4961zm140.3-221.41 71.922-71.922-69.449-69.449-71.922 71.922zm79.695-79.695 31.801-31.801-69.449-69.449-31.801 31.801zm39.574-39.574 31.824-31.824-109.82-109.82-27.352 0.10156v38.781c0 3.0352-2.4609 5.4961-5.4961 5.4961h-38.574l0.011719 27.008 32.605 32.605 35.688-35.688c2.1445-2.1445 5.625-2.1445 7.7734 0zm-166.41 284.35v-31.324h-31.324v31.324zm10.988-36.82v36.82h39.848v-37.957l-38.594-0.14453c-0.50391 0-0.99219-0.070312-1.457-0.19922 0.13281 0.47266 0.20313 0.96875 0.20313 1.4844zm-5.4961-5.4961c0.51562 0 1.0117 0.070312 1.4844 0.20312-0.13281-0.47266-0.20312-0.97266-0.19922-1.4883l0.015625-38.562h-38.121v39.848zm45.344-6.6055v-33.242h-33.082l-0.015624 33.117zm10.988-38.738v38.781l27.352 0.10156 109.06-109.06-29.352-29.352-75.809 75.809c-2.1445 2.1445-5.625 2.1445-7.7734 0l-38.16-38.16-29.371 29.371-0.011719 27.008h38.574c3.0352 0 5.4961 2.4609 5.4961 5.4961zm144.18-220.74-31.824 31.824 38.16 38.16c2.1445 2.1445 2.1445 5.625 0 7.7734l-35.688 35.688 28.688 28.688 71.398-71.398zm-39.598 39.598-31.801 31.801 34.273 34.273 31.801-31.801zm-39.574 39.574-71.922 71.922 34.273 34.273 71.922-71.922zm-209.76-296.37v82.164h39.848v-36.82c0-3.0352 2.4609-5.4961 5.4961-5.4961h36.82v-39.848zm93.152 50.836v36.82c0 0.51562-0.070312 1.0117-0.20312 1.4844 0.46484-0.12891 0.95312-0.19922 1.457-0.19922l38.594-0.14453v-37.961zm-10.988 31.324v-31.324h-31.324v31.324zm6.9805 10.785c-0.47266 0.13281-0.96875 0.20312-1.4844 0.20312h-36.82v39.848h38.121l-0.015625-38.562c0-0.51562 0.070313-1.0156 0.19922-1.4883zm43.859 40.051v-33.242l-33.098 0.125 0.015625 33.117z"/>
</svg>
