<?xml version="1.0" encoding="UTF-8"?>
<svg width="1200pt" height="1200pt" version="1.1" viewBox="0 0 1200 1200" xmlns="http://www.w3.org/2000/svg">
 <path d="m868.24 16.406h-226.42l-41.82 41.82-41.82-41.82h-541.77v541.77l41.82 41.82-41.82 41.82v541.77h541.77l41.82-41.82 41.82 41.82h541.77v-541.77l-41.82-41.82 41.82-41.82v-541.77zm305.98 181.95-48.324-48.324 30.039-99.734 9.4414-15.672-15.672 9.4414-99.734 30.039-48.324-48.324h172.57zm-42.73 337.94-33.34 33.34 30.367 30.367-30.367 30.367 33.34 33.34v311.39l-21.629 21.629-8.457-28.082-34.031 34.031-19.711-32.727-77.719 77.719 32.727 19.711-34.031 34.031 28.082 8.457-21.602 21.598h-311.44l-33.312-33.312-30.367 30.367-30.367-30.367-33.312 33.312h-311.44l-21.602-21.598 28.082-8.457-34.031-34.031 32.727-19.711-77.719-77.719-19.711 32.727-34.031-34.031-8.457 28.082-21.629-21.629v-311.39l33.34-33.34-30.367-30.367 30.367-30.367-33.34-33.34v-311.39l21.629-21.629 8.457 28.082 34.031-34.031 19.711 32.727 77.719-77.719-32.727-19.711 34.031-34.031-28.082-8.4531 21.602-21.598h311.44l33.312 33.312 30.363-30.371 30.367 30.367 33.312-33.312h311.44l21.602 21.598-28.082 8.457 34.031 34.031-32.727 19.711 77.719 77.719 19.711-32.727 34.031 34.031 8.457-28.082 21.629 21.629zm-145.13 560.66 24.59-24.59 49.492 29.812-13.137 13.137zm79.172-79.172 72.328 120.08-120.08-72.328zm-56.027 42.766-24.449-14.727 60.766-60.766 14.727 24.449zm59.211 46.609 48.477 29.199-59.695-17.98zm38.441-38.441 11.219-11.219 17.98 59.695zm-4.9844-8.2734-29.812-49.492 24.59-24.59 18.355 60.949zm-999.12-74.082 24.59 24.59-29.812 49.492-13.137-13.137zm79.172 79.172-120.08 72.328 72.328-120.08zm-42.766-56.027 14.727-24.449 60.766 60.766-24.449 14.727zm-46.609 59.211-29.199 48.477 17.98-59.695zm38.441 38.441 11.219 11.219-59.695 17.98zm8.2734-4.9844 49.492-29.812 24.59 24.594-60.949 18.355zm74.082-999.12-24.59 24.594-49.492-29.812 13.137-13.137zm-79.172 79.172-72.328-120.08 120.08 72.328zm56.027-42.766 24.449 14.727-60.766 60.766-14.727-24.449zm-59.211-46.609-48.477-29.199 59.695 17.98zm-38.441 38.441-11.219 11.219-17.98-59.695zm4.9844 8.2734 29.812 49.492-24.594 24.59-18.355-60.949zm967.7 42.66-47.75-47.75 120.08-72.328zm-4.9844 8.2773-14.727 24.449-60.766-60.766 24.449-14.727zm8.168-97.652-11.219-11.219 59.695-17.98zm-8.2734 4.9844-49.492 29.812-24.59-24.594 60.949-18.355zm36.512 115.81-24.59-24.59 29.812-49.492 13.137 13.137zm10.203-82.355 29.199-48.477-17.98 59.695zm-238.91-105.51h120.14l51.391 51.391-32.871 9.8984-27.906-27.906h-305.95l33.383-33.383zm-222.54 0h47.48l-62.812 62.812-23.742-23.738zm-52.332 39.074-23.738 23.738-62.816-62.812h47.48zm-218.3-39.074h118.49l33.383 33.383h-305.95l-27.91 27.906-32.871-9.8984 51.395-51.391zm-176.72 0-48.324 48.324-99.734-30.039-15.672-9.4414 9.4414 15.672 30.039 99.734-48.324 48.324v-172.57zm-172.57 305.98v-120.14l51.391-51.391 9.8984 32.871-27.934 27.93v305.89l-33.355-33.355zm0 222.54v-47.48l62.812 62.812-23.738 23.742zm39.074 52.332 23.738 23.738-62.812 62.816v-47.48zm-39.074 218.3v-118.49l33.355-33.355v305.89l27.934 27.934-9.8984 32.871-51.391-51.395zm0 176.72 48.324 48.324-30.039 99.734-9.4414 15.672 15.672-9.4414 99.734-30.039 48.324 48.324h-172.57zm305.98 172.57h-120.14l-51.391-51.391 32.871-9.8984 27.906 27.906h305.95l-33.383 33.383zm222.54 0h-47.48l62.812-62.812 23.738 23.738zm52.332-39.074 23.738-23.738 62.816 62.812h-47.48zm218.3 39.074h-118.49l-33.383-33.383h305.95l27.906-27.906 32.871 9.8984-51.391 51.391zm176.72 0 48.324-48.324 99.734 30.039 15.672 9.4414-9.4414-15.672-30.039-99.734 48.324-48.324v172.57zm172.57-305.98v120.14l-51.391 51.391-9.8984-32.871 27.934-27.934v-305.89l33.355 33.355zm0-222.54v47.48l-62.812-62.812 23.738-23.738zm-39.074-52.332-23.738-23.738 62.812-62.816v47.48zm39.074-218.3v118.49l-33.355 33.355v-305.89l-27.934-27.934 9.8984-32.871 51.391 51.395z"/>
</svg>
