<?xml version="1.0" encoding="UTF-8"?>
<svg width="1200pt" height="1200pt" version="1.1" viewBox="0 0 1200 1200" xmlns="http://www.w3.org/2000/svg">
 <path d="m1149.4 38.781c0-4.418 3.582-8 8-8 4.418 0 8 3.582 8 8v506.5c0 4.418-3.582 8-8 8-0.21094 0-0.42187-0.007812-0.62891-0.023437l-74.645 0.70703v74.883c0 4.418-3.582 8-8 8h-441.09v441.09c0 4.418-3.582 8-8 8h-74.883l-0.71484 75.34c-0.035156 4.3789-3.5977 7.9062-7.9688 7.9062-166.01 1.293-332.74-0.35156-498.83-0.52734-4.4023 0-7.9688-3.5664-7.9688-7.9688s3.5664-7.9688 7.9688-7.9688l490.94 0.51953 0.63672-67.297h-358.27c-4.418 0-8-3.582-8-8 0-4.418 3.582-8 8-8h358.42l4.9141-518.94c0.035156-4.3438 3.5469-7.8711 7.9062-7.9062l518.94-4.9141v-358.42c0-4.418 3.582-8 8-8s8 3.582 8 8v358.27l67.277-0.63672v-498.61zm-83.277 515.34-510.98 4.8398-4.8398 510.98h66.734v-441.09c0-4.418 3.582-8 8-8h441.09zm-89.297 327.95-100.34 100.34c-3.125 3.125-8.1875 3.125-11.312 0-0.67188-0.67188-1.1992-1.4336-1.582-2.2461l-40.742-71.613-40.805 40.805c-3.125 3.125-8.1875 3.125-11.312 0-1.2109-1.2109-1.9531-2.7188-2.2266-4.2891l-12.141-56.207-48.102 48.102c-3.125 3.125-8.1875 3.125-11.312 0-1.6914-1.6914-2.4688-3.9531-2.3242-6.168l-4.5781-229.66c-0.085938-4.4023 3.4102-8.0391 7.8125-8.125 0.13672-0.003906 0.27344 0 0.40625 0.003906v-0.003906l227.7 7.2148c4.4023 0.13672 7.8555 3.8164 7.7188 8.2188-0.066407 2.1094-0.94922 4.0039-2.332 5.3867l0.019531 0.019531-47.602 47.602 56.09 12.742c4.2969 0.96484 6.9961 5.2344 6.0312 9.5312-0.34375 1.5312-1.1055 2.8594-2.1406 3.8906l0.015625 0.015625-40.453 40.453 71.816 41.426c3.8125 2.1914 5.1289 7.0625 2.9375 10.875-0.35938 0.625-0.78906 1.1797-1.2734 1.6641l0.023437 0.023437zm-104.25 81.625 85.59-85.59-69.633-40.168c-1.5312-0.28516-2.9922-1.0195-4.1758-2.207-0.14062-0.14062-0.27734-0.28906-0.40625-0.4375l-125.66-72.484 114.29 200.88zm-57.93-69.562-65.754-115.58 32.215 149.12 33.543-33.543zm-42.422-141.68 116.75 67.344 33.262-33.262-150.01-34.086zm-19.879 117.8-28.859-133.59c-0.93359-4.3164 1.8086-8.5664 6.125-9.5 1.3672-0.29688 2.7266-0.22266 3.9805 0.15625l131.75 29.934 41.684-41.684-200.87-6.3633 4.0508 203.19 42.145-42.145z"/>
</svg>
