<?xml version="1.0" encoding="UTF-8"?>
<svg width="1200pt" height="1200pt" version="1.1" viewBox="0 0 1200 1200" xmlns="http://www.w3.org/2000/svg">
 <path d="m84.336 132.02c-14.621-0.40625-17.105 20.742-2.7891 23.742l99.824 21.984 25.289 120.75c0.007813 0 0.015625 0.13672 0.023438 0.13672l117.12 531.96c1.2188 5.4922 6.0938 9.3984 11.719 9.3984h663.33c16.191 0.17969 16.191-24.195 0-24h-653.67l-28.195-127.99h715.34c5.6328 0 10.508-3.918 11.719-9.4219l83.676-379.97c1.6445-7.4883-4.0547-14.574-11.719-14.578-295.96 0.007812-591.93 0-887.89-0.13672l-24.844-118.67c-0.96875-4.6211-4.5547-8.2422-9.1641-9.2578l-107.39-23.648c-0.77734-0.17969-1.5703-0.27344-2.3672-0.31641zm408.43 785.3c-41.293 0-74.953 33.926-74.957 75.352 0 41.426 33.664 75.328 74.957 75.328s74.957-33.902 74.957-75.328-33.664-75.352-74.957-75.352zm352.54 0c-41.293 0-74.953 33.926-74.957 75.352 0 41.426 33.664 75.328 74.957 75.328 41.293 0 74.934-33.902 74.934-75.328s-33.641-75.352-74.934-75.352z"/>
</svg>
