<?xml version="1.0" encoding="UTF-8"?>
<svg width="1200pt" height="1200pt" version="1.1" viewBox="0 0 1200 1200" xmlns="http://www.w3.org/2000/svg">
 <path d="m60 60v112.2h592.08c3.8398 12 13.32 21.48 25.32 25.199v43.078h-107.64c-4.9219-15.719-19.441-27.238-36.84-27.238-21.359 0-38.762 17.398-38.762 38.762 0 21.359 17.398 38.762 38.762 38.762 17.398 0 31.922-11.52 36.84-27.359h266.4v101.28h101.28v267.48c-15.719 4.9219-27.238 19.441-27.238 36.84 0 21.359 17.398 38.762 38.762 38.762 21.359 0 38.762-17.398 38.762-38.762 0-17.398-11.52-31.922-27.359-36.84v-107.64h45.359c3.6016 11.52 12.359 20.762 23.641 24.84v584.76h110.64l-0.003906-1074.1zm1057.2 180.48h-55.559v-101.16h-101.28v-56.52h156.84zm-222.72 0h-35.281v-78.359h78.359v35.281c-21.602 4.5586-38.52 21.48-43.078 43.078zm54.48-21.48c18.121 0 32.879 14.762 32.879 32.879 0 18.121-14.762 32.879-32.879 32.879-18.121 0-32.879-14.762-32.879-32.879 0-18.121 14.762-32.879 32.879-32.879zm11.398 87.359c21.602-4.5586 38.641-21.602 43.199-43.078h35.281v78.48h-78.48zm43.078-66c-4.5586-21.602-21.602-38.641-43.078-43.078v-35.281h78.48v78.359zm-920.64-157.56h594.6v41.039c-12.121 3.8398-21.719 13.32-25.441 25.559h-569.16zm606 61.922c8.7617 0 15.84 7.0781 15.84 15.84s-7.0781 15.84-15.84 15.84-15.84-7.0781-15.84-15.84 7.0781-15.84 15.84-15.84zm-155.88 123.12c-8.7617 0-15.84-7.0781-15.84-15.84 0-8.7617 7.0781-15.84 15.84-15.84s15.84 7.0781 15.84 15.84c0 8.7617-7.0781 15.84-15.84 15.84zm167.28-27.359v-43.078c15.719-4.9219 27.238-19.441 27.238-36.84 0-17.398-11.52-31.922-27.238-36.84v-41.039h237.24v56.398h-101.28v101.28h-135.96zm158.88 101.28v-78.48h35.281c4.5586 21.602 21.48 38.641 43.078 43.078v35.281h-78.359zm89.879 342.96c-8.7617 0-15.84-7.0781-15.84-15.84s7.0781-15.84 15.84-15.84c8.7617 0 15.84 7.0781 15.84 15.84s-7.0781 15.84-15.84 15.84zm11.398-320.16h101.28v-101.28h55.559v238.32h-37.922c-4.9219-15.719-19.441-27.359-36.84-27.359s-31.922 11.52-36.84 27.359h-45.359v-137.04zm82.199 132.48c8.7617 0 15.84 7.0781 15.84 15.84s-7.0781 15.84-15.84 15.84c-8.7617 0-15.84-7.0781-15.84-15.84s7.0781-15.84 15.84-15.84zm9.7188 614.04 0.003906-560.77c12.961-3.3594 23.16-13.199 27.121-25.922h37.922v586.8h-65.039z"/>
</svg>
