<?xml version="1.0" encoding="UTF-8"?>
<svg width="1200pt" height="1200pt" version="1.1" viewBox="0 0 1200 1200" xmlns="http://www.w3.org/2000/svg">
 <path d="m615.51 639.61h-31.617c-6.6289 0-12 5.3711-12 12s5.3711 12 12 12h31.617c6.6289 0 12-5.3711 12-12s-5.375-12-12-12z"/>
 <path d="m583.89 490.57h31.617c6.6289 0 12-5.3711 12-12 0-6.6289-5.3711-12-12-12h-31.617c-6.6289 0-12 5.3711-12 12 0 6.6289 5.375 12 12 12z"/>
 <path d="m583.89 317.53h31.617c6.6289 0 12-5.3711 12-12s-5.3711-12-12-12h-31.617c-6.6289 0-12 5.3711-12 12s5.375 12 12 12z"/>
 <path d="m615.51 812.65h-31.617c-6.6289 0-12 5.3711-12 12 0 6.6289 5.3711 12 12 12h31.617c6.6289 0 12-5.3711 12-12 0-6.6289-5.375-12-12-12z"/>
 <path d="m749.33 1080h120c6.6289 0 12-5.3711 12-12v-57.82h37.301c6.6289 0 12-5.3711 12-12v-866.18c0-6.6289-5.3711-12-12-12h-637.86c-6.6289 0-12 5.3711-12 12v866.18c0 6.6289 5.3711 12 12 12h37.305v57.82c0 6.6289 5.3711 12 12 12h120c6.6289 0 12-5.3711 12-12v-57.82h275.25v57.82c0.003906 6.6289 5.375 12 12.004 12zm108-24h-96v-45.82h96zm-564.56-912h613.86v842.18h-613.86zm145.31 912h-96v-45.82h96z"/>
 <path d="m368.82 871.17c19.852 0 36 16.148 36 36 0 6.6289 5.3711 12 12 12h365.76c6.6289 0 12-5.3711 12-12 0-19.852 16.148-36 36-36 6.6289 0 12-5.3711 12-12l-0.003906-588.36c0-6.6289-5.3711-12-12-12-19.852 0-36-16.148-36-36 0-6.6289-5.3711-12-12-12h-365.76c-6.6289 0-12 5.3711-12 12 0 19.852-16.148 36-36 36-6.6289 0-12 5.3711-12 12v588.36c0 6.625 5.3711 12 12 12zm12-294.08h437.76v149.04h-437.76zm437.76-24h-437.76v-149.04h437.76zm-46.793 342.08h-344.18c-4.7812-23.473-23.32-42.012-46.793-46.793v-98.25h437.76v98.25c-23.473 4.7812-42.012 23.32-46.793 46.793zm-344.18-660.36h344.17c4.7812 23.473 23.32 42.012 46.793 46.793v98.449h-437.75v-98.449c23.473-4.7812 42.008-23.32 46.789-46.793z"/>
</svg>
