<?xml version="1.0" encoding="UTF-8"?>
<svg width="1200pt" height="1200pt" version="1.1" viewBox="0 0 1200 1200" xmlns="http://www.w3.org/2000/svg">
 <path d="m833.41 755.7-398.98-570.31-250.73 250.73 572.61 400.59c2.0508-5.6445 4.4805-11.18 7.2852-16.574l-455.06-374.52c-0.39063-0.26953-0.76172-0.57812-1.1094-0.92578-3.125-3.125-3.125-8.1914 0-11.312l124.27-124.27 0.019531 0.019531c0.17578-0.17578 0.35938-0.34375 0.55469-0.50391 3.3945-2.8086 8.418-2.332 11.227 1.0625l373.74 454.11c5.2539-3.0703 10.66-5.7695 16.188-8.0977zm-391.36-587.3 127.39 182.09 150.54-150.54 0.019531 0.019531c0.78516-0.78516 1.7461-1.418 2.8516-1.832 4.125-1.5391 8.7148 0.55859 10.254 4.6836l67.582 180.63 198.55-198.55 0.015624 0.015625c1.3867-1.3867 3.2852-2.2695 5.3984-2.3359 4.4062-0.13281 8.0859 3.3281 8.2188 7.7344l23.828 816.92h-0.003906l0.003906 0.26562-0.09375 19.41c-0.011719 4.3633-3.5352 7.918-7.9102 7.9531l-19.691 0.15234c-0.14453 0.003906-0.29297 0.003906-0.4375 0l-819.34-20.422c-2.168 0.10156-4.3711-0.67578-6.0312-2.3359-3.125-3.125-3.125-8.1914 0-11.312l198.55-198.55-179.99-67.344c-1.2852-0.35547-2.5-1.0391-3.5117-2.0508-3.125-3.125-3.125-8.1914 0-11.312l150.54-150.54-181.8-127.19c-0.47656-0.30469-0.92969-0.66797-1.3477-1.0859-3.125-3.125-3.125-8.1914 0-11.312l264.21-264.21 0.003906 0.003907c0.32031-0.32031 0.67188-0.61719 1.0586-0.88672 3.6133-2.5391 8.5977-1.668 11.137 1.9453zm136.7 195.41 53.168 75.996 81.254-81.254 0.023437 0.027344c0.66797-0.66797 1.4688-1.2305 2.3828-1.6367 4.0156-1.793 8.7227 0.007812 10.52 4.0234l170.92 384.12c7.8203 0.51953 15.605 1.6914 23.266 3.5156l-197.75-528.56-143.77 143.77zm62.48 89.309 207.83 297.07c9.9766-2.8594 20.207-4.5898 30.492-5.1875l-163.27-366.94-75.051 75.051zm110.28 399.76-300.09-209.94-74.527 74.527 371.01 165.08c0.14453-9.9648 1.3477-19.914 3.6133-29.672zm-313.41-219.25-75.996-53.168-143.77 143.77 535.34 200.29c-2.3906-8.0547-4.0391-16.281-4.9492-24.574-0.78906-0.089844-1.5781-0.30078-2.3438-0.64453l-386.6-172.02c-4.0156-1.793-5.8164-6.5039-4.0234-10.52 0.41016-0.91406 0.96875-1.7148 1.6367-2.3828l-0.027344-0.027343 80.734-80.734zm368.75-233.7 35.684 95.375 81.5-81.5 0.007812 0.007813c1.1875-1.1875 2.7539-2.0117 4.543-2.2617 4.3672-0.60938 8.4062 2.4375 9.0156 6.8047l52.156 370.64c10.969 11.691 19.547 24.805 25.742 38.723l-18.039-618.4-190.61 190.61zm41.844 111.84 90.898 242.95c11.125 4.4375 21.797 10.359 31.711 17.766l-47.285-336.03-75.156 75.156-0.16406 0.16016zm-90.312 431.54-248.32-92.906-74.785 74.785 344.32 48.117c-7.5508-9.1836-13.75-19.102-18.605-29.492-0.86719-0.019531-1.7461-0.18359-2.6055-0.5zm-264.79-99.066-95.41-35.695c-0.15625 0.1875-0.32031 0.37109-0.49609 0.54297l-190 190 628.8 15.672c-13.656-5.3672-26.637-12.965-38.383-22.793-0.27734-0.007812-0.55859-0.035156-0.83984-0.074219l-380.09-53.117c-4.3672-0.60938-7.418-4.6484-6.8047-9.0156 0.25-1.7891 1.0742-3.3594 2.2617-4.543l-0.007813-0.007812 80.98-80.98zm438.8 172.92 76.508 1.9062 11.793-0.089843 0.054688-11.281-2.1523-73.727c-6.7969 18.062-17.465 35-31.996 49.531-15.781 15.781-34.395 27-54.207 33.66zm-143.56-231.43c4.7656-4.7656 9.793-9.1172 15.031-13.051l-367.09-446.03-111.84 111.84 446.9 367.8c4.9102-7.25 10.574-14.137 16.996-20.559zm98.883-24.961c-31.691 0-63.387 12.09-87.57 36.273-24.184 24.184-36.273 55.875-36.273 87.57 0 31.691 12.09 63.387 36.273 87.57 24.184 24.184 55.875 36.273 87.57 36.273 31.691 0 63.387-12.09 87.57-36.273 24.184-24.184 36.273-55.875 36.273-87.57 0-31.691-12.09-63.387-36.273-87.57s-55.875-36.273-87.57-36.273zm-45.766 78.074c12.637-12.637 29.203-18.957 45.766-18.957 16.566 0 33.129 6.3203 45.766 18.957s18.957 29.203 18.957 45.766c0 16.566-6.3203 33.129-18.957 45.766s-29.203 18.957-45.766 18.957c-16.566 0-33.129-6.3203-45.766-18.957s-18.957-29.203-18.957-45.766c0-16.566 6.3203-33.129 18.957-45.766zm45.766-2.957c-12.469 0-24.938 4.7578-34.453 14.273s-14.273 21.984-14.273 34.453 4.7578 24.938 14.273 34.453 21.984 14.273 34.453 14.273 24.938-4.7578 34.453-14.273 14.273-21.984 14.273-34.453-4.7578-24.938-14.273-34.453-21.984-14.273-34.453-14.273z"/>
</svg>
