<?xml version="1.0" encoding="UTF-8"?>
<svg width="1200pt" height="1200pt" version="1.1" viewBox="0 0 1200 1200" xmlns="http://www.w3.org/2000/svg">
 <path d="m1067 800.23c4.418 0 8 3.582 8 8v167.21h66.098v-247.22h-173.47v72.012zm-8 16h-99.367c-4.418 0-8-3.582-8-8v-758.61c0-4.418 3.582-8 8-8 4.418 0 8 3.582 8 8v662.6h181.47c4.418 0 8 3.582 8 8v263.31c0 4.418-3.582 8-8 8-0.41797 0-0.82422-0.03125-1.2266-0.09375h-72.875v64.098h74.441c4.418 0 8 3.582 8 8v86.852c0 4.418-3.582 8-8 8h-82.492c-4.418 0-8-3.582-8-8v-78.539l-66.551 0.007812v72.922c0.0625 0.39844 0.09375 0.80859 0.09375 1.2266 0 4.418-3.582 8-8 8h-263.31c-4.418 0-8-3.582-8-8v-181.47h-662.6c-4.418 0-8-3.582-8-8s3.582-8 8-8h758.61c4.418 0 8 3.582 8 8v99.398l159.21-0.015626v-64.48h-100.9c-4.418 0-8-3.582-8-8v-112.65c0-4.418 3.582-8 8-8h106.99c4.418 0 8 3.582 8 8v103.42c0.32422 0.37891 0.61328 0.79297 0.86328 1.2305h67.645zm82.285-766.61c0-4.418 3.582-8 8-8 4.418 0 8 3.582 8 8v497.41c0 4.418-3.582 8-8 8-4.418 0-8-3.582-8-8zm-166.79 925.82v-96.648h-90.992v96.648zm84.508 16h-66.598v64.477l66.598-0.007812v-64.473zm82.441 150.95v-70.852h-66.441v8c0 0.30078-0.015625 0.59766-0.050781 0.89062v61.961zm-165.04-70.531-166.5 0.015626c-0.23047 0.019531-0.46875 0.03125-0.70312 0.03125-4.418 0-8-3.582-8-8v-99.367h-72.012v173.47h247.22zm-925.82 82.332c-4.418 0-8-3.582-8-8 0-4.418 3.582-8 8-8h497.41c4.418 0 8 3.582 8 8 0 4.418-3.582 8-8 8z"/>
</svg>
