<?xml version="1.0" encoding="UTF-8"?>
<svg width="1200pt" height="1200pt" version="1.1" viewBox="0 0 1200 1200" xmlns="http://www.w3.org/2000/svg">
 <path d="m851.09 35.676c2.2188 0 4.0195 1.8008 4.0195 4.0195-0.23047 17.844 0 35.859 0 53.723h18.965v-53.652c0-2.1289 1.6523-3.8672 3.7461-4.0078 0.25781-0.050781 0.52344-0.078124 0.79688-0.078124h55.227v-17.652h-64.855v53.523c0 2.2109-1.793 4.0039-4.0039 4.0039s-4.0039-1.793-4.0039-4.0039v-53.523h-64.855v17.652h54.965zm-496.64 1123.1c-2.2188 0-4.0195-1.8008-4.0195-4.0195 0.23047-17.844 0-35.859 0-53.723h-18.965v53.652c0 2.1289-1.6523 3.8672-3.7461 4.0078-0.25781 0.050781-0.52344 0.078125-0.79688 0.078125h-55.227v17.652h64.855v-53.523c0-2.2109 1.793-4.0039 4.0039-4.0039 2.2109 0 4.0039 1.793 4.0039 4.0039v53.523h64.855v-17.652h-54.965zm4.0195-8.0391h54.965c2.2188 0 4.0195 1.8008 4.0195 4.0195v4.6953l98.742 0.066407c2.2109 0 4.0039 1.793 4.0039 4.0039 0 2.2109-1.793 4.0039-4.0039 4.0039l-98.742-0.066406v12.988c0 2.2188-1.8008 4.0195-4.0195 4.0195h-71.922c-0.30859 0.074219-0.62891 0.11719-0.95703 0.11719s-0.65234-0.039063-0.95703-0.11719h-70.898c-0.32422 0.085938-0.66797 0.13281-1.0195 0.13281-0.35156 0-0.69531-0.046875-1.0195-0.13281h-68.711c-2.2188 0-4.0195-1.8008-4.0195-4.0195 0-0.12109 0.003907-0.23828 0.015625-0.35156v-8.4961l-32.141-0.0625c-2.2109 0-4.0039-1.793-4.0039-4.0039l-0.035156-28.281-31.16-0.058593c-2.2109 0-4.0039-1.793-4.0039-4.0039l-0.074218-57.73-57.73-0.074219c-2.2109 0-4.0039-1.793-4.0039-4.0039l-0.058593-31.16-28.281-0.035156c-2.2109 0-4.0039-1.793-4.0039-4.0039l-0.0625-32.141h-8.4961c-0.11719 0.011719-0.23438 0.015625-0.35156 0.015625-2.2188 0-4.0195-1.8008-4.0195-4.0195v-68.711c-0.085937-0.32812-0.13281-0.66797-0.13281-1.0195s0.046876-0.69531 0.13281-1.0195v-70.898c-0.074219-0.30859-0.11719-0.62891-0.11719-0.95703s0.039062-0.65234 0.11719-0.95703v-71.922c0-2.2188 1.8008-4.0195 4.0195-4.0195h12.891l-0.066406-98.742c0-2.2109 1.793-4.0039 4.0039-4.0039 2.2109 0 4.0039 1.793 4.0039 4.0039l0.066406 98.742h4.7969c2.2188 0 4.0195 1.8008 4.0195 4.0195v54.965h53.723c2.2188 0 4.0195 1.8008 4.0195 4.0195v27c0 2.2188-1.8008 4.0195-4.0195 4.0195h-53.723v125.48h-0.015625c0 2.2109-1.793 4.0039-4.0039 4.0039h-8.8359l0.054688 28.141 86.023 0.10938-0.035156-28.152c0-2.2109 1.793-4.0039 4.0039-4.0039 2.2109 0 4.0039 1.793 4.0039 4.0039l0.035157 28.16 31.02 0.039062c1.1406 0 2.1719 0.47656 2.9023 1.2461 0.76562 0.73047 1.2422 1.7578 1.2422 2.8984l0.039063 31.02 28.16 0.035157c2.2109 0 4.0039 1.793 4.0039 4.0039s-1.793 4.0039-4.0039 4.0039l-28.152-0.035156 0.10938 86.023 28.141 0.054688v-8.8359c0-2.2109 1.793-4.0039 4.0039-4.0039v-0.015625h125.48v-53.723c0-2.2188 1.8008-4.0195 4.0195-4.0195h27c2.2188 0 4.0195 1.8008 4.0195 4.0195zm-156.52 25.691h61.711v-17.652h-61.711zm-44.195-45.18-0.066406-53.742-27.148-0.035157 0.066406 53.723 27.148 0.050781zm-0.078125-61.75-0.035156-27.148-27.148-0.035157 0.035157 27.148zm-35.156-0.042968-0.035156-27.148-53.742-0.066406 0.050781 27.148 53.723 0.066407zm480.25 109.92-157.01-0.066406c-2.2109 0-4.0039-1.793-4.0039-4.0039 0-2.2109 1.793-4.0039 4.0039-4.0039l157.01 0.066406 157.01-0.066406c2.2109 0 4.0039 1.793 4.0039 4.0039 0 2.2109-1.793 4.0039-4.0039 4.0039zm-557.5-329.81h-0.03125c-2.2188 0-4.0195-1.8008-4.0195-4.0195v-54.965h-17.652v64.855h53.523c2.2109 0 4.0039 1.793 4.0039 4.0039 0 2.2109-1.793 4.0039-4.0039 4.0039h-53.523v64.855h17.652v-55.227c0-0.27344 0.027343-0.53906 0.078124-0.79688 0.14063-2.0898 1.8828-3.7461 4.0078-3.7461h53.652v-18.965h-53.691zm-21.703 86.77v61.711h17.652v-61.711zm5.0625-339.11 0.066406 157.01c0 2.2109-1.793 4.0039-4.0039 4.0039-2.2109 0-4.0039-1.793-4.0039-4.0039l-0.066407-157.01 0.066407-157.01c0-2.2109 1.793-4.0039 4.0039-4.0039 2.2109 0 4.0039 1.793 4.0039 4.0039zm321.8-557.5v-0.03125c0-2.2188 1.8008-4.0195 4.0195-4.0195h54.965v-17.652h-64.855v53.523c0 2.2109-1.793 4.0039-4.0039 4.0039-2.2109 0-4.0039-1.793-4.0039-4.0039v-53.523h-64.855v17.652h55.227c0.27344 0 0.53906 0.027344 0.79688 0.078125 2.0898 0.14062 3.7461 1.8828 3.7461 4.0078v53.652h18.965v-53.691zm63 3.9883h-54.965v53.723c0 2.2188-1.8008 4.0195-4.0195 4.0195h-27c-2.2188 0-4.0195-1.8008-4.0195-4.0195v-53.723h-125.48v-0.015625c-2.2109 0-4.0039-1.793-4.0039-4.0039v-8.8359l-28.141 0.054687-0.10938 86.023 28.152-0.035156c2.2109 0 4.0039 1.793 4.0039 4.0039s-1.793 4.0039-4.0039 4.0039l-28.16 0.035156-0.039063 31.02c0 1.1406-0.47656 2.1719-1.2422 2.8984-0.73047 0.76562-1.7578 1.2461-2.9023 1.2461l-31.02 0.039063-0.035156 28.16c0 2.2109-1.793 4.0039-4.0039 4.0039s-4.0039-1.793-4.0039-4.0039l0.035156-28.152-86.023 0.10938-0.054687 28.141h8.8359c2.2109 0 4.0039 1.793 4.0039 4.0039h0.015625v125.48h53.723c2.2188 0 4.0195 1.8008 4.0195 4.0195v27c0 2.2188-1.8008 4.0195-4.0195 4.0195h-53.723v54.965c0 2.2188-1.8008 4.0195-4.0195 4.0195h-4.7969l-0.066407 98.742c0 2.2109-1.793 4.0039-4.0039 4.0039s-4.0039-1.793-4.0039-4.0039l0.066406-98.742h-12.891c-2.2188 0-4.0195-1.8008-4.0195-4.0195v-71.922c-0.074219-0.30859-0.11719-0.62891-0.11719-0.95703s0.039063-0.65234 0.11719-0.95703v-70.898c-0.085938-0.32422-0.13281-0.66797-0.13281-1.0195s0.046875-0.69531 0.13281-1.0195v-68.711c0-2.2188 1.8008-4.0195 4.0195-4.0195 0.12109 0 0.23828 0.003906 0.35156 0.015625h8.4961l0.0625-32.141c0-2.2109 1.793-4.0039 4.0039-4.0039l28.281-0.035157 0.058594-31.16c0-2.2109 1.793-4.0039 4.0039-4.0039l57.73-0.074219 0.074219-57.73c0-2.2109 1.793-4.0039 4.0039-4.0039l31.16-0.058594 0.035157-28.281c0-2.2109 1.793-4.0039 4.0039-4.0039l32.141-0.0625v-8.4922c-0.011719-0.11719-0.015625-0.23438-0.015625-0.35156 0-2.2188 1.8008-4.0195 4.0195-4.0195h68.711c0.32812-0.085937 0.66797-0.13281 1.0195-0.13281s0.69531 0.046876 1.0195 0.13281h70.898c0.30859-0.074219 0.62891-0.11719 0.95703-0.11719s0.65234 0.039062 0.95703 0.11719h71.922c2.2188 0 4.0195 1.8008 4.0195 4.0195v12.988l98.742-0.066407c2.2109 0 4.0039 1.793 4.0039 4.0039 0 2.2109-1.793 4.0039-4.0039 4.0039l-98.742 0.066406v4.6953c0 2.2188-1.8008 4.0195-4.0195 4.0195zm-149.77-25.691h-61.711v17.652h61.711zm-106.02 134.08 0.035156-27.148-27.148 0.035156-0.035157 27.148zm0.042969-35.156 0.066406-53.742-27.148 0.050781-0.066406 53.723 27.148-0.035156zm-35.199 35.203 0.035156-27.148-53.723 0.066406-0.050781 27.148 53.742-0.066406zm480.29-129.06-157.01 0.066406c-2.2109 0-4.0039-1.793-4.0039-4.0039 0-2.2109 1.793-4.0039 4.0039-4.0039l157.01-0.066407 157.01 0.066407c2.2109 0 4.0039 1.793 4.0039 4.0039 0 2.2109-1.793 4.0039-4.0039 4.0039zm-561.55 325.82c0-2.2188 1.8008-4.0195 4.0195-4.0195 17.844 0.23047 35.859 0 53.723 0v-18.965h-53.652c-2.1289 0-3.8672-1.6523-4.0078-3.7461-0.050781-0.25781-0.078125-0.52344-0.078125-0.79688v-55.227h-17.652v64.855h53.523c2.2109 0 4.0039 1.793 4.0039 4.0039s-1.793 4.0039-4.0039 4.0039h-53.523v64.855h17.652v-54.965zm-17.652-152.5v61.711h17.652v-61.711zm831.55 958.32v0.03125c0 2.2188-1.8008 4.0195-4.0195 4.0195h-54.965v17.652h64.855v-53.523c0-2.2109 1.793-4.0039 4.0039-4.0039 2.2109 0 4.0039 1.793 4.0039 4.0039v53.523h64.855v-17.652h-55.227c-0.27344 0-0.53906-0.027344-0.79688-0.078125-2.0898-0.14062-3.7461-1.8828-3.7461-4.0078v-53.652h-18.965v53.691zm-63.004-3.9883h54.965v-53.723c0-2.2188 1.8008-4.0195 4.0195-4.0195h27c2.2188 0 4.0195 1.8008 4.0195 4.0195v53.723h125.48v0.015625c2.2109 0 4.0039 1.793 4.0039 4.0039v8.8359l28.141-0.054687 0.10938-86.023-28.152 0.035156c-2.2109 0-4.0039-1.793-4.0039-4.0039 0-2.2109 1.793-4.0039 4.0039-4.0039l28.16-0.035156 0.039063-31.02c0-1.1406 0.47656-2.1719 1.2422-2.8984 0.73047-0.76562 1.7578-1.2461 2.9023-1.2461l31.02-0.039062 0.035157-28.16c0-2.2109 1.793-4.0039 4.0039-4.0039 2.2109 0 4.0039 1.793 4.0039 4.0039l-0.035156 28.152 86.023-0.10938 0.054688-28.141h-8.8359c-2.2109 0-4.0039-1.793-4.0039-4.0039h-0.015625v-125.48h-53.723c-2.2188 0-4.0195-1.8008-4.0195-4.0195v-27c0-2.2188 1.8008-4.0195 4.0195-4.0195h53.723v-54.965c0-2.2188 1.8008-4.0195 4.0195-4.0195h4.7969l0.066406-98.742c0-2.2109 1.793-4.0039 4.0039-4.0039 2.2109 0 4.0039 1.793 4.0039 4.0039l-0.066406 98.742h12.891c2.2188 0 4.0195 1.8008 4.0195 4.0195v71.922c0.074219 0.30859 0.11719 0.62891 0.11719 0.95703 0 0.32813-0.039062 0.65234-0.11719 0.95703v70.898c0.085937 0.32422 0.13281 0.66797 0.13281 1.0195 0 0.35156-0.046876 0.69531-0.13281 1.0195v68.711c0 2.2188-1.8008 4.0195-4.0195 4.0195-0.12109 0-0.23828-0.003906-0.35156-0.015624h-8.4922l-0.0625 32.141c0 2.2109-1.793 4.0039-4.0039 4.0039l-28.281 0.035156-0.058594 31.16c0 2.2109-1.793 4.0039-4.0039 4.0039l-57.73 0.074218-0.074219 57.73c0 2.2109-1.793 4.0039-4.0039 4.0039l-31.16 0.058594-0.035157 28.281c0 2.2109-1.793 4.0039-4.0039 4.0039l-32.141 0.0625v8.4961c0.011719 0.11719 0.015625 0.23438 0.015625 0.35156 0 2.2188-1.8008 4.0195-4.0195 4.0195h-68.711c-0.32812 0.085937-0.66797 0.13281-1.0195 0.13281s-0.69531-0.046875-1.0195-0.13281h-70.898c-0.30859 0.074219-0.62891 0.11719-0.95703 0.11719s-0.65234-0.039062-0.95703-0.11719h-71.922c-2.2188 0-4.0195-1.8008-4.0195-4.0195v-12.988l-98.742 0.066406c-2.2109 0-4.0039-1.793-4.0039-4.0039 0-2.2109 1.793-4.0039 4.0039-4.0039l98.742-0.066406v-4.6953c0-2.2188 1.8008-4.0195 4.0195-4.0195zm149.77 25.691h61.711v-17.652h-61.711zm106.02-134.08-0.035156 27.148 27.148-0.035156 0.035156-27.148zm-0.042969 35.156-0.066406 53.742 27.148-0.050781 0.066406-53.723-27.148 0.035156zm35.199-35.203-0.035156 27.148 53.723-0.066407 0.050781-27.148-53.742 0.066406zm81.27-196.76c0 2.2188-1.8008 4.0195-4.0195 4.0195-17.844-0.23047-35.859 0-53.723 0v18.965h53.652c2.1289 0 3.8672 1.6523 4.0078 3.7461 0.050781 0.25781 0.078125 0.52344 0.078125 0.79688v55.227h17.652v-64.855h-53.523c-2.2109 0-4.0039-1.793-4.0039-4.0039 0-2.2109 1.793-4.0039 4.0039-4.0039h53.523v-64.855h-17.652v54.965zm17.652 152.5v-61.711h-17.652v61.711zm2.9453-400.82-0.066406 157.01c0 2.2109-1.793 4.0039-4.0039 4.0039s-4.0039-1.793-4.0039-4.0039l0.066406-157.01-0.066406-157.01c0-2.2109 1.793-4.0039 4.0039-4.0039s4.0039 1.793 4.0039 4.0039zm-337.85-553.52h-54.965c-2.2188 0-4.0195-1.8008-4.0195-4.0195v-4.6953l-98.742-0.066406c-2.2109 0-4.0039-1.793-4.0039-4.0039 0-2.2109 1.793-4.0039 4.0039-4.0039l98.742 0.066407v-12.988c0-2.2188 1.8008-4.0195 4.0195-4.0195h71.922c0.30859-0.074219 0.62891-0.11719 0.95703-0.11719s0.65234 0.039062 0.95703 0.11719h70.898c0.32422-0.085937 0.66797-0.13281 1.0195-0.13281 0.35156 0 0.69531 0.046876 1.0195 0.13281h68.711c2.2188 0 4.0195 1.8008 4.0195 4.0195 0 0.12109-0.003907 0.23828-0.015625 0.35156v8.4922l32.141 0.0625c2.2109 0 4.0039 1.793 4.0039 4.0039l0.035156 28.281 31.16 0.058594c2.2109 0 4.0039 1.793 4.0039 4.0039l0.074218 57.73 57.73 0.074219c2.2109 0 4.0039 1.793 4.0039 4.0039l0.058593 31.16 28.281 0.035157c2.2109 0 4.0039 1.793 4.0039 4.0039l0.0625 32.141h8.4922c0.11719-0.011719 0.23438-0.015625 0.35156-0.015625 2.2188 0 4.0195 1.8008 4.0195 4.0195v68.711c0.085937 0.32812 0.13281 0.66797 0.13281 1.0195s-0.046875 0.69531-0.13281 1.0195v70.898c0.074219 0.30859 0.11719 0.62891 0.11719 0.95703s-0.039062 0.65234-0.11719 0.95703v71.922c0 2.2188-1.8008 4.0195-4.0195 4.0195h-12.891l0.066407 98.742c0 2.2109-1.793 4.0039-4.0039 4.0039-2.2109 0-4.0039-1.793-4.0039-4.0039l-0.066406-98.742h-4.7969c-2.2188 0-4.0195-1.8008-4.0195-4.0195v-54.965h-53.723c-2.2188 0-4.0195-1.8008-4.0195-4.0195v-27c0-2.2188 1.8008-4.0195 4.0195-4.0195h53.723v-125.48h0.015625c0-2.2109 1.793-4.0039 4.0039-4.0039h8.8359l-0.054687-28.141-86.023-0.10938 0.035156 28.152c0 2.2109-1.793 4.0039-4.0039 4.0039-2.2109 0-4.0039-1.793-4.0039-4.0039l-0.035156-28.16-31.02-0.039063c-1.1406 0-2.1719-0.47656-2.9023-1.2461-0.76562-0.73047-1.2422-1.7578-1.2422-2.8984l-0.039062-31.02-28.16-0.035156c-2.2109 0-4.0039-1.793-4.0039-4.0039s1.793-4.0039 4.0039-4.0039l28.152 0.035156-0.10938-86.023-28.141-0.054687v8.8359c0 2.2109-1.793 4.0039-4.0039 4.0039v0.015625h-125.48v53.723c0 2.2188-1.8008 4.0195-4.0195 4.0195h-27c-2.2188 0-4.0195-1.8008-4.0195-4.0195v-53.723zm156.52-25.691h-61.711v17.652h61.711zm44.195 45.18 0.066406 53.742 27.148 0.035157-0.066406-53.723-27.148-0.050781zm0.078125 61.75 0.035156 27.148 27.148 0.035157-0.035157-27.148zm35.156 0.042969 0.035156 27.148 53.742 0.066407-0.050781-27.148-53.723-0.066406zm77.254 219.89h0.03125c2.2188 0 4.0195 1.8008 4.0195 4.0195v54.965h17.652v-64.855h-53.523c-2.2109 0-4.0039-1.793-4.0039-4.0039s1.793-4.0039 4.0039-4.0039h53.523v-64.855h-17.652v55.227c0 0.27344-0.027343 0.53906-0.078124 0.79688-0.14063 2.0898-1.8828 3.7461-4.0078 3.7461h-53.652v18.965h53.691zm21.703-86.77v-61.711h-17.652v61.711z"/>
</svg>
