<?xml version="1.0" encoding="UTF-8"?>
<svg width="1200pt" height="1200pt" version="1.1" viewBox="0 0 1200 1200" xmlns="http://www.w3.org/2000/svg">
 <path d="m685.75 240.9c0 4.418-3.582 8-8 8-4.418 0-8-3.582-8-8 0-3.3164-1.2852-6.2852-3.3633-8.4102-2.0508-2.0977-4.8867-3.3945-8.0156-3.3945s-5.9609 1.2969-8.0156 3.3945c-2.0781 2.125-3.3633 5.0938-3.3633 8.4102 0 8.7852 3.4531 16.707 9.0391 22.414 5.5586 5.6797 13.234 9.1953 21.715 9.1953s16.156-3.5156 21.715-9.1953c5.5859-5.707 9.0391-13.629 9.0391-22.414 0-14.254-5.6211-27.125-14.715-36.418-9.0664-9.2656-21.586-14.996-35.418-14.996-13.828 0-26.352 5.7305-35.418 14.996-9.0898 9.2891-14.715 22.164-14.715 36.418 0 19.723 7.793 37.547 20.391 50.422 12.57 12.848 29.938 20.797 49.117 20.797 19.18 0 36.547-7.9492 49.117-20.797 12.598-12.875 20.387-30.699 20.387-50.422 0-4.418 3.582-8 8-8s8 3.582 8 8c0 24.027-9.5586 45.812-25.012 61.609-7.1055 7.2617-15.457 13.25-24.695 17.609 9.2383 4.3555 17.59 10.348 24.695 17.609 15.453 15.797 25.012 37.578 25.012 61.609 0 4.418-3.582 8-8 8s-8-3.582-8-8c0-19.723-7.793-37.547-20.387-50.422-12.57-12.848-29.938-20.797-49.117-20.797-19.18 0-36.547 7.9492-49.117 20.797-12.598 12.875-20.391 30.699-20.391 50.422 0 14.254 5.6211 27.125 14.715 36.418 9.0664 9.2656 21.586 14.996 35.418 14.996 13.828 0 26.352-5.7305 35.418-14.996 9.0898-9.2891 14.715-22.164 14.715-36.418 0-8.7852-3.4531-16.707-9.0391-22.414-5.5586-5.6797-13.234-9.1953-21.715-9.1953s-16.156 3.5156-21.715 9.1953c-5.5859 5.707-9.0391 13.629-9.0391 22.414 0 3.3164 1.2852 6.2852 3.3633 8.4102 2.0508 2.0977 4.8867 3.3945 8.0156 3.3945s5.9609-1.2969 8.0156-3.3945c2.0781-2.125 3.3633-5.0938 3.3633-8.4102 0-4.418 3.582-8 8-8 4.418 0 8 3.582 8 8 0 7.6211-3.0508 14.555-7.9883 19.598-4.9609 5.0703-11.816 8.207-19.391 8.207s-14.43-3.1367-19.391-8.207c-4.9336-5.043-7.9883-11.977-7.9883-19.598 0-13.09 5.2227-24.973 13.664-33.602 8.4688-8.6523 20.168-14.008 33.09-14.008s24.621 5.3516 33.09 14.008c8.4414 8.6289 13.664 20.512 13.664 33.602 0 18.559-7.3906 35.395-19.34 47.605-4.5703 4.668-9.8047 8.6602-15.547 11.809 5.7422 3.1484 10.977 7.1367 15.547 11.809 11.949 12.211 19.34 29.043 19.34 47.605 0 13.09-5.2227 24.973-13.664 33.602-8.4688 8.6523-20.168 14.008-33.09 14.008s-24.625-5.3516-33.09-14.008c-8.4414-8.6289-13.664-20.512-13.664-33.602 0-7.6211 3.0508-14.555 7.9883-19.598 4.9609-5.0703 11.816-8.207 19.391-8.207s14.43 3.1367 19.391 8.207c4.9336 5.043 7.9883 11.977 7.9883 19.598 0 4.418-3.582 8-8 8-4.418 0-8-3.582-8-8 0-3.3164-1.2852-6.2852-3.3633-8.4102-2.0508-2.0977-4.8867-3.3945-8.0156-3.3945s-5.9609 1.2969-8.0156 3.3945c-2.0781 2.125-3.3633 5.0938-3.3633 8.4102 0 8.7852 3.4531 16.707 9.0391 22.414 5.5586 5.6797 13.234 9.1953 21.715 9.1953s16.156-3.5156 21.715-9.1953c5.5859-5.707 9.0391-13.629 9.0391-22.414 0-14.254-5.6211-27.125-14.715-36.418-9.0664-9.2656-21.586-14.996-35.418-14.996-13.828 0-26.352 5.7305-35.418 14.996-9.0898 9.2891-14.715 22.164-14.715 36.418 0 19.723 7.793 37.547 20.391 50.422 12.57 12.848 29.938 20.797 49.117 20.797 19.18 0 36.547-7.9492 49.117-20.797 12.598-12.875 20.387-30.699 20.387-50.422 0-4.418 3.582-8 8-8s8 3.582 8 8c0 24.027-9.5586 45.812-25.012 61.609-7.1055 7.2617-15.457 13.25-24.695 17.609 9.2383 4.3555 17.59 10.348 24.695 17.609 15.453 15.797 25.012 37.578 25.012 61.609 0 4.418-3.582 8-8 8s-8-3.582-8-8c0-19.723-7.793-37.547-20.387-50.422-12.57-12.848-29.938-20.797-49.117-20.797-19.18 0-36.547 7.9492-49.117 20.797-12.598 12.875-20.391 30.699-20.391 50.422 0 14.254 5.6211 27.125 14.715 36.418 9.0664 9.2656 21.586 14.996 35.418 14.996 13.828 0 26.352-5.7305 35.418-14.996 9.0898-9.2891 14.715-22.164 14.715-36.418 0-8.7852-3.4531-16.707-9.0391-22.414-5.5586-5.6797-13.234-9.1953-21.715-9.1953s-16.156 3.5156-21.715 9.1953c-5.5859 5.707-9.0391 13.629-9.0391 22.414 0 3.3164 1.2852 6.2852 3.3633 8.4102 2.0508 2.0977 4.8867 3.3945 8.0156 3.3945s5.9609-1.2969 8.0156-3.3945c2.0781-2.125 3.3633-5.0938 3.3633-8.4102 0-4.418 3.582-8 8-8 4.418 0 8 3.582 8 8 0 7.6211-3.0508 14.555-7.9883 19.598-4.9609 5.0703-11.816 8.207-19.391 8.207s-14.43-3.1367-19.391-8.207c-4.9336-5.043-7.9883-11.977-7.9883-19.598 0-13.09 5.2227-24.973 13.664-33.602 8.4688-8.6523 20.168-14.008 33.09-14.008s24.621 5.3516 33.09 14.008c8.4414 8.6289 13.664 20.512 13.664 33.602 0 18.559-7.3906 35.395-19.34 47.605-4.5703 4.668-9.8047 8.6602-15.547 11.809 5.7422 3.1484 10.977 7.1367 15.547 11.809 11.949 12.211 19.34 29.047 19.34 47.605 0 13.09-5.2227 24.973-13.664 33.602-8.4688 8.6523-20.168 14.008-33.09 14.008s-24.625-5.3516-33.09-14.008c-8.4414-8.6289-13.664-20.512-13.664-33.602 0-7.6211 3.0508-14.555 7.9883-19.598 4.9609-5.0703 11.816-8.207 19.391-8.207s14.43 3.1367 19.391 8.207c4.9336 5.043 7.9883 11.977 7.9883 19.598 0 4.418-3.582 8-8 8-4.418 0-8-3.582-8-8 0-3.3164-1.2852-6.2852-3.3633-8.4102-2.0508-2.0977-4.8867-3.3945-8.0156-3.3945s-5.9609 1.2969-8.0156 3.3945c-2.0781 2.125-3.3633 5.0938-3.3633 8.4102 0 8.7852 3.4531 16.707 9.0391 22.414 5.5586 5.6797 13.234 9.1953 21.715 9.1953s16.156-3.5156 21.715-9.1953c5.5859-5.707 9.0391-13.629 9.0391-22.414 0-14.254-5.6211-27.125-14.715-36.418-9.0664-9.2656-21.586-14.996-35.418-14.996-13.828 0-26.352 5.7305-35.418 14.996-9.0898 9.2891-14.715 22.164-14.715 36.418 0 19.723 7.793 37.547 20.391 50.422 12.57 12.848 29.938 20.797 49.117 20.797 19.18 0 36.547-7.9492 49.117-20.797 12.598-12.875 20.387-30.699 20.387-50.422 0-4.418 3.582-8 8-8s8 3.582 8 8c0 24.027-9.5586 45.812-25.012 61.609-7.1055 7.2617-15.457 13.254-24.695 17.609 9.2383 4.3555 17.59 10.348 24.695 17.609 15.453 15.797 25.012 37.582 25.012 61.609 0 4.418-3.582 8-8 8s-8-3.582-8-8c0-19.723-7.793-37.547-20.387-50.422-12.57-12.848-29.938-20.797-49.117-20.797-19.18 0-36.547 7.9492-49.117 20.797-12.598 12.875-20.391 30.699-20.391 50.422 0 14.254 5.6211 27.125 14.715 36.418 9.0664 9.2656 21.586 14.996 35.418 14.996 13.828 0 26.352-5.7305 35.418-14.996 9.0898-9.2891 14.715-22.164 14.715-36.418 0-8.7852-3.4531-16.707-9.0391-22.414-5.5586-5.6797-13.234-9.1953-21.715-9.1953s-16.156 3.5156-21.715 9.1953c-5.5859 5.707-9.0391 13.629-9.0391 22.414 0 3.3164 1.2852 6.2852 3.3633 8.4102 2.0508 2.0977 4.8867 3.3945 8.0156 3.3945s5.9609-1.2969 8.0156-3.3945c2.0781-2.125 3.3633-5.0938 3.3633-8.4102 0-4.418 3.582-8 8-8 4.418 0 8 3.582 8 8 0 7.6211-3.0508 14.555-7.9883 19.598-4.9609 5.0703-11.816 8.207-19.391 8.207s-14.43-3.1367-19.391-8.207c-4.9336-5.043-7.9883-11.977-7.9883-19.598 0-13.09 5.2227-24.973 13.664-33.602 8.4688-8.6523 20.168-14.008 33.09-14.008s24.621 5.3516 33.09 14.008c8.4414 8.6289 13.664 20.512 13.664 33.602 0 18.559-7.3906 35.395-19.34 47.605-11.973 12.238-28.516 19.809-46.793 19.809-18.273 0-34.816-7.5703-46.793-19.809-4.4648-4.5625-8.293-9.7734-11.34-15.477-3.043 5.7031-6.8711 10.914-11.34 15.477-11.973 12.238-28.52 19.809-46.793 19.809-18.273 0-34.816-7.5703-46.793-19.809-11.949-12.211-19.34-29.043-19.34-47.605 0-13.09 5.2227-24.973 13.664-33.602 8.4688-8.6562 20.168-14.008 33.09-14.008 12.922 0 24.621 5.3516 33.09 14.008 8.4414 8.6289 13.664 20.512 13.664 33.602 0 7.6211-3.0508 14.555-7.9883 19.598-4.9609 5.0703-11.816 8.207-19.391 8.207-7.5742 0-14.43-3.1367-19.391-8.207-4.9336-5.043-7.9883-11.977-7.9883-19.598 0-4.418 3.582-8 8-8 4.418 0 8 3.582 8 8 0 3.3164 1.2852 6.2852 3.3633 8.4102 2.0508 2.0977 4.8867 3.3945 8.0156 3.3945 3.1289 0 5.9609-1.2969 8.0156-3.3945 2.0781-2.125 3.3633-5.0938 3.3633-8.4102 0-8.7852-3.4531-16.707-9.0391-22.414-5.5586-5.6797-13.234-9.1953-21.715-9.1953-8.4805 0-16.156 3.5156-21.715 9.1953-5.5859 5.707-9.0391 13.629-9.0391 22.414 0 14.254 5.6211 27.125 14.715 36.418 9.0664 9.2656 21.586 14.996 35.418 14.996 13.828 0 26.352-5.7305 35.418-14.996 9.0898-9.2891 14.715-22.164 14.715-36.418 0-19.723-7.793-37.547-20.391-50.422-12.57-12.848-29.938-20.797-49.117-20.797-19.18 0-36.547 7.9492-49.117 20.797-12.598 12.875-20.387 30.699-20.387 50.422 0 4.418-3.582 8-8 8-4.418 0-8-3.582-8-8 0-24.027 9.5586-45.812 25.012-61.609 7.1055-7.2617 15.457-13.25 24.695-17.609-9.2383-4.3555-17.59-10.348-24.695-17.609-15.453-15.797-25.012-37.578-25.012-61.609 0-4.418 3.582-8 8-8 4.418 0 8 3.582 8 8 0 19.723 7.793 37.547 20.387 50.422 12.57 12.848 29.938 20.797 49.117 20.797 19.18 0 36.547-7.9492 49.117-20.797 12.598-12.875 20.391-30.699 20.391-50.422 0-14.254-5.6211-27.125-14.715-36.418-9.0664-9.2656-21.586-14.996-35.418-14.996-13.828 0-26.352 5.7305-35.418 14.996-9.0898 9.293-14.715 22.164-14.715 36.418 0 8.7852 3.4531 16.707 9.0391 22.414 5.5586 5.6797 13.234 9.1953 21.715 9.1953 8.4805 0 16.156-3.5156 21.715-9.1953 5.5859-5.707 9.0391-13.629 9.0391-22.414 0-3.3164-1.2852-6.2852-3.3633-8.4102-2.0508-2.0977-4.8867-3.3945-8.0156-3.3945-3.1289 0-5.9609 1.2969-8.0156 3.3945-2.0781 2.125-3.3633 5.0938-3.3633 8.4102 0 4.418-3.582 8-8 8-4.418 0-8-3.582-8-8 0-7.6211 3.0508-14.555 7.9883-19.598 4.9609-5.0703 11.816-8.207 19.391-8.207 7.5742 0 14.43 3.1367 19.391 8.207 4.9336 5.043 7.9883 11.977 7.9883 19.598 0 13.09-5.2227 24.973-13.664 33.602-8.4688 8.6523-20.168 14.008-33.09 14.008-12.922 0-24.621-5.3516-33.09-14.008-8.4414-8.6289-13.664-20.512-13.664-33.602 0-18.559 7.3906-35.395 19.34-47.605 4.5703-4.668 9.8047-8.6602 15.547-11.809-5.7422-3.1484-10.977-7.1367-15.547-11.809-11.949-12.211-19.34-29.043-19.34-47.605 0-13.09 5.2227-24.973 13.664-33.602 8.4688-8.6562 20.168-14.008 33.09-14.008 12.922 0 24.621 5.3516 33.09 14.008 8.4414 8.6289 13.664 20.512 13.664 33.602 0 7.6211-3.0508 14.555-7.9883 19.598-4.9609 5.0703-11.816 8.207-19.391 8.207-7.5742 0-14.43-3.1367-19.391-8.207-4.9336-5.043-7.9883-11.977-7.9883-19.598 0-4.418 3.582-8 8-8 4.418 0 8 3.582 8 8 0 3.3164 1.2852 6.2852 3.3633 8.4102 2.0508 2.0977 4.8867 3.3945 8.0156 3.3945 3.1289 0 5.9609-1.2969 8.0156-3.3945 2.0781-2.125 3.3633-5.0938 3.3633-8.4102 0-8.7852-3.4531-16.707-9.0391-22.414-5.5586-5.6797-13.234-9.1953-21.715-9.1953-8.4805 0-16.156 3.5156-21.715 9.1953-5.5859 5.707-9.0391 13.629-9.0391 22.414 0 14.254 5.6211 27.125 14.715 36.418 9.0664 9.2656 21.586 14.996 35.418 14.996 13.828 0 26.352-5.7305 35.418-14.996 9.0898-9.2891 14.715-22.164 14.715-36.418 0-19.723-7.793-37.547-20.391-50.422-12.57-12.848-29.938-20.797-49.117-20.797-19.18 0-36.547 7.9492-49.117 20.797-12.598 12.875-20.387 30.699-20.387 50.422 0 4.418-3.582 8-8 8-4.418 0-8-3.582-8-8 0-24.027 9.5586-45.812 25.012-61.609 7.1055-7.2617 15.457-13.25 24.695-17.609-9.2383-4.3555-17.59-10.348-24.695-17.609-15.453-15.797-25.012-37.578-25.012-61.609 0-4.418 3.582-8 8-8 4.418 0 8 3.582 8 8 0 19.723 7.793 37.547 20.387 50.422 12.57 12.848 29.938 20.797 49.117 20.797 19.18 0 36.547-7.9492 49.117-20.797 12.598-12.875 20.391-30.699 20.391-50.422 0-14.254-5.6211-27.125-14.715-36.418-9.0664-9.2656-21.586-14.996-35.418-14.996-13.828 0-26.352 5.7305-35.418 14.996-9.0898 9.2891-14.715 22.164-14.715 36.418 0 8.7852 3.4531 16.707 9.0391 22.414 5.5586 5.6797 13.234 9.1953 21.715 9.1953 8.4805 0 16.156-3.5156 21.715-9.1953 5.5859-5.707 9.0391-13.629 9.0391-22.414 0-3.3164-1.2852-6.2852-3.3633-8.4102-2.0508-2.0977-4.8867-3.3945-8.0156-3.3945-3.1289 0-5.9609 1.2969-8.0156 3.3945-2.0781 2.125-3.3633 5.0938-3.3633 8.4102 0 4.418-3.582 8-8 8-4.418 0-8-3.582-8-8 0-7.6211 3.0508-14.555 7.9883-19.598 4.9609-5.0703 11.816-8.207 19.391-8.207 7.5742 0 14.43 3.1367 19.391 8.207 4.9336 5.043 7.9883 11.977 7.9883 19.598 0 13.09-5.2227 24.973-13.664 33.602-8.4688 8.6523-20.168 14.008-33.09 14.008-12.922 0-24.621-5.3516-33.09-14.008-8.4414-8.6289-13.664-20.512-13.664-33.602 0-18.559 7.3906-35.395 19.34-47.605 4.5703-4.668 9.8047-8.6602 15.547-11.809-5.7422-3.1484-10.977-7.1367-15.547-11.809-11.949-12.211-19.34-29.047-19.34-47.605 0-13.09 5.2227-24.973 13.664-33.602 8.4688-8.6523 20.168-14.008 33.09-14.008 12.922 0 24.621 5.3516 33.09 14.008 8.4414 8.6289 13.664 20.512 13.664 33.602 0 7.6211-3.0508 14.555-7.9883 19.598-4.9609 5.0703-11.816 8.207-19.391 8.207-7.5742 0-14.43-3.1367-19.391-8.207-4.9336-5.043-7.9883-11.977-7.9883-19.598 0-4.418 3.582-8 8-8 4.418 0 8 3.582 8 8 0 3.3164 1.2852 6.2852 3.3633 8.4102 2.0508 2.0977 4.8867 3.3945 8.0156 3.3945 3.1289 0 5.9609-1.2969 8.0156-3.3945 2.0781-2.125 3.3633-5.0938 3.3633-8.4102 0-8.7852-3.4531-16.707-9.0391-22.414-5.5586-5.6797-13.234-9.1953-21.715-9.1953-8.4805 0-16.156 3.5156-21.715 9.1953-5.5859 5.707-9.0391 13.629-9.0391 22.414 0 14.254 5.6211 27.125 14.715 36.418 9.0664 9.2656 21.586 14.996 35.418 14.996 13.828 0 26.352-5.7305 35.418-14.996 9.0898-9.2891 14.715-22.164 14.715-36.418 0-19.723-7.793-37.547-20.391-50.422-12.57-12.848-29.938-20.797-49.117-20.797-19.18 0-36.547 7.9492-49.117 20.797-12.598 12.875-20.387 30.699-20.387 50.422 0 4.418-3.582 8-8 8-4.418 0-8-3.582-8-8 0-24.027 9.5586-45.812 25.012-61.609 7.1055-7.2617 15.457-13.254 24.695-17.609-9.2383-4.3555-17.59-10.348-24.695-17.609-15.453-15.797-25.012-37.582-25.012-61.609 0-4.418 3.582-8 8-8 4.418 0 8 3.582 8 8 0 19.723 7.793 37.547 20.387 50.422 12.57 12.848 29.938 20.797 49.117 20.797 19.18 0 36.547-7.9453 49.117-20.797 12.598-12.875 20.391-30.699 20.391-50.422 0-14.254-5.6211-27.125-14.715-36.418-9.0664-9.2656-21.586-14.996-35.418-14.996-13.828 0-26.352 5.7305-35.418 14.996-9.0898 9.2891-14.715 22.164-14.715 36.418 0 8.7852 3.4531 16.707 9.0391 22.414 5.5586 5.6797 13.234 9.1953 21.715 9.1953 8.4805 0 16.156-3.5156 21.715-9.1953 5.5859-5.707 9.0391-13.629 9.0391-22.414 0-3.3164-1.2852-6.2852-3.3633-8.4102-2.0508-2.0977-4.8867-3.3945-8.0156-3.3945-3.1289 0-5.9609 1.2969-8.0156 3.3945-2.0781 2.125-3.3633 5.0938-3.3633 8.4102 0 4.418-3.582 8-8 8-4.418 0-8-3.582-8-8 0-7.6211 3.0508-14.555 7.9883-19.598 4.9609-5.0703 11.816-8.207 19.391-8.207 7.5742 0 14.43 3.1367 19.391 8.207 4.9336 5.043 7.9883 11.977 7.9883 19.598 0 13.09-5.2227 24.973-13.664 33.602-8.4688 8.6523-20.168 14.008-33.09 14.008-12.922 0-24.621-5.3516-33.09-14.008-8.4414-8.6289-13.664-20.512-13.664-33.602 0-18.559 7.3906-35.395 19.34-47.605 11.973-12.238 28.52-19.809 46.793-19.809 18.273 0 34.816 7.5703 46.793 19.809 4.4648 4.5625 8.293 9.7734 11.34 15.477 3.043-5.7031 6.8711-10.914 11.34-15.477 11.973-12.238 28.516-19.809 46.793-19.809 18.273 0 34.816 7.5703 46.793 19.809 11.949 12.211 19.34 29.043 19.34 47.605 0 13.09-5.2227 24.973-13.664 33.602-8.4688 8.6523-20.168 14.008-33.09 14.008s-24.625-5.3516-33.09-14.008c-8.4414-8.6289-13.664-20.512-13.664-33.602 0-7.6211 3.0508-14.555 7.9883-19.598 4.9609-5.0703 11.816-8.207 19.391-8.207s14.43 3.1367 19.391 8.207c4.9336 5.043 7.9883 11.977 7.9883 19.598zm-300.09 422.96c3.8125-1.0273 4.9883-5.8477 2.0781-8.5234-1.2734-1.1562-3.0039-1.5742-4.6641-1.1367l-48.297 12.941c-3.8125 1.0273-4.9883 5.8477-2.0781 8.5234 1.2734 1.1562 3.0039 1.5742 4.6641 1.1367zm-321.34 75.75c-3.8125 1.0273-4.9883 5.8477-2.0781 8.5234 1.2734 1.1562 3.0039 1.5742 4.6641 1.1367l9.6602-2.5898c3.8125-1.0273 4.9883-5.8477 2.0781-8.5234-1.2734-1.1562-3.0039-1.5742-4.6641-1.1367zm38.637-10.352c-3.8125 1.0273-4.9883 5.8477-2.0781 8.5234 1.2734 1.1562 3.0039 1.5742 4.6641 1.1367l48.297-12.941c3.8125-1.0273 4.9883-5.8477 2.0781-8.5234-1.2734-1.1562-3.0039-1.5742-4.6641-1.1367zm77.273-20.707c-3.8125 1.0273-4.9883 5.8477-2.0781 8.5234 1.2734 1.1562 3.0039 1.5742 4.6641 1.1367l9.6602-2.5898c3.8125-1.0273 4.9883-5.8477 2.0781-8.5234-1.2734-1.1562-3.0039-1.5742-4.6641-1.1367zm38.637-10.352c-3.8125 1.0273-4.9883 5.8477-2.0781 8.5234 1.2734 1.1562 3.0039 1.5742 4.6641 1.1367l48.297-12.941c3.8125-1.0273 4.9883-5.8477 2.0781-8.5234-1.2734-1.1562-3.0039-1.5742-4.6641-1.1367zm77.273-20.707c-3.8125 1.0273-4.9883 5.8477-2.0781 8.5234 1.2734 1.1562 3.0039 1.5742 4.6641 1.1367l9.6602-2.5898c3.8125-1.0273 4.9883-5.8477 2.0781-8.5234-1.2734-1.1562-3.0039-1.5742-4.6641-1.1367zm82.207 58.641c3.3945-1.9648 3.3086-6.8867-0.14453-8.7422-1.5508-0.80859-3.332-0.78906-4.8555 0.082031l-43.301 25-0.003906 0.003907-7.7266 4.4609c-3.3945 1.9648-3.3086 6.8867 0.14453 8.7422 1.5508 0.80859 3.332 0.78906 4.8555-0.082032l43.301-25 0.003906-0.003906zm-284.38 152.64c-1.0703 0.62109-1.7969 1.5352-2.1758 2.5547-1.1172-0.18359-2.2656 0.015625-3.2969 0.60547l-8.6602 5c-3.3945 1.9648-3.3086 6.8867 0.14453 8.7422 1.5508 0.80859 3.332 0.78906 4.8555-0.082032l8.6602-5c1.0703-0.62109 1.7969-1.5352 2.1758-2.5547 1.1172 0.18359 2.2656-0.015625 3.2969-0.60547l2.2578-1.3008c3.3945-1.9648 3.3086-6.8867-0.14453-8.7422-1.5508-0.80859-3.332-0.78906-4.8555 0.082031zm28.238-16.301-0.007813 0.003907-7.7227 4.457c-3.3945 1.9648-3.3086 6.8867 0.14453 8.7422 1.5508 0.80859 3.332 0.78906 4.8555-0.082032l43.301-25 0.007812-0.003906 7.7227-4.457c3.3945-1.9648 3.3086-6.8867-0.14453-8.7422-1.5508-0.80859-3.332-0.78906-4.8555 0.082031zm69.281-40-0.003906 0.003907-7.7227 4.4609c-3.3945 1.9648-3.3086 6.8867 0.14453 8.7422 1.5508 0.80859 3.332 0.78906 4.8555-0.082032l8.6602-5 0.003906-0.003906 7.7227-4.4609c3.3945-1.9648 3.3086-6.8867-0.14453-8.7422-1.5508-0.80859-3.332-0.78906-4.8555 0.082031zm34.641-20-0.007812 0.003907-7.7227 4.4609c-3.3945 1.9648-3.3086 6.8867 0.14453 8.7422 1.5508 0.80859 3.332 0.78906 4.8555-0.082032l43.301-25 0.007813-0.003906 7.7227-4.4609c3.3945-1.9648 3.3086-6.8867-0.14453-8.7422-1.5508-0.80859-3.332-0.78906-4.8555 0.082031zm69.281-40-7.7305 4.4609c-3.3945 1.9648-3.3086 6.8867 0.14453 8.7422 1.5508 0.80859 3.332 0.78906 4.8555-0.082032l8.6602-5 7.7305-4.4609c3.3945-1.9648 3.3086-6.8867-0.14453-8.7422-1.5508-0.80859-3.332-0.78906-4.8555 0.082031zm89.934 53.215c1.7539-1.7695 1.9609-4.5117 0.48047-6.5156-1.832-2.457-5.3789-2.707-7.5508-0.55469l-35.355 35.355c-1.7539 1.7695-1.9609 4.5117-0.48047 6.5156 1.832 2.457 5.3789 2.707 7.5508 0.55469zm-199.3 185.16c-1.7539 1.7695-1.9609 4.5117-0.48047 6.5156 1.832 2.457 5.3789 2.707 7.5508 0.55469l22.527-22.527c1.7539-1.7695 1.9609-4.5117 0.48047-6.5156-1.832-2.457-5.3789-2.707-7.5508-0.55469zm43.742-43.742c-1.7539 1.7695-1.9609 4.5117-0.48047 6.5156 1.832 2.457 5.3789 2.707 7.5508 0.55469l7.0703-7.0703c1.7539-1.7695 1.9609-4.5117 0.48047-6.5156-1.832-2.457-5.3789-2.707-7.5508-0.55469zm28.285-28.285c-1.7539 1.7695-1.9609 4.5117-0.48047 6.5156 1.832 2.457 5.3789 2.707 7.5508 0.55469l35.355-35.355c1.7539-1.7695 1.9609-4.5117 0.48047-6.5156-1.832-2.457-5.3789-2.707-7.5508-0.55469zm56.57-56.57c-1.7539 1.7695-1.9609 4.5117-0.48047 6.5156 1.832 2.457 5.3789 2.707 7.5508 0.55469l7.0703-7.0703c1.7539-1.7695 1.9609-4.5117 0.48047-6.5156-1.832-2.457-5.3789-2.707-7.5508-0.55469zm162.85 208.53c0.95703-3.6406-2.2539-6.9922-5.9336-6.1719-1.8164 0.42188-3.2383 1.7773-3.7227 3.582l-12.941 48.297c-0.95703 3.6406 2.2539 6.9922 5.9336 6.1719 1.8164-0.42187 3.2383-1.7773 3.7227-3.582zm258.99-14.73c-1.0273-3.8125-5.8477-4.9883-8.5234-2.0781-1.1562 1.2734-1.5742 3.0039-1.1367 4.6641l12.941 48.297c1.0273 3.8125 5.8477 4.9883 8.5234 2.0781 1.1562-1.2734 1.5742-3.0039 1.1367-4.6641zm13.633 89.52c1.0273 3.8125 5.8477 4.9883 8.5234 2.0781 1.1562-1.2734 1.5742-3.0039 1.1367-4.6641l-2.5898-9.6602c-1.0273-3.8125-5.8477-4.9883-8.5234-2.0781-1.1562 1.2734-1.5742 3.0039-1.1367 4.6641zm28.641-272.4c-1.9648-3.3945-6.8867-3.3086-8.7422 0.14453-0.80859 1.5508-0.78906 3.332 0.082032 4.8555l1.707 2.957v0.003906l25 43.301c1.9648 3.3945 6.8867 3.3086 8.7422-0.14453 0.80859-1.5508 0.78906-3.332-0.082031-4.8555l-1.707-2.957v-0.003906zm113.52 216.62 0.003906 0.003906 24.523 42.48c1.9648 3.3945 6.8867 3.3086 8.7422-0.14453 0.80859-1.5508 0.78906-3.332-0.082031-4.8555l-25-43.301-0.003906-0.003906-1.707-2.9531c-1.9648-3.3945-6.8867-3.3086-8.7422 0.14453-0.80859 1.5508-0.78906 3.332 0.082031 4.8555l2.1797 3.7773zm-17.18-29.758v0.003906l1.707 2.957c1.9648 3.3945 6.8867 3.3086 8.7422-0.14453 0.80859-1.5508 0.78906-3.332-0.082031-4.8555l-5-8.6602v-0.003907l-1.707-2.957c-1.9648-3.3945-6.8867-3.3086-8.7422 0.14453-0.80859 1.5508-0.78906 3.332 0.082032 4.8555zm-20-34.641v0.003907l1.707 2.957c1.9648 3.3945 6.8867 3.3086 8.7422-0.14453 0.80859-1.5508 0.78906-3.332-0.082031-4.8555l-17.16-29.727-9.5469-16.535c-1.9648-3.3945-6.8867-3.3086-8.7422 0.14453-0.80859 1.5508-0.78906 3.332 0.082032 4.8555l1.707 2.957v0.003907l7.8398 13.578 15.453 26.766zm-31.336-74.277v-0.003907l-5-8.6602c-1.9648-3.3945-6.8867-3.3086-8.7422 0.14453-0.80859 1.5508-0.78906 3.332 0.082032 4.8555l1.707 2.957v0.003906l5 8.6602c1.9648 3.3945 6.8867 3.3086 8.7422-0.14453 0.80859-1.5508 0.78906-3.332-0.082031-4.8555zm4.8203-153.31c-1.7695-1.7539-4.5117-1.9609-6.5156-0.48047-2.457 1.832-2.707 5.3789-0.55469 7.5508l35.355 35.355c1.7695 1.7539 4.5117 1.9609 6.5156 0.48047 2.457-1.832 2.707-5.3789 0.55469-7.5508zm185.77 199.91c1.7695 1.7539 4.5117 1.9609 6.5156 0.48047 2.457-1.832 2.707-5.3789 0.55469-7.5508l-23.137-23.137c-1.7695-1.7539-4.5117-1.9609-6.5156-0.48047-2.457 1.832-2.707 5.3789-0.55469 7.5508zm-44.352-44.352c1.7695 1.7539 4.5117 1.9609 6.5156 0.48047 2.457-1.832 2.707-5.3789 0.55469-7.5508l-7.0703-7.0703c-1.7695-1.7539-4.5117-1.9609-6.5156-0.48047-2.457 1.832-2.707 5.3789-0.55469 7.5508zm-28.285-28.285c1.7695 1.7539 4.5117 1.9609 6.5156 0.48047 2.457-1.832 2.707-5.3789 0.55469-7.5508l-35.355-35.355c-1.7695-1.7539-4.5117-1.9609-6.5156-0.48047-2.457 1.832-2.707 5.3789-0.55469 7.5508zm-56.57-56.57c1.7695 1.7539 4.5117 1.9609 6.5156 0.48047 2.457-1.832 2.707-5.3789 0.55469-7.5508l-7.0703-7.0703c-1.7695-1.7539-4.5117-1.9609-6.5156-0.48047-2.457 1.832-2.707 5.3789-0.55469 7.5508zm-59.848-154.8 3.6211 2.0898zm288.15 154.82-0.011719-0.007812-6.0078-3.4688c-3.668-2.0977-8.1094 0.97656-7.4297 5.1562 0.26172 1.4883 1.1211 2.7461 2.4297 3.5039l3.6172 2.0859 0.011719 0.007812 8.6602 5c3.668 2.0977 8.1094-0.97656 7.4297-5.1562-0.26172-1.4883-1.1211-2.7461-2.4297-3.5039l-6.2695-3.6211zm-31.984-18.465-0.015625-0.007812-43.301-25c-3.668-2.0977-8.1094 0.97656-7.4297 5.1562 0.26172 1.4883 1.1211 2.7461 2.4297 3.5039l3.6133 2.0859 0.015625 0.007812 43.301 25c3.668 2.0977 8.1094-0.97656 7.4297-5.1562-0.26172-1.4883-1.1211-2.7461-2.4297-3.5039zm-69.285-40-0.015624-0.007812-8.6602-5c-3.668-2.0977-8.1094 0.97656-7.4297 5.1562 0.26172 1.4883 1.1211 2.7461 2.4297 3.5039l3.6133 2.0859 0.015626 0.007812 8.6602 5c3.668 2.0977 8.1094-0.97656 7.4297-5.1562-0.26172-1.4883-1.1211-2.7461-2.4297-3.5039zm-34.641-20-0.015626-0.007812-43.301-25c-3.668-2.0977-8.1094 0.97656-7.4297 5.1562 0.26172 1.4883 1.1211 2.7461 2.4297 3.5039l3.6133 2.0859 0.015626 0.007812 43.301 25c3.668 2.0977 8.1094-0.97656 7.4297-5.1562-0.26172-1.4883-1.1211-2.7461-2.4297-3.5039zm-82.957-36.348 3.625 2.0938zm-70.32-119.79c-3.5742-0.9375-6.8672 2.1211-6.207 5.7578 0.36719 1.8945 1.75 3.3984 3.6211 3.9023l48.297 12.941c3.5742 0.9375 6.8672-2.1211 6.207-5.7578-0.36719-1.8945-1.75-3.3984-3.6211-3.9023zm316.17 95.07c3.5742 0.9375 6.8672-2.1211 6.207-5.7578-0.36719-1.8945-1.75-3.3984-3.6211-3.9023l-9.6602-2.5898c-3.5742-0.9375-6.8672 2.1211-6.207 5.7578 0.36719 1.8945 1.75 3.3984 3.6211 3.9023zm-38.637-10.352c3.5742 0.9375 6.8672-2.1211 6.207-5.7578-0.36719-1.8945-1.75-3.3984-3.6211-3.9023l-48.297-12.941c-3.5742-0.9375-6.8672 2.1211-6.207 5.7578 0.36719 1.8945 1.75 3.3984 3.6211 3.9023zm-77.273-20.707c3.5742 0.9375 6.8672-2.1211 6.207-5.7578-0.36719-1.8945-1.75-3.3984-3.6211-3.9023l-9.6602-2.5898c-3.5742-0.9375-6.8672 2.1211-6.207 5.7578 0.36719 1.8945 1.75 3.3984 3.6211 3.9023zm-38.637-10.352c3.5742 0.9375 6.8672-2.1211 6.207-5.7578-0.36719-1.8945-1.75-3.3984-3.6211-3.9023l-48.297-12.941c-3.5742-0.9375-6.8672 2.1211-6.207 5.7578 0.36719 1.8945 1.75 3.3984 3.6211 3.9023zm-77.273-20.707c3.5742 0.9375 6.8672-2.1211 6.207-5.7578-0.36719-1.8945-1.75-3.3984-3.6211-3.9023l-9.6602-2.5898c-3.5742-0.9375-6.8672 2.1211-6.207 5.7578 0.36719 1.8945 1.75 3.3984 3.6211 3.9023zm-883.59 241.7c-3.3945 1.9648-3.3086 6.8867 0.14453 8.7422 1.5508 0.80859 3.332 0.78906 4.8555-0.082031l28.844-16.652c3.3945-1.9648 3.3086-6.8867-0.14453-8.7422-1.5508-0.80859-3.332-0.78906-4.8555 0.082032zm403.3-14.508c2.0977-3.668-0.97656-8.1094-5.1562-7.4297-1.4883 0.26172-2.7461 1.1211-3.5039 2.4297l-25 43.301c-2.0977 3.668 0.97656 8.1094 5.1562 7.4297 1.4883-0.26172 2.7461-1.1211 3.5039-2.4297zm-153.66 246.15c-2.0977 3.668 0.97656 8.1094 5.1562 7.4297 1.4883-0.26172 2.7461-1.1211 3.5039-2.4297l25-43.301c2.0977-3.668-0.97656-8.1094-5.1562-7.4297-1.4883 0.26172-2.7461 1.1211-3.5039 2.4297zm40-69.281c-2.0977 3.668 0.97656 8.1094 5.1562 7.4297 1.4883-0.26172 2.7461-1.1211 3.5039-2.4297l5-8.6602c2.0977-3.668-0.97656-8.1094-5.1562-7.4297-1.4883 0.26172-2.7461 1.1211-3.5039 2.4297zm20-34.641c-2.0977 3.668 0.97656 8.1094 5.1562 7.4297 1.4883-0.26172 2.7461-1.1211 3.5039-2.4297l25-43.301c2.0977-3.668-0.97656-8.1094-5.1562-7.4297-1.4883 0.26172-2.7461 1.1211-3.5039 2.4297zm40-69.281c-2.0977 3.668 0.97656 8.1094 5.1562 7.4297 1.4883-0.26172 2.7461-1.1211 3.5039-2.4297l5-8.6602c2.0977-3.668-0.97656-8.1094-5.1562-7.4297-1.4883 0.26172-2.7461 1.1211-3.5039 2.4297zm562.15 199.9c1.9648 3.3945 6.8867 3.3086 8.7422-0.14453 0.80859-1.5508 0.78906-3.332-0.082031-4.8555l-5-8.6602c-1.9648-3.3945-6.8867-3.3086-8.7422 0.14453-0.80859 1.5508-0.78906 3.332 0.082031 4.8555zm-59.574-434.76-3.6211-2.0898zm292.77 180.58c3.668 2.0977 8.1094-0.97656 7.4297-5.1562-0.26172-1.4883-1.1211-2.7461-2.4297-3.5039l-29.301-16.918c-3.668-2.0977-8.1094 0.97656-7.4297 5.1562 0.26172 1.4883 1.1211 2.7461 2.4297 3.5039zm-258.13-160.58-3.625-2.0938zm-528.79-226.36c3.5742 0.9375 6.8672-2.1211 6.207-5.7578-0.36719-1.8945-1.75-3.3984-3.6211-3.9023l-48.297-12.941c-3.5742-0.9375-6.8672 2.1211-6.207 5.7578 0.36719 1.8945 1.75 3.3984 3.6211 3.9023zm-316.17-95.07c-3.5742-0.9375-6.8672 2.1211-6.207 5.7578 0.36719 1.8945 1.75 3.3984 3.6211 3.9023l9.6602 2.5898c3.5742 0.9375 6.8672-2.1211 6.207-5.7578-0.36719-1.8945-1.75-3.3984-3.6211-3.9023zm38.637 10.352c-3.5742-0.9375-6.8672 2.1211-6.207 5.7578 0.36719 1.8945 1.75 3.3984 3.6211 3.9023l48.297 12.941c3.5742 0.9375 6.8672-2.1211 6.207-5.7578-0.36719-1.8945-1.75-3.3984-3.6211-3.9023zm77.273 20.707c-3.5742-0.9375-6.8672 2.1211-6.207 5.7578 0.36719 1.8945 1.75 3.3984 3.6211 3.9023l9.6602 2.5898c3.5742 0.9375 6.8672-2.1211 6.207-5.7578-0.36719-1.8945-1.75-3.3984-3.6211-3.9023zm38.637 10.352c-3.5742-0.9375-6.8672 2.1211-6.207 5.7578 0.36719 1.8945 1.75 3.3984 3.6211 3.9023l48.297 12.941c3.5742 0.9375 6.8672-2.1211 6.207-5.7578-0.36719-1.8945-1.75-3.3984-3.6211-3.9023zm77.273 20.707c-3.5742-0.9375-6.8672 2.1211-6.207 5.7578 0.36719 1.8945 1.75 3.3984 3.6211 3.9023l9.6602 2.5898c3.5742 0.9375 6.8672-2.1211 6.207-5.7578-0.36719-1.8945-1.75-3.3984-3.6211-3.9023zm74.621-40.32c3.668 2.0977 8.1094-0.97656 7.4297-5.1562-0.26172-1.4883-1.1211-2.7461-2.4297-3.5039l-7.7227-4.457-0.007813-0.003906-43.301-25c-3.668-2.0977-8.1094 0.97656-7.4297 5.1562 0.26172 1.4883 1.1211 2.7461 2.4297 3.5039l7.7227 4.457 0.007813 0.003906zm-274.38-169.96c-1.0859-0.62109-2.2344-0.78906-3.3047-0.60938-0.40234-1.0664-1.1484-1.9609-2.1719-2.5508l-8.6602-5c-3.668-2.0977-8.1094 0.97656-7.4297 5.1562 0.26172 1.4883 1.1211 2.7461 2.4297 3.5039l8.6602 5c1.0859 0.62109 2.2344 0.78906 3.3047 0.60938 0.40234 1.0664 1.1484 1.9609 2.1719 2.5508l2.2578 1.3008c3.668 2.0977 8.1094-0.97656 7.4297-5.1562-0.26172-1.4883-1.1211-2.7461-2.4297-3.5039zm23.219 24.953 0.015624 0.011719 43.301 25c3.668 2.0977 8.1094-0.97656 7.4297-5.1562-0.26172-1.4883-1.1211-2.7461-2.4297-3.5039l-7.7148-4.4531-0.015625-0.011719-43.301-25c-3.668-2.0977-8.1094 0.97656-7.4297 5.1562 0.26172 1.4883 1.1211 2.7461 2.4297 3.5039zm69.285 40.004 0.011718 0.007812 8.6602 5c3.668 2.0977 8.1094-0.97656 7.4297-5.1562-0.26172-1.4883-1.1211-2.7461-2.4297-3.5039l-7.7188-4.457-0.011719-0.007812-8.6602-5c-3.668-2.0977-8.1094 0.97656-7.4297 5.1562 0.26172 1.4883 1.1211 2.7461 2.4297 3.5039zm34.641 20 0.015625 0.007812 43.301 25c3.668 2.0977 8.1094-0.97656 7.4297-5.1562-0.26172-1.4883-1.1211-2.7461-2.4297-3.5039l-7.7148-4.4531-0.015625-0.007813-43.301-25c-3.668-2.0977-8.1094 0.97656-7.4297 5.1562 0.26172 1.4883 1.1211 2.7461 2.4297 3.5039zm82.957 36.348-7.7266-4.4609zm69.203-42.484c1.7695 1.7539 4.5117 1.9609 6.5156 0.48047 2.457-1.832 2.707-5.3789 0.55469-7.5508l-35.355-35.355c-1.7695-1.7539-4.5117-1.9609-6.5156-0.48047-2.457 1.832-2.707 5.3789-0.55469 7.5508zm-185.16-199.3c-1.7695-1.7539-4.5117-1.9609-6.5156-0.48047-2.457 1.832-2.707 5.3789-0.55469 7.5508l22.527 22.527c1.7695 1.7539 4.5117 1.9609 6.5156 0.48047 2.457-1.832 2.707-5.3789 0.55469-7.5508zm43.742 43.742c-1.7695-1.7539-4.5117-1.9609-6.5156-0.48047-2.457 1.832-2.707 5.3789-0.55469 7.5508l7.0703 7.0703c1.7695 1.7539 4.5117 1.9609 6.5156 0.48047 2.457-1.832 2.707-5.3789 0.55469-7.5508zm28.285 28.285c-1.7695-1.7539-4.5117-1.9609-6.5156-0.48047-2.457 1.832-2.707 5.3789-0.55469 7.5508l35.355 35.355c1.7695 1.7539 4.5117 1.9609 6.5156 0.48047 2.457-1.832 2.707-5.3789 0.55469-7.5508zm56.57 56.57c-1.7695-1.7539-4.5117-1.9609-6.5156-0.48047-2.457 1.832-2.707 5.3789-0.55469 7.5508l7.0703 7.0703c1.7695 1.7539 4.5117 1.9609 6.5156 0.48047 2.457-1.832 2.707-5.3789 0.55469-7.5508zm144.08-206.45c0.60156 2.2305 2.6289 3.75 4.9375 3.707 3.2539-0.085938 5.5469-3.1484 4.7227-6.293l-12.941-48.297c-0.60156-2.2305-2.6289-3.75-4.9375-3.707-3.2539 0.085937-5.5469 3.1484-4.7227 6.293zm264.54 4.0273c-0.9375 3.5742 2.1211 6.8672 5.7578 6.207 1.8945-0.36719 3.3984-1.75 3.9023-3.6211l12.941-48.297c0.9375-3.5742-2.1211-6.8672-5.7578-6.207-1.8945 0.36719-3.3984 1.75-3.9023 3.6211zm39.762 193.58c-2.0977 3.668 0.97656 8.1094 5.1562 7.4297 1.4883-0.26172 2.7461-1.1211 3.5039-2.4297l25-43.301zm1.707-2.957-1.707 2.957zm120.48-208.68-0.007812 0.011719-2.1797 3.7773c-2.0977 3.668 0.97656 8.1094 5.1562 7.4297 1.4883-0.26172 2.7461-1.1211 3.5039-2.4297l1.7031-2.9492 0.007813-0.011718 25-43.301c2.0977-3.668-0.97656-8.1094-5.1562-7.4297-1.4883 0.26172-2.7461 1.1211-3.5039 2.4297l-24.52 42.473zm-17.184 29.762-0.003907 0.003906-5 8.6602c-2.0977 3.668 0.97656 8.1094 5.1562 7.4297 1.4883-0.26172 2.7461-1.1211 3.5039-2.4297l1.707-2.9531 0.003906-0.003906 5-8.6602c2.0977-3.668-0.97656-8.1094-5.1562-7.4297-1.4883 0.26172-2.7461 1.1211-3.5039 2.4297zm-43.297 74.988-1.707 2.957c-2.0977 3.668 0.97656 8.1094 5.1562 7.4297 1.4883-0.26172 2.7461-1.1211 3.5039-2.4297l9.5469-16.535 17.16-29.727c2.0977-3.668-0.97656-8.1094-5.1562-7.4297-1.4883 0.26172-2.7461 1.1211-3.5039 2.4297l-1.7031 2.9531-15.457 26.773zm-8.0469 33.938 1.707-2.957c2.0977-3.668-0.97656-8.1094-5.1562-7.4297-1.4883 0.26172-2.7461 1.1211-3.5039 2.4297l-5 8.6602-1.707 2.957c-2.0977 3.668 0.97656 8.1094 5.1562 7.4297 1.4883-0.26172 2.7461-1.1211 3.5039-2.4297zm-2.2461 146.23c-1.7539 1.7695-1.9609 4.5117-0.48047 6.5156 1.832 2.457 5.3789 2.707 7.5508 0.55469l35.355-35.355c1.7539-1.7695 1.9609-4.5117 0.48047-6.5156-1.832-2.457-5.3789-2.707-7.5508-0.55469zm199.91-185.77c1.7539-1.7695 1.9609-4.5117 0.48047-6.5156-1.832-2.457-5.3789-2.707-7.5508-0.55469l-23.137 23.137c-1.7539 1.7695-1.9609 4.5117-0.48047 6.5156 1.832 2.457 5.3789 2.707 7.5508 0.55469zm-44.352 44.352c1.7539-1.7695 1.9609-4.5117 0.48047-6.5156-1.832-2.457-5.3789-2.707-7.5508-0.55469l-7.0703 7.0703c-1.7539 1.7695-1.9609 4.5117-0.48047 6.5156 1.832 2.457 5.3789 2.707 7.5508 0.55469zm-28.285 28.285c1.7539-1.7695 1.9609-4.5117 0.48047-6.5156-1.832-2.457-5.3789-2.707-7.5508-0.55469l-35.355 35.355c-1.7539 1.7695-1.9609 4.5117-0.48047 6.5156 1.832 2.457 5.3789 2.707 7.5508 0.55469zm-56.57 56.57c1.7539-1.7695 1.9609-4.5117 0.48047-6.5156-1.832-2.457-5.3789-2.707-7.5508-0.55469l-7.0703 7.0703c-1.7539 1.7695-1.9609 4.5117-0.48047 6.5156 1.832 2.457 5.3789 2.707 7.5508 0.55469zm-66.918 147.72c-3.3945 1.9648-3.3086 6.8867 0.14453 8.7422 1.5508 0.80859 3.332 0.78906 4.8555-0.082032l43.301-25h0.003906l3.625-2.0938c3.3945-1.9648 3.3086-6.8867-0.14453-8.7422-1.5508-0.80859-3.332-0.78906-4.8555 0.082031l-43.301 25h-0.003906zm288.14-154.81 0.003906-0.003906 6.2734-3.6211c3.3945-1.9648 3.3086-6.8867-0.14453-8.7422-1.5508-0.80859-3.332-0.78906-4.8555 0.082031l-8.6602 5-0.003906 0.003906-3.6211 2.0898c-3.3945 1.9648-3.3086 6.8867 0.14453 8.7422 1.5508 0.80859 3.332 0.78906 4.8555-0.082032zm-31.988 18.469 0.007812-0.003906 3.6211-2.0898c3.3945-1.9648 3.3086-6.8867-0.14453-8.7422-1.5508-0.80859-3.332-0.78906-4.8555 0.082031l-43.301 25-0.007813 0.003906-3.6211 2.0898c-3.3945 1.9648-3.3086 6.8867 0.14453 8.7422 1.5508 0.80859 3.332 0.78906 4.8555-0.082032zm-69.281 40 0.007812-0.003906 3.6211-2.0898c3.3945-1.9648 3.3086-6.8867-0.14453-8.7422-1.5508-0.80859-3.332-0.78906-4.8555 0.082031l-8.6602 5-0.007813 0.003906-3.6211 2.0898c-3.3945 1.9648-3.3086 6.8867 0.14453 8.7422 1.5508 0.80859 3.332 0.78906 4.8555-0.082032zm-34.641 20 0.007812-0.003906 3.6211-2.0898c3.3945-1.9648 3.3086-6.8867-0.14453-8.7422-1.5508-0.80859-3.332-0.78906-4.8555 0.082031l-43.301 25-0.007813 0.003906-3.6211 2.0898c-3.3945 1.9648-3.3086 6.8867 0.14453 8.7422 1.5508 0.80859 3.332 0.78906 4.8555-0.082032zm-69.281 40 3.625-2.0938c3.3945-1.9648 3.3086-6.8867-0.14453-8.7422-1.5508-0.80859-3.332-0.78906-4.8555 0.082031l-8.6602 5-3.625 2.0938c-3.3945 1.9648-3.3086 6.8867 0.14453 8.7422 1.5508 0.80859 3.332 0.78906 4.8555-0.082032zm-86.566 106.47c-3.8125 1.0273-4.9883 5.8477-2.0781 8.5234 1.2734 1.1562 3.0039 1.5742 4.6641 1.1367l48.297-12.941c3.8125-1.0273 4.9883-5.8477 2.0781-8.5234-1.2734-1.1562-3.0039-1.5742-4.6641-1.1367zm321.34-75.75c3.8125-1.0273 4.9883-5.8477 2.0781-8.5234-1.2734-1.1562-3.0039-1.5742-4.6641-1.1367l-9.6602 2.5898c-3.8125 1.0273-4.9883 5.8477-2.0781 8.5234 1.2734 1.1562 3.0039 1.5742 4.6641 1.1367zm-38.637 10.352c3.8125-1.0273 4.9883-5.8477 2.0781-8.5234-1.2734-1.1562-3.0039-1.5742-4.6641-1.1367l-48.297 12.941c-3.8125 1.0273-4.9883 5.8477-2.0781 8.5234 1.2734 1.1562 3.0039 1.5742 4.6641 1.1367zm-77.273 20.707c3.8125-1.0273 4.9883-5.8477 2.0781-8.5234-1.2734-1.1562-3.0039-1.5742-4.6641-1.1367l-9.6602 2.5898c-3.8125 1.0273-4.9883 5.8477-2.0781 8.5234 1.2734 1.1562 3.0039 1.5742 4.6641 1.1367zm-38.637 10.352c3.8125-1.0273 4.9883-5.8477 2.0781-8.5234-1.2734-1.1562-3.0039-1.5742-4.6641-1.1367l-48.297 12.941c-3.8125 1.0273-4.9883 5.8477-2.0781 8.5234 1.2734 1.1562 3.0039 1.5742 4.6641 1.1367zm-77.273 20.707c3.8125-1.0273 4.9883-5.8477 2.0781-8.5234-1.2734-1.1562-3.0039-1.5742-4.6641-1.1367l-9.6602 2.5898c-3.8125 1.0273-4.9883 5.8477-2.0781 8.5234 1.2734 1.1562 3.0039 1.5742 4.6641 1.1367zm-534.59 81.953c3.832-0.023437 6.2305-4.1133 4.3516-7.4609-0.90625-1.582-2.5312-2.5273-4.3516-2.5391h-50c-3.832 0.023437-6.2305 4.1133-4.3516 7.4609 0.90625 1.582 2.5312 2.5273 4.3516 2.5391zm-330-10c-3.832 0.023437-6.2305 4.1133-4.3516 7.4609 0.90625 1.582 2.5312 2.5273 4.3516 2.5391h10c3.832-0.023437 6.2305-4.1133 4.3516-7.4609-0.90625-1.582-2.5312-2.5273-4.3516-2.5391zm40 0c-3.832 0.023437-6.2305 4.1133-4.3516 7.4609 0.90625 1.582 2.5312 2.5273 4.3516 2.5391h50c3.832-0.023437 6.2305-4.1133 4.3516-7.4609-0.90625-1.582-2.5312-2.5273-4.3516-2.5391zm80 0c-3.832 0.023437-6.2305 4.1133-4.3516 7.4609 0.90625 1.582 2.5312 2.5273 4.3516 2.5391h10c3.832-0.023437 6.2305-4.1133 4.3516-7.4609-0.90625-1.582-2.5312-2.5273-4.3516-2.5391zm40 0c-3.832 0.023437-6.2305 4.1133-4.3516 7.4609 0.90625 1.582 2.5312 2.5273 4.3516 2.5391h50c3.832-0.023437 6.2305-4.1133 4.3516-7.4609-0.90625-1.582-2.5312-2.5273-4.3516-2.5391zm80 0c-3.832 0.023437-6.2305 4.1133-4.3516 7.4609 0.90625 1.582 2.5312 2.5273 4.3516 2.5391h10c3.832-0.023437 6.2305-4.1133 4.3516-7.4609-0.90625-1.582-2.5312-2.5273-4.3516-2.5391zm-256.59-331.98c-3.668-2.0977-8.1094 0.97656-7.4297 5.1562 0.26172 1.4883 1.1211 2.7461 2.4297 3.5039l28.844 16.652c3.668 2.0977 8.1094-0.97656 7.4297-5.1562-0.26172-1.4883-1.1211-2.7461-2.4297-3.5039zm257.67 160.31 7.7266 4.4609zm131.96-132.14c1.9648 3.3945 6.8867 3.3086 8.7422-0.14453 0.80859-1.5508 0.78906-3.332-0.082031-4.8555l-25-43.301c-1.9648-3.3945-6.8867-3.3086-8.7422 0.14453-0.80859 1.5508-0.78906 3.332 0.082032 4.8555zm-136.34-256.15c-1.9648-3.3945-6.8867-3.3086-8.7422 0.14453-0.80859 1.5508-0.78906 3.332 0.082032 4.8555l25 43.301c1.9648 3.3945 6.8867 3.3086 8.7422-0.14453 0.80859-1.5508 0.78906-3.332-0.082031-4.8555zm40 69.281c-1.9648-3.3945-6.8867-3.3086-8.7422 0.14453-0.80859 1.5508-0.78906 3.332 0.082032 4.8555l5 8.6602c1.9648 3.3945 6.8867 3.3086 8.7422-0.14453 0.80859-1.5508 0.78906-3.332-0.082031-4.8555zm20 34.641c-1.9648-3.3945-6.8867-3.3086-8.7422 0.14453-0.80859 1.5508-0.78906 3.332 0.082032 4.8555l25 43.301c1.9648 3.3945 6.8867 3.3086 8.7422-0.14453 0.80859-1.5508 0.78906-3.332-0.082031-4.8555zm40 69.281c-1.9648-3.3945-6.8867-3.3086-8.7422 0.14453-0.80859 1.5508-0.78906 3.332 0.082032 4.8555l5 8.6602c1.9648 3.3945 6.8867 3.3086 8.7422-0.14453 0.80859-1.5508 0.78906-3.332-0.082031-4.8555zm420.44 55.547 1.707-2.957c2.0977-3.668-0.97656-8.1094-5.1562-7.4297-1.4883 0.26172-2.7461 1.1211-3.5039 2.4297l-25 43.301zm141.71-245.45c2.0977-3.668-0.97656-8.1094-5.1562-7.4297-1.4883 0.26172-2.7461 1.1211-3.5039 2.4297l-5 8.6602c-2.0977 3.668 0.97656 8.1094 5.1562 7.4297 1.4883-0.26172 2.7461-1.1211 3.5039-2.4297zm229.54 257.84c3.3945-1.9648 3.3086-6.8867-0.14453-8.7422-1.5508-0.80859-3.332-0.78906-4.8555 0.082031l-29.301 16.918c-3.3945 1.9648-3.3086 6.8867 0.14453 8.7422 1.5508 0.80859 3.332 0.78906 4.8555-0.082031zm-344.33 319.08c-3.832 0.023438-6.2305 4.1133-4.3516 7.4609 0.90625 1.582 2.5312 2.5273 4.3516 2.5391h50c3.832-0.023437 6.2305-4.1133 4.3516-7.4609-0.90625-1.582-2.5312-2.5273-4.3516-2.5391zm330 10c3.832-0.023437 6.2305-4.1133 4.3516-7.4609-0.90625-1.582-2.5312-2.5273-4.3516-2.5391h-10c-3.832 0.023438-6.2305 4.1133-4.3516 7.4609 0.90625 1.582 2.5312 2.5273 4.3516 2.5391zm-40 0c3.832-0.023437 6.2305-4.1133 4.3516-7.4609-0.90625-1.582-2.5312-2.5273-4.3516-2.5391h-50c-3.832 0.023438-6.2305 4.1133-4.3516 7.4609 0.90625 1.582 2.5312 2.5273 4.3516 2.5391zm-80 0c3.832-0.023437 6.2305-4.1133 4.3516-7.4609-0.90625-1.582-2.5312-2.5273-4.3516-2.5391h-10c-3.832 0.023438-6.2305 4.1133-4.3516 7.4609 0.90625 1.582 2.5312 2.5273 4.3516 2.5391zm-40 0c3.832-0.023437 6.2305-4.1133 4.3516-7.4609-0.90625-1.582-2.5312-2.5273-4.3516-2.5391h-50c-3.832 0.023438-6.2305 4.1133-4.3516 7.4609 0.90625 1.582 2.5312 2.5273 4.3516 2.5391zm-80 0c3.832-0.023437 6.2305-4.1133 4.3516-7.4609-0.90625-1.582-2.5312-2.5273-4.3516-2.5391h-10c-3.832 0.023438-6.2305 4.1133-4.3516 7.4609 0.90625 1.582 2.5312 2.5273 4.3516 2.5391zm-303.4-302.49c-6.9922-7.1445-12.773-15.516-17.012-24.766-4.2383 9.25-10.023 17.621-17.012 24.766-7.1055 7.2617-15.457 13.254-24.695 17.609 9.2383 4.3555 17.59 10.348 24.695 17.609 6.9922 7.1445 12.773 15.516 17.012 24.766 4.2383-9.25 10.023-17.621 17.012-24.766 7.1055-7.2617 15.457-13.25 24.695-17.609-9.2383-4.3555-17.59-10.348-24.695-17.609zm9.8711 156.24c-5.7422-3.1484-10.977-7.1367-15.547-11.809-4.4648-4.5625-8.293-9.7734-11.34-15.477-3.043 5.7031-6.8711 10.914-11.34 15.477-4.5703 4.668-9.8047 8.6602-15.547 11.809 5.7422 3.1484 10.977 7.1367 15.547 11.809 4.4648 4.5625 8.293 9.7734 11.34 15.477 3.043-5.7031 6.8711-10.914 11.34-15.477 4.5703-4.668 9.8047-8.6602 15.547-11.809zm0 277.26c-5.7422-3.1484-10.977-7.1367-15.547-11.809-4.4648-4.5625-8.293-9.7734-11.34-15.477-3.043 5.7031-6.8711 10.914-11.34 15.477-4.5703 4.668-9.8047 8.6602-15.547 11.809 5.7422 3.1484 10.977 7.1367 15.547 11.809 4.4648 4.5625 8.293 9.7734 11.34 15.477 3.043-5.7031 6.8711-10.914 11.34-15.477 4.5703-4.668 9.8047-8.6602 15.547-11.809zm-26.883-96.258c4.2383-9.25 10.023-17.621 17.012-24.766 7.1055-7.2617 15.457-13.25 24.695-17.609-9.2383-4.3555-17.59-10.348-24.695-17.609-6.9922-7.1445-12.773-15.516-17.012-24.766-4.2383 9.25-10.023 17.621-17.012 24.766-7.1055 7.2617-15.457 13.25-24.695 17.609 9.2383 4.3555 17.59 10.348 24.695 17.609 6.9922 7.1445 12.773 15.516 17.012 24.766zm17.012 217.28c-6.9922-7.1445-12.773-15.516-17.012-24.766-4.2383 9.25-10.023 17.621-17.012 24.766-7.1055 7.2617-15.457 13.254-24.695 17.609 9.2383 4.3555 17.59 10.348 24.695 17.609 6.9922 7.1445 12.773 15.516 17.012 24.766 4.2383-9.25 10.023-17.621 17.012-24.766 7.1055-7.2617 15.457-13.25 24.695-17.609-9.2383-4.3555-17.59-10.348-24.695-17.609zm-7.2305-695.4c-2.0156 1.9844-4.8203 2.6758-7.3828 2.0859-2.5664 0.58984-5.3672-0.10547-7.3828-2.0859-10.152-10.012-26.977-16.266-44.801-17.914-17.559-1.625-35.812 1.2578-49.398 9.4453l-0.003906-0.007812c-3 1.8125-6.957 1.4805-9.6211-1.0547-3.1914-3.0391-3.3203-8.0898-0.28125-11.281l104.96-110.83c0.082031-0.085937 0.16406-0.16797 0.25-0.25 3.1758-3.0547 8.2266-2.957 11.281 0.21875l106.13 110.5c2.7266 2.5195 3.4062 6.6875 1.4141 9.9883-2.2773 3.7812-7.1875 4.9961-10.969 2.7188-13.586-8.1875-31.84-11.07-49.398-9.4453-17.824 1.6523-34.648 7.9023-44.801 17.914zm-7.3828-14.805c12.852-10.617 31.449-17.199 50.746-18.984 8.8867-0.82422 17.973-0.63672 26.758 0.63281l-78.207-81.422-77.164 81.477c8.8984-1.3164 18.113-1.5195 27.121-0.68359 19.297 1.7891 37.898 8.3711 50.746 18.984zm0 882.16c2.5664-0.58984 5.3672 0.10547 7.3828 2.0859 10.152 10.012 26.977 16.266 44.801 17.914 17.559 1.625 35.812-1.2578 49.398-9.4453 3.7812-2.2773 8.6914-1.0625 10.969 2.7188 1.9922 3.3047 1.3125 7.4688-1.4141 9.9883l-106.13 110.5c-3.0547 3.1758-8.1055 3.2734-11.281 0.21875-0.085938-0.082032-0.16797-0.16406-0.25-0.25l-104.96-110.83c-3.0391-3.1914-2.9102-8.2422 0.28125-11.281 2.6641-2.5312 6.6172-2.8672 9.6211-1.0547l0.003906-0.007812c13.586 8.1875 31.84 11.07 49.398 9.4453 17.824-1.6523 34.648-7.9023 44.801-17.914 2.0156-1.9844 4.8203-2.6758 7.3828-2.0859zm50.746 35.879c-19.297-1.7891-37.898-8.3711-50.746-18.984-12.852 10.617-31.449 17.199-50.746 18.984-9.0078 0.83594-18.223 0.63281-27.121-0.68359l77.164 81.477 78.207-81.422c-8.7891 1.2695-17.871 1.457-26.758 0.63281z"/>
</svg>
