<?xml version="1.0" encoding="UTF-8"?>
<svg width="1200pt" height="1200pt" version="1.1" viewBox="0 0 1200 1200" xmlns="http://www.w3.org/2000/svg">
 <path d="m959.77 1168.6v-95.938h0.074219v-435.59l-8.7305-8.7305 28.379-28.375-28.379-28.379 8.7305-8.7305v-432.05h-0.074219v-99.992l5.3984-9.2578-9.2578 5.3984h-277.14l1.5117 0.5h-43.754l-8.7305 8.7305-28.371-28.371-28.375 28.375-8.7305-8.7305h-42.676l1.5117-0.5h-277.14l-9.2578-5.3984 5.3984 9.2578v532.04l8.7305 8.7305-28.379 28.375 28.379 28.375-8.7305 8.7305v531.53l-5.3984 9.2578 9.2578-5.3984h318.88l8.7305-8.7305 28.375 28.379 28.375-28.375 8.7305 8.7305h318.8l9.2578 5.3984zm-294.53-27.824-19.531-19.531h135.31c-10.012 7.1406-19.988 13.68-29.816 19.531zm-65.234-45.25-15.617 15.617-5.6953-5.6953 21.312-21.312 21.309 21.309-5.6953 5.6953zm11.32 19.91-11.32 11.324-11.32-11.32 11.32-11.324zm18.582-9.9883-29.902-29.902-29.902 29.902 9.9922 9.9922-8.4648 8.4648-8.7305-8.7305-152.31-0.003906c-15.938-11.887-31.879-25.25-47.355-39.793v-25.988h-25.98c-14.543-15.477-27.91-31.418-39.797-47.355v-364.96l-8.7305-8.7305 8.4648-8.4648 9.9883 9.9883 29.902-29.902-29.902-29.902-9.9883 9.9883-8.4648-8.4648 8.7305-8.7305v-365.47c11.887-15.938 25.25-31.879 39.797-47.355l25.98-0.003906v-25.984c15.262-14.34 30.973-27.535 46.688-39.293h152.4l8.7305-8.7305 8.4648 8.4648-9.9922 9.9922 29.906 29.898 29.902-29.902-9.9922-9.9922 8.4648-8.4648 8.7305 8.7305h153.37v-0.085937c15.754 11.781 31.504 25.004 46.801 39.379v25.984h25.984c14.574 15.512 27.969 31.484 39.871 47.457v365.37l8.7305 8.7305-8.4648 8.4648-9.9883-9.9883-29.902 29.902 29.902 29.902 9.9883-9.9883 8.4648 8.4648-8.7305 8.7305v364.78h0.058593c-11.918 16-25.332 32-39.93 47.535h-25.984v25.984c-15.477 14.543-31.418 27.91-47.355 39.793l-152.23 0.011719-8.7305 8.7305-8.4648-8.4648zm-95.137 35.328h-86.035c-9.8281-5.8516-19.805-12.391-29.816-19.531h135.39zm-245.73-72.652-12.656-12.656h80.773v80.773l-12.656-12.656v-55.461zm2.3359-74.422c-7.1406-10.012-13.68-19.988-19.531-29.816v-298.69l19.531-19.531zm-25.605-40.418c-8.3281-15.113-14.938-29.762-19.531-43.504v-264.12l19.531 19.531zm63.203 96.105h-56.629v-73.129c15.363 24.297 34.598 49.219 56.629 73.129zm34.258 34.262c23.91 22.031 48.832 41.266 73.129 56.625h-73.129zm-46.133-483.69-15.617-15.617 5.6953-5.6953 21.309 21.312-21.309 21.309-5.6953-5.6953zm-19.914 11.32-11.32-11.32 11.32-11.32 11.32 11.32zm237.01-558.22h-75.762c14.902-8.2695 29.359-14.867 42.953-19.531h52.34zm-86.309 6.0781h86.309l19.531 19.531h-135.51c9.9609-7.1328 19.891-13.672 29.672-19.531zm-84.656 56.625v-56.625h73.129c-24.293 15.359-49.215 34.594-73.129 56.625zm-86.848 28.184 12.656-12.656h55.461v-55.461l12.656-12.656v80.773zm-4.0352 6.0742h56.629c-22.031 23.914-41.266 48.832-56.625 73.129zm-6.5781 384.71-19.531 19.531v-264.62c4.5938-13.742 11.203-28.391 19.531-43.504zm6.0742-299.2c5.8516-9.8281 12.391-19.805 19.531-29.816v348.55l-19.531-19.531zm327.59-131.14 15.617-15.617 5.6953 5.6953-21.312 21.312-21.309-21.309 5.6953-5.6953zm-11.32-19.91 11.32-11.32 11.32 11.32-11.32 11.32zm259.36-50.945 31.766 31.762v42.203h42.199l32.266 32.266v132.65c-5.2852-12.656-12.031-25.879-20.031-39.371v-87.574l-20.25-20.25h-51.902l-0.003906-51.902-20.25-20.25h-87.57c-13.086-7.7578-25.91-14.32-38.223-19.531zm-10.762 82.23c-23.91-22.031-48.832-41.266-73.129-56.625h73.129zm6.0742-52.59 12.656 12.656v55.461h55.461l12.656 12.656h-80.773zm84.809 86.848v73.129c-15.363-24.297-34.594-49.219-56.629-73.129zm-18.953 55.797c7.1445 10.02 13.68 20.004 19.531 29.84v299.07l-19.531 19.531zm25.605 40.449c8.3359 15.145 14.949 29.824 19.531 43.586v264.41l-19.531-19.531zm-192.74-193.21h-76.84l-19.531-19.531h53.422c13.594 4.6641 28.047 11.262 42.949 19.531zm-76.84 6.0781h86.91v-0.28125c9.9375 5.9336 20.023 12.566 30.145 19.812h-136.59zm218.25 540.82 15.617 15.617-5.6953 5.6953-21.309-21.309 21.309-21.312 5.6953 5.6953zm19.914-11.32 11.32 11.32-11.32 11.32-11.32-11.32zm25.34 375.11c-5.8516 9.8359-12.387 19.82-19.531 29.84v-347.93l19.531 19.531zm-91.461 119.89v56.625h-73.129c24.293-15.363 49.215-34.594 73.129-56.625zm6.0742-28.184h80.773l-12.656 12.656h-55.461v55.461l-12.656 12.656zm84.809-6.0781h-56.629c22.031-23.914 41.266-48.836 56.629-73.129zm6.6523-384.2 19.531-19.531v263.9c-4.582 13.762-11.195 28.438-19.531 43.586zm19.531-25.605v0.17188l-1.3438-1.3438-21.223 21.223-21.27-21.266-1.3008 1.3008v-0.085938l6.9531-6.9531 15.617 15.617 15.617-15.617zm-33.891-11.25 11.32-11.32 11.32 11.32-11.32 11.32zm51.02-28.375-24.078 24.078-15.617-15.617-15.617 15.617-8.4648-8.4648 15.617-15.617-15.617-15.617 8.4648-8.4648 15.617 15.617 15.617-15.617zm-51.02-28.375 11.32-11.32 11.32 11.32-11.32 11.32zm26.938-4.2969-15.617-15.617-15.617 15.617-6.9531-6.9531v-0.17188l1.3438 1.3438 21.223-21.223 21.27 21.266 1.3008-1.3008v0.085937zm-51.289-505.12v29.035h29.035l29.137-49.969v89.938l-29.746-29.75h-38.641l-0.007813-38.641-29.746-29.746h89.934zm52.77-23.738-27.23 46.695h-19.469l0.003906-19.465zm-309.24-4.8945h0.085938l-1.3008 1.3008 21.266 21.266-21.223 21.223 1.3438 1.3438h-0.17578l-6.9531-6.9531 15.617-15.617-15.617-15.617zm-11.25 33.887-11.32-11.32 11.32-11.32 11.32 11.32zm-28.375-51.016 24.078 24.078-15.617 15.617 15.617 15.617-8.4648 8.4648-15.617-15.617-15.617 15.617-8.4648-8.4648 15.617-15.617-15.617-15.617zm-28.379 51.016-11.32-11.32 11.32-11.32 11.32 11.32zm-4.2969-26.938-15.617 15.617 15.617 15.617-6.9531 6.9531h-0.085937l1.3008-1.3008-21.266-21.27 21.223-21.223-1.3438-1.3438h0.17188zm-320.52 90.32v-89.57l29.137 49.965h29.035l-0.003906-29.031-49.965-29.137h84.945v0.5h4.4883l-29.246 29.25v38.641h-38.641l-29.75 29.75zm5.3984-92.375 46.695 27.23v19.465h-19.469zm-5.3984 101.33 32.266-32.266h42.199v-42.199l31.766-31.762h132c-12.309 5.2109-25.137 11.77-38.223 19.531l-87.57-0.003906-20.25 20.254v51.902h-51.906l-20.25 20.25v87.574c-8 13.492-14.746 26.715-20.031 39.371zm0 420.57v-0.085937l1.3008 1.3008 21.27-21.266 21.223 21.223 1.3438-1.3438v0.17188l-6.9531 6.9531-15.617-15.617-15.617 15.617zm33.891 11.25-11.32 11.32-11.32-11.32 11.32-11.32zm-51.02 28.375 24.082-24.082 15.617 15.617 15.617-15.617 8.4648 8.4648-15.617 15.617 15.617 15.617-8.4648 8.4648-15.617-15.617-15.617 15.617zm51.02 28.375-11.32 11.32-11.32-11.32 11.32-11.32zm-26.938 4.2969 15.617 15.617 15.617-15.617 6.9531 6.9531v0.085938l-1.3008-1.3008-21.27 21.266-21.223-21.223-1.3438 1.3438v-0.17188zm86.77 533.75h-85.52l49.965-29.137v-29.035l-29.031 0.003906-29.137 49.965v-89.938l29.75 29.746h38.641v38.641l29.746 29.746zm-88.324-5.3945 27.227-46.695h19.469v19.465zm206.7 5.3945h-105.37l-32.266-32.262v-42.203h-42.199l-32.266-32.262v-132.65c5.2852 12.656 12.031 25.879 20.031 39.371v87.574l20.25 20.25h51.906v51.902l20.25 20.25h87.574c13.492 8 26.715 14.746 39.371 20.031zm44.504 0c-13.742-4.5938-28.391-11.203-43.504-19.531h75.43l19.531 19.531zm57.535 0h-0.17188l1.3438-1.3438-21.223-21.223 21.27-21.27-1.3008-1.3008h0.085937l6.9531 6.9531-15.617 15.617 15.617 15.617zm11.25-33.887 11.32 11.32-11.32 11.32-11.32-11.32zm28.375 51.016-24.082-24.082 15.617-15.617-15.617-15.617 8.4648-8.4648 15.617 15.621 15.617-15.617 8.4648 8.4648-15.617 15.617 15.617 15.617zm28.375-51.016 11.32 11.32-11.32 11.32-11.32-11.32zm4.2969 26.938 15.617-15.617-15.617-15.617 6.9531-6.9531h0.17188l-1.3438 1.3438 21.223 21.223-21.27 21.266 1.3008 1.3008h-0.085937zm13.027 6.9492 19.531-19.531h75.355c-15.113 8.3281-29.762 14.938-43.504 19.531zm95.887 0h-27.277c12.395-5.1758 25.328-11.75 38.527-19.531h0.60937v-0.35938c0.078126-0.046875 0.15625-0.097656 0.23438-0.14062h87.57l20.25-20.25v-51.902h51.902l20.258-20.25v-87.574c8-13.492 14.746-26.715 20.031-39.371v132.65l-32.266 32.262h-42.199v42.203l-32.266 32.262zm113.97 0 29.746-29.746v-38.641h38.641l29.746-29.746v89.934l-29.137-49.969h-29.035v29.035l49.965 29.137zm92.738-5.3945-46.695-27.23v-19.465h19.469z"/>
</svg>
