<?xml version="1.0" encoding="UTF-8"?>
<svg width="1200pt" height="1200pt" version="1.1" viewBox="0 0 1200 1200" xmlns="http://www.w3.org/2000/svg">
 <path d="m1183.9 600-0.28516-0.28516v-583.3h-583.09l-0.28906-0.28906-0.28516 0.28906h-583.52v583.09l-0.28516 0.28516 0.28516 0.28516v583.53h583.3l0.28906 0.28906 0.28906-0.28906h583.3v-583.31zm-31.652-31.652-21.996 21.992v-57.387l-25.449-25.449 20.762-20.762 48.676 48.672v54.926zm18.395 31.652-18.398 18.398-18.398-18.398 18.398-18.398zm-49.766 0.28906v62.879l-17.305 17.309v-160.94l17.305 17.309v62.875l-0.28516 0.28516zm26.684 387c-5.2305 8.5117-11.016 17.156-17.309 25.863v-281.95l17.309 17.309zm-26.543 54.777v55.105h-22.09v23.828h-57.805v-0.14453l-319.27 0.003907-26.68-26.68h-190.3l-26.684 26.68h-313.68v0.14453l-61.66-0.003906v-22.09l-23.832 0.003906v-56.848h0.14453v-320.45l26.68-26.684v-190.3l-26.68-26.684v-330.69h-0.14062v-44.422h22.09v-23.828h56.418v0.14453h320.88l26.68 26.68h190.3l26.684-26.68h328.16v-0.14453h46.953v22.09h23.832v58.707h-0.14453v318.37l-26.68 26.68v190.3l26.68 26.684v320.23zm9.375 88.309h17.238v17.234h-17.238zm-9.375 17.238h-12.715v-17.234h12.715zm9.375-26.613v-14.453h17.238v14.453zm-9.375 0h-12.715v-14.453h12.715zm-133.71 26.539h-238.77l-17.309-17.309h281.95c-8.707 6.2969-17.352 12.078-25.863 17.309zm-387.29-26.969-0.28906 0.28906h-62.875l-17.305-17.309h160.94l-17.305 17.309h-62.875zm-413.15 9.6641h281.95l-17.309 17.309-238.77-0.003906c-8.5117-5.2305-17.156-11.012-25.863-17.305zm-134.46 0.14062h17.234v17.234h-17.234zm0-9.375v-12.715h17.234v12.715zm26.609 9.375h14.457v17.234h-14.457zm0-9.375v-12.715l14.457 0.003906v12.715zm-9.2305-107.84c-6.293-8.7109-12.078-17.355-17.309-25.867v-238.99l17.309-17.309zm9.375-413.09 0.28516-0.28516-0.28516-0.28516v-62.875l17.305-17.309v160.94l-17.305-17.309zm-26.684-387.35c5.2305-8.5117 11.016-17.156 17.309-25.863v281.72l-17.309-17.309zm17.168-143.09h-17.238v-17.234h17.238zm9.375-17.238h12.715v17.234h-12.715zm-9.375 26.613v14.453h-17.238v-14.453zm9.375 0h12.715v14.453h-12.715zm133.71-26.539h238.99l17.309 17.309-282.16-0.003907c8.707-6.293 17.352-12.074 25.863-17.305zm387.51 26.969 0.28906-0.28906h62.875l17.305 17.309h-160.94l17.309-17.309h62.875zm412.93-9.6641h-281.73l17.309-17.309h238.56c8.5078 5.2344 17.152 11.016 25.859 17.309zm134.46-0.14062h-17.234v-17.234h17.234zm0 9.375v12.715h-17.234v-12.715zm-26.609-9.375h-14.457v-17.234h14.457zm0 9.375v12.715l-14.457-0.003906v-12.715zm9.2305 107.84c6.293 8.7109 12.078 17.355 17.309 25.867v238.77l-17.309 17.309zm1.9414 293.26 24.742-24.738v-226.46c7.3438 13.543 13.168 26.617 17.305 38.941v254.3zm42.047-237.57c-10.332-22.59-25.211-46.805-43.844-71.234v-70.215h17.234v66.5h9.375v-66.5h17.234zm0-150.82h-17.234v-12.715l17.234 0.003906zm0-65.934v43.848h-17.234v-26.613h-26.609v-17.234zm-53.219 17.234h-14.457v-17.234h14.457zm-70.594-17.234h46.762v17.234h-65.664v9.375h65.664v17.234h-68.469c-24.434-18.633-48.645-33.512-71.238-43.844zm-118.25 0c12.324 4.1367 25.402 9.9609 38.941 17.309h-226.24l-24.738 24.738-42.051-42.047zm-267.35 0 48.676 48.676-20.766 20.766-25.453-25.453h-57.383l21.992-21.992-21.992-21.996zm-64.586 40.391-18.398-18.398 18.398-18.398 18.398 18.398zm-9.6641-40.391-21.992 21.996 21.992 21.992h-57.383l-25.453 25.453-20.766-20.766 48.676-48.676zm-68.184 0-42.047 42.047-24.742-24.738h-226.68c13.543-7.3438 26.617-13.168 38.941-17.309zm-279.83 0c-22.594 10.332-46.805 25.211-71.238 43.848h-70.211v-17.234h67.402v-9.375l-67.402-0.003906v-17.234zm-150.82 0v17.234h-12.715v-17.234zm-65.938 0h43.848v17.234h-26.613v26.609l-17.234 0.003906zm17.234 53.223v14.453h-17.234v-14.453zm-17.234 23.828h17.234v65.664h9.375v-65.664h17.238v68.473c-18.637 24.43-33.516 48.641-43.848 71.234zm0 165.02c4.1367-12.324 9.9609-25.402 17.305-38.941v226.24l24.742 24.738-42.047 42.043zm0 267.34 48.676-48.676 20.762 20.766-25.449 25.449v57.387l-21.996-21.996-21.992 21.992zm40.395 64.586-18.398 18.398-18.398-18.398 18.398-18.398zm-18.402 31.656 21.996-21.996v57.387l25.449 25.449-20.762 20.766-48.676-48.676v-54.926zm20.055 88.234-24.742 24.738v226.68c-7.3438-13.539-13.168-26.613-17.305-38.938v-254.53zm-42.047 237.79c10.332 22.59 25.211 46.805 43.844 71.234v70.211h-17.234v-67.402h-9.375v67.402l-17.234 0.003906zm0 150.82h17.234v12.715l-17.234-0.003906zm0 65.934v-43.848h17.234v26.609h26.609v17.238zm53.219-17.234h14.457v17.234h-14.457zm85.492 17.234h-61.66v-17.234h65.664v-9.375h-65.664v-17.234h68.469c24.434 18.633 48.645 33.512 71.238 43.844zm103.36 0c-12.324-4.1367-25.402-9.9609-38.945-17.309h226.46l24.738-24.738 42.055 42.047zm267.56 0-48.676-48.676 20.766-20.766 25.449 25.453h57.383l-21.992 21.992 22 21.996zm64.59-40.391 18.398 18.398-18.398 18.395-18.398-18.398zm9.6602 40.391 21.992-21.996-21.992-21.992h57.383l25.453-25.453 20.766 20.766-48.672 48.676zm68.184 0 42.047-42.047 24.742 24.742h226.46c-13.543 7.3438-26.617 13.168-38.941 17.309zm279.61 0c22.594-10.332 46.805-25.211 71.238-43.848h70.211v17.234h-67.402v9.375h67.402v17.238zm150.82 0v-17.234h12.715v17.234zm65.938 0h-43.848v-17.234h26.613v-26.609l17.234-0.003906zm-17.234-53.223v-14.453h17.234v14.453zm17.234-23.828h-17.234v-65.664h-9.375v65.664h-17.238v-68.473c9.7773-12.816 18.488-25.562 26.082-38.059h0.46094v-0.76953c6.6836-11.055 12.504-21.91 17.305-32.406zm0-165.02c-4.1367 12.324-9.9609 25.402-17.305 38.941v-226.46l-24.742-24.738 42.047-42.043zm0-267.56-48.676 48.676-20.762-20.766 25.449-25.449v-57.387l21.996 21.996 21.992-21.996z"/>
</svg>
