<?xml version="1.0" encoding="UTF-8"?>
<svg width="1200pt" height="1200pt" version="1.1" viewBox="0 0 1200 1200" xmlns="http://www.w3.org/2000/svg">
 <path d="m1183.6 88.152v-71.746h-71.746v31.305h-93.387v-0.082032h-16.309c-0.35938-4.4219-0.59375-8.8828-0.59375-13.398 0-3.8516 0.17969-8.0312 0.54688-12.777l0.39062-5.0469h-280.26v0.24219l-1.9336 0.003906-31.188 30.902h-58.25l-28.617-28.629-28.625 28.625h-62.734l-31.188-30.902-1.9336-0.003907v-0.23828h-280.26l0.39062 5.0508c0.36719 4.7344 0.54688 8.9141 0.54688 12.777 0 4.5156-0.23438 8.9766-0.59375 13.398l-16.309-0.003906v0.082032h-93.387v-31.305h-71.746v71.746h31.184v109.03c-4.1758 0.32031-8.3828 0.53516-12.641 0.53516-4.1289 0-8.5312-0.19531-13.457-0.59766l-5.0703-0.41406v64.82l-0.015625 0.003906 0.019531 17.578v198.66h0.21875l0.003907 1.9336 30.902 31.188v58.25l-28.625 28.613 28.621 28.621v62.738l-30.898 31.188-0.003907 1.9336h-0.21875v198.66l-0.019531 17.574h0.019531v64.82l5.0703-0.41406c4.9258-0.40234 9.3281-0.59766 13.457-0.59766 4.2578 0 8.4648 0.21484 12.641 0.53516v109.03l-31.188 0.003906v71.746h71.746v-31.305h93.387v0.082032h16.305c0.35938 4.4219 0.59375 8.8828 0.59375 13.398 0 3.8594-0.17969 8.0391-0.54688 12.777l-0.38672 5.0469h280.26v-0.24219l1.9336-0.003906 31.184-30.902h58.246l28.625 28.625 28.621-28.625h62.738l31.188 30.902 1.9336 0.003906v0.24219h280.26l-0.39062-5.0508c-0.36719-4.7461-0.54688-8.9258-0.54688-12.777 0-4.5156 0.23438-8.9766 0.59375-13.398h16.309v-0.082032h93.387v31.309h71.746v-71.746h-31.184v-109.03c4.1758-0.32031 8.3828-0.53516 12.641-0.53516 4.125 0 8.5312 0.19531 13.457 0.59766l5.0703 0.41406v-64.82l0.015625-0.003906-0.019531-16.465v-199.77h-0.22266l-0.003906-1.9336-30.902-31.188v-58.25l28.625-28.621-28.625-28.621v-62.738l30.902-31.188 0.003906-1.9336h0.22266v-199.77l0.019531-16.461h-0.019531v-64.824l-5.0703 0.41406c-4.9297 0.40234-9.332 0.59766-13.457 0.59766-4.2578 0-8.4609-0.21484-12.641-0.53516l0.003906-109.03zm-62.371-62.371h52.996v52.996h-21.809v-31.066h-31.184zm0 31.305h21.809v21.691h-21.809zm-9.375 21.828h-104.03c-2.0195-7.0938-3.5781-14.379-4.6289-21.828h108.66zm9.375 877.19h0.16406l-0.16406-158.39v-27.84h-0.027344l-0.046874-45.781 21.848-22.086v292.36c-7.4102 0.94922-14.684 2.3281-21.77 4.1875zm-6.7695-353.86 28.543 28.543v16.371l-44.91-44.914 44.91-44.914v16.371zm28.543-15.285v30.57l-15.285-15.285zm-58.168 15.285 58.168 58.172v18.707l-76.879-76.879 76.879-76.879v18.707zm58.168-104.25-21.848-22.086 0.046874-45.781h0.027344v-27.84l0.16406-158.39h-0.16406v-42.441c7.0898 1.8594 14.363 3.2383 21.77 4.1875zm-31.148-96.117-0.082031 77.883 31.227 31.566 0.003906 0.78125-90.137 90.137 88.293 88.293-29.383 29.703 0.082031 77.883v203.2c-52.301 16.961-93.734 58.211-110.96 110.39l-242.68-0.003906v0.097656l-37.973-0.039063-31.566 31.227h-0.78125l-90.137-90.137-88.293 88.293-29.699-29.383-37.973 0.039063v-0.097656h-242.68c-17.227-52.184-58.656-93.434-110.96-110.39v-203.95l0.078124-77.133-31.227-31.566v-0.78125l90.137-90.137-88.293-88.293 29.383-29.703-0.078124-77.133 0.003906-203.94c52.301-16.961 93.73-58.211 110.96-110.39h242.68v-0.097656l37.973 0.039063 31.566-31.227h0.78125l90.137 90.137 88.293-88.293 29.703 29.383 37.973-0.039063v0.097656h242.68c17.227 52.184 58.656 93.434 110.96 110.39zm31.188 719.34v21.691h-21.809v-21.691zm-132.25-9.5117c16.52-47.008 53.938-84.227 101.06-100.5v100.5zm-252.57 31.203v0.082032h-56.207l22.086-21.848 232.02 0.23828v-0.30078h41.969c-1.9023 7.1055-3.3438 14.395-4.3281 21.828zm-551.95 0c-0.98828-7.4336-2.4258-14.723-4.332-21.828h41.969v0.30078l232.02-0.23828 22.086 21.848h-56.207v-0.082032zm391.5-28.461-28.543 28.543h-16.367l44.91-44.91 44.914 44.91h-16.371zm15.285 28.543h-30.57l15.285-15.285zm-15.285-58.168-58.172 58.168h-18.707l76.879-76.879 76.879 76.879h-18.711zm-509.6-73.613c47.125 16.27 84.539 53.488 101.06 100.5h-101.06zm-9.375-767.32h-0.16406l0.16406 159.16v27.074h0.027344l0.046874 45.781-21.844 22.086-0.003906-292.36c7.4102-0.94922 14.684-2.3281 21.77-4.1875zm6.7695 353.86-28.543-28.539v-16.371l44.91 44.914-44.91 44.914v-16.371zm-28.543 15.285v-30.566l15.285 15.285zm58.172-15.285-58.168-58.168v-18.707l76.875 76.879-76.875 76.879v-18.707zm-58.172 104.25 21.844 22.086-0.046875 45.781h-0.027343v27.074l-0.16016 159.16h0.16406v42.445c-7.0898-1.8594-14.363-3.2383-21.77-4.1875zm-0.039062-623.23v-21.691h21.809v21.691zm132.25 9.5117c-16.52 47.008-53.938 84.227-101.06 100.5v-100.5zm252.57-31.203v-0.082032h56.207l-22.086 21.848-232.01-0.23828v0.30078h-41.973c1.9023-7.1055 3.3438-14.395 4.332-21.828zm551.95 0c0.98828 7.4336 2.4258 14.723 4.3281 21.828h-41.969v-0.30078l-232.02 0.23828-22.086-21.848h56.207v0.082032zm-391.5 28.461 28.543-28.543h16.371l-44.914 44.914-44.91-44.91h16.367zm-15.285-28.543h30.57l-15.285 15.285zm15.285 58.168 58.172-58.168h18.711l-76.879 76.879-76.879-76.879h18.707zm408.54-26.883h101.06v100.5c-47.125-16.27-84.543-53.488-101.06-100.5zm-286.62-62.27 214.31-0.23828h53.945c-0.16016 3-0.24219 5.7891-0.24219 8.4492 0 4.5117 0.22656 8.9727 0.57031 13.398h-290.4zm-121.92 6.1641 15.367 15.367h-30.73zm-394.67-6.4023h53.945l214.32 0.23828 21.809 21.609h-290.4c0.33984-4.4258 0.57031-8.8867 0.57031-13.398-0.003906-2.6641-0.082031-5.457-0.24219-8.4492zm-10.766 31.305c-1.0469 7.4492-2.6055 14.734-4.6289 21.828h-104.03v-21.828zm-171.03 21.691v-52.996h52.996v21.93h-31.188v31.066zm52.996 9.375v103.55c-7.0781 1.9727-14.344 3.4805-21.77 4.4844v-14.652h-0.039062l-0.003906-93.387zm-52.977 190.97v-72.301c3.2188 0.18359 6.2422 0.27344 9.1523 0.27344 4.2539 0 8.4609-0.20703 12.641-0.51172v257.14h0.039062v33.926l-21.613-21.812zm6.3828 318.63 15.363-15.363v30.73zm2.7695 395.15c-2.9062 0-5.9336 0.089844-9.1523 0.27344v-72.301l0.21875-196.71 21.613-21.812v33.926h-0.039062v257.14c-4.1836-0.30078-8.3867-0.50781-12.641-0.50781zm22.012 25.555h0.039062v-14.652c7.4258 1.0078 14.691 2.5117 21.77 4.4844v103.55h-21.809zm0 102.76h21.809v21.691h-21.809zm21.812 52.996h-52.996v-52.996h21.809v31.066h31.184zm9.375-53.133h104.03c2.0195 7.0938 3.5781 14.379 4.6289 21.828h-108.66zm387.68 52.895-214.32 0.23828h-53.945c0.16016-2.9922 0.24219-5.7852 0.24219-8.4492 0-4.5117-0.23047-8.9727-0.57031-13.398h290.4zm121.92-6.1641-15.367-15.367h30.73zm394.67 6.4023h-53.945l-214.31-0.23828-21.812-21.609h290.4c-0.33984 4.4258-0.57031 8.8867-0.57031 13.398 0 2.6602 0.082031 5.4492 0.24219 8.4492zm10.766-31.305c1.0469-7.4492 2.6055-14.734 4.6289-21.828h104.03v21.828zm171.03-21.691v52.996h-52.996v-21.93h31.184v-31.066zm-52.996-9.375v-103.55c7.0781-1.9727 14.344-3.4766 21.77-4.4844v14.652h0.039062v93.387zm52.977-189.86v71.188c-3.2188-0.18359-6.2461-0.27344-9.1523-0.27344-4.2539 0-8.4609 0.20703-12.641 0.51172l0.003906-257.14h-0.039062v-33.926l21.609 21.812zm-6.3828-319.75-15.367 15.367v-30.73zm-2.7695-395.15c2.9062 0 5.9336-0.089844 9.1523-0.27344v71.188l-0.21875 197.83-21.609 21.812v-33.926h0.039062v-257.14c4.1758 0.30469 8.3828 0.51172 12.637 0.51172zm-22.012-25.555h-0.039062v14.652c-7.4258-1.0078-14.691-2.5117-21.77-4.4844l-0.003906-103.55h21.809z"/>
</svg>
