<?xml version="1.0" encoding="UTF-8"?>
<svg width="1200pt" height="1200pt" version="1.1" viewBox="0 0 1200 1200" xmlns="http://www.w3.org/2000/svg">
 <path d="m1149.4 600c0.015625 1.4141-0.57031 2.832-1.7656 3.9141l-130.79 118.35c-2.3516 2.1289-6.168 2.1289-8.5234 0s-2.3555-5.582 0-7.7109l126.59-114.55-126.59-114.55c-2.3555-2.1289-2.3555-5.582 0-7.7109 2.3516-2.1289 6.168-2.1289 8.5234 0l130.79 118.35c1.1914 1.0781 1.7812 2.5 1.7656 3.9141zm-578.12-420.9-64.629 330.88h187.23l-64.875-332.12c-1.957 0.76562-3.9531 1.457-5.9883 2.0781l30.57 284.95c0.066406 0.32031 0.097656 0.65234 0.097656 0.99219 0 3.0117-2.6992 5.4531-6.0273 5.4531h-94.793v-0.019531c-0.19141 0-0.38672-0.007813-0.58203-0.027344-3.3008-0.29297-5.7148-2.9492-5.3945-5.9336l30.516-284.41c-2.0781-0.53125-4.1211-1.1406-6.125-1.8242zm0 841.81-64.629-330.88h187.23l-64.875 332.12c-1.957-0.76562-3.9531-1.457-5.9883-2.0781l30.57-284.95c0.066406-0.32031 0.097656-0.65234 0.097656-0.99219 0-3.0117-2.6992-5.4531-6.0273-5.4531h-94.793v0.019531c-0.19141 0-0.38672 0.007813-0.58203 0.027344-3.3008 0.29297-5.7148 2.9492-5.3945 5.9336l30.516 284.41c-2.0781 0.53125-4.1211 1.1406-6.125 1.8242zm623.96-382.54c2.3555-2.1289 2.3555-5.582 0-7.7109s-6.168-2.1289-8.5234 0l-212.87 192.63c-2.3516 2.1289-2.3516 5.582 0 7.7109 2.3516 2.1289 6.168 2.1289 8.5234 0l212.88-192.63zm-1182-6.0859c-2.3555-2.1289-6.168-2.1289-8.5234 0-2.3555 2.1289-2.3555 5.582 0 7.7109l212.87 192.63c2.3555 2.1289 6.168 2.1289 8.5234 0 2.3516-2.1289 2.3516-5.582 0-7.7109zm33.188-32.273c-0.015625 1.4141 0.57031 2.832 1.7656 3.9141l130.79 118.35c2.3516 2.1289 6.168 2.1289 8.5234 0 2.3555-2.1289 2.3555-5.582 0-7.7109l-126.59-114.55 126.59-114.55c2.3555-2.1289 2.3555-5.582 0-7.7109-2.3516-2.1289-6.168-2.1289-8.5234 0l-130.79 118.35c-1.1914 1.0781-1.7812 2.5-1.7656 3.9141zm447.2 85.527 20.508 104.99h-112.82v0.019531c-0.83594 0-1.6875 0.15625-2.4961 0.49219-3.0156 1.2461-4.3438 4.4727-2.9648 7.1992l42.016 83.48h-148.81v0.019531c-1.4805 0-2.9688 0.49219-4.1289 1.4883-2.4102 2.0625-2.5117 5.5039-0.23438 7.6836l302.5 290.18 0.13281 0.12109 7.4375 6.668c2.3398 2.0977 6.1133 2.1016 8.457 0l7.5195-6.7031c0.078125-0.066407 0.15625-0.13672 0.23047-0.20703l304.6-289.72c1.2383-1 2.0195-2.4531 2.0195-4.0742 0-3.0117-2.6992-5.4531-6.0273-5.4531h-148.81l41.805-83.055c0.49609-0.79297 0.77734-1.707 0.77734-2.6836 0-3.0117-2.6992-5.4531-6.0273-5.4531h-112.82l20.414-104.5c0.13672-0.45703 0.21094-0.9375 0.21094-1.4336 0-3.0117-2.6992-5.4531-6.0273-5.4531h-201.55v0.019532c-0.34766 0-0.69531 0.027343-1.0469 0.085937-3.2617 0.52344-5.4414 3.3438-4.8594 6.2969zm22.637 115.89 8.1016 41.484h-59.965v0.015625c-0.71484 0-1.4414 0.11328-2.1484 0.35938-3.0977 1.0742-4.6484 4.2148-3.4609 7.0195l80.949 190.7c-1.8984 2.0156-3.6758 4.1328-5.3125 6.3359l-123.77-245.92h105.61zm10.234 52.391 33.578 171.89c-3.8945 2.0273-7.5781 4.3555-11.008 6.9453l-75.914-178.84h53.348zm113.69 173.72 33.934-173.72h52.949l-76.738 180.77c-3.1562-2.5938-6.5469-4.9531-10.145-7.0508zm36.062-184.63 8.1016-41.484h105.61l-125.31 248.96c-1.5938-2.4062-3.3477-4.7148-5.2383-6.918 0.058594-0.11719 0.11719-0.23438 0.16797-0.35938l81.844-192.8c1.1875-2.8047-0.36328-5.9453-3.4609-7.0195-0.70703-0.24609-1.4336-0.35938-2.1484-0.35938v-0.015625zm-232.89 49.707 21.211 42.137h-59.52v0.011719c-1.2656 0-2.543 0.35938-3.6289 1.1016-2.6484 1.8125-3.168 5.2266-1.1641 7.6211l121.14 145.52c0.23047 5.3945 1.1367 10.633 2.6445 15.645l-221.04-212.04h140.36zm26.699 53.043 57.223 113.69c-1.957 4.2305-3.4648 8.6719-4.4727 13.277l-105.69-126.96zm201.69 116.87 58.82-116.87h52.543l-108.35 130.16c-0.71875-4.3398-1.8828-8.5508-3.4414-12.59 0.16016-0.22266 0.30078-0.45703 0.42578-0.70312zm64.312-127.77 21.211-42.137h140.28l-225.38 214.38c1.6367-4.7656 2.7188-9.7539 3.1914-14.895 0.87891-0.36328 1.6758-0.92188 2.3008-1.668l122.32-146.94c2.0039-2.3945 1.4805-5.8086-1.1641-7.6211-1.0859-0.74609-2.3633-1.1016-3.6289-1.1016v-0.011719h-59.121zm-111.03 217.07-22.711 21.602-3.3047 2.9453-3.1094-2.7852-22.047-21.148c7.7305 2.3555 16.012 3.6328 24.621 3.6328 9.3281 0 18.27-1.5 26.547-4.2422zm-26.547-135.37c-3.1094 0-6.1719 0.16797-9.1875 0.49219l-29.758-277.36h81.559l-29.809 277.82c-4.1641-0.62891-8.4453-0.95703-12.809-0.95703zm-46.023 28.156c11.777-10.66 28.051-17.254 46.023-17.254s34.246 6.5938 46.023 17.254c11.781 10.66 19.066 25.383 19.066 41.648s-7.2852 30.988-19.066 41.648c-11.777 10.66-28.051 17.254-46.023 17.254s-34.246-6.5938-46.027-17.254c-11.781-10.66-19.066-25.383-19.066-41.648s7.2852-30.988 19.066-41.648zm46.027 8.5078c-10.113 0-19.27 3.7109-25.898 9.707-6.6289 5.9961-10.727 14.281-10.727 23.434s4.0977 17.438 10.727 23.434c6.6289 5.9961 15.785 9.707 25.898 9.707 10.113 0 19.27-3.7109 25.898-9.707 6.625-5.9961 10.727-14.281 10.727-23.434s-4.0977-17.438-10.727-23.434c-6.6289-5.9961-15.785-9.707-25.898-9.707zm-17.375 17.418c4.4453-4.0234 10.59-6.5117 17.375-6.5117 6.7852 0 12.926 2.4883 17.375 6.5117 4.4453 4.0234 7.1953 9.582 7.1953 15.723s-2.75 11.699-7.1953 15.723c-4.4453 4.0234-10.59 6.5117-17.375 6.5117-6.7852 0-12.93-2.4883-17.375-6.5117-4.4453-4.0234-7.1953-9.582-7.1953-15.723s2.75-11.699 7.1992-15.723zm614.19-508.9c2.3555 2.1289 2.3555 5.582 0 7.7109-2.3555 2.1289-6.168 2.1289-8.5234 0l-212.87-192.63c-2.3516-2.1289-2.3516-5.582 0-7.7109 2.3516-2.1289 6.168-2.1289 8.5234 0l212.88 192.63zm-1182 6.0859c-2.3555 2.1289-6.168 2.1289-8.5234 0-2.3555-2.1289-2.3555-5.582 0-7.7109l212.87-192.63c2.3555-2.1289 6.168-2.1289 8.5234 0 2.3516 2.1289 2.3516 5.582 0 7.7109zm480.38-53.25 20.508-104.99h-112.82v-0.019531c-0.83594 0-1.6875-0.15625-2.4961-0.49219-3.0156-1.2461-4.3438-4.4727-2.9648-7.1992l42.016-83.477h-148.81v-0.019531c-1.4805 0-2.9688-0.49219-4.1289-1.4883-2.4102-2.0625-2.5117-5.5039-0.23438-7.6836l302.5-290.18 0.13281-0.12109 7.4375-6.668c2.3398-2.0977 6.1133-2.1016 8.457 0l7.5195 6.7031c0.078124 0.066406 0.15625 0.13672 0.23047 0.20703l304.6 289.72c1.2383 1 2.0195 2.4531 2.0195 4.0742 0 3.0117-2.6992 5.4531-6.0273 5.4531h-148.81l41.805 83.055c0.49609 0.79297 0.77734 1.707 0.77734 2.6836 0 3.0117-2.6992 5.4531-6.0273 5.4531h-112.82l20.414 104.5c0.13672 0.45703 0.21094 0.9375 0.21094 1.4336 0 3.0117-2.6992 5.4531-6.0273 5.4531h-201.55v-0.019531c-0.34766 0-0.69531-0.027343-1.0469-0.085937-3.2617-0.52344-5.4414-3.3438-4.8594-6.2969zm22.637-115.89 8.1016-41.484h-59.965v-0.015625c-0.71484 0-1.4414-0.11328-2.1484-0.35938-3.0977-1.0742-4.6484-4.2148-3.4609-7.0195l80.949-190.7c-1.8984-2.0156-3.6758-4.1328-5.3125-6.3359l-123.77 245.92h105.61zm10.234-52.391 33.578-171.89c-3.8945-2.0273-7.5781-4.3555-11.008-6.9453l-75.914 178.84h53.348zm113.69-173.72 33.934 173.72h52.949l-76.738-180.77c-3.1562 2.5938-6.5469 4.9531-10.145 7.0508zm36.062 184.63 8.1016 41.484h105.61l-125.31-248.96c-1.5938 2.4062-3.3477 4.7148-5.2383 6.918 0.058593 0.11719 0.11719 0.23438 0.16797 0.35938l81.844 192.8c1.1875 2.8047-0.36328 5.9453-3.4609 7.0195-0.70703 0.24609-1.4336 0.35938-2.1484 0.35938v0.015625zm-232.89-49.707 21.211-42.137h-59.52v-0.011718c-1.2656 0-2.543-0.35938-3.6289-1.1016-2.6484-1.8125-3.168-5.2266-1.1641-7.6211l121.14-145.52c0.23047-5.3945 1.1367-10.633 2.6445-15.645l-221.04 212.04h140.36zm26.699-53.043 57.223-113.69c-1.957-4.2305-3.4648-8.6719-4.4727-13.277l-105.69 126.96zm201.69-116.87 58.82 116.87h52.543l-108.35-130.16c-0.71875 4.3398-1.8828 8.5508-3.4414 12.59 0.16016 0.22266 0.30078 0.45703 0.42578 0.70312zm64.312 127.77 21.211 42.137h140.28l-225.38-214.38c1.6367 4.7656 2.7188 9.7539 3.1914 14.895 0.87891 0.36328 1.6758 0.92188 2.3008 1.668l122.32 146.94c2.0039 2.3945 1.4805 5.8086-1.1641 7.6211-1.0859 0.74609-2.3633 1.1055-3.6289 1.1016v0.011719h-59.121zm-111.03-217.07-22.711-21.602-3.3047-2.9453-3.1094 2.7852-22.047 21.148c7.7305-2.3555 16.012-3.6328 24.621-3.6328 9.3281 0 18.27 1.5 26.547 4.2422zm-26.547 135.37c-3.1094 0-6.1719-0.16797-9.1875-0.49219l-29.758 277.36h81.559l-29.809-277.82c-4.1641 0.62891-8.4453 0.95703-12.809 0.95703zm-46.023-28.156c11.777 10.66 28.051 17.254 46.023 17.254 17.973 0 34.246-6.5938 46.023-17.254 11.781-10.66 19.066-25.383 19.066-41.648 0-16.266-7.2852-30.988-19.066-41.648-11.777-10.66-28.051-17.254-46.023-17.254-17.973 0-34.246 6.5938-46.027 17.254s-19.066 25.383-19.066 41.648c0 16.266 7.2852 30.988 19.066 41.648zm46.027-8.5078c-10.113 0-19.27-3.7109-25.898-9.707-6.6289-5.9961-10.727-14.281-10.727-23.434 0-9.1523 4.0977-17.438 10.727-23.434 6.6289-5.9961 15.785-9.707 25.898-9.707s19.27 3.7109 25.898 9.707c6.625 5.9961 10.727 14.281 10.727 23.434 0 9.1523-4.0977 17.438-10.727 23.434-6.6289 5.9961-15.785 9.707-25.898 9.707zm-17.375-17.418c4.4453 4.0234 10.59 6.5117 17.375 6.5117s12.926-2.4883 17.375-6.5117c4.4453-4.0234 7.1953-9.582 7.1953-15.723 0-6.1406-2.75-11.699-7.1953-15.723-4.4453-4.0234-10.59-6.5117-17.375-6.5117s-12.93 2.4883-17.375 6.5117c-4.4453 4.0234-7.1953 9.582-7.1953 15.723 0 6.1406 2.75 11.699 7.1992 15.723z"/>
</svg>
