<?xml version="1.0" encoding="UTF-8"?>
<svg width="1200pt" height="1200pt" version="1.1" viewBox="0 0 1200 1200" xmlns="http://www.w3.org/2000/svg">
 <path d="m1151.3 1038.5v-177.1l32.316-32.316v-75.547l-15.727-15.727v-65.234l15.727-15.73v-110.51l-15.727-15.727v-68.871l15.727-15.723v-71.914l-32.316-32.316v-180.35h32.301l0.25781-77.219h-68.086v-67.844h-77.219v32.379h-178.66l-32.375-32.379h-75.547l-15.727 15.727h-65.234l-15.73-15.727h-110.51l-15.727 15.727h-68.871l-15.727-15.727h-71.914l-32.363 32.363h-2.9414v0.015625h-175.51v-32.379h-77.219v67.84h-68.082l0.25781 77.219h32.301v176.88l-32.543 32.543v75.547l15.727 15.727v65.234l-15.727 15.73v110.51l15.727 15.727v68.871l-15.727 15.723v71.914l32.363 32.363v2.9414h0.17578v177.36h-32.301l-0.25781 77.219h68.086v67.844h77.219v-32.379h175.18l32.379 32.379h75.547l15.727-15.727h65.234l15.73 15.727h110.51l15.727-15.727h68.867l15.727 15.727h71.914l32.363-32.363h2.9414v-0.015625h178.99v32.379h77.219v-67.84h68.086l-0.25781-77.219zm-79.285 103.31h-24.086v-26.09h24.047zm-557.81-26.086v-1.5352l23.004-23.004h15.52l-50.641 50.641h-15.52l26.105-26.105zm51.777-24.539h19.445l-50.641 50.641h-19.445zm30.789 1.9141 48.73 48.73h-97.457zm61.984 48.727-50.641-50.641h19.441l50.641 50.641zm32.699 0-50.641-50.641h19.152l50.641 50.641zm-27.605-60.016h-130.53l-24.539 24.539h-347.07v-67.844l-67.844-0.003906v-348.77l24.312-24.312v-130.53l-24.312-24.312v-349.14h67.844v-67.848h346.69l24.539 24.539h130.53l24.539-24.539h350.55v67.844h67.844v348.54l-24.535 24.535v130.53l24.535 24.535v348.92h-67.844v67.844l-350.17 0.007812zm-535.55 33.914h24.047v26.09l-24.086-0.003906zm24.047-9.375h-24.035l0.050781-34.559-34.484-0.003906v-23.91h58.469zm-58.469-25.188h25.094l-0.035156 25.184-25.059 0.003906zm-35.527-33.285h26.152v23.91h-26.152zm69.91-989.75h24.086v26.09l-24.047-0.003906zm24.086 35.461v58.469l-58.469 0.003906v-23.91h34.484l-0.050781-34.559zm-43.531 445.19v15.52l-50.641-50.641v-15.52zm-50.641-21.863 50.641 50.645v19.441l-50.641-50.641zm0 32.699 48.73 48.73-48.73 48.73zm0 110.71 50.641-50.641v19.441l-50.641 50.641zm0 32.699 50.641-50.641v19.152l-50.641 50.645zm26.328-540.96h-26.152v-23.91h26.152zm427.79-67.848-26.105-26.105h19.156l50.641 50.641h-19.152l-22.625-22.625v-1.9141zm147.3 24.539h-15.523l50.641-50.641h15.523zm-28.777 0h-19.441l50.641-50.641h19.441zm-30.785-1.9141-48.73-48.73h97.457zm-61.984-48.727 50.641 50.641h-19.441l-50.641-50.641zm533.94 26.102h-24.047l-0.003906-26.086h24.086zm-24.051 9.375h24.035l-0.050781 34.562h34.484v23.91h-58.469zm58.469 25.188h-25.094l0.035156-25.184h25.059zm35.527 33.285h-26.152v-23.91h26.152zm-50.688 509.1v-15.52l50.641 50.645v15.52zm50.641 21.863-50.641-50.645v-19.441l50.641 50.641zm0-32.699-48.73-48.73 48.73-48.73zm0-110.71-50.641 50.641v-19.441l50.641-50.641zm0-32.699-50.641 50.641v-19.152l50.641-50.645zm-93.949 599.44v-58.469h58.469v23.91l-34.484-0.003906 0.050781 34.559zm67.844-58.473h26.152v23.91h-26.152zm0-9.375v-339.54l26.105 26.105v136.07h0.046875v177.36zm58.469-213.3-22.941 22.941v-13.223h-0.046875v-100.48l22.988 22.988zm0-274.98v102.74l-15.727 15.727v59.746l-7.2617-7.2617v-242.79l7.2617-7.2617v63.379zm0-172.24v64.145l-22.988 22.988v-100.11h0.046875v-9.9688zm-32.316-39.188h-0.046875v135.7l-26.105 26.105v-339.16h26.152zm32.523-245.21-0.19141 58.469h-22.957v-33.281h-35.527v-25.188zm-126.52-67.84h58.469v58.465h-25.043l0.050781-35.465h-33.477zm-9.375 58.465h-341.17l26.105-26.105h111.59v0.015625h203.48zm-282.7-58.465h67.777l22.988 22.988h-113.75zm-222.93 15.727 15.73-15.727h102.74l15.727 15.727h59.746l-7.2617 7.2617h-242.8l-7.2617-7.2617zm-156.51-15.727h64.145l22.988 22.988h-110.12zm-11.227 32.379v-0.015625h107.73l26.105 26.105-337.32-0.003906v-26.086zm-271.32-32.379h58.469v23.004h-33.473l0.050781 35.465-25.047-0.003906zm25.059 67.84 0.035156 25.184-25.094 0.003906v-25.188zm-92.918 58.473-0.19141-58.469h58.676v25.184h-35.527v33.285zm58.484 9.375v339.77l-26.332-26.332v-109.86h0.17578l0.003906-203.58zm-58.691 213.3 22.988-22.988v113.75l-22.988-22.988zm0 274.98v-102.74l15.727-15.727v-59.746l7.2617 7.2617v242.8l-7.2617 7.2617v-63.379zm0 172.24v-64.145l22.988-22.988v110.12zm32.363 12.973v-109.48l26.332-26.332v339.39l-26.156 0.003906v-203.58zm-32.348 271.43 0.19141-58.469h22.957v33.285h35.527v25.184zm126.52 67.84h-58.469v-58.465h25.043l-0.050781 35.465h33.477zm9.375-58.465h337.69l-26.105 26.105h-108.11v-0.015625l-203.48-0.003906zm279.23 58.465h-67.777l-22.988-22.988h113.75zm222.93-15.727-15.73 15.727h-102.74l-15.727-15.727h-59.746l7.2617-7.2617h242.8l7.2617 7.2617zm156.51 15.727h-64.145l-22.988-22.988h110.12zm14.703-32.379v0.015625h-111.21l-26.105-26.105h340.79v26.09zm271.32 32.379h-58.469v-23.004h33.477l-0.050781-35.465h25.043zm-25.059-67.84-0.035156-25.184h25.094v25.184zm34.434 0v-25.188h35.527v-33.285h22.957l0.19141 58.469z"/>
</svg>
