<?xml version="1.0" encoding="UTF-8"?>
<svg width="1200pt" height="1200pt" version="1.1" viewBox="0 0 1200 1200" xmlns="http://www.w3.org/2000/svg">
 <path d="m106.98 548.5c-11.496 0-20.855 9.3555-20.855 20.855s9.3555 20.855 20.852 20.855h986.04c11.492 0 20.852-9.3555 20.852-20.855 0.003906-5.5859-2.1406-10.812-6.082-14.75-3.9336-3.9414-9.1641-6.1016-14.75-6.1016h-986.05zm986.04 66.371h-986.04c-25.094 0-45.52-20.426-45.52-45.52s20.426-45.52 45.52-45.52h986.05c12.184 0 23.613 4.7305 32.203 13.34 8.5859 8.6055 13.316 20.039 13.297 32.203 0.003907 25.07-20.426 45.496-45.516 45.496z" fill-rule="evenodd"/>
 <path d="m1017.3 548.52c-6.8125 0-12.336-5.5234-12.336-12.332l0.003906-365.22c0-17.578-14.309-31.902-31.887-31.902h-272.25c-6.8047 0-12.332-5.5234-12.332-12.332s5.5234-12.332 12.332-12.332h272.26c31.172 0 56.543 25.371 56.543 56.566l0.003907 365.22c0 6.8086-5.5078 12.332-12.332 12.332z" fill-rule="evenodd"/>
 <path d="m182.69 548.52c-6.8125 0-12.336-5.5234-12.336-12.332l0.003906-365.24c0-31.195 25.367-56.566 56.543-56.566h272.25c6.8086 0 12.332 5.5234 12.332 12.332s-5.5234 12.332-12.332 12.332h-272.25c-17.578 0-31.887 14.301-31.887 31.902l0.003907 365.24c0 6.8086-5.5273 12.332-12.332 12.332z" fill-rule="evenodd"/>
 <path d="m237.74 548.52c-6.832 0-12.336-5.5234-12.336-12.332v-354.41c0-6.8086 5.5039-12.332 12.332-12.332h261.42c6.8086 0 12.332 5.5234 12.332 12.332s-5.5234 12.332-12.332 12.332h-249.09v342.07c0 6.8086-5.5234 12.332-12.328 12.332z" fill-rule="evenodd"/>
 <path d="m962.33 548.52c-6.832 0-12.336-5.5234-12.336-12.332l0.003906-342.07h-249.13c-6.8047 0-12.332-5.5234-12.332-12.332s5.5234-12.332 12.332-12.332h261.42c6.8047 0 12.371 5.5469 12.371 12.355l0.003906 354.38c0 6.8086-5.5273 12.332-12.332 12.332z" fill-rule="evenodd"/>
 <path d="m522.71 128.66c-12.719 0-23.082 10.363-23.082 23.102l0.003906 5.0117c0 12.719 10.359 23.082 23.078 23.082h154.61c12.719 0 23.078-10.363 23.078-23.082v-5.0117c0-12.738-10.363-23.102-23.078-23.102zm154.6 75.855h-154.6c-26.312 0-47.746-21.41-47.746-47.746l0.003906-5.0117c0-26.336 21.43-47.766 47.742-47.766h154.61c26.316 0 47.746 21.43 47.746 47.766v5.0117c0 26.336-21.43 47.746-47.746 47.746z" fill-rule="evenodd"/>
 <path d="m962.93 1096h-725.83c-31.836 0-59.094-23.809-63.375-55.391l-58.898-436.41c-0.90234-6.7422 3.8281-12.953 10.574-13.852 6.7852-0.89844 12.973 3.8125 13.875 10.555l58.883 436.41c2.6289 19.398 19.375 34.023 38.941 34.023h725.84c19.594 0 36.312-14.625 38.945-34.023l58.883-436.41c0.92188-6.7422 7.1289-11.477 13.871-10.555 6.7461 0.89844 11.477 7.1094 10.578 13.852l-58.895 436.41c-4.2656 31.578-31.496 55.391-63.379 55.391z" fill-rule="evenodd"/>
 <path d="m595.64 1096c-6.8086 0-12.336-5.5234-12.336-12.332l0.003907-481.09c0-6.8086 5.5195-12.332 12.328-12.332 6.8086 0 12.332 5.5234 12.332 12.332l0.003906 481.09c0 6.8086-5.5273 12.332-12.332 12.332z" fill-rule="evenodd"/>
 <path d="m1051.3 775.25h-902.62c-6.8047 0-12.332-5.5234-12.332-12.332s5.5234-12.332 12.332-12.332h902.62c6.8047 0 12.332 5.5234 12.332 12.332s-5.5234 12.332-12.332 12.332z" fill-rule="evenodd"/>
 <path d="m1029.7 935.64h-859.39c-6.8086 0-12.336-5.5234-12.336-12.332 0.003906-6.8086 5.5234-12.332 12.332-12.332h859.39c6.8086 0 12.328 5.5234 12.328 12.332s-5.5234 12.332-12.328 12.332z" fill-rule="evenodd"/>
 <path d="m392.21 1096c-6.4453 0-11.863-4.9688-12.293-11.477l-33.055-481.09c-0.45313-6.8086 4.6641-12.676 11.473-13.145 6.7461-0.49219 12.676 4.6445 13.145 11.453l33.039 481.09c0.46875 6.7891-4.6719 12.676-11.457 13.145-0.29688 0.019531-0.57812 0.019531-0.85547 0.019531z" fill-rule="evenodd"/>
 <path d="m807.81 1096c-0.27734 0-0.55859 0-0.85938-0.019531-6.7812-0.47266-11.926-6.3594-11.453-13.145l33.062-481.09c0.44922-6.8086 6.3359-11.945 13.145-11.453 6.793 0.46875 11.926 6.3359 11.457 13.145l-33.035 481.09c-0.45312 6.4883-5.8711 11.477-12.312 11.477z" fill-rule="evenodd"/>
</svg>
