<?xml version="1.0" encoding="UTF-8"?>
<svg width="1200pt" height="1200pt" version="1.1" viewBox="0 0 1200 1200" xmlns="http://www.w3.org/2000/svg">
 <path d="m17.387 1044.6c-4.418 0-8-3.582-8-8 0-4.418 3.582-8 8-8h294.71l-205.61-43.379v-0.007812c-3.5391-0.73438-6.2422-3.8203-6.3438-7.5859-0.12109-4.4023 3.3477-8.0664 7.75-8.1875l227-6.6484-26.309-35.027c-3.1211-4.1562-11.336-9.207-19.547-14.258-9.4414-5.8086-18.887-11.617-23.922-18.32-4.1914-5.5781-5.9336-12.16-8.0625-20.203-2.832-10.695-6.4727-24.445-18.062-39.879l-62.336-82.996c-2.6211-2.9883-2.668-7.5312 0.042969-10.578 2.9336-3.2969 7.9844-3.5898 11.281-0.65625l77.461 69.098c12.762 11.383 18.039 22.062 22.559 31.207 2.7656 5.5977 5.1836 10.488 8.9102 13.812 4.8789 4.3516 14.777 9.1562 24.676 13.965 10.949 5.3164 21.895 10.633 28.363 16.402l22.887 20.414-88.102-377.72c-1.0898-3.8359 0.83594-7.9688 4.6016-9.5469 4.0742-1.707 8.7617 0.20703 10.469 4.2812 22.906 54.562 47.77 107.96 72.633 161.34 21.562 46.305 43.125 92.609 63.449 139.75l-13.652-135.96c-1.9844-19.762 4.3867-39.18 10.758-58.598 5.8594-17.855 11.719-35.707 10.07-52.098-1.3398-13.332-10.289-27.25-19.242-41.164-9.9766-15.508-19.953-31.016-21.68-48.227l-18.68-186.03c-0.55469-4 1.9922-7.8555 6-8.8398 4.2812-1.0508 8.6055 1.5625 9.6562 5.8438 3.457 13.887 7.0352 27.797 10.715 41.73 3.7539 14.211 7.5195 28.086 11.289 41.68 2.0859 7.5234 4.4648 15.98 7.0938 25.238 2.8359 9.9844 5.2188 18.293 7.2188 25.188 1.7305 5.9688 3.9141 13.422 6.4844 22.164 1.668 5.668 3.8867 13.148 6.5703 22.156 3.8711 12.984 15.695 26.438 27.523 39.895 12.879 14.648 25.762 29.305 30.75 45.617 5.4609 17.855 2.2461 35.375-0.97266 52.914-2.8594 15.59-5.7227 31.195-1.4258 45.43 6.1172 20.27 12.441 41.477 19.137 64.398 4.8125 16.469 9.5273 32.875 14.109 49.184l54.406-683.66c0.34375-4.4023 4.1914-7.6875 8.5938-7.3438 4.0078 0.3125 7.0938 3.5352 7.3516 7.4297l54.352 682.96c4.5312-16.105 9.1875-32.305 13.938-48.566 6.6953-22.922 13.02-44.129 19.137-64.398 4.2969-14.234 1.4336-29.84-1.4258-45.43-3.2188-17.535-6.4297-35.059-0.97266-52.914 4.9883-16.312 17.871-30.969 30.75-45.617 11.828-13.457 23.656-26.91 27.523-39.895 2.6758-8.9844 4.9062-16.492 6.5703-22.156 2.5664-8.7227 4.7539-16.195 6.4844-22.164 2-6.8984 4.3828-15.215 7.2188-25.188 2.6289-9.2578 5.0078-17.707 7.0938-25.238 3.7695-13.594 7.5352-27.469 11.289-41.68 3.6836-13.934 7.2617-27.844 10.715-41.73 1.0508-4.2812 5.375-6.8945 9.6562-5.8438 4.0078 0.98438 6.5586 4.8398 6 8.8398l-18.68 186.03c-1.7266 17.211-11.703 32.719-21.68 48.227-8.9531 13.914-17.902 27.832-19.242 41.164-1.6445 16.387 4.2148 34.242 10.07 52.098 6.3711 19.418 12.742 38.836 10.758 58.598l-13.652 135.96c20.324-47.137 41.887-93.441 63.449-139.75 24.859-53.391 49.723-106.78 72.629-161.34 1.707-4.0742 6.3945-5.9883 10.469-4.2812 3.7695 1.582 5.6914 5.7109 4.6016 9.5469l-88.102 377.72 22.887-20.414c6.4688-5.7695 17.418-11.086 28.363-16.402 9.8984-4.8047 19.801-9.6133 24.676-13.965 3.7266-3.3242 6.1445-8.2188 8.9102-13.812 4.5195-9.1445 9.7969-19.824 22.559-31.207l77.461-69.098c3.2969-2.9336 8.3477-2.6406 11.281 0.65625 2.7109 3.0469 2.6641 7.5898 0.042969 10.578l-62.336 82.996c-11.594 15.438-15.234 29.184-18.062 39.879-2.1289 8.0391-3.8711 14.621-8.0625 20.203-5.0352 6.7031-14.48 12.512-23.922 18.32-8.2148 5.0508-16.426 10.105-19.547 14.258l-26.309 35.027 227 6.6484c4.4023 0.12109 7.8711 3.7852 7.75 8.1875-0.10156 3.7695-2.8086 6.8555-6.3438 7.5859v0.007812l-205.61 43.379h294.93c4.418 0 8 3.582 8 8 0 4.418-3.582 8-8 8h-1165.2zm1127.1-254.12-9.0781-13.176 13.176-9.0781 9.0781 13.176zm-209.66 144.48 12.043-8.2969-9.0781-13.176-12.043 8.2969zm51.566-35.535-9.0781-13.176 13.176-9.0781 9.0781 13.176zm52.699-36.316-9.0781-13.176 13.176-9.0781 9.0781 13.176zm52.699-36.316-9.0781-13.176 13.176-9.0781 9.0781 13.176zm70.191-311.51-11.973-10.613 10.613-11.973 11.973 10.613zm-254.68 287.39-11.973-10.613 10.613-11.973 11.973 10.613zm42.449-47.898-11.973-10.613 10.613-11.973 11.973 10.613zm42.449-47.898-11.973-10.613 10.613-11.973 11.973 10.613zm42.449-47.898-11.973-10.613 10.613-11.973 11.973 10.613zm42.449-47.898-11.973-10.613 10.613-11.973 11.973 10.613zm42.449-47.898-11.973-10.613 10.613-11.973 11.973 10.613zm-20.641-237.29-13.879-7.957 7.957-13.879 13.879 7.957zm-159.15 277.62-13.879-7.957 7.957-13.879 13.879 7.957zm31.832-55.523-13.879-7.957 7.957-13.879 13.879 7.957zm31.832-55.523-13.879-7.957 7.957-13.879 13.879 7.957zm31.832-55.523-13.879-7.957 7.957-13.879 13.879 7.957zm31.832-55.523-13.879-7.957 7.957-13.879 13.879 7.957zm-44.535-277.54-14.805-6.0703 6.0703-14.805 14.805 6.0703zm-194.25 473.72-14.805-6.0703 6.0703-14.805 14.805 6.0703zm24.281-59.215-14.805-6.0703 6.0703-14.805 14.805 6.0703zm24.281-59.215-14.805-6.0703 6.0703-14.805 14.805 6.0703zm24.281-59.215-14.805-6.0703 6.0703-14.805 14.805 6.0703zm24.281-59.215-14.805-6.0703 6.0703-14.805 14.805 6.0703zm24.281-59.215-14.805-6.0703 6.0703-14.805 14.805 6.0703zm24.281-59.215-14.805-6.0703 6.0703-14.805 14.805 6.0703zm24.281-59.215-14.805-6.0703 6.0703-14.805 14.805 6.0703zm-213.79-14.07-15.547-3.7852 3.7852-15.547 15.547 3.7852zm-60.559 248.73-15.547-3.7852 3.7852-15.547 15.547 3.7852zm15.141-62.184-15.547-3.7852 3.7852-15.547 15.547 3.7852zm15.141-62.184-15.547-3.7852 3.7852-15.547 15.547 3.7852zm15.141-62.184-15.547-3.7852 3.7852-15.547 15.547 3.7852zm-702.91 566.11-9.0781 13.176-13.176-9.0781 9.0781-13.176zm209.66 144.48-12.043-8.2969-9.0781 13.176 12.043 8.2969zm-51.566-35.535-9.0781 13.176-13.176-9.0781 9.0781-13.176zm-52.699-36.316-9.0781 13.176-13.176-9.0781 9.0781-13.176zm-52.699-36.316-9.0781 13.176-13.176-9.0781 9.0781-13.176zm-67.297-308.95-11.973 10.613-10.613-11.973 11.973-10.613zm254.68 287.39-11.973 10.613-10.613-11.973 11.973-10.613zm-42.449-47.898-11.973 10.613-10.613-11.973 11.973-10.613zm-42.449-47.898-11.973 10.613-10.613-11.973 11.973-10.613zm-42.449-47.898-11.973 10.613-10.613-11.973 11.973-10.613zm-42.449-47.898-11.973 10.613-10.613-11.973 11.973-10.613zm-42.449-47.898-11.973 10.613-10.613-11.973 11.973-10.613zm22.547-234.64-13.879 7.957-7.957-13.879 13.879-7.957zm159.15 277.62-13.879 7.957-7.957-13.879 13.879-7.957zm-31.832-55.523-13.879 7.957-7.957-13.879 13.879-7.957zm-31.832-55.523-13.879 7.957-7.957-13.879 13.879-7.957zm-31.832-55.523-13.879 7.957-7.957-13.879 13.879-7.957zm-31.832-55.523-13.879 7.957-7.957-13.879 13.879-7.957zm45.457-275.66-14.805 6.0703-6.0703-14.805 14.805-6.0703zm194.25 473.72-14.805 6.0703-6.0703-14.805 14.805-6.0703zm-24.281-59.215-14.805 6.0703-6.0703-14.805 14.805-6.0703zm-24.281-59.215-14.805 6.0703-6.0703-14.805 14.805-6.0703zm-24.281-59.215-14.805 6.0703-6.0703-14.805 14.805-6.0703zm-24.281-59.215-14.805 6.0703-6.0703-14.805 14.805-6.0703zm-24.281-59.215-14.805 6.0703-6.0703-14.805 14.805-6.0703zm-24.281-59.215-14.805 6.0703-6.0703-14.805 14.805-6.0703zm-24.281-59.215-14.805 6.0703-6.0703-14.805 14.805-6.0703zm214.53-11.785-15.547 3.7852-3.7852-15.547 15.547-3.7852zm60.559 248.73-15.547 3.7852-3.7852-15.547 15.547-3.7852zm-15.141-62.184-15.547 3.7852-3.7852-15.547 15.547-3.7852zm-15.141-62.184-15.547 3.7852-3.7852-15.547 15.547-3.7852zm-15.141-62.184-15.547 3.7852-3.7852-15.547 15.547-3.7852zm-103.16 811.8c0.94531-14.062 3.0234-27.812 6.1523-41.16-0.58594 0.15625-1.1953 0.24609-1.8281 0.26172l-174.02 5.0977 169.69 35.805zm9.6836-54.562c4.0508-13.836 9.2383-27.184 15.457-39.938l-30.742-27.426c-4.8789-4.3516-14.777-9.1562-24.676-13.965-10.949-5.3164-21.895-10.633-28.363-16.402-6.0117-5.3633-9.0859-11.578-12.598-18.688-3.8711-7.8359-8.3945-16.988-18.871-26.332l-17.586-15.688 14.508 19.316c13.496 17.969 17.578 33.383 20.75 45.379 1.6953 6.4102 3.0859 11.656 5.375 14.703 3.1211 4.1562 11.336 9.207 19.547 14.258 9.4414 5.8086 18.887 11.617 23.922 18.32l30.324 40.375c1.125 1.5 1.6406 3.2695 1.5898 5.0078 0.49219 0.30859 0.95313 0.66797 1.3672 1.0742zm32.219-69.23c9.4688-14.27 20.328-27.531 32.391-39.594 2.9883-2.9883 6.0508-5.9023 9.1836-8.7422-22.305-52.781-46.387-104.5-70.469-156.21-12.766-27.414-25.531-54.828-38.039-82.41zm65.488-67.531c22.18-15.723 46.977-27.996 73.605-36.047-5.8203-20.984-11.742-41.688-17.734-62.191-5.8594-20.062-12.336-41.738-19.137-64.273-5.3789-17.82-2.1641-35.352 1.0508-52.867 2.8672-15.641 5.7344-31.266 1.4102-45.414-3.9375-12.879-15.719-26.281-27.5-39.68-12.984-14.77-25.961-29.535-30.836-45.895-1.7227-5.7852-3.8867-13.094-6.5703-22.219-1.7812-6.0547-3.9258-13.395-6.4844-22.227-2.8789-9.9336-5.332-18.461-7.2812-25.312-1.1367-4-2.3281-8.2266-3.582-12.699l8.7578 87.203c1.3398 13.332 10.289 27.25 19.242 41.164 9.9766 15.508 19.953 31.016 21.68 48.227 1.9844 19.762-4.3867 39.18-10.758 58.598-5.8594 17.855-11.719 35.707-10.07 52.098l14.211 141.54zm394.2 135.69c-0.050782-1.7383 0.46484-3.5078 1.5898-5.0078l30.324-40.375c5.0352-6.7031 14.48-12.512 23.922-18.32 8.2148-5.0508 16.426-10.105 19.547-14.258 2.2891-3.0469 3.6758-8.293 5.375-14.703 3.1758-11.996 7.2578-27.41 20.75-45.379l14.508-19.316-17.586 15.688c-10.477 9.3438-15 18.496-18.871 26.332-3.5156 7.1094-6.5859 13.324-12.598 18.688-6.4688 5.7695-17.418 11.086-28.363 16.402-9.8984 4.8047-19.801 9.6133-24.676 13.965l-30.59 27.285c6.2227 12.746 11.418 26.086 15.477 39.91 0.36719-0.33984 0.76562-0.64453 1.1914-0.90625zm2.3984 14.535c3.1172 13.316 5.1914 27.031 6.1367 41.055l169.47-35.758-174.02-5.0977c-0.54688-0.015625-1.0781-0.085938-1.5898-0.20312zm-77.496-131.18c3.1875 2.8828 6.3047 5.8477 9.3438 8.8867 11.992 11.992 22.797 25.172 32.223 39.344l66.875-286.71c-12.508 27.586-25.273 55-38.039 82.41-24.059 51.668-48.117 103.33-70.406 156.06zm-97.566-55.156c26.625 8.0234 51.418 20.27 73.602 35.961l14.199-141.39c1.6445-16.387-4.2148-34.242-10.07-52.098-6.3711-19.418-12.742-38.836-10.758-58.598 1.7266-17.211 11.703-32.719 21.68-48.227 8.9531-13.914 17.902-27.832 19.242-41.164l8.7578-87.203c-1.2539 4.4688-2.4453 8.6992-3.582 12.699-1.9492 6.8672-4.4023 15.383-7.2812 25.312-2.5586 8.8281-4.6992 16.156-6.4844 22.227-2.6836 9.125-4.8438 16.414-6.5703 22.219-4.875 16.363-17.855 31.125-30.836 45.895-11.777 13.398-23.562 26.805-27.5 39.68-4.3281 14.148-1.4609 29.773 1.4102 45.414 3.2148 17.516 6.4297 35.047 1.0508 52.867-6.8047 22.539-13.277 44.211-19.137 64.273-5.9844 20.48-11.898 41.164-17.715 62.129zm-121.07-6.4805c15.301-2.8555 31.078-4.3555 47.207-4.3555s31.906 1.4961 47.207 4.3555l-47.207-593.18zm-192.31 243.3h479.03c-2.0664-62.996-28.441-119.85-70.055-161.46-43.367-43.367-103.28-70.191-169.46-70.191-66.18 0-126.09 26.824-169.46 70.191-41.613 41.613-67.988 98.461-70.055 161.46zm-242.03 88.496c-4.418 0-8-3.582-8-8s3.582-8 8-8h963.09c4.418 0 8 3.582 8 8s-3.582 8-8 8z"/>
</svg>
