<?xml version="1.0" encoding="UTF-8"?>
<svg width="1200pt" height="1200pt" version="1.1" viewBox="0 0 1200 1200" xmlns="http://www.w3.org/2000/svg">
 <path d="m33.312 1183.7c-0.097656 2.75-2.4062 4.9023-5.1562 4.8047s-4.9023-2.4062-4.8047-5.1562c0.63281-17.672 0.99219-35.328 1.3516-53.074 2.4375-119.82 4.9727-243.56 88.77-343.93-19.098-5.4219-39.156-8.9414-59.977-10.32-2.1523-0.14062-3.6602-0.23438-5.0742-0.32031-29.375-1.7852-31.609-1.9219-31.617-36.992l-0.023438-78.402c-0.019531-5.3906 0.21875-11.355 0.70703-17.461 0.48438-6.0625 1.207-12.465 2.1562-18.812 10.227-68.301 46.582-128.63 99.203-171.68 50.816-41.574 116.81-67.051 189.06-68.027l0.011719-41.219c-41.129 0.64844-80.113 9.5703-115.16 25.078-37.82 16.738-71.051 41.129-97.441 71.051-1.8242 2.0586-4.9727 2.2539-7.0312 0.42969-2.0586-1.8242-2.2539-4.9727-0.42969-7.0312 27.352-31.016 61.758-56.277 100.88-73.59 36.285-16.059 76.637-25.289 119.18-25.938l0.011719-47.223c0.015625-4.6094-0.22266-10.145-0.70703-16.211-0.45703-5.75-1.1406-11.793-2.0312-17.75-0.19531-1.293-0.40234-2.582-0.61328-3.8711-44.965 10.25-86.77 33.727-122.8 63.84-43.355 36.23-78.285 81.984-100.32 125.89-1.2305 2.4609-4.2188 3.457-6.6797 2.2266-2.4609-1.2305-3.457-4.2188-2.2266-6.6797 22.621-45.066 58.426-91.988 102.82-129.09 37.246-31.129 80.598-55.402 127.38-65.988-5.4609-26.305-15.086-51.211-28.207-74.082-12.414 4.6953-24.703 10.336-36.57 16.691-14.637 7.8398-28.602 16.77-41.34 26.359-37.551 28.266-63.879 63.297-83.797 102.28-20.012 39.168-33.609 82.477-45.602 126.97-0.71094 2.6641-3.4492 4.2461-6.1133 3.5352-2.6641-0.71094-4.2461-3.4492-3.5352-6.1133 12.125-44.992 25.922-88.879 46.383-128.92 20.559-40.234 47.789-76.43 86.688-105.71 13.133-9.8867 27.535-19.09 42.629-27.18 11.68-6.2578 23.789-11.852 36.055-16.574-15.398-24.566-34.914-46.578-57.66-65.184-2.1797-1.7852-4.3945-3.5391-6.6328-5.2578-16.113 14.484-33.07 29.773-47.715 44.781-79.371 81.332-91.621 190.41-103.69 297.88l-0.85547 7.6172c-0.30078 2.7383-2.7695 4.7148-5.5078 4.4141-2.7383-0.30078-4.7148-2.7695-4.4141-5.5078l0.85547-7.6172c12.262-109.17 24.703-219.96 106.46-303.74 14.543-14.902 30.965-29.77 46.672-43.891-22.246-15.836-47.086-28.613-73.816-37.664-83.449 98.082-85.953 221.01-88.375 340.02-0.36328 17.926-0.72656 35.766-1.3516 53.23-0.097656 2.75-2.4062 4.9023-5.1562 4.8047s-4.9023-2.4062-4.8047-5.1562c0.63281-17.672 0.99219-35.328 1.3516-53.074 2.4297-119.49 4.9531-242.87 88.062-343.09-26.609-7.918-54.941-12.188-84.336-12.188v-16c73.938 0 141.55 25.66 193.38 68.062 45.977 37.617 79.539 88.422 94.102 146.21 14.562-57.789 48.121-108.59 94.098-146.21 51.828-42.398 119.44-68.062 193.38-68.062s141.55 25.66 193.38 68.062c45.977 37.617 79.539 88.422 94.102 146.21 14.562-57.789 48.121-108.59 94.098-146.21 51.828-42.398 119.44-68.062 193.38-68.062v16c-29.457 0-57.844 4.2891-84.5 12.238 83.07 100.21 85.594 223.57 88.023 343.04 0.35938 17.746 0.71875 35.406 1.3516 53.074 0.097656 2.75-2.0547 5.0586-4.8047 5.1562-2.75 0.097657-5.0586-2.0547-5.1562-4.8047-0.625-17.465-0.98828-35.305-1.3516-53.23-2.4219-118.98-4.9258-241.89-88.328-339.96-26.715 9.0625-51.539 21.848-73.773 37.688 15.676 14.098 32.062 28.934 46.578 43.809 81.762 83.781 94.203 194.57 106.46 303.74l0.85547 7.6172c0.30078 2.7383-1.6758 5.207-4.4141 5.5078-2.7383 0.30078-5.207-1.6758-5.5078-4.4141l-0.85547-7.6172c-12.07-107.48-24.32-216.55-103.69-297.88-14.617-14.977-31.535-30.238-47.621-44.695-2.2031 1.6953-4.3789 3.418-6.5234 5.1719-22.766 18.625-42.297 40.656-57.699 65.25 12.207 4.7109 24.258 10.277 35.887 16.508 15.094 8.0898 29.5 17.293 42.629 27.18 38.898 29.281 66.129 65.48 86.688 105.71 20.461 40.043 34.258 83.93 46.383 128.92 0.71094 2.6641-0.87109 5.4023-3.5352 6.1133-2.6641 0.71094-5.4023-0.87109-6.1133-3.5352-11.992-44.492-25.59-87.801-45.602-126.97-19.918-38.977-46.246-74.008-83.797-102.28-12.738-9.5898-26.707-18.52-41.34-26.359-11.809-6.3281-24.043-11.945-36.398-16.629-13.109 22.867-22.727 47.77-28.18 74.066 46.707 10.613 89.988 34.863 127.18 65.945 44.398 37.102 80.203 84.023 102.82 129.09 1.2305 2.4609 0.23438 5.4492-2.2266 6.6797-2.4609 1.2305-5.4492 0.23437-6.6797-2.2266-22.035-43.902-56.965-89.656-100.32-125.89-35.98-30.07-77.719-53.52-122.61-63.797-0.21094 1.2734-0.41406 2.5469-0.60547 3.8242-0.89062 5.957-1.5742 12-2.0312 17.75-0.48438 6.0664-0.72266 11.605-0.70703 16.211l0.011719 47.227c42.469 0.67578 82.746 9.9023 118.97 25.934 39.121 17.312 73.527 42.578 100.88 73.59 1.8242 2.0586 1.6289 5.207-0.42969 7.0312-2.0586 1.8242-5.207 1.6289-7.0312-0.42969-26.391-29.922-59.621-54.316-97.441-71.051-34.984-15.48-73.895-24.398-114.95-25.074l0.011718 41.402c69.363 2.5469 132.61 27.688 181.7 67.844 52.621 43.051 88.98 103.38 99.203 171.68 0.94922 6.3516 1.6719 12.754 2.1562 18.812 0.48828 6.1055 0.72656 12.07 0.70703 17.461l-0.027344 92.559h0.03125v0.32031h-0.03125c0 9.5312 0.003907 21.359-16.641 22.039-25.039 1.0273-49.223 5.1562-72.133 11.992 83.086 100.21 85.609 223.58 88.039 343.06 0.35938 17.746 0.71875 35.406 1.3516 53.074 0.097656 2.75-2.0547 5.0586-4.8047 5.1562-2.75 0.097656-5.0586-2.0547-5.1562-4.8047-0.625-17.465-0.98828-35.305-1.3516-53.23-2.4219-118.99-4.9258-241.91-88.344-339.98-26.711 9.0625-51.535 21.852-73.77 37.699 15.68 14.098 32.07 28.941 46.59 43.82 81.762 83.781 94.203 194.57 106.46 303.74l0.85547 7.6172c0.30078 2.7383-1.6758 5.207-4.4141 5.5078s-5.207-1.6758-5.5078-4.4141l-0.85547-7.6172c-12.07-107.48-24.32-216.55-103.69-297.88-14.621-14.98-31.543-30.246-47.637-44.711-3.8047 2.9297-7.5273 5.9492-11.164 9.0586-20.781 17.777-38.707 38.465-53.055 61.371 12.211 4.7109 24.266 10.281 35.895 16.512 15.094 8.0898 29.5 17.293 42.629 27.18 38.898 29.281 66.129 65.48 86.688 105.71 20.461 40.043 34.258 83.93 46.383 128.92 0.71094 2.6641-0.87109 5.4023-3.5352 6.1133-2.6641 0.71094-5.4023-0.87109-6.1133-3.5352-11.992-44.492-25.59-87.801-45.602-126.97-19.918-38.977-46.246-74.008-83.797-102.28-12.738-9.5898-26.707-18.52-41.34-26.359-11.812-6.3281-24.047-11.949-36.406-16.629-13.105 22.867-22.723 47.77-28.176 74.066 46.711 10.613 89.988 34.863 127.18 65.945 44.398 37.102 80.203 84.023 102.82 129.09 1.2305 2.4609 0.23438 5.4492-2.2266 6.6797-2.4609 1.2305-5.4492 0.23438-6.6797-2.2266-22.035-43.902-56.965-89.656-100.32-125.89-35.98-30.07-77.719-53.52-122.61-63.797-0.21094 1.2734-0.41406 2.5469-0.60547 3.8242-0.89062 5.957-1.5742 12-2.0312 17.75-0.48438 6.0664-0.72266 11.602-0.70703 16.211l0.011719 47.227c42.469 0.67578 82.746 9.9023 118.97 25.934 39.121 17.312 73.527 42.578 100.88 73.59 1.8242 2.0586 1.6289 5.207-0.42969 7.0312-2.0586 1.8242-5.207 1.6289-7.0312-0.42969-26.391-29.922-59.621-54.316-97.441-71.051-34.984-15.48-73.895-24.398-114.95-25.074l0.011719 47.578h-16l0.011718-47.578c-41.055 0.67578-79.965 9.5938-114.95 25.074-37.82 16.738-71.051 41.129-97.441 71.051-1.8242 2.0586-4.9727 2.2539-7.0312 0.42969-2.0586-1.8242-2.2539-4.9727-0.42969-7.0312 27.352-31.016 61.758-56.277 100.88-73.59 36.227-16.031 76.504-25.258 118.97-25.934l0.011719-47.227c0.015625-4.6094-0.22266-10.145-0.70703-16.211-0.45703-5.75-1.1406-11.793-2.0312-17.75-0.19141-1.2773-0.39453-2.5547-0.60547-3.8242-44.887 10.273-86.625 33.727-122.61 63.797-43.355 36.23-78.285 81.984-100.32 125.89-1.2305 2.4609-4.2188 3.457-6.6797 2.2266-2.4609-1.2305-3.457-4.2188-2.2266-6.6797 22.621-45.066 58.426-91.988 102.82-129.09 37.195-31.082 80.477-55.332 127.18-65.945-5.4531-26.297-15.07-51.195-28.18-74.066-12.355 4.6836-24.59 10.297-36.398 16.629-14.637 7.8398-28.605 16.77-41.34 26.359-37.547 28.266-63.879 63.297-83.797 102.28-20.012 39.168-33.609 82.477-45.602 126.97-0.71094 2.6641-3.4492 4.2461-6.1133 3.5352-2.6641-0.71094-4.2461-3.4492-3.5352-6.1133 12.125-44.992 25.922-88.879 46.383-128.92 20.559-40.234 47.789-76.43 86.688-105.71 13.133-9.8867 27.535-19.094 42.629-27.18 11.629-6.2305 23.68-11.801 35.887-16.508-15.406-24.59-34.934-46.625-57.699-65.25-2.1445-1.7539-4.3203-3.4805-6.5234-5.1719-16.086 14.457-33.004 29.719-47.621 44.695-79.371 81.332-91.621 190.41-103.69 297.88l-0.85547 7.6172c-0.30078 2.7383-2.7695 4.7148-5.5078 4.4141-2.7383-0.30078-4.7148-2.7695-4.4141-5.5078l0.85547-7.6172c12.262-109.17 24.703-219.96 106.46-303.74 14.516-14.875 30.902-29.711 46.578-43.809-22.23-15.844-47.059-28.629-73.773-37.688-83.402 98.07-85.906 220.98-88.328 339.96-0.36328 17.926-0.72656 35.766-1.3516 53.23-0.097656 2.75-2.4062 4.9023-5.1562 4.8047-2.6328-0.09375-4.7148-2.2109-4.8047-4.8047-0.625-17.465-0.98828-35.305-1.3516-53.23-2.4219-119.01-4.9258-241.93-88.375-340.02-26.73 9.0508-51.57 21.824-73.816 37.664 15.703 14.121 32.125 28.984 46.672 43.891 81.762 83.781 94.203 194.57 106.46 303.74l0.85547 7.6172c0.30078 2.7383-1.6758 5.207-4.4141 5.5078s-5.207-1.6758-5.5078-4.4141l-0.85547-7.6172c-12.07-107.48-24.32-216.55-103.69-297.88-14.645-15.008-31.602-30.297-47.715-44.781-2.2383 1.7227-4.4531 3.4727-6.6328 5.2578-22.746 18.609-42.262 40.617-57.66 65.184 12.266 4.7227 24.371 10.316 36.051 16.574 15.094 8.0898 29.5 17.293 42.629 27.18 38.898 29.281 66.129 65.48 86.688 105.71 20.461 40.043 34.258 83.93 46.383 128.92 0.71094 2.6641-0.87109 5.4023-3.5352 6.1133-2.6641 0.71094-5.4023-0.87109-6.1133-3.5352-11.992-44.492-25.59-87.801-45.602-126.97-19.918-38.977-46.246-74.008-83.797-102.28-12.738-9.5898-26.707-18.52-41.34-26.359-11.863-6.3555-24.152-11.996-36.566-16.691-13.121 22.871-22.75 47.777-28.207 74.082 46.785 10.59 90.133 34.863 127.38 65.988 44.398 37.102 80.203 84.023 102.82 129.09 1.2305 2.4609 0.23437 5.4492-2.2266 6.6797-2.4609 1.2305-5.4492 0.23438-6.6797-2.2266-22.035-43.902-56.965-89.656-100.32-125.89-36.035-30.113-77.84-53.59-122.8-63.84-0.21484 1.2891-0.42188 2.5781-0.61328 3.8711-0.89062 5.957-1.5742 12-2.0312 17.75-0.46094 5.7812-0.69922 11.082-0.70703 15.559v0.65625l0.011719 47.223c42.547 0.64844 82.895 9.8789 119.18 25.938 39.121 17.312 73.527 42.578 100.88 73.59 1.8242 2.0586 1.6289 5.207-0.42969 7.0312-2.0586 1.8242-5.207 1.6289-7.0312-0.42969-26.391-29.922-59.621-54.316-97.441-71.051-35.043-15.508-74.023-24.43-115.15-25.078l0.011719 45.801h-16l0.011719-45.801c-41.129 0.64844-80.113 9.5703-115.16 25.078-37.82 16.738-71.051 41.129-97.441 71.051-1.8242 2.0586-4.9727 2.2539-7.0312 0.42969-2.0586-1.8242-2.2539-4.9727-0.42969-7.0312 27.352-31.016 61.758-56.277 100.88-73.59 36.285-16.059 76.637-25.289 119.18-25.938l0.011718-47.223v-0.65234c-0.007812-4.4766-0.24609-9.7773-0.70703-15.559-0.45703-5.75-1.1406-11.789-2.0312-17.75-0.19531-1.293-0.40234-2.582-0.61328-3.8711-44.965 10.25-86.77 33.727-122.81 63.84-43.355 36.23-78.285 81.984-100.32 125.89-1.2305 2.4609-4.2188 3.457-6.6797 2.2266s-3.457-4.2188-2.2266-6.6797c22.621-45.066 58.426-91.988 102.82-129.09 37.254-31.133 80.609-55.41 127.4-65.996-5.4023-26.426-14.773-51.414-27.543-74.336-12.648 4.7461-25.172 10.477-37.254 16.949-14.637 7.8398-28.605 16.77-41.34 26.359-37.551 28.266-63.879 63.297-83.797 102.28-20.012 39.168-33.609 82.477-45.602 126.97-0.71094 2.6641-3.4492 4.2461-6.1133 3.5352-2.6641-0.71094-4.2461-3.4492-3.5352-6.1133 12.125-44.992 25.922-88.879 46.383-128.92 20.559-40.234 47.789-76.43 86.688-105.71 13.133-9.8867 27.535-19.094 42.629-27.18 11.938-6.3945 24.316-12.094 36.855-16.883-13.391-21.98-29.984-41.891-49.242-59.125-4.707-4.2109-9.5742-8.2617-14.594-12.145-16.488 14.82-33.953 30.52-48.98 45.918-79.371 81.332-91.621 190.41-103.69 297.88l-0.85547 7.6172c-0.30078 2.7383-2.7695 4.7148-5.5078 4.4141-2.7383-0.30078-4.7148-2.7695-4.4141-5.5078l0.85547-7.6172c12.262-109.17 24.703-219.96 106.46-303.74 14.941-15.312 31.863-30.582 47.957-45.043-22.277-15.93-47.281-28.656-74.383-37.484-0.15234 0.26172-0.32812 0.51562-0.53516 0.75391-83.633 98.117-86.137 221.14-88.559 340.24-0.36328 17.926-0.72656 35.766-1.3516 53.23zm664.84-1142.3c-83.402 98.074-85.906 220.98-88.328 339.96-0.36328 17.926-0.72656 35.766-1.3516 53.23-0.097656 2.75-2.4062 4.9023-5.1562 4.8047-2.6328-0.09375-4.7148-2.2109-4.8047-4.8047-0.625-17.465-0.98828-35.305-1.3516-53.23-2.4219-119-4.9258-241.93-88.375-340.02-26.73 9.0508-51.57 21.824-73.816 37.664 15.703 14.121 32.125 28.984 46.672 43.891 81.762 83.781 94.203 194.57 106.46 303.74l0.85547 7.6172c0.30078 2.7383-1.6758 5.207-4.4141 5.5078s-5.207-1.6758-5.5078-4.4141l-0.85547-7.6172c-12.07-107.48-24.32-216.55-103.69-297.88-14.645-15.008-31.602-30.297-47.715-44.781-2.2383 1.7227-4.4531 3.4727-6.6328 5.2578-22.746 18.609-42.262 40.617-57.66 65.184 12.266 4.7227 24.371 10.316 36.051 16.574 15.094 8.0898 29.5 17.293 42.629 27.18 38.898 29.281 66.129 65.48 86.688 105.71 20.461 40.043 34.258 83.93 46.383 128.92 0.71094 2.6641-0.87109 5.4023-3.5352 6.1133-2.6641 0.71094-5.4023-0.87109-6.1133-3.5352-11.992-44.492-25.59-87.801-45.602-126.97-19.918-38.977-46.246-74.008-83.797-102.28-12.738-9.5898-26.707-18.52-41.34-26.359-11.863-6.3555-24.156-11.996-36.57-16.691-13.121 22.871-22.75 47.777-28.207 74.082 46.785 10.59 90.133 34.863 127.38 65.988 44.398 37.102 80.203 84.023 102.82 129.09 1.2305 2.4609 0.23438 5.4492-2.2266 6.6797-2.4609 1.2305-5.4492 0.23438-6.6797-2.2266-22.035-43.902-56.965-89.656-100.32-125.89-36.035-30.113-77.84-53.59-122.8-63.84-0.21484 1.2891-0.42188 2.5781-0.61328 3.8711-0.89062 5.957-1.5742 12-2.0312 17.75-0.48438 6.0664-0.72266 11.605-0.70703 16.211l0.011719 47.223c42.547 0.64844 82.895 9.8789 119.18 25.938 39.121 17.312 73.527 42.578 100.88 73.59 1.8242 2.0586 1.6289 5.207-0.42969 7.0312-2.0586 1.8242-5.207 1.6289-7.0312-0.42969-26.391-29.922-59.621-54.316-97.441-71.051-35.043-15.508-74.023-24.43-115.15-25.078l0.011718 41.406c69.363 2.5469 132.61 27.688 181.69 67.844 45.977 37.617 79.539 88.422 94.102 146.21 14.562-57.789 48.121-108.59 94.098-146.21 50.816-41.574 116.81-67.051 189.06-68.027l0.011719-41.215c-41.055 0.67578-79.965 9.5938-114.95 25.074-37.82 16.738-71.051 41.129-97.441 71.051-1.8242 2.0586-4.9727 2.2539-7.0312 0.42969s-2.2539-4.9727-0.42969-7.0312c27.352-31.016 61.758-56.277 100.88-73.59 36.227-16.031 76.504-25.258 118.97-25.934l0.011719-47.227c0.015625-4.6094-0.22266-10.145-0.70703-16.211-0.45703-5.75-1.1406-11.793-2.0312-17.75-0.19141-1.2773-0.39453-2.5547-0.60547-3.8242-44.887 10.273-86.625 33.727-122.61 63.797-43.355 36.23-78.285 81.984-100.32 125.89-1.2305 2.4609-4.2188 3.457-6.6797 2.2266s-3.457-4.2188-2.2266-6.6797c22.621-45.066 58.426-91.988 102.82-129.09 37.195-31.082 80.477-55.332 127.18-65.945-5.4531-26.297-15.07-51.195-28.18-74.066-12.355 4.6836-24.59 10.301-36.398 16.629-14.637 7.8398-28.602 16.77-41.34 26.359-37.551 28.266-63.879 63.297-83.797 102.28-20.016 39.168-33.609 82.477-45.602 126.97-0.71094 2.6641-3.4492 4.2461-6.1133 3.5352-2.6641-0.71094-4.2461-3.4492-3.5352-6.1133 12.125-44.992 25.922-88.879 46.383-128.92 20.559-40.234 47.789-76.43 86.688-105.71 13.133-9.8867 27.535-19.09 42.629-27.18 11.629-6.2305 23.68-11.801 35.887-16.508-15.406-24.59-34.934-46.625-57.699-65.25-2.1445-1.7539-4.3203-3.4805-6.5234-5.1719-16.086 14.457-33.004 29.719-47.621 44.695-79.371 81.332-91.621 190.41-103.69 297.88l-0.85547 7.6172c-0.30078 2.7383-2.7695 4.7148-5.5078 4.4141-2.7383-0.30078-4.7148-2.7695-4.4141-5.5078l0.85547-7.6172c12.262-109.17 24.703-219.96 106.46-303.74 14.516-14.875 30.902-29.711 46.578-43.809-22.23-15.844-47.059-28.629-73.773-37.688zm-179.09-3.3242c60.496 72.949 78.285 158.18 84.426 245.23 6.1406-87.039 23.922-172.25 84.387-245.19-26.652-7.9453-55.035-12.234-84.488-12.234-29.391 0-57.719 4.2695-84.32 12.188zm-112.07 377.75c-83.402 98.07-85.906 220.98-88.328 339.96-0.36328 17.926-0.72656 35.766-1.3516 53.23-0.097656 2.75-2.4062 4.9023-5.1562 4.8047-2.6328-0.09375-4.7148-2.2109-4.8047-4.8047-0.625-17.465-0.98828-35.305-1.3516-53.23-2.4219-119-4.9258-241.93-88.375-340.02-26.73 9.0508-51.57 21.824-73.816 37.664 15.703 14.121 32.125 28.984 46.672 43.891 81.762 83.781 94.203 194.57 106.46 303.74l0.85547 7.6172c0.30078 2.7383-1.6758 5.207-4.4141 5.5078s-5.207-1.6758-5.5078-4.4141l-0.85547-7.6172c-12.07-107.48-24.32-216.55-103.69-297.88-14.645-15.008-31.602-30.297-47.715-44.781-2.2383 1.7227-4.4531 3.4727-6.6328 5.2578-22.746 18.609-42.262 40.617-57.66 65.184 12.266 4.7227 24.371 10.316 36.051 16.574 15.094 8.0898 29.5 17.293 42.629 27.18 38.898 29.285 66.129 65.48 86.688 105.71 20.461 40.043 34.258 83.93 46.383 128.92 0.71094 2.6641-0.87109 5.4023-3.5352 6.1133-2.6641 0.71094-5.4023-0.87109-6.1133-3.5352-11.992-44.492-25.59-87.801-45.602-126.97-19.918-38.977-46.246-74.008-83.797-102.28-12.738-9.5898-26.707-18.52-41.34-26.359-11.863-6.3555-24.156-11.996-36.566-16.691-13.121 22.871-22.75 47.777-28.207 74.082 46.785 10.59 90.133 34.863 127.38 65.988 44.398 37.102 80.203 84.023 102.82 129.09 1.2305 2.4609 0.23438 5.4492-2.2266 6.6797-2.4609 1.2305-5.4492 0.23438-6.6797-2.2266-22.035-43.902-56.965-89.656-100.32-125.89-36.035-30.113-77.84-53.59-122.8-63.84-0.21484 1.2891-0.42188 2.5781-0.61328 3.8711-0.89062 5.957-1.5742 12-2.0312 17.75-0.48438 6.0664-0.72266 11.602-0.70703 16.211l0.011719 47.223c42.547 0.64844 82.895 9.8789 119.18 25.938 39.121 17.312 73.527 42.578 100.88 73.59 1.8242 2.0586 1.6289 5.207-0.42969 7.0312-2.0586 1.8242-5.207 1.6289-7.0312-0.42969-26.391-29.922-59.621-54.316-97.441-71.051-35.043-15.508-74.023-24.43-115.15-25.078l0.007812 21.18c0.003906 20.043 1.1797 20.117 16.617 21.055 1.7773 0.10937 3.668 0.22266 5.1367 0.32031 69.117 4.5781 130.41 31.512 177.03 73.223 41.176 36.844 70.883 85.195 84.41 139.84 14.578-57.742 48.121-108.51 94.066-146.1 49.082-40.156 112.33-65.293 181.69-67.844l0.011719-41.68c-41.055 0.67578-79.965 9.5938-114.95 25.074-37.82 16.738-71.051 41.129-97.441 71.051-1.8242 2.0586-4.9727 2.2539-7.0312 0.42969s-2.2539-4.9727-0.42969-7.0312c27.352-31.016 61.758-56.277 100.88-73.59 36.227-16.031 76.504-25.258 118.97-25.934l0.011719-47.227c0.015625-4.6094-0.22266-10.145-0.70703-16.211-0.45703-5.75-1.1406-11.793-2.0312-17.75-0.19141-1.2773-0.39453-2.5547-0.60547-3.8242-44.887 10.273-86.625 33.727-122.61 63.797-43.355 36.23-78.285 81.984-100.32 125.89-1.2305 2.4609-4.2188 3.457-6.6797 2.2266s-3.457-4.2188-2.2266-6.6797c22.621-45.066 58.426-91.988 102.82-129.09 37.195-31.082 80.477-55.332 127.18-65.945-5.4531-26.297-15.07-51.195-28.18-74.066-12.355 4.6836-24.59 10.297-36.398 16.629-14.637 7.8398-28.605 16.77-41.34 26.359-37.547 28.266-63.879 63.297-83.797 102.28-20.012 39.168-33.609 82.477-45.602 126.97-0.71094 2.6641-3.4492 4.2461-6.1133 3.5352-2.6641-0.71094-4.2461-3.4492-3.5352-6.1133 12.125-44.992 25.922-88.879 46.383-128.92 20.559-40.234 47.789-76.43 86.688-105.71 13.133-9.8867 27.535-19.094 42.629-27.18 11.629-6.2305 23.68-11.801 35.887-16.508-15.406-24.59-34.934-46.625-57.699-65.25-2.1445-1.7539-4.3203-3.4805-6.5234-5.1719-16.086 14.457-33.004 29.719-47.621 44.695-79.371 81.332-91.621 190.41-103.69 297.88l-0.85547 7.6172c-0.30078 2.7383-2.7695 4.7148-5.5078 4.4141s-4.7148-2.7695-4.4141-5.5078l0.85547-7.6172c12.262-109.17 24.703-219.96 106.46-303.74 14.516-14.875 30.902-29.711 46.578-43.809-22.23-15.844-47.059-28.629-73.773-37.688zm-179.09-3.3242c60.496 72.949 78.285 158.18 84.426 245.23 6.1406-87.043 23.922-172.25 84.387-245.19-26.652-7.9492-55.035-12.234-84.488-12.234-29.391 0-57.719 4.2695-84.32 12.188zm574.79 0.046875c60.465 72.941 78.246 158.14 84.387 245.19 6.1406-87.062 23.93-172.29 84.426-245.23-26.605-7.9141-54.934-12.188-84.32-12.188-29.449 0-57.836 4.2891-84.488 12.234zm179.09 3.2227c-83.449 98.082-85.953 221.01-88.371 340.02-0.36328 17.926-0.72656 35.766-1.3516 53.23-0.089844 2.5938-2.1719 4.7109-4.8047 4.8047-2.75 0.097656-5.0586-2.0547-5.1562-4.8047-0.625-17.465-0.98828-35.305-1.3516-53.23-2.4219-118.98-4.9258-241.89-88.328-339.96-26.715 9.0625-51.539 21.844-73.773 37.688 15.676 14.098 32.062 28.934 46.578 43.809 81.762 83.781 94.203 194.57 106.46 303.74l0.85547 7.6172c0.30078 2.7383-1.6758 5.207-4.4141 5.5078-2.7383 0.30078-5.207-1.6758-5.5078-4.4141l-0.85547-7.6172c-12.07-107.48-24.32-216.55-103.69-297.88-14.617-14.977-31.535-30.238-47.621-44.695-2.2031 1.6953-4.3789 3.418-6.5234 5.1719-22.766 18.625-42.297 40.656-57.699 65.25 12.207 4.707 24.258 10.277 35.887 16.508 15.094 8.0898 29.5 17.293 42.629 27.18 38.898 29.281 66.129 65.48 86.688 105.71 20.461 40.043 34.258 83.93 46.383 128.92 0.71094 2.6641-0.87109 5.4023-3.5352 6.1133-2.6641 0.71094-5.4023-0.87109-6.1133-3.5352-11.992-44.492-25.59-87.801-45.602-126.97-19.918-38.977-46.246-74.008-83.797-102.28-12.738-9.5898-26.707-18.52-41.34-26.359-11.812-6.3281-24.043-11.945-36.398-16.629-13.109 22.867-22.727 47.77-28.18 74.066 46.707 10.613 89.988 34.863 127.18 65.945 44.398 37.102 80.203 84.023 102.82 129.09 1.2305 2.4609 0.23438 5.4492-2.2266 6.6797-2.4609 1.2305-5.4492 0.23438-6.6797-2.2266-22.035-43.902-56.965-89.656-100.32-125.89-35.98-30.07-77.719-53.52-122.61-63.797-0.21094 1.2734-0.41406 2.5469-0.60547 3.8242-0.89062 5.957-1.5742 12-2.0312 17.75-0.48438 6.0664-0.72266 11.605-0.70703 16.215l0.011718 47.227c42.469 0.67578 82.746 9.9023 118.97 25.934 39.121 17.312 73.527 42.578 100.88 73.59 1.8242 2.0586 1.6289 5.207-0.42969 7.0312-2.0586 1.8242-5.207 1.6289-7.0312-0.42969-26.391-29.922-59.621-54.316-97.441-71.051-34.984-15.48-73.895-24.398-114.95-25.074l0.011719 41.492c72.25 0.97656 138.25 26.453 189.06 68.027 45.98 37.617 79.539 88.43 94.102 146.22 14.035-55.703 45.73-104.92 89.195-142.1 49.422-42.273 114.08-68.977 185.27-71.895 1.3281-0.054688 1.3281-3.4023 1.3281-6.1016h-0.03125v-0.32031h0.03125l0.011719-35.332c-41.129 0.64844-80.113 9.5703-115.15 25.078-37.82 16.738-71.051 41.129-97.441 71.051-1.8242 2.0586-4.9727 2.2539-7.0312 0.42969-2.0586-1.8242-2.2539-4.9727-0.42969-7.0312 27.352-31.016 61.758-56.277 100.88-73.59 36.285-16.059 76.637-25.289 119.18-25.938l0.011718-47.223c0.015625-4.6094-0.22266-10.145-0.70703-16.211-0.45703-5.75-1.1406-11.793-2.0312-17.75-0.19531-1.293-0.40234-2.582-0.61328-3.8711-44.965 10.25-86.77 33.727-122.8 63.84-43.355 36.23-78.285 81.984-100.32 125.89-1.2305 2.4609-4.2188 3.457-6.6797 2.2266-2.4609-1.2305-3.457-4.2188-2.2266-6.6797 22.621-45.066 58.426-91.988 102.82-129.09 37.246-31.129 80.598-55.402 127.38-65.988-5.4609-26.305-15.086-51.211-28.207-74.082-12.414 4.6953-24.703 10.336-36.57 16.691-14.637 7.8398-28.605 16.77-41.34 26.359-37.547 28.266-63.879 63.297-83.797 102.28-20.012 39.168-33.609 82.477-45.602 126.97-0.71094 2.6641-3.4492 4.2461-6.1133 3.5352-2.6641-0.71094-4.2461-3.4492-3.5352-6.1133 12.125-44.992 25.922-88.879 46.383-128.92 20.559-40.234 47.789-76.43 86.688-105.71 13.133-9.8867 27.535-19.094 42.629-27.18 11.68-6.2578 23.789-11.852 36.051-16.574-15.398-24.566-34.914-46.578-57.66-65.184-2.1797-1.7852-4.3945-3.5352-6.6328-5.2578-16.113 14.484-33.07 29.773-47.715 44.781-79.371 81.332-91.621 190.41-103.69 297.88l-0.85547 7.6172c-0.30078 2.7383-2.7695 4.7148-5.5078 4.4141s-4.7148-2.7695-4.4141-5.5078l0.85547-7.6172c12.262-109.17 24.703-219.96 106.46-303.74 14.543-14.902 30.965-29.77 46.672-43.891-22.246-15.836-47.086-28.613-73.816-37.664zm-293.91 371.48c-26.652-7.9453-55.035-12.234-84.488-12.234-29.391 0-57.719 4.2695-84.32 12.188 60.496 72.949 78.285 158.18 84.426 245.23 6.1406-87.043 23.922-172.25 84.387-245.19z"/>
</svg>
