<?xml version="1.0" encoding="UTF-8"?>
<svg width="1200pt" height="1200pt" version="1.1" viewBox="0 0 1200 1200" xmlns="http://www.w3.org/2000/svg">
 <path d="m645.69 602.02c-0.10547-0.48828-0.16406-0.99609-0.17578-1.5078v-0.32812c0.011719-0.61328 0.09375-1.2109 0.24219-1.7891l-33.562-83.906-11.371-0.035157-11.41 0.035157-34.977 85.008c0.023438 0.22656 0.039062 0.45703 0.042969 0.69141v0.16406l34.934 85.16 11.406 0.035156 11.375-0.035156 33.496-83.488zm8.2891-9.9219 280.13-56.027c0.22656-0.046875 0.45312-0.078125 0.67578-0.10547l0.89453-0.17969c16.145-3.25 22.457-4.5195 34.852 8.6484 0.14453 0.15625 0.28516 0.3125 0.41406 0.47656l24.195 28.02h77.785l44.504-44.504c3.125-3.125 8.1875-3.125 11.312 0l64.195 64.195c3.125 3.125 3.125 8.1875 0 11.312l-64.195 64.195c-3.125 3.125-8.1875 3.125-11.312 0l-43.395-43.395h-78.609l-24.457 30.988c-0.14453 0.17969-0.29297 0.35547-0.44922 0.51953l0.011719 0.011718c-12.395 13.168-18.703 11.898-34.852 8.6484l-1.5664-0.31641-0.007812 0.03125-280.3-56.059-33.605 83.77c-0.81641 2.0352-2.8203 3.2344-4.8945 3.125l-14.488 0.042969-14.754-0.046875c-2.0781 0-3.8633-1.2773-4.6055-3.0859h-0.003906l-34.449-83.973-281.12 56.227-0.007812-0.03125-1.5664 0.31641c-16.145 3.25-22.457 4.5195-34.852-8.6484l0.011719-0.011718c-0.15625-0.16406-0.30469-0.33984-0.44922-0.51953l-24.457-30.988h-78.609l-43.395 43.395c-3.125 3.125-8.1875 3.125-11.312 0l-64.195-64.195c-3.125-3.125-3.125-8.1875 0-11.312l64.195-64.195c3.125-3.125 8.1875-3.125 11.312 0l44.504 44.504h77.785l24.195-28.02c0.13281-0.16406 0.26953-0.32422 0.41406-0.47656 12.395-13.168 18.703-11.898 34.852-8.6484l0.89453 0.17969c0.22656 0.023438 0.45312 0.058594 0.67969 0.10547l280.77 56.152 34.809-84.602c0.81641-1.9883 2.7734-3.1641 4.8047-3.0859l14.559-0.042968 14.754 0.046875c2.0938 0 3.8867 1.293 4.625 3.1289l0.003907-0.003906 33.777 84.438zm-61.418 75-25.039-64.195c-0.76172-1.9453-0.70313-4.0078 0-5.8125l25.035-64.195c1.6055-4.1094 6.2344-6.1367 10.344-4.5312 2.1602 0.84375 3.7461 2.5273 4.5312 4.5312l25.039 64.195c0.76172 1.9453 0.70312 4.0078 0 5.8125l-25.035 64.195c-1.6055 4.1094-6.2344 6.1367-10.344 4.5312-2.1602-0.84375-3.7461-2.5273-4.5312-4.5312zm-9.0273-67.102 16.465 42.219 16.465-42.219-16.465-42.219zm-453.74-1.7148-52.883-52.883-52.883 52.883 52.883 52.883 26.426-26.426h-10.789c-4.418 0-8-3.582-8-8 0-4.418 3.582-8 8-8h26.789l10.461-10.461zm13.273-9.3516 3.6953 3.6953c3.125 3.125 3.125 8.1875 0 11.312l-4.8047 4.8047h49.98l-4.2617-5.3984c-2.5938-2.9453-2.6797-7.4297-0.039063-10.48l3.3945-3.9297h-47.969zm70.68 21.73c0.79297 0.67969 1.4531 1.5117 1.9336 2.4492l25.516 32.328c6.2734 6.6094 10.152 5.8281 19.996 3.8477l1.5781-0.31641-0.007813-0.03125 242.94-48.59-242.94-48.59c-0.23438-0.046875-0.46484-0.10547-0.69141-0.17188l-0.88281-0.17578c-9.8828-1.9883-13.754-2.7695-20.07 3.9297l-15.191 17.59h16.418c4.418 0 8 3.582 8 8 0 4.418-3.582 8-8 8h-30.234l-8.1055 9.3867zm843.18-21.73h-47.969l3.3945 3.9297c2.6406 3.0508 2.5547 7.5352-0.039063 10.48l-4.2617 5.3984h49.98l-4.8047-4.8047c-3.125-3.125-3.125-8.1875 0-11.312l3.6953-3.6953zm23.734 19.809h26.789c4.418 0 8 3.582 8 8 0 4.418-3.582 8-8 8h-10.789l26.426 26.426 52.883-52.883-52.883-52.883-52.883 52.883 10.461 10.461zm-96.348 4.3672c0.48047-0.9375 1.1406-1.7695 1.9336-2.4492l9.7422-12.344-8.1055-9.3867h-30.234c-4.418 0-8-3.582-8-8 0-4.418 3.582-8 8-8h16.418l-15.191-17.59c-6.3164-6.6953-10.188-5.918-20.07-3.9297l-0.88281 0.17578c-0.22656 0.066406-0.45703 0.125-0.69141 0.17187l-242.94 48.59 242.94 48.59-0.007813 0.03125 1.5781 0.31641c9.8398 1.9805 13.723 2.7617 19.996-3.8477l25.512-32.328z"/>
</svg>
