<?xml version="1.0" encoding="UTF-8"?>
<svg width="1200pt" height="1200pt" version="1.1" viewBox="0 0 1200 1200" xmlns="http://www.w3.org/2000/svg">
 <path d="m754.7 430.5 57 0.80078c0.92188 0.019531-0.32031-0.019531 1.7617-0.019531 34.422 0 65.52-14.121 88.141-36.859 22.68-22.781 36.859-54.18 37.32-88.641 0.019531-0.92188-0.019531 0.35938-0.019531-1.8203 0-35.16-14.238-66.98-37.281-90.02-23.039-23.039-54.859-37.281-90.02-37.281v-0.039062h-0.30078c-35.059 0.078125-66.801 14.34-89.801 36.82-22.898 22.379-37.039 52.898-37.039 85.621h-0.039063l1.3398 822.46h-16.461l-1.3398-822.46h-0.039063c0-37.301 16.078-72.02 42.078-97.441 25.898-25.32 61.699-41.379 101.3-41.461h0.30078v-0.039062c39.719 0 75.68 16.102 101.7 42.141 26.039 26.039 42.141 62 42.141 101.7 0 0.89844-0.019531-0.17969-0.039062 2.0195-0.53906 38.922-16.52 74.359-42.102 100.06-25.641 25.762-60.859 41.762-99.82 41.762-0.85938 0 0.19922-0.019531-1.9609-0.039062l-56.801-0.78125v67.441l56.898-0.019531c58.078-0.039063 110.7-23.602 148.8-61.699 38.059-38.059 61.621-90.641 61.621-148.74 0-58.102-23.559-110.7-61.621-148.78-38.078-38.078-90.68-61.621-148.78-61.621-44.801 0-86.301 13.961-120.38 37.781-35.078 24.5-62.34 59.441-77.281 100.3-5.6797 15.52-5.6602 20.539-5.6406 35.301 0.019531 9.4609 0.039062-10.898 0.039062 3.6797h-0.039062l-0.28125 852.4h-16.461l0.28125-852.4h-0.16016c0-14.578 0.019531 5.7617 0.039062-3.6797 0.019532-14.762 0.039063-19.801-5.6406-35.301-14.961-40.859-42.199-75.781-77.281-100.3-34.078-23.82-75.578-37.781-120.38-37.781-58.102 0-110.7 23.559-148.78 61.621-38.078 38.078-61.621 90.68-61.621 148.78 0 58.102 23.539 110.68 61.621 148.74 38.102 38.102 90.699 61.66 148.8 61.699l56.898 0.019531v-67.441l-56.801 0.78125c-2.1602 0.039062-1.1016 0.039062-1.9609 0.039062-38.961 0-74.199-16.02-99.82-41.762-25.578-25.699-41.559-61.141-42.102-100.06-0.019531-2.1992-0.039062-1.1211-0.039062-2.0195 0-39.719 16.102-75.68 42.141-101.7 26.039-26.039 62-42.141 101.7-42.141v0.039062h0.30078c39.578 0.078125 75.398 16.141 101.3 41.461 26 25.422 42.078 60.141 42.078 97.441h-0.039063l-1.3398 822.46h-16.461l1.3398-822.46h-0.039063c0-32.738-14.16-63.262-37.039-85.621-23-22.48-54.738-36.738-89.801-36.82h-0.30078v0.039062c-35.16 0-66.98 14.238-90.02 37.281-23.039 23.039-37.281 54.859-37.281 90.02 0 2.1797-0.039062 0.89844-0.019531 1.8203 0.48047 34.461 14.66 65.859 37.32 88.641 22.621 22.738 53.719 36.859 88.141 36.859 2.1016 0 0.83984 0.039062 1.7617 0.019531l57-0.80078v-51.32c-11.281 0.28125-28.578 0.039062-42.238-0.14063-5.3594-0.078124-10.039-0.14062-16.121-0.14062-20.699 0-39.441-8.3984-53-21.961-13.559-13.559-21.961-32.301-21.961-53s8.3984-39.441 21.961-53c13.559-13.559 32.301-21.961 53-21.961v0.039063h0.17969c20.621 0.058594 39.281 8.4219 52.781 21.84 13.539 13.461 21.898 31.961 21.898 52.219h-0.039063l-0.10156 818.42h-16.461l0.078126-590.64-56.898-0.019531c-62.699-0.039063-119.44-25.422-160.48-66.48-41.059-41.059-66.461-97.762-66.461-160.42s25.398-119.4 66.461-160.46c41.059-41.059 97.801-66.461 160.46-66.461 48.238 0 93 15.078 129.82 40.82 36.641 25.602 65.379 61.738 81.801 104.02 16.422-42.281 45.16-78.422 81.801-104.02 36.82-25.719 81.578-40.82 129.82-40.82 62.66 0 119.4 25.398 160.46 66.461 41.059 41.059 66.461 97.801 66.461 160.46s-25.398 119.36-66.461 160.42c-41.039 41.039-97.781 66.441-160.48 66.48l-56.898 0.019531 0.078124 590.64h-16.461l-0.10156-818.42h-0.039062c0-20.281 8.3594-38.781 21.898-52.219 13.5-13.422 32.16-21.781 52.781-21.84h0.17969v-0.039063c20.699 0 39.441 8.3984 53 21.961 13.559 13.559 21.961 32.301 21.961 53s-8.3984 39.441-21.961 53c-13.559 13.559-32.301 21.961-53 21.961-6.0781 0-10.762 0.058593-16.121 0.14062-13.66 0.17969-30.941 0.42188-42.238 0.14063v51.32zm0-67.801c11.059 0.30078 28.398 0.058593 42.039-0.12109 7.9609-0.10156 14.859-0.19922 16.32-0.19922 16.141 0 30.738-6.5391 41.32-17.121 10.578-10.578 17.121-25.18 17.121-41.32s-6.5391-30.738-17.121-41.32c-10.578-10.578-25.18-17.121-41.32-17.121v-0.039063h-0.17969c-16.059 0.039063-30.621 6.5781-41.16 17.059-10.5 10.441-17 24.801-17 40.539h-0.039062v59.602zm-351.42-0.12109c13.641 0.17969 30.98 0.42188 42.039 0.12109v-59.602h-0.039062c0-15.738-6.5-30.102-17-40.539-10.539-10.48-25.102-17.02-41.16-17.059h-0.17969v0.039062c-16.141 0-30.738 6.5391-41.32 17.121-10.578 10.578-17.121 25.18-17.121 41.32s6.5391 30.738 17.121 41.32c10.578 10.578 25.18 17.121 41.32 17.121 1.4609 0 8.3594 0.10156 16.32 0.19922z"/>
</svg>
