<?xml version="1.0" encoding="UTF-8"?>
<svg width="1200pt" height="1200pt" version="1.1" viewBox="0 0 1200 1200" xmlns="http://www.w3.org/2000/svg">
 <path d="m599.09 1078.6c13.406 0 25.645 4.4844 34.59 11.73 9.3984 7.6133 15.211 18.262 15.211 30.137s-5.8125 22.52-15.211 30.137c-8.9492 7.25-21.184 11.73-34.59 11.73s-25.645-4.4844-34.59-11.73c-9.3984-7.6133-15.211-18.262-15.211-30.137s5.8125-22.52 15.211-30.137c8.9492-7.25 21.184-11.73 34.59-11.73zm-88.203-208.72c-2.082-0.12891-4.1406-0.29297-6.1758-0.48438-24.406-2.3164-45.188-9.2344-60.445-22-15.621-13.07-25.238-31.91-26.805-57.734-0.40234-6.6484-0.25781-13.812 0.47266-21.512 0.375-3.9531 3.5703-6.9531 7.4062-7.207v-0.011719c14.836-1.0195 32.43-0.92187 46.922 1.8594 3.3828 0.64844 6.625 1.4531 9.6602 2.4336-4.1367-20.699-1.2891-41.496 7.793-67.039 1.3125-3.7227 5.1094-5.8633 8.875-5.2148v-0.003906c17.898 3.0547 31.914 9.2773 42.77 16.73 8.707 5.9766 15.379 12.758 20.398 19.348 3.3398-10.777 7.3203-21 11.375-31.422 5.8203-14.953 11.805-30.336 16.102-48.473 0.96094-4.1211 4.9531-6.75 9.0703-6.0703 4.1172-0.67578 8.1094 1.9492 9.0703 6.0703 4.2969 18.137 10.281 33.516 16.102 48.473 3.7422 9.6094 7.4141 19.055 10.586 28.918 5.0508-5.7773 11.527-11.582 19.527-16.762 11.523-7.4609 26.238-13.711 44.43-16.816v0.003907c3.7656-0.64844 7.5625 1.4922 8.875 5.2148 9.0312 25.41 11.902 46.125 7.8555 66.719 2.7383-0.83594 5.6289-1.5352 8.6328-2.1094 14.492-2.7812 32.086-2.8789 46.922-1.8594v0.011719c3.8359 0.25 7.0352 3.2539 7.4062 7.207 0.73047 7.6992 0.875 14.863 0.47266 21.512-1.5703 25.824-11.184 44.664-26.805 57.734-15.258 12.766-36.039 19.684-60.445 22-1.7461 0.16406-3.5117 0.30859-5.293 0.42578 2.2891 1.6445 4.0664 3.6055 5.1602 5.5742 1.1328 2.0352 1.6797 4.2109 1.5586 6.3789-0.15234 2.793-1.2852 5.2852-3.5156 7.2461-0.28125 0.24609-0.57422 0.47266-0.87891 0.67188-2.0703 1.4805-4.8633 2.3906-8.4219 2.4297l-81.172 0.92969-81.297-0.92969c-4.0703-0.046875-7.1406-1.2305-9.2695-3.1016l-0.015625-0.015625-0.015625 0.015625c-2.2305-1.9609-3.3633-4.4531-3.5156-7.2461-0.11719-2.168 0.42969-4.3438 1.5586-6.3789 1.082-1.9453 2.8281-3.8867 5.0781-5.5195zm-21.52-81.652c-0.51172-0.41797-0.98047-0.90625-1.3867-1.4648-2.8984-3.9609-9.918-6.5977-18.719-8.2852-10.855-2.082-23.918-2.4688-35.938-1.9883-0.19141 4.2617-0.16406 8.3359 0.074219 12.234 1.2773 21.031 8.8516 36.16 21.117 46.422 12.633 10.57 30.445 16.359 51.695 18.375 9.0508 0.85938 18.746 1.0273 28.957 0.58203-22.02-25.625-37.062-46.242-45.801-65.875zm57.078-292.66-9.7109 2.3828-2.3828-9.7109 9.7109-2.3828zm19.051 77.699-9.7109 2.3828-2.3828-9.7109 9.7109-2.3828zm-9.5273-38.848-9.7109 2.3828-2.3828-9.7109 9.7109-2.3828zm108.21-36.469-9.7109-2.3828 2.3828-9.7109 9.7109 2.3828zm-19.051 77.699-9.7109-2.3828 2.3828-9.7109 9.7109 2.3828zm9.5273-38.848-9.7109-2.3828 2.3828-9.7109 9.7109 2.3828zm-233.12 19.836c-2.543-2.2578-5.1211-4.457-7.7461-6.6172l-6.3438 7.7305c2.5273 2.082 5.0117 4.1992 7.4609 6.3711zm68.672 99.883c-1.2227-3.1641-2.5078-6.3086-3.8477-9.4258l-9.1875 3.9531c1.2891 3.0078 2.5312 6.0391 3.7109 9.0898zm-17.473-36.777c-1.6875-2.9531-3.4375-5.8711-5.2422-8.7539l-8.4648 5.3242c1.7344 2.7656 3.4141 5.5703 5.0352 8.4023l8.6758-4.9766zm-23.02-33.641c-2.1406-2.6406-4.3398-5.2422-6.5898-7.793l-7.4961 6.6211c2.1602 2.4453 4.2695 4.9453 6.3242 7.4766zm330.46-22.668c2.4492-2.1719 4.9297-4.293 7.4609-6.3711l-6.3438-7.7305c-2.625 2.1602-5.2031 4.3594-7.7461 6.6172zm-65.98 96.012c1.1797-3.0508 2.4219-6.082 3.7109-9.0898l-9.1875-3.9531c-1.3398 3.1172-2.625 6.2617-3.8477 9.4258zm16.824-35.418c1.6211-2.832 3.3008-5.6406 5.0352-8.4023l-8.4648-5.3242c-1.8047 2.8789-3.5547 5.8008-5.2422 8.7539l8.6758 4.9766zm22.109-32.309c2.0547-2.5352 4.1641-5.0312 6.3242-7.4766l-7.4961-6.6211c-2.25 2.5508-4.4492 5.1523-6.5898 7.793zm-205.24 89.531c1.7305 4.9961 3.4219 10 5.0625 15.023l15.211-4.9648c-1.6719-5.1172-3.3945-10.215-5.1562-15.297zm-76.719-174.07c2.6328 4.5391 5.1953 9.1328 7.6875 13.75l14.086-7.5898c-2.5859-4.7617-5.207-9.4922-7.9258-14.18l-13.844 8.0195zm28.938 56.266c2.2383 4.7969 4.4414 9.6133 6.6133 14.441l14.598-6.5508c-2.2031-4.8984-4.4375-9.7852-6.7109-14.652l-14.5 6.7656zm25.332 58.316c1.9922 4.9141 3.957 9.8398 5.8906 14.777l14.898-5.8359c-1.9609-4.9922-3.9414-9.9766-5.9609-14.949zm-134.43-10.211c-4.7461-2.9844-9.707-5.6953-14.746-8.1445l-6.9648 14.406c4.5273 2.2031 8.9883 4.6367 13.25 7.3203l8.4609-13.578zm83.461 100.7c-2.3438-4.9414-4.8047-9.8281-7.3945-14.645l-14.082 7.5977c2.4609 4.5781 4.8008 9.2227 7.0273 13.918zm-34.398-55.977c-3.4453-4.3242-7.0312-8.5352-10.781-12.598l-11.734 10.875c3.4844 3.7812 6.8164 7.6914 10.02 11.711l12.496-9.9922zm154.36-57.699h16v16h-16zm0-128h16v16h-16zm0 64h16v16h-16zm47.426 141.43c-1.7617 5.0859-3.4844 10.184-5.1562 15.297l15.211 4.9648c1.6406-5.0234 3.332-10.031 5.0625-15.023zm77.992-176.85c-2.7188 4.6875-5.3398 9.418-7.9258 14.18l14.086 7.5898c2.4922-4.6172 5.0547-9.2109 7.6875-13.75l-13.844-8.0195zm-29.594 57.52c-2.2734 4.8672-4.5039 9.7539-6.7109 14.652l14.598 6.5508c2.1719-4.8281 4.375-9.6445 6.6133-14.441l-14.5-6.7656zm-25.66 59.074c-2.0156 4.9727-4 9.9531-5.9609 14.949l14.898 5.8359c1.9336-4.9375 3.8984-9.8633 5.8906-14.777zm157.72 9.375c4.2617-2.6797 8.7227-5.1172 13.25-7.3203l-6.9648-14.406c-5.0391 2.4492-10.004 5.1602-14.746 8.1445l8.4609 13.578zm-77.473 93.996c2.2266-4.6953 4.5664-9.3398 7.0273-13.918l-14.082-7.5977c-2.5898 4.8164-5.0508 9.7031-7.3945 14.645zm32.445-52.855c3.2031-4.0195 6.5352-7.9336 10.02-11.711l-11.734-10.875c-3.75 4.0625-7.3359 8.2734-10.781 12.598l12.496 9.9922zm-176.27-612.73 5.4414 379.09c8.4141 0.38672 17.484 1.5156 30.035 3.3906 2.2109 0.33203 3.5977-0.45703 4.4844-1.6836 1.6602-2.293 2.6055-5.918 3.2344-9.082l0.03125-0.03125 1.1094-5.4922v-0.03125c23.18-113.98 45.117-183.03 63.57-225.92 18.844-43.801 34.363-61.062 43.957-70.727 3.5312-3.5547 6.0781-8.7734 7.6406-14.559 1.7617-6.5273 2.2266-13.559 1.4141-19.75-0.72656-5.543-2.3828-10.188-4.9219-12.707-0.6875-0.68359-1.4414-1.1602-2.25-1.3789-51.77-13.988-102.8-21.027-153.75-21.117zm-4.5234 378.99-5.4375-378.89c-48.391 0.76953-96.816 7.7734-145.84 21.02-0.80859 0.21875-1.5625 0.69531-2.25 1.3789-2.5391 2.5234-4.1953 7.1641-4.9219 12.707-0.80859 6.1914-0.34766 13.227 1.4141 19.75 1.5625 5.7852 4.1133 11 7.6406 14.559 9.5938 9.6641 25.113 26.926 43.957 70.727 18.453 42.895 40.391 111.95 63.57 225.92v0.03125l1.1094 5.4922 0.03125 0.03125c0.62891 3.1641 1.5742 6.7891 3.2344 9.082 0.88672 1.2266 2.2695 2.0156 4.4844 1.6836 14.039-2.0977 23.723-3.2617 33.008-3.4961zm-40.195 317.84c-0.20312-0.30078-0.38672-0.61719-0.55078-0.95312-3.9414-8.0156-11.203-18.168-23.406-26.547-7.7812-5.3438-17.574-9.9492-29.801-12.824-7.6562 23.945-8.6914 42.977-2.2656 62.363 7.0625 21.297 23.125 43.766 49.188 73.855 0.75391-0.64453 1.5078-1.3047 2.2617-1.9844 2.2695-2.0352 4.5508-4.2148 6.832-6.5547-7.4922-36.93-6.8125-64.137-2.2617-87.359zm41.988-74.902c-3.2461 9.7812-6.8008 18.91-10.297 27.891-12.789 32.855-24.766 63.645-16.062 118.57 6.7891-9.2188 13.289-20.133 19.074-33.051 1.793-4.0195 6.5117-5.8242 10.531-4.0312 1.8672 0.83594 3.2578 2.2969 4.0312 4.0312 5.7891 12.918 12.285 23.832 19.074 33.051 8.7031-54.93-3.2734-85.715-16.059-118.57-3.4961-8.9805-7.0469-18.109-10.297-27.891zm-372.09-487.21c53.629 33.762 103.75 66.98 146.75 108.88 43.387 42.273 79.402 93.238 104.25 162.21 7.4258-3.2422 15.023-6.1289 22.77-8.707l-0.003907-0.007812c5.1445-2.0273 4.7578-6.7812 4.5156-9.7461l-0.054688-0.72656c-4.4258-57.469-20.957-111.81-40.992-158.6-37.426-87.395-86.602-147.86-92.512-153.64-22.273-21.777-46.441-8.3359-51.055-5.7734-0.11328 0.0625-0.16406 0.09375-0.6875 0.37109-16.09 8.6133-31.977 18.348-47.637 29.367-15.43 10.855-30.559 22.93-45.348 36.379zm241.91 275.28c-24.285-67.797-59.57-117.81-102.11-159.25-42.891-41.789-93.289-75.008-147.24-108.93-9.4336 9.4219-20.035 21.531-31.145 35.906-12.641 16.363-25.91 35.617-38.852 57.148-2.5859 4.3047-3.8672 8.832-4.0469 13.305-0.23828 5.9336 1.4414 11.895 4.5664 17.242 3.207 5.4883 7.8828 10.254 13.531 13.648 5.3086 3.1914 11.473 5.1875 18.078 5.4531 3.2031 0.12891 6.3438 0.19141 9.7109 0.26172 44.105 0.88672 124.5 2.5039 233.51 118.07 1.9297 2.043 3.7695 4.0195 5.6328 6.043 2.1406 2.3281 4.2539 4.6562 6.4531 7.1016l0.03125 0.0625c2.0742 2.3398 4.5469 4.8906 6.8711 6.2305 0.85547 0.49609 1.5781 0.78906 1.8789 0.59766 7.5391-4.7852 15.258-9.0547 23.129-12.883zm-96.199 80.535c-33.215-17.961-61.961-29.52-87.676-36.668-27.555-7.6602-51.633-10.266-74.004-10.277-21.758-0.011719-41.906 2.3672-64.816 7.3711-22.43 4.8984-47.395 12.277-78.949 22.348-0.71484 8.7969-1.0703 17.523-1.0625 26.324 0.011719 16.969 1.3555 34.43 4.0312 53.367 1.4922 10.562 4.5547 18.406 8.8086 23.281 1.9023 2.1836 4.0508 3.7305 6.3945 4.6094 2.3164 0.87109 4.9453 1.1172 7.8477 0.70703 6.293-0.89062 13.668-4.75 21.805-11.855 47.785-41.707 92.008-55.27 129.14-56.473 37.184-1.2031 66.809 9.9453 85.926 17.684 14.816 5.9961 16.609 2.7148 22.152-7.4453 0.78125-1.4297 1.6172-2.9609 3.0312-5.4688 6.0742-10.75 11.742-19.676 17.371-27.496zm-304.39-28.023c30.051-9.5391 54.121-16.586 75.785-21.316 23.516-5.1367 44.316-7.582 66.926-7.5664 23.211 0.011719 48.164 2.707 76.66 10.629 26.746 7.4375 56.613 19.477 91.098 38.234 7.3867-9.3086 14.98-17.266 23.578-25.434 0.39844-0.52344 0.55859-1.0039 0.57031-1.4102 0.015625-0.55859-0.019531-0.85547-0.066406-0.90234-38.449-38.176-80.637-67.879-126.85-86.23-42.742-16.973-89.027-24.277-139.11-19.629-12.41 1.1523-22.742 4.3906-31.199 10.398-8.4492 6-15.281 14.965-20.734 27.602-3.6406 8.4297-6.6055 19.039-9.0156 29.855-2.4102 10.816-4.3281 22.289-5.8125 32.027-0.70312 4.625-1.3164 9.1992-1.832 13.742zm-18.055 37.121c-0.011718-17.941 1.3477-35.34 4.0742-53.238 1.4688-9.6406 3.4258-21.25 6.0625-33.09 2.6367-11.84 5.8906-23.465 9.8906-32.73 6.6523-15.41 15.281-26.551 26.172-34.289 10.883-7.7305 23.781-11.859 39.012-13.273 52.664-4.8867 101.39 2.8086 146.42 20.691 48.348 19.199 92.312 50.102 132.22 89.73 2.5586 2.5391 4.8945 7.332 4.7539 12.59-0.10547 3.875-1.4219 8.0586-4.7773 11.848l-0.30469 0.34375-0.16406 0.15625c-8.3047 7.875-15.605 15.527-22.723 24.559-7.1875 9.1211-14.152 19.562-21.691 32.914-0.74609 1.3203-1.8672 3.375-2.9102 5.2812-10.711 19.625-14.168 25.961-42.152 14.633-17.871-7.2344-45.52-17.656-79.426-16.559-33.965 1.1016-74.652 13.715-119.14 52.535-10.586 9.2383-20.809 14.352-30.117 15.668-5.5664 0.78516-10.82 0.23828-15.66-1.582-4.8164-1.8086-9.1016-4.8477-12.766-9.0469-6.2852-7.2031-10.68-17.871-12.621-31.594-2.7617-19.52-4.1445-37.695-4.1562-55.555zm382.26-488.45c2.6484-2.6289 5.7734-4.5312 9.375-5.5039 53.426-14.434 106.16-21.652 158.9-21.652v0.03125c52.812 0 105.55 7.207 158.9 21.621 3.6016 0.97266 6.7266 2.875 9.375 5.5039 5.1523 5.1133 8.3203 13.07 9.4844 21.957 1.0781 8.2422 0.49609 17.48-1.7891 25.938-2.2383 8.2891-6.1445 16.016-11.766 21.684-8.707 8.7695-22.832 24.535-40.582 65.789-18.137 42.16-39.734 110.2-62.633 222.8h-0.007813l-1.0977 5.4258 0.023437 0.003906c-0.97266 4.8867-2.5859 10.699-5.9844 15.395-4.1719 5.7656-10.344 9.5234-19.734 8.1211-14.969-2.2344-24.641-3.3555-34.191-3.3555-9.5508 0-19.219 1.1172-34.191 3.3555-9.3906 1.4023-15.562-2.3555-19.734-8.1211-3.3984-4.6953-5.0117-10.512-5.9844-15.395l0.023438-0.003906-1.0977-5.4258h-0.007812c-22.898-112.6-44.496-180.64-62.633-222.8-17.746-41.254-31.875-57.02-40.582-65.789-5.625-5.6641-9.5273-13.395-11.766-21.684-2.2852-8.4609-2.8711-17.699-1.7891-25.938 1.1641-8.8906 4.332-16.844 9.4844-21.957zm88.699 374.91c0.60938 7.4844 1.5898 19.48-14.641 25.871l-0.40625 0.125c-8.8516 2.9336-17.672 6.3789-26.445 10.449-8.5859 3.9805-17.059 8.5625-25.387 13.848-6.3789 4.0469-12.656 3.0156-18.379-0.28516-4.2305-2.4414-7.8984-6.1328-10.828-9.4297l-0.011718 0.011719c-2.5078-2.7891-4.5664-5.0625-6.3281-6.9766-2.0391-2.2188-3.8242-4.1367-5.5078-5.918-104.42-110.7-180.47-112.23-222.2-113.07-3.6914-0.074219-7.1289-0.14453-10.023-0.26172-9.4062-0.37891-18.145-3.1992-25.641-7.7031-8.0273-4.8242-14.645-11.555-19.156-19.273-4.5938-7.8594-7.0625-16.816-6.6953-25.93 0.28516-7.0742 2.2773-14.18 6.2969-20.867 13.293-22.117 26.926-41.898 39.914-58.711 14.582-18.871 28.383-34.059 40.027-44.672 15.418-14.055 31.215-26.676 47.344-38.023 16.051-11.293 32.508-21.363 49.324-30.367 0.23438-0.125 0.089844-0.054688 0.4375-0.24609 6.2773-3.4922 39.18-21.793 69.93 8.2734 6.207 6.0703 57.641 69.074 96.074 158.83 20.633 48.184 37.664 104.23 42.242 163.66 0.042969 0.57422 0.011719 0.13281 0.054688 0.66406zm626.04 60.309c2.7266 17.898 4.0859 35.297 4.0742 53.238-0.011719 17.859-1.3984 36.031-4.1562 55.555-1.9414 13.723-6.332 24.391-12.621 31.594-3.6641 4.1992-7.9531 7.2383-12.766 9.0469-4.8398 1.8203-10.094 2.3672-15.66 1.582-9.3125-1.3164-19.531-6.4258-30.117-15.668-44.484-38.824-85.172-51.438-119.14-52.535-33.906-1.0977-61.555 9.3242-79.426 16.559-27.984 11.328-31.445 4.9922-42.152-14.633-1.0391-1.9062-2.1641-3.9609-2.9102-5.2812-7.543-13.352-14.504-23.789-21.691-32.914-7.1172-9.0312-14.418-16.684-22.723-24.559l-0.16406-0.15625-0.30469-0.34375c-3.3516-3.793-4.6719-7.9727-4.7773-11.848-0.14062-5.2578 2.1953-10.051 4.7539-12.59 39.91-39.629 83.875-70.531 132.22-89.73 45.027-17.883 93.754-25.578 146.42-20.691 15.23 1.4141 28.129 5.543 39.012 13.273 10.895 7.7344 19.52 18.879 26.172 34.289 4 9.2656 7.2539 20.891 9.8906 32.73s4.5938 23.449 6.0625 33.09zm-11.863 53.238c0.007812-8.8008-0.34766-17.527-1.0625-26.324-31.555-10.07-56.52-17.449-78.949-22.348-22.91-5.0039-43.059-7.3828-64.816-7.3711-22.371 0.011719-46.449 2.6172-74.004 10.277-25.715 7.1484-54.461 18.707-87.676 36.668 5.6328 7.8203 11.301 16.746 17.371 27.496 1.418 2.5078 2.2539 4.043 3.0312 5.4688 5.5469 10.16 7.3359 13.441 22.152 7.4453 19.117-7.7383 48.742-18.887 85.926-17.684 37.125 1.2031 81.352 14.77 129.14 56.473 8.1367 7.1016 15.512 10.965 21.805 11.855 2.9023 0.41016 5.5312 0.16406 7.8477-0.70703 2.3438-0.87891 4.4883-2.4297 6.3945-4.6094 4.2539-4.8711 7.3125-12.715 8.8086-23.281 2.6758-18.934 4.0195-36.395 4.0312-53.367zm-2.1172-37.121c-0.51562-4.543-1.125-9.1172-1.832-13.742-1.4844-9.7422-3.4023-21.211-5.8125-32.027s-5.375-21.426-9.0156-29.855c-5.4531-12.637-12.285-21.598-20.734-27.602-8.4609-6.0078-18.789-9.2461-31.199-10.398-50.078-4.6484-96.363 2.6562-139.11 19.629-46.211 18.352-88.402 48.055-126.85 86.23-0.046875 0.046875-0.082031 0.34375-0.066406 0.90234 0.011719 0.40625 0.17188 0.88672 0.57031 1.4102 8.5938 8.168 16.188 16.125 23.578 25.434 34.484-18.758 64.352-30.801 91.098-38.234 28.496-7.9219 53.449-10.617 76.66-10.629 22.609-0.011718 43.41 2.4297 66.926 7.5664 21.664 4.7305 45.738 11.777 75.785 21.316zm-438.27-50.551c-16.23-6.3906-15.25-18.387-14.641-25.871 0.042969-0.53125 0.011719-0.09375 0.054688-0.66406 4.5781-59.426 21.605-115.48 42.242-163.66 38.438-89.754 89.867-152.76 96.074-158.83 30.746-30.062 63.652-11.762 69.93-8.2734 0.34766 0.19141 0.20313 0.12109 0.4375 0.24609 16.812 9.0039 33.273 19.074 49.324 30.367 16.129 11.348 31.922 23.969 47.344 38.023 11.641 10.609 25.445 25.797 40.027 44.672 12.988 16.812 26.621 36.594 39.914 58.711 4.0195 6.6914 6.0117 13.793 6.2969 20.867 0.36719 9.1133-2.0977 18.066-6.6953 25.93-4.5117 7.7188-11.129 14.453-19.156 19.273-7.4961 4.5039-16.23 7.3242-25.641 7.7031-2.8906 0.11719-6.332 0.1875-10.023 0.26172-41.723 0.83984-117.77 2.3672-222.2 113.07-1.6836 1.7852-3.4688 3.6992-5.5078 5.918-1.7578 1.9141-3.8203 4.1836-6.3281 6.9766l-0.011719-0.011719c-2.9258 3.2969-6.5938 6.9883-10.828 9.4297-5.7227 3.3008-11.996 4.332-18.379 0.28516-8.332-5.2852-16.801-9.8672-25.387-13.848-8.7734-4.0703-17.594-7.5156-26.445-10.449l-0.40625-0.125zm1.2969-24.621c-0.24219 2.9648-0.62891 7.7227 4.5156 9.7461l-0.003906 0.007812c7.7461 2.5781 15.344 5.4648 22.77 8.707 24.844-68.965 60.859-119.93 104.25-162.21 43.008-41.902 93.125-75.117 146.75-108.88-14.789-13.445-29.918-25.52-45.348-36.379-15.66-11.02-31.547-20.754-47.637-29.367-0.52344-0.28125-0.57422-0.30859-0.6875-0.37109-4.6094-2.5625-28.781-16.008-51.055 5.7734-5.9141 5.7812-55.086 66.246-92.512 153.64-20.035 46.785-36.566 101.13-40.992 158.6l-0.054687 0.72656zm36.379 22.66c7.8711 3.8281 15.59 8.1016 23.129 12.883 0.30078 0.19141 1.0234-0.10156 1.8789-0.59766 2.3242-1.3398 4.8008-3.8945 6.8711-6.2305l0.03125-0.0625c2.1953-2.4453 4.3125-4.7695 6.4531-7.1016 1.8594-2.0234 3.7031-4 5.6328-6.043 109.01-115.56 189.41-117.18 233.51-118.07 3.3672-0.066406 6.5078-0.13281 9.7109-0.26172 6.6055-0.26562 12.766-2.2617 18.078-5.4531 5.6484-3.3945 10.324-8.1641 13.531-13.648 3.125-5.3477 4.8086-11.309 4.5664-17.242-0.17969-4.4766-1.4609-9-4.0469-13.305-12.938-21.531-26.207-40.785-38.852-57.148-11.105-14.379-21.707-26.488-31.145-35.906-53.953 33.922-104.35 67.145-147.24 108.93-42.535 41.441-77.82 91.457-102.11 159.25zm-70.492 390.59c9.8711 0.39453 19.254 0.21484 28.031-0.62109 21.25-2.0156 39.062-7.8047 51.695-18.375 12.27-10.266 19.84-25.391 21.117-46.422 0.23828-3.8945 0.26562-7.9727 0.074219-12.234-12.02-0.48047-25.078-0.09375-35.938 1.9883-8.3633 1.6055-15.117 4.0664-18.254 7.7031-8.5938 20.262-23.922 41.426-46.723 67.961zm32.254-74.645c0.10938-0.33203 0.24609-0.65625 0.40234-0.97266 0.83203-2.0469 1.5859-4.0781 2.2539-6.0977 6.4297-19.391 5.3945-38.426-2.2695-62.383-12.828 2.9453-23.348 7.6562-31.77 13.109-11.238 7.2773-18.691 15.762-22.859 23.027 5.3086 24.145 6.5664 52.383-1.3867 91.562 2.2812 2.3398 4.5625 4.5195 6.832 6.5547 0.75781 0.67578 1.5117 1.3359 2.2617 1.9844 23.199-26.781 38.477-47.527 46.531-66.781zm-59.422 76.676c-12.328-11.047-24.953-25.949-35.934-46.074-10.98 20.125-23.605 35.027-35.934 46.074-10.152 9.0977-20.09 15.574-28.754 20.203l64.688 0.74219 64.688-0.74219c-8.668-4.6289-18.602-11.105-28.754-20.203zm-35.145 60.645c16.699 0 31.977 3.6406 43.176 9.5273 12.742 6.6992 20.625 16.496 20.625 27.801 0 23.59-28.336 23.566-62.066 23.543h-6.6445c-33.746 0.023437-58.891 0.042969-58.891-23.543 0-11.309 7.8828-21.105 20.625-27.801 11.199-5.8867 26.477-9.5273 43.176-9.5273zm35.738 23.652c-8.9961-4.7266-21.621-7.6523-35.738-7.6523s-26.742 2.9258-35.738 7.6523c-7.4531 3.918-12.062 8.7852-12.062 13.676 0 7.6367 18.312 7.6211 42.891 7.6055h6.6445c25.031 0.019531 46.066 0.035156 46.066-7.6055 0-4.8906-4.6094-9.7578-12.062-13.676zm-35.738 59.359c9.5938 0 18.375 3.2305 24.824 8.4531 6.8984 5.5898 11.168 13.438 11.168 22.223 0 8.7812-4.2695 16.633-11.168 22.223-6.4492 5.2227-15.23 8.4531-24.824 8.4531s-18.375-3.2305-24.824-8.4531c-6.8984-5.5898-11.168-13.438-11.168-22.223 0-8.7812 4.2695-16.633 11.168-22.223 6.4492-5.2227 15.23-8.4531 24.824-8.4531zm14.762 20.828c-3.6836-2.9844-8.8945-4.8281-14.762-4.8281s-11.078 1.8477-14.762 4.8281c-3.2305 2.6172-5.2305 6.1055-5.2305 9.8477 0 3.7383 2 7.2305 5.2305 9.8477 3.6836 2.9844 8.8945 4.8281 14.762 4.8281s11.078-1.8477 14.762-4.8281c3.2305-2.6172 5.2305-6.1055 5.2305-9.8477 0-3.7383-2-7.2305-5.2305-9.8477zm9.7656 82.047c-6.1836-5.0078-14.848-8.1055-24.527-8.1055s-18.348 3.0977-24.527 8.1055c-5.7305 4.6445-9.2734 10.93-9.2734 17.762s3.543 13.117 9.2734 17.762c6.1836 5.0078 14.848 8.1055 24.527 8.1055s18.348-3.0977 24.527-8.1055c5.7305-4.6445 9.2734-10.93 9.2734-17.762s-3.543-13.117-9.2734-17.762z"/>
</svg>
