<?xml version="1.0" encoding="UTF-8"?>
<svg width="1200pt" height="1200pt" version="1.1" viewBox="0 0 1200 1200" xmlns="http://www.w3.org/2000/svg">
 <path d="m1140.7 215.28v-151.8h-140.28v140.52h-241.44s0-0.35938-0.23828-0.48047c-9.2383-32.398-11.52-70.559-7.1992-120.12l1.5586-18.719h-693.12v34.199h566.28c-0.23828 12.48-0.35938 23.52-0.35938 28.559 0 25.559 1.9219 51.238 5.8789 76.441h-468.72v11.398l470.64 0.003906c4.4414 25.922 11.039 51.48 19.559 76.199h-147.48v-31.922h-70.559v75.238h70.559v-31.922h151.56c45.238 122.52 137.28 221.88 253.2 273.48v152.88h-29.879v75.238h70.559v-75.238h-29.879v-148.44c25.801 10.68 52.441 18.84 79.199 24.48v502.56h10.68l0.003906-500.39c26.879 5.0391 54.238 7.5586 81.719 7.5586h4.9219v525.12h32.039l0.003906-667.2-14.52-1.4414c-35.641-3.7188-70.801-12-104.16-24.719l-0.003907-231.48h129.6zm-129.6-140.52h118.92v129.12h-118.92l0.003906-129zm-363.72 52.68c0-6.3594 0-17.039 0.35937-28.559h70.68c-1.8008 30-1.6797 67.922 7.4414 105h-72.359c-4.0781-25.199-6.1211-50.762-6.1211-76.441zm28.68 164.04c-9-24.719-15.84-50.281-20.641-76.199h73.441l0.48047 1.3203c11.281 26.16 24.602 51.359 39.961 74.879zm234.48 260.04c-104.04-48.84-187.08-138.6-230.16-248.64h96.602c1.0781 1.4414 2.1602 3.1211 3.2383 4.5586 34.68 49.32 77.641 91.078 127.32 123.96 1.0781 0.71875 2.0391 1.3203 3.1211 2.0391v118.08zm0-158.76c-35.16-25.199-66.238-55.32-92.879-89.879h92.879zm10.68 163.56v-116.16c25.32 15.602 51.961 28.559 79.199 38.762v103.08c-26.879-5.8789-53.52-14.52-79.199-25.559zm176.64-52.801v88.441h-4.9219c-27.48 0-55.078-2.6406-81.719-7.9219v-101.28c28.078 9.8398 57.121 16.801 86.641 20.762zm-173.52-101.16c-1.0781-0.71875-2.0391-1.3203-3-2.1602v-108.84h-112.08c-1.3203-1.5586-2.3984-3.1211-3.3594-4.5586-15.961-22.441-29.762-46.32-41.52-71.641h236.28v227.28c-26.398-10.559-51.961-24.121-76.199-40.078z"/>
</svg>
