<?xml version="1.0" encoding="UTF-8"?>
<svg width="1200pt" height="1200pt" version="1.1" viewBox="0 0 1200 1200" xmlns="http://www.w3.org/2000/svg">
 <path d="m903.72 1052h-554.52c-50.641 0-92.762-38.039-98.039-88.32l-46.68-447.84h249.84c3.3594 0 6 2.6406 6 6s-2.6406 6-6 6h-236.52l45.359 434.64c4.5586 44.281 41.641 77.641 86.16 77.641h554.4c44.039 0 81-33 86.039-76.801l49.559-435.36h-241.92c-3.3594 0-6-2.6406-6-6s2.6406-6 6-6h255.36l-51.121 448.8c-5.6367 49.559-47.758 87.238-97.918 87.238z"/>
 <path d="m742.68 527.76h-233.88c-3.3594 0-6-2.6406-6-6s2.6406-6 6-6h233.76c3.3594 0 6 2.6406 6 6-0.003906 3.3594-2.6406 6-5.8828 6z"/>
 <path d="m454.32 527.76h-254.4c-23.52 0-42.719-19.199-42.719-42.719v-28.078c0-23.52 19.199-42.719 42.719-42.719h280.8c3.3594 0 6 2.6406 6 6s-2.6406 6-6 6h-280.8c-16.922 0-30.719 13.801-30.719 30.719v28.078c0 16.922 13.801 30.719 30.719 30.719h254.4c3.3594 0 6 2.6406 6 6s-2.6406 6-6 6z"/>
 <path d="m742.32 527.76h-234.84c-3.3594 0-6-2.6406-6-6s2.6406-6 6-6h234.84c3.3594 0 6 2.6406 6 6s-2.6406 6-6 6z"/>
 <path d="m1052.2 527.76h-255.36c-3.3594 0-6-2.6406-6-6s2.6406-6 6-6h255.24c16.922 0 30.719-13.801 30.719-30.719v-28.078c0-16.922-13.801-30.719-30.719-30.719l-286.92-0.007813c-3.3594 0-6-2.6406-6-6s2.6406-6 6-6h286.92c23.52 0 42.719 19.199 42.719 42.719v28.078c0 23.645-19.082 42.727-42.602 42.727z"/>
 <path d="m709.08 426.36h-178.08c-3.3594 0-6-2.6406-6-6s2.6406-6 6-6h178.2c3.3594 0 6 2.6406 6 6s-2.7578 6-6.1211 6z"/>
 <path d="m480.36 589.2c-1.4414 0-2.8789-0.12109-4.3203-0.48047l-22.801-5.7617c-9.6016-2.3984-15.48-12.121-13.078-21.719l99.84-399.6c1.1992-4.6797 4.0781-8.5195 8.1602-11.039 4.0781-2.5195 9-3.2383 13.559-2.0391l22.801 5.7617c4.6797 1.1992 8.5195 4.0781 11.039 8.1602 2.5195 4.0781 3.2383 9 2.0391 13.559l-99.84 399.6c-2.0391 8.1562-9.3594 13.555-17.398 13.555zm-1.4375-12.121c3.2383 0.71875 6.4805-1.1992 7.1992-4.3203l99.84-399.6c0.35937-1.5586 0.12109-3.1211-0.71875-4.5586-0.83984-1.3203-2.1602-2.2812-3.7188-2.7617l-22.801-5.7617c-1.5586-0.35938-3.1211-0.12109-4.5586 0.71875-1.3203 0.83984-2.2812 2.1602-2.7617 3.7188l-99.84 399.6c-0.35938 1.5586-0.12109 3.1211 0.71875 4.5586 0.83984 1.3203 2.1602 2.2812 3.7188 2.7617z"/>
 <path d="m770.04 584.64c-6.6016 0-12.719-4.1992-14.879-10.801l-127.92-396.48c-2.6406-8.1602 1.9219-17.039 10.078-19.68l26.879-8.6406c8.1602-2.6406 17.039 1.9219 19.68 10.078l127.92 396.36c1.3203 3.9609 0.96094 8.1602-0.96094 11.879-1.9219 3.7188-5.1602 6.4805-9.1211 7.8008l-26.879 8.6406c-1.5547 0.60156-3.2344 0.84375-4.7969 0.84375zm-101.04-424.32c-0.35938 0-0.71875 0-1.0781 0.12109l-26.879 8.6406c-1.9219 0.60156-2.8789 2.6406-2.2812 4.5586l127.92 396.36c0.60156 1.9219 2.7617 3 4.5586 2.2812l26.879-8.6406c1.9219-0.60156 2.8789-2.6406 2.2812-4.5586l-127.92-396.24c-0.60156-1.5586-1.9219-2.5195-3.4805-2.5195z"/>
 <path d="m481.68 550.44c0 4.043-3.2773 7.3203-7.3203 7.3203s-7.3203-3.2773-7.3203-7.3203c0-4.043 3.2773-7.3203 7.3203-7.3203s7.3203 3.2773 7.3203 7.3203z"/>
 <path d="m474.36 563.76c-7.3203 0-13.32-6-13.32-13.32 0-7.3203 6-13.32 13.32-13.32s13.32 6 13.32 13.32c-0.12109 7.3203-6 13.32-13.32 13.32zm0-14.523c-0.71875 0-1.3203 0.60156-1.3203 1.3203 0 1.4414 2.5195 1.4414 2.5195 0 0-0.71875-0.59766-1.3203-1.1992-1.3203z"/>
 <path d="m787.44 549.72c0 4.043-3.2773 7.3203-7.3203 7.3203-4.043 0-7.3203-3.2773-7.3203-7.3203s3.2773-7.3203 7.3203-7.3203c4.043 0 7.3203 3.2773 7.3203 7.3203z"/>
 <path d="m780.12 562.92c-7.3203 0-13.32-6-13.32-13.32 0-7.3203 6-13.32 13.32-13.32 7.3203 0 13.32 6 13.32 13.32 0 7.4375-6 13.32-13.32 13.32zm0-14.523c-0.71875 0-1.3203 0.60156-1.3203 1.3203 0 1.4414 2.5195 1.4414 2.5195 0 0.12109-0.71875-0.48047-1.3203-1.1992-1.3203z"/>
 <path d="m400.68 624.6h-148.8c-3.3594 0-6-2.6406-6-6 0-3.3594 2.6406-6 6-6h148.8c3.3594 0 6 2.6406 6 6 0 3.3594-2.7578 6-6 6z"/>
 <path d="m577.56 691.44h-256.8c-3.3594 0-6-2.6406-6-6s2.6406-6 6-6h256.68c3.3594 0 6 2.6406 6 6s-2.6406 6-5.8828 6z"/>
 <path d="m452.4 836.04h-209.28c-3.3594 0-6-2.6406-6-6 0-3.3594 2.6406-6 6-6h209.28c3.3594 0 6 2.6406 6 6 0 3.3594-2.6367 6-6 6z"/>
 <path d="m998.16 941.76h-150.96c-3.3594 0-6-2.6406-6-6s2.6406-6 6-6h150.96c3.3594 0 6 2.6406 6 6s-2.6406 6-6 6z"/>
</svg>
