<?xml version="1.0" encoding="UTF-8"?>
<svg width="1200pt" height="1200pt" version="1.1" viewBox="0 0 1200 1200" xmlns="http://www.w3.org/2000/svg">
 <path d="m370.92 727.31c-66.141 0-119.86 53.766-119.86 119.86 0 66 53.766 119.77 119.86 119.77 66 0 119.77-53.766 119.77-119.77 0-66.141-53.766-119.86-119.77-119.86zm0 221.63c-56.156 0-101.86-45.609-101.86-101.77s45.703-101.86 101.86-101.86 101.77 45.703 101.77 101.86-45.609 101.77-101.77 101.77z"/>
 <path d="m370.92 790.92c-31.078 0-56.297 25.219-56.297 56.297 0 30.938 25.219 56.156 56.297 56.156 30.938 0 56.156-25.219 56.156-56.156 0-31.078-25.219-56.297-56.156-56.297zm0 94.453c-21.141 0-38.297-17.156-38.297-38.156 0-21.141 17.156-38.297 38.297-38.297 21 0 38.156 17.156 38.156 38.297 0 21-17.156 38.156-38.156 38.156z"/>
 <path d="m1046.6 609c68.062-57.141 111.38-142.69 111.38-238.22 0-171.37-139.45-310.78-310.78-310.78-95.531 0-181.08 43.312-238.08 111.23-57.141-67.922-142.69-111.23-238.22-111.23-171.47 0-310.92 139.45-310.92 310.78 0 95.531 43.312 181.08 111.38 238.22-68.062 57-111.38 142.69-111.38 238.22 0 171.37 139.45 310.78 310.92 310.78 95.531 0 181.08-43.312 238.22-111.23 57 67.922 142.55 111.23 238.08 111.23 171.37 0 310.78-139.45 310.78-310.78 0-95.531-43.312-181.22-111.38-238.22zm-199.4-531c161.53 0 292.78 131.39 292.78 292.78 0 91.312-42 173.06-107.62 226.78-4.9219 3.9375-9.9375 7.7812-15.141 11.391-13.688 9.9375-28.312 18.609-43.688 25.922-6.8438 3.375-13.781 6.375-20.859 9-32.766 12.703-68.297 19.688-105.47 19.688-22.453 0-43.781 4.0781-63.609 11.391-50.062 18.609-89.859 58.453-108.47 108.61-7.4531 19.781-11.391 41.297-11.391 63.609s3.9375 43.781 11.391 63.609c25.922 69.938 93.234 119.86 172.08 119.86 101.16 0 183.47-82.312 183.47-183.47 0-78.844-49.922-146.29-119.86-172.22 21.375-4.4531 41.859-11.062 61.312-19.781 62.766 40.922 104.3 111.7 104.3 192 0 126.37-102.84 229.08-229.22 229.08-80.297 0-150.94-41.391-191.86-104.06-4.2188-6.2344-7.9219-12.703-11.391-19.312-16.547-31.547-25.922-67.547-25.922-105.7s9.375-74.156 25.922-105.7c3.4688-6.7031 7.2188-13.219 11.391-19.453 17.391-26.625 40.312-49.453 66.938-66.844 6.2344-4.2188 12.703-7.9219 19.453-11.297 31.547-16.688 67.547-25.922 105.47-25.922 22.781 0 44.859-3.1406 65.859-9 21.609-5.8594 41.859-14.625 60.609-25.922 6-3.4688 11.766-7.3125 17.391-11.391 62.531-44.859 103.31-118.22 103.31-200.86 0-136.31-110.86-247.22-247.22-247.22-82.688 0-156.14 40.781-200.86 103.45-7.4531-14.391-16.219-28.219-25.781-41.297 53.766-65.766 135.37-107.77 226.69-107.77zm0 603.61c91.312 0 165.47 74.297 165.47 165.61 0 91.219-74.156 165.47-165.47 165.47-91.219 0-165.47-74.297-165.47-165.47 0-91.312 74.297-165.61 165.47-165.61zm-769.22-310.82c0-161.39 131.39-292.78 292.92-292.78 91.312 0 172.92 42 226.69 107.77 3.9375 4.9219 7.9219 9.9375 11.531 15.141 9.8438 13.547 18.469 28.219 25.781 43.453 3.2344 6.7031 6.2344 13.688 9 20.766 12.844 32.766 19.781 68.391 19.781 105.7s-6.9375 72.938-19.781 105.7c-2.625 7.0781-5.7656 14.062-9 20.766-7.3125 15.234-15.938 29.859-25.781 43.453-3.6094 5.1562-7.4531 10.219-11.531 15.141-12.375 15.234-26.297 29.156-41.531 41.766-4.9219 3.9375-9.9375 7.7812-15.141 11.391-13.688 9.9375-28.453 18.609-43.781 25.922-6.7031 3.375-13.688 6.375-20.766 9-32.625 12.703-68.297 19.688-105.47 19.688-22.453 0-43.781 4.0781-63.703 11.391-69.938 25.922-119.86 93.375-119.86 172.22 0 101.16 82.312 183.47 183.61 183.47 78.844 0 146.16-49.922 172.08-119.86 4.4531 21.375 11.062 41.859 19.688 61.312-40.688 62.625-111.47 104.16-191.76 104.16-126.37 0-229.22-102.7-229.22-229.08 0-80.297 41.531-151.08 104.16-191.86 6.2344-4.2188 12.844-8.0625 19.547-11.391 31.547-16.688 67.453-25.922 105.47-25.922 22.781 0 44.859-3.1406 65.859-9 21.469-5.8594 41.766-14.625 60.469-26.062 6-3.375 11.766-7.2188 17.391-11.297 22.078-15.844 41.391-35.156 57.141-57.234 4.0781-5.5312 7.9219-11.391 11.297-17.297 11.297-18.703 20.062-39 25.922-60.469 5.8594-21 9-43.078 9-65.859s-3.1406-44.859-9-65.859c-5.8594-21.469-14.625-41.766-25.922-60.469-3.375-5.8594-7.2188-11.766-11.297-17.297-44.766-62.625-118.22-103.55-200.86-103.55-136.31 0-247.22 110.86-247.22 247.22 0 82.688 40.781 156 103.31 200.86-14.531 7.5469-28.312 16.219-41.297 25.922-65.766-53.766-107.77-135.47-107.77-226.78zm705.61 172.08c-21.375 4.4531-42 11.062-61.453 19.781-26.625-17.297-49.547-40.219-66.844-66.844 8.7656-19.453 15.375-40.078 19.781-61.453 18.609 50.062 58.453 89.859 108.47 108.47zm-101.91-172.08c0-91.219 74.297-165.47 165.47-165.47 91.312 0 165.47 74.297 165.47 165.47 0 91.312-74.156 165.47-165.47 165.47-91.219 0-165.47-74.156-165.47-165.47zm-247.18 304.22c21.375-4.4531 41.859-11.062 61.312-19.688 26.766 17.297 49.547 40.078 66.844 66.844-8.625 19.453-15.375 40.078-19.688 61.453-18.609-50.156-58.453-90-108.47-108.61zm101.86 172.22c0 91.219-74.297 165.47-165.47 165.47-91.312 0-165.61-74.297-165.61-165.47 0-91.312 74.297-165.61 165.61-165.61 91.219 0 165.47 74.297 165.47 165.61zm-21.844-200.9c14.531-7.5469 28.312-16.312 41.391-25.922 15.234 12.469 29.297 26.531 41.625 41.766-9.7031 12.938-18.375 26.766-25.781 41.297-15.844-22.078-35.156-41.391-57.234-57.141zm55.922-37.312c13.922-11.766 26.859-24.703 38.625-38.625 11.766 13.922 24.609 26.859 38.625 38.625-14.062 11.625-26.859 24.609-38.625 38.625-11.766-14.062-24.703-27-38.625-38.625zm50.062-53.156c9.6094-13.078 18.375-26.859 25.781-41.297 15.703 22.078 35.062 41.297 57 57.141-14.391 7.5469-28.219 16.219-41.297 25.781-15.234-12.469-29.156-26.391-41.531-41.625zm-249.61 584.16c-161.53 0-292.92-131.39-292.92-292.78 0-91.453 42.141-173.16 107.86-226.78 4.9219-4.0781 9.8438-7.7812 15-11.391 13.688-9.9375 28.219-18.609 43.547-25.922 6.7031-3.2344 13.688-6.375 20.766-9 32.766-12.844 68.391-19.781 105.7-19.781 22.312 0 43.781-4.0781 63.609-11.391 50.062-18.609 89.859-58.453 108.47-108.47 7.3125-19.781 11.391-41.297 11.391-63.609s-4.0781-43.781-11.391-63.609c-25.922-69.938-93.234-119.86-172.08-119.86-101.3 0-183.61 82.312-183.61 183.47 0 78.844 49.922 146.16 119.86 172.08-21.375 4.4531-42 11.062-61.453 19.781-62.625-40.922-104.06-111.7-104.06-191.86 0-126.37 102.84-229.22 229.22-229.22 80.297 0 151.08 41.531 191.86 104.3 4.2188 6.2344 7.9219 12.703 11.297 19.453 16.688 31.547 25.922 67.453 25.922 105.47 0 38.062-9.2344 73.922-25.922 105.47-3.375 6.7031-7.0781 13.219-11.297 19.453-17.297 26.766-40.219 49.547-66.844 66.938-6.2344 4.2188-12.703 7.9219-19.312 11.391-31.547 16.547-67.547 25.922-105.7 25.922-22.781 0-44.859 3.1406-65.859 9-21.469 5.8594-41.766 14.625-60.469 25.922-6 3.4688-11.766 7.2188-17.391 11.297-62.625 44.859-103.45 118.31-103.45 201 0 136.22 110.86 247.08 247.22 247.08 82.688 0 156-40.781 200.76-103.45 7.5469 14.531 16.219 28.312 25.922 41.391-53.766 65.766-135.37 107.77-226.69 107.77zm0-603.71c-91.312 0-165.61-74.156-165.61-165.47 0-91.219 74.297-165.47 165.61-165.47 91.219 0 165.47 74.297 165.47 165.47 0 91.312-74.297 165.47-165.47 165.47zm476.29 603.71c-91.312 0-172.92-42-226.69-107.77-3.9375-4.9219-7.9219-9.9375-11.391-15.141-9.9375-13.688-18.703-28.312-26.062-43.688-3.2344-6.7031-6.2344-13.688-9-20.766-12.703-32.625-19.688-68.297-19.688-105.47 0-37.219 6.9375-72.703 19.688-105.47 2.7656-7.0781 5.7656-14.062 9-20.859 7.4531-15.375 16.078-29.859 26.062-43.547 3.4688-5.1562 7.3125-10.219 11.391-15.141 12.375-15.234 26.391-29.297 41.625-41.766 4.9219-3.9375 9.9375-7.7812 15.141-11.391 13.688-9.9375 28.219-18.609 43.547-25.922 6.7031-3.2344 13.688-6.375 20.766-9 32.766-12.844 68.391-19.781 105.61-19.781 22.453 0 43.781-4.0781 63.609-11.391 69.938-25.922 119.86-93.234 119.86-172.08 0-101.16-82.312-183.47-183.47-183.47-78.844 0-146.16 49.922-172.08 119.86-4.4531-21.375-11.062-42-19.781-61.453 40.781-62.625 111.61-104.16 191.86-104.16 126.37 0 229.22 102.84 229.22 229.22 0 80.297-41.531 151.08-104.16 191.86-6.2344 4.2188-12.703 8.0625-19.453 11.391-31.688 16.547-67.547 25.922-105.61 25.922-22.781 0-44.859 3.1406-65.859 9-21.469 5.8594-41.766 14.625-60.469 25.922-6 3.4688-11.766 7.2188-17.391 11.297-22.078 15.844-41.297 35.156-57.141 57.141-4.0781 5.625-7.9219 11.391-11.391 17.391-11.297 18.703-20.062 39-25.922 60.609-5.8594 21-9 43.078-9 65.859s3.1406 44.859 9 65.859c5.8594 21.469 14.625 41.766 26.062 60.469 3.375 6 7.2188 11.766 11.297 17.391 44.859 62.531 118.22 103.31 200.86 103.31 136.31 0 247.22-110.86 247.22-247.08 0-82.688-40.781-156.14-103.45-201 14.391-7.4531 28.219-16.219 41.297-25.781 65.766 53.625 107.77 135.37 107.77 226.78 0 161.39-131.29 292.78-292.78 292.78z"/>
 <path d="m847.22 966.94c66.141 0 119.86-53.766 119.86-119.77 0-66.141-53.766-119.86-119.86-119.86-66.141 0-119.86 53.766-119.86 119.86 0 66 53.766 119.77 119.86 119.77zm0-221.63c56.156 0 101.86 45.703 101.86 101.86s-45.703 101.77-101.86 101.77-101.86-45.609-101.86-101.77 45.703-101.86 101.86-101.86z"/>
 <path d="m847.22 903.37c30.938 0 56.156-25.219 56.156-56.156 0-31.078-25.219-56.297-56.156-56.297s-56.156 25.219-56.156 56.297c0 30.938 25.219 56.156 56.156 56.156zm0-94.453c21.141 0 38.156 17.156 38.156 38.297 0 21-17.062 38.156-38.156 38.156-21 0-38.156-17.156-38.156-38.156 0-21.141 17.156-38.297 38.156-38.297z"/>
 <path d="m370.92 250.92c-66.141 0-119.86 53.766-119.86 119.86 0 66.141 53.766 119.86 119.86 119.86 66 0 119.77-53.766 119.77-119.86 0-66.141-53.766-119.86-119.77-119.86zm0 221.76c-56.156 0-101.86-45.703-101.86-101.86s45.703-101.86 101.86-101.86 101.77 45.703 101.77 101.86-45.609 101.86-101.77 101.86z"/>
 <path d="m370.92 314.63c-31.078 0-56.297 25.219-56.297 56.156s25.219 56.156 56.297 56.156c30.938 0 56.156-25.219 56.156-56.156s-25.219-56.156-56.156-56.156zm0 94.312c-21.141 0-38.297-17.062-38.297-38.156 0-21 17.156-38.156 38.297-38.156 21 0 38.156 17.156 38.156 38.156 0 21.141-17.156 38.156-38.156 38.156z"/>
 <path d="m847.22 490.69c66.141 0 119.86-53.766 119.86-119.86 0-66.141-53.766-119.86-119.86-119.86-66.141 0-119.86 53.766-119.86 119.86 0 66.141 53.766 119.86 119.86 119.86zm0-221.76c56.156 0 101.86 45.703 101.86 101.86s-45.703 101.86-101.86 101.86-101.86-45.703-101.86-101.86 45.703-101.86 101.86-101.86z"/>
 <path d="m847.22 426.94c30.938 0 56.156-25.219 56.156-56.156s-25.219-56.156-56.156-56.156-56.156 25.219-56.156 56.156 25.219 56.156 56.156 56.156zm0-94.312c21.141 0 38.156 17.156 38.156 38.156 0 21.141-17.062 38.156-38.156 38.156-21 0-38.156-17.062-38.156-38.156 0-21 17.156-38.156 38.156-38.156z"/>
</svg>
