<?xml version="1.0" encoding="UTF-8"?>
<svg width="1200pt" height="1200pt" version="1.1" viewBox="0 0 1200 1200" xmlns="http://www.w3.org/2000/svg">
 <path d="m1144.5 32.695c0-4.418 3.582-8 8-8 4.418 0 8 3.582 8 8v429.26c0 4.418-3.582 8-8 8-4.418 0-8-3.582-8-8zm-1111 1128.6c-4.418 0-8-3.582-8-8s3.582-8 8-8h429.26c4.418 0 8 3.582 8 8s-3.582 8-8 8zm343.29-97.492c4.418 0 8 3.582 8 8 0 4.418-3.582 8-8 8h-343.29c-4.418 0-8-3.582-8-8 0-4.418 3.582-8 8-8zm185.88-76.914-84.574 84.574 84.574 84.574 41.016-41.016-37.898-37.898c-3.125-3.125-3.125-8.1875 0-11.312l37.898-37.898-41.016-41.016zm-101.54 78.918 95.887-95.887c3.125-3.125 8.1875-3.125 11.312 0l46.672 46.672 46.672-46.672c3.125-3.125 8.1875-3.125 11.312 0l44.898 44.898 29.75-29.723c1.4688-1.7031 3.6406-2.7852 6.0664-2.7852h63.746v-150.97c0-4.418 3.582-8 8-8h156.07v-70.402c0-2.4258 1.0781-4.5977 2.7852-6.0664l29.723-29.75-44.898-44.898c-3.125-3.125-3.125-8.1875 0-11.312l46.672-46.672-46.672-46.672c-3.125-3.125-3.125-8.1875 0-11.312l95.887-95.887c3.125-3.125 8.1875-3.125 11.312 0l95.887 95.887c3.125 3.125 3.125 8.1875 0 11.312l-46.672 46.672 46.672 46.672c3.125 3.125 3.125 8.1875 0 11.312l-44.688 44.688 30.602 30.375c1.5664 1.5586 2.3516 3.6055 2.3516 5.6562h0.023438v235.62c0.125 0.56641 0.19531 1.1523 0.19531 1.7578v162.98c0 4.418-3.582 8-8 8h-398.99v-0.023437c-2.0469 0-4.0977-0.78516-5.6562-2.3516l-30.375-30.602-44.688 44.688c-3.125 3.125-8.1875 3.125-11.312 0l-46.672-46.672-46.672 46.672c-3.125 3.125-8.1875 3.125-11.312 0l-95.887-95.887c-3.125-3.125-3.125-8.1875 0-11.312zm372.32-83.492h148.07v-142.97h-148.07zm164.07 0h65.465v-142.97h-65.465zm81.465 0h65.516v-226.07l-28.258-28.047-39.918 39.918c-3.125 3.125-8.1875 3.125-11.312 0l-39.703-39.703-27.789 27.812v67.121h73.465c4.418 0 8 3.582 8 8zm-463.98 121.39 32.242-32.242-32.242-32.242-32.242 32.242zm49.211-26.586-37.898 37.898 41.016 41.016 39.074-39.074-39.574-39.875c-0.51953-0.51953-0.94922-1.0977-1.293-1.707-0.35156 0.62109-0.78906 1.207-1.3203 1.7383zm0-11.312c0.53125 0.53125 0.96875 1.1172 1.3203 1.7383 0.35156-0.62109 0.79297-1.207 1.3242-1.7383l39.711-39.676-39.238-39.238-41.016 41.016zm53.469 39.875 34.219-34.219-34.051-34.051-34.105 34.074zm51.188-28.562-39.918 39.918 28.047 28.258h224.52v-60.426h-156.07c-4.418 0-8-3.582-8-8v-78.559h-60.469l-27.812 27.789 39.703 39.703c3.125 3.125 3.125 8.1875 0 11.312zm375.63-78.805h-65.516v78.559c0 4.418-3.582 8-8 8h-73.465v59.059h146.98v-145.62zm-81.516 0h-65.465v70.559h65.465zm-81.465 0h-148.07v70.559h148.07zm97.492-622.29c0 4.418-3.582 8-8 8-4.418 0-8-3.582-8-8v-343.29c0-4.418 3.582-8 8-8 4.418 0 8 3.582 8 8zm-8.3438 101.31-84.574 84.574 41.016 41.016 37.898-37.898c3.125-3.125 8.1875-3.125 11.312 0l37.898 37.898 41.016-41.016-84.574-84.574zm43.555 148.21-37.898 37.898c-0.53125 0.53125-1.1172 0.96875-1.7383 1.3203 0.60938 0.34375 1.1875 0.77734 1.707 1.293l39.875 39.574 39.074-39.074-41.016-41.016zm-43.555 20.93 32.242-32.242-32.242-32.242-32.242 32.242zm-3.918 18.289c-0.62109-0.35156-1.207-0.78906-1.7383-1.3203l-37.898-37.898-41.016 41.016 39.238 39.238 39.676-39.711c0.52734-0.53125 1.1133-0.97266 1.7383-1.3242zm3.918 86.371 34.219-34.219-34.195-33.938-34.074 34.105z"/>
</svg>
