<?xml version="1.0" encoding="UTF-8"?>
<svg width="1200pt" height="1200pt" version="1.1" viewBox="0 0 1200 1200" xmlns="http://www.w3.org/2000/svg">
 <path d="m983.62 3.7148-69.645 40.609v29.035h29.035zm-63.566 63.57v-19.469l46.695-27.23-27.23 46.695z"/>
 <path d="m216.38 1196.3 69.645-40.609v-29.035h-29.035zm63.566-63.57v19.469l-46.695 27.23 27.23-46.695z"/>
 <path d="m978.23 1080.6v-450.45h-6.0742v41.852l-14.109-14.238v-37.75l18.551-18.551-18.551-18.551v-40.66l14.109-14.242v41.852h6.0742v-450.45l-35.824-35.824h-38.641v-38.641l-35.824-35.824h-237.79v6.0742h41.852l-14.238 14.109h-37.75l-18.551-18.551-18.551 18.551h-40.66l-14.238-14.105h41.852v-6.0742l-189.09-0.003907h-48.711l-35.824 35.824v38.641h-38.641l-35.824 35.824v450.45h6.0742v-41.852l14.109 14.238v37.75l-18.551 18.551 18.551 18.551v40.66l-14.109 14.242v-41.852h-6.0742v450.45l35.824 35.824h38.641v38.641l35.824 35.824h237.79v-6.0742h-41.852l14.238-14.109h37.75l18.551 18.551 18.551-18.551h40.66l14.238 14.105h-41.852v6.0742h189.08l0.14062 0.003907h48.574l35.824-35.824v-38.641h38.641zm-26.258-469.18-9.957-9.957 9.957-9.957zm0-28.512-18.551 18.555 18.551 18.551v10.609l-29.16-29.16 29.16-29.16zm16.035 18.555-9.9609 9.957v-19.918zm-53.789 0 37.75 37.754v12.125l-49.879-49.875 49.879-49.875v12.125zm-1.0469-511.8 14.402 14.402h-44.289l0.003906-44.289 14.402 14.402v15.484zm-48.957-48.957 12.996 12.996v56.441h56.441l12.996 12.996h-82.43zm-262.75-21.359 9.957 9.957h-19.914zm9.957 16.035-9.957 9.957-9.957-9.957zm-28.508 0 18.551 18.551 18.551-18.551h10.609l-29.16 29.16-29.16-29.16zm-19.203 0 37.754 37.754 37.754-37.754h12.125l-49.879 49.875-49.879-49.875zm-261.39 54.281v-15.484l14.402-14.402v44.289h-44.289l14.402-14.402zm-35.961 20.477h56.441v-56.438l12.996-12.996v82.434h-82.43zm-18.32 478.45 9.957 9.957-9.957 9.957zm0 28.512 18.551-18.555-18.551-18.551v-10.609l29.16 29.16-29.16 29.16zm-16.035-18.555 9.9609-9.957v19.918zm53.789 0-37.75-37.754v-12.125l49.879 49.875-49.879 49.875v-12.125zm1.0469 511.8-14.402-14.402h44.289v44.289l-14.402-14.402v-15.484zm48.957 48.957-12.996-12.996v-56.441l-56.441 0.003907-12.996-12.996h82.43zm262.75 21.359-9.957-9.957h19.914zm-9.957-16.035 9.957-9.957 9.957 9.957zm28.508 0-18.551-18.551-18.551 18.551h-10.609l29.16-29.16 29.16 29.16zm19.203 0-37.754-37.754-37.754 37.754h-12.125l49.879-49.875 49.879 49.875zm261.39-54.281v15.484l-14.402 14.402v-44.289h44.289l-14.402 14.402zm35.961-20.477h-56.441v56.441l-12.996 12.996v-82.434h82.43zm-11.887 20.477 34.988-34.988v-380.78h-6.0742v376.22h-92.539v92.539h-163.56v6.0742h168.12l34.988-34.988v18.125l-32.262 32.266h-46.184l-138.77-0.15234-17.32-17.16 17.27-17.082 150.37 0.15234 0.007812-6.0742-152.87-0.15625-20.715 20.488-58.668-58.668-57.223 57.223-19.25-19.043-152.87 0.15625 0.007813 6.0742 150.37-0.15234 17.27 17.082-17.32 17.16-138.9 0.15234h-46.055l-32.266-32.266v-18.125l34.988 34.988h168.12v-6.0742h-163.56v-92.539h-92.539v-376.22h-6.0742v380.78l34.988 34.988h-18.125l-32.266-32.266v-46.051l0.15234-351.56 17.16-17.316 17.082 17.266-0.15234 363.03 6.0742 0.007812 0.15625-365.53-20.488-20.711 58.668-58.668-57.219-57.227 19.043-19.25-0.15625-365.53-6.0742 0.007813 0.15234 363.03-17.082 17.266-17.16-17.316-0.15625-351.56v-46.051l32.266-32.266h18.125l-34.988 34.988v380.78h6.0742v-376.22h92.539v-92.539h163.56v-6.0742l-168.12-0.003906-34.988 34.988v-18.125l32.266-32.262h46.184l138.77 0.15234 17.32 17.16-17.27 17.082-150.37-0.15625-0.007812 6.0742 152.87 0.15625 20.715-20.488 58.668 58.668 57.223-57.223 19.25 19.043 152.87-0.15625-0.007813-6.0742-150.37 0.15234-17.27-17.082 17.32-17.16 138.9-0.14844h46.051l32.266 32.266v18.125l-34.988-34.988-168.12-0.003906v6.0742h163.56v92.539h92.539v376.22h6.0742v-380.78l-34.988-34.988h18.125l32.266 32.266v46.051l-0.15234 351.56-17.16 17.316-17.082-17.266 0.15234-363.03-6.0742-0.007813-0.15625 365.53 20.488 20.711-58.668 58.668 57.223 57.223-19.043 19.25 0.15625 365.53 6.0742-0.007813-0.15234-363.03 17.082-17.266 17.16 17.316 0.15234 351.56v46.051l-32.266 32.266z"/>
 <path d="m913.98 1126.6v29.035l69.645 40.609-40.609-69.645zm6.0781 25.543v-19.469h19.465l27.23 46.695z"/>
 <path d="m286.02 73.359v-29.035l-69.645-40.609 40.609 69.645zm-6.0781-25.543v19.469h-19.465l-27.23-46.699z"/>
</svg>
