<?xml version="1.0" encoding="UTF-8"?>
<svg width="1200pt" height="1200pt" version="1.1" viewBox="0 0 1200 1200" xmlns="http://www.w3.org/2000/svg">
 <path d="m41.402 75.801c-4.418 0-8-3.582-8-8s3.582-8 8-8h892.82c4.418 0 8 3.582 8 8v76.746h52.75v-102.25c0-4.418 3.582-8 8-8h155.62c4.418 0 8 3.582 8 8v155.62c0 4.418-3.582 8-8 8h-102.97v50.961h75.668c4.418 0 8 3.582 8 8v892.82c0 4.418-3.582 8-8 8s-8-3.582-8-8v-884.82h-67.668v774.75c0 2.7617-2.2383 5-5 5-2.7617 0-5-2.2383-5-5v-774.75h-111.12c-2.3242 0-4.418-0.99219-5.8789-2.5742-1.4805-1.4531-2.3984-3.4727-2.3984-5.7109v-110.05h-773.48c-2.7617 0-5-2.2383-5-5s2.2383-5 5-5h773.48v-68.746zm900.82 78.746v102.34h103.4v-50.961h-42.652c-4.418 0-8-3.582-8-8v-43.375zm68.75-10h39.773c2.7617 0 5 2.2383 5 5 0 0.375-0.042969 0.74219-0.12109 1.0938v39.277h94.969v-139.62h-139.62v94.25zm34.652 10h-34.652v35.375h34.652z"/>
</svg>
