<?xml version="1.0" encoding="UTF-8"?>
<svg width="1200pt" height="1200pt" version="1.1" viewBox="0 0 1200 1200" xmlns="http://www.w3.org/2000/svg">
 <path d="m511.55 163.24h184.15c4.418 0 8 3.582 8 8v89.367h42.801c4.418 0 8 3.582 8 8v119h51.266c4.418 0 8 3.582 8 8 0 0.24219-0.011719 0.47656-0.03125 0.71484l-0.52734 408.33c0 4.4023-3.5664 7.9688-7.9688 7.9688v0.03125h-50.738v118.47c0 4.418-3.582 8-8 8h-42.801v89.367c0 4.418-3.582 8-8 8h-184.15c-4.418 0-8-3.582-8-8v-89.367h-42.801c-4.418 0-8-3.582-8-8v-118.57l-51.328-0.46094c-4.3789-0.035156-7.9062-3.5977-7.9062-7.9688h-0.03125v-408.52c0-4.418 3.582-8 8-8h51.266v-119c0-4.418 3.582-8 8-8h42.801v-89.367c0-4.418 3.582-8 8-8zm-125.89 500.62c3.8125-1.0273 4.9883-5.8477 2.0781-8.5234-1.2734-1.1562-3.0039-1.5742-4.6641-1.1367l-48.297 12.941c-3.8125 1.0273-4.9883 5.8477-2.0781 8.5234 1.2734 1.1562 3.0039 1.5742 4.6641 1.1367zm-321.34 75.75c-3.8125 1.0273-4.9883 5.8477-2.0781 8.5234 1.2734 1.1562 3.0039 1.5742 4.6641 1.1367l9.6602-2.5898c3.8125-1.0273 4.9883-5.8477 2.0781-8.5234-1.2734-1.1562-3.0039-1.5742-4.6641-1.1367zm38.637-10.352c-3.8125 1.0273-4.9883 5.8477-2.0781 8.5234 1.2734 1.1562 3.0039 1.5742 4.6641 1.1367l48.297-12.941c3.8125-1.0273 4.9883-5.8477 2.0781-8.5234-1.2734-1.1562-3.0039-1.5742-4.6641-1.1367zm77.273-20.707c-3.8125 1.0273-4.9883 5.8477-2.0781 8.5234 1.2734 1.1562 3.0039 1.5742 4.6641 1.1367l9.6602-2.5898c3.8125-1.0273 4.9883-5.8477 2.0781-8.5234-1.2734-1.1562-3.0039-1.5742-4.6641-1.1367zm38.637-10.352c-3.8125 1.0273-4.9883 5.8477-2.0781 8.5234 1.2734 1.1562 3.0039 1.5742 4.6641 1.1367l48.297-12.941c3.8125-1.0273 4.9883-5.8477 2.0781-8.5234-1.2734-1.1562-3.0039-1.5742-4.6641-1.1367zm77.273-20.707c-3.8125 1.0273-4.9883 5.8477-2.0781 8.5234 1.2734 1.1562 3.0039 1.5742 4.6641 1.1367l9.6602-2.5898c3.8125-1.0273 4.9883-5.8477 2.0781-8.5234-1.2734-1.1562-3.0039-1.5742-4.6641-1.1367zm82.207 58.641c3.3945-1.9648 3.3086-6.8867-0.14453-8.7422-1.5508-0.80859-3.332-0.78906-4.8555 0.082031l-43.301 25-0.003906 0.003907-7.7266 4.4609c-3.3945 1.9648-3.3086 6.8867 0.14453 8.7422 1.5508 0.80859 3.332 0.78906 4.8555-0.082032l43.301-25 0.003906-0.003906zm-284.38 152.64c-1.0703 0.62109-1.7969 1.5352-2.1758 2.5547-1.1172-0.18359-2.2656 0.015625-3.2969 0.60547l-8.6602 5c-3.3945 1.9648-3.3086 6.8867 0.14453 8.7422 1.5508 0.80859 3.332 0.78906 4.8555-0.082032l8.6602-5c1.0703-0.62109 1.7969-1.5352 2.1758-2.5547 1.1172 0.18359 2.2656-0.015625 3.2969-0.60547l2.2578-1.3008c3.3945-1.9648 3.3086-6.8867-0.14453-8.7422-1.5508-0.80859-3.332-0.78906-4.8555 0.082031zm28.238-16.301-0.007813 0.003907-7.7227 4.457c-3.3945 1.9648-3.3086 6.8867 0.14453 8.7422 1.5508 0.80859 3.332 0.78906 4.8555-0.082032l43.301-25 0.007812-0.003906 7.7227-4.457c3.3945-1.9648 3.3086-6.8867-0.14453-8.7422-1.5508-0.80859-3.332-0.78906-4.8555 0.082031zm69.281-40-0.003906 0.003907-7.7227 4.4609c-3.3945 1.9648-3.3086 6.8867 0.14453 8.7422 1.5508 0.80859 3.332 0.78906 4.8555-0.082032l8.6602-5 0.003906-0.003906 7.7227-4.4609c3.3945-1.9648 3.3086-6.8867-0.14453-8.7422-1.5508-0.80859-3.332-0.78906-4.8555 0.082031zm34.641-20-0.007812 0.003907-7.7227 4.4609c-3.3945 1.9648-3.3086 6.8867 0.14453 8.7422 1.5508 0.80859 3.332 0.78906 4.8555-0.082032l43.301-25 0.007813-0.003906 7.7227-4.4609c3.3945-1.9648 3.3086-6.8867-0.14453-8.7422-1.5508-0.80859-3.332-0.78906-4.8555 0.082031zm69.281-40-7.7305 4.4609c-3.3945 1.9648-3.3086 6.8867 0.14453 8.7422 1.5508 0.80859 3.332 0.78906 4.8555-0.082032l8.6602-5 7.7305-4.4609c3.3945-1.9648 3.3086-6.8867-0.14453-8.7422-1.5508-0.80859-3.332-0.78906-4.8555 0.082031zm89.934 53.215c1.7539-1.7695 1.9609-4.5117 0.48047-6.5156-1.832-2.457-5.3789-2.707-7.5508-0.55469l-35.355 35.355c-1.7539 1.7695-1.9609 4.5117-0.48047 6.5156 1.832 2.457 5.3789 2.707 7.5508 0.55469zm-199.3 185.16c-1.7539 1.7695-1.9609 4.5117-0.48047 6.5156 1.832 2.457 5.3789 2.707 7.5508 0.55469l22.527-22.527c1.7539-1.7695 1.9609-4.5117 0.48047-6.5156-1.832-2.457-5.3789-2.707-7.5508-0.55469zm43.742-43.742c-1.7539 1.7695-1.9609 4.5117-0.48047 6.5156 1.832 2.457 5.3789 2.707 7.5508 0.55469l7.0703-7.0703c1.7539-1.7695 1.9609-4.5117 0.48047-6.5156-1.832-2.457-5.3789-2.707-7.5508-0.55469zm28.285-28.285c-1.7539 1.7695-1.9609 4.5117-0.48047 6.5156 1.832 2.457 5.3789 2.707 7.5508 0.55469l35.355-35.355c1.7539-1.7695 1.9609-4.5117 0.48047-6.5156-1.832-2.457-5.3789-2.707-7.5508-0.55469zm56.57-56.57c-1.7539 1.7695-1.9609 4.5117-0.48047 6.5156 1.832 2.457 5.3789 2.707 7.5508 0.55469l7.0703-7.0703c1.7539-1.7695 1.9609-4.5117 0.48047-6.5156-1.832-2.457-5.3789-2.707-7.5508-0.55469zm177.23 154.83c0.95703-3.6406-2.2539-6.9922-5.9336-6.1719-1.8164 0.42188-3.2383 1.7773-3.7227 3.582l-12.941 48.297c-0.95703 3.6406 2.2539 6.9922 5.9336 6.1719 1.8164-0.42188 3.2383-1.7773 3.7227-3.582zm-44.527 127.54c-0.95703 3.6406 2.2539 6.9922 5.9336 6.1719 1.8164-0.42187 3.2383-1.7773 3.7227-3.582l3.8086-14.215c0.95703-3.6406-2.2539-6.9922-5.9336-6.1719-1.8164 0.42188-3.2383 1.7773-3.7227 3.582zm11.574-43.191c-0.95703 3.6406 2.2539 6.9922 5.9336 6.1719 1.8164-0.42188 3.2383-1.7773 3.7227-3.582l2.5898-9.6602c0.95703-3.6406-2.2539-6.9922-5.9336-6.1719-1.8164 0.42188-3.2383 1.7773-3.7227 3.582zm262.21-102.65c-1.0273-3.8125-5.8477-4.9883-8.5234-2.0781-1.1562 1.2734-1.5742 3.0039-1.1367 4.6641l12.941 48.297c1.0273 3.8125 5.8477 4.9883 8.5234 2.0781 1.1562-1.2734 1.5742-3.0039 1.1367-4.6641zm29.398 148.36c1.0273 3.8125 5.8477 4.9883 8.5234 2.0781 1.1562-1.2734 1.5742-3.0039 1.1367-4.6641l-8-29.859c-1.0273-3.8125-5.8477-4.9883-8.5234-2.0781-1.1562 1.2734-1.5742 3.0039-1.1367 4.6641zm-15.766-58.836c1.0273 3.8125 5.8477 4.9883 8.5234 2.0781 1.1562-1.2734 1.5742-3.0039 1.1367-4.6641l-2.5898-9.6602c-1.0273-3.8125-5.8477-4.9883-8.5234-2.0781-1.1562 1.2734-1.5742 3.0039-1.1367 4.6641zm43.992-215.12c-1.9648-3.3945-6.8867-3.3086-8.7422 0.14453-0.80859 1.5508-0.78906 3.332 0.082032 4.8555l1.707 2.957v0.003907l25 43.301c1.9648 3.3945 6.8867 3.3086 8.7422-0.14453 0.80859-1.5508 0.78906-3.332-0.082031-4.8555l-1.707-2.957v-0.003907zm113.52 216.62 0.003906 0.003906 24.523 42.48c1.9648 3.3945 6.8867 3.3086 8.7422-0.14453 0.80859-1.5508 0.78906-3.332-0.082031-4.8555l-25-43.301-0.003906-0.003907-1.707-2.9531c-1.9648-3.3945-6.8867-3.3086-8.7422 0.14453-0.80859 1.5508-0.78906 3.332 0.082031 4.8555l2.1797 3.7773zm-17.18-29.758v0.003907l1.707 2.957c1.9648 3.3945 6.8867 3.3086 8.7422-0.14453 0.80859-1.5508 0.78906-3.332-0.082031-4.8555l-5-8.6602v-0.003906l-1.707-2.957c-1.9648-3.3945-6.8867-3.3086-8.7422 0.14453-0.80859 1.5508-0.78906 3.332 0.082032 4.8555zm-20-34.641v0.003906l1.707 2.957c1.9648 3.3945 6.8867 3.3086 8.7422-0.14453 0.80859-1.5508 0.78906-3.332-0.082031-4.8555l-17.16-29.727-9.5469-16.535c-1.9648-3.3945-6.8867-3.3086-8.7422 0.14453-0.80859 1.5508-0.78906 3.332 0.082032 4.8555l1.707 2.957v0.003906l7.8398 13.578 15.453 26.766zm-31.336-74.277v-0.003906l-5-8.6602c-1.9648-3.3945-6.8867-3.3086-8.7422 0.14453-0.80859 1.5508-0.78906 3.332 0.082032 4.8555l1.707 2.957v0.003907l5 8.6602c1.9648 3.3945 6.8867 3.3086 8.7422-0.14453 0.80859-1.5508 0.78906-3.332-0.082031-4.8555zm4.8203-153.31c-1.7695-1.7539-4.5117-1.9609-6.5156-0.48047-2.457 1.832-2.707 5.3789-0.55469 7.5508l35.355 35.355c1.7695 1.7539 4.5117 1.9609 6.5156 0.48047 2.457-1.832 2.707-5.3789 0.55469-7.5508zm185.77 199.91c1.7695 1.7539 4.5117 1.9609 6.5156 0.48047 2.457-1.832 2.707-5.3789 0.55469-7.5508l-23.137-23.137c-1.7695-1.7539-4.5117-1.9609-6.5156-0.48047-2.457 1.832-2.707 5.3789-0.55469 7.5508zm-44.352-44.352c1.7695 1.7539 4.5117 1.9609 6.5156 0.48047 2.457-1.832 2.707-5.3789 0.55469-7.5508l-7.0703-7.0703c-1.7695-1.7539-4.5117-1.9609-6.5156-0.48047-2.457 1.832-2.707 5.3789-0.55469 7.5508zm-28.285-28.285c1.7695 1.7539 4.5117 1.9609 6.5156 0.48047 2.457-1.832 2.707-5.3789 0.55469-7.5508l-35.355-35.355c-1.7695-1.7539-4.5117-1.9609-6.5156-0.48047-2.457 1.832-2.707 5.3789-0.55469 7.5508zm-56.57-56.57c1.7695 1.7539 4.5117 1.9609 6.5156 0.48047 2.457-1.832 2.707-5.3789 0.55469-7.5508l-7.0703-7.0703c-1.7695-1.7539-4.5117-1.9609-6.5156-0.48047-2.457 1.832-2.707 5.3789-0.55469 7.5508zm-59.848-154.8 3.6211 2.0898zm288.15 154.82-0.011719-0.007812-6.0078-3.4688c-3.668-2.0977-8.1094 0.97656-7.4297 5.1562 0.26172 1.4883 1.1211 2.7461 2.4297 3.5039l3.6172 2.0859 0.011719 0.007812 8.6602 5c3.668 2.0977 8.1094-0.97656 7.4297-5.1562-0.26172-1.4883-1.1211-2.7461-2.4297-3.5039l-6.2695-3.6211zm-31.984-18.465-0.015625-0.007813-43.301-25c-3.668-2.0977-8.1094 0.97656-7.4297 5.1562 0.26172 1.4883 1.1211 2.7461 2.4297 3.5039l3.6133 2.0859 0.015625 0.007812 43.301 25c3.668 2.0977 8.1094-0.97656 7.4297-5.1562-0.26172-1.4883-1.1211-2.7461-2.4297-3.5039zm-69.285-40-0.015624-0.007813-8.6602-5c-3.668-2.0977-8.1094 0.97656-7.4297 5.1562 0.26172 1.4883 1.1211 2.7461 2.4297 3.5039l3.6133 2.0859 0.015626 0.007812 8.6602 5c3.668 2.0977 8.1094-0.97656 7.4297-5.1562-0.26172-1.4883-1.1211-2.7461-2.4297-3.5039zm-34.641-20-0.015626-0.007813-43.301-25c-3.668-2.0977-8.1094 0.97656-7.4297 5.1562 0.26172 1.4883 1.1211 2.7461 2.4297 3.5039l3.6133 2.0859 0.015626 0.007812 43.301 25c3.668 2.0977 8.1094-0.97656 7.4297-5.1562-0.26172-1.4883-1.1211-2.7461-2.4297-3.5039zm-82.957-36.348 3.625 2.0938zm-70.32-119.79c-3.5742-0.9375-6.8672 2.1211-6.207 5.7578 0.36719 1.8945 1.75 3.3984 3.6211 3.9023l48.297 12.941c3.5742 0.9375 6.8672-2.1211 6.207-5.7578-0.36719-1.8945-1.75-3.3984-3.6211-3.9023zm316.17 95.07c3.5742 0.9375 6.8672-2.1211 6.207-5.7578-0.36719-1.8945-1.75-3.3984-3.6211-3.9023l-9.6602-2.5898c-3.5742-0.9375-6.8672 2.1211-6.207 5.7578 0.36719 1.8945 1.75 3.3984 3.6211 3.9023zm-38.637-10.352c3.5742 0.9375 6.8672-2.1211 6.207-5.7578-0.36719-1.8945-1.75-3.3984-3.6211-3.9023l-48.297-12.941c-3.5742-0.9375-6.8672 2.1211-6.207 5.7578 0.36719 1.8945 1.75 3.3984 3.6211 3.9023zm-77.273-20.707c3.5742 0.9375 6.8672-2.1211 6.207-5.7578-0.36719-1.8945-1.75-3.3984-3.6211-3.9023l-9.6602-2.5898c-3.5742-0.9375-6.8672 2.1211-6.207 5.7578 0.36719 1.8945 1.75 3.3984 3.6211 3.9023zm-38.637-10.352c3.5742 0.9375 6.8672-2.1211 6.207-5.7578-0.36719-1.8945-1.75-3.3984-3.6211-3.9023l-48.297-12.941c-3.5742-0.9375-6.8672 2.1211-6.207 5.7578 0.36719 1.8945 1.75 3.3984 3.6211 3.9023zm-77.273-20.707c3.5742 0.9375 6.8672-2.1211 6.207-5.7578-0.36719-1.8945-1.75-3.3984-3.6211-3.9023l-9.6602-2.5898c-3.5742-0.9375-6.8672 2.1211-6.207 5.7578 0.36719 1.8945 1.75 3.3984 3.6211 3.9023zm-883.59 241.7c-3.3945 1.9648-3.3086 6.8867 0.14453 8.7422 1.5508 0.80859 3.332 0.78906 4.8555-0.082031l28.844-16.652c3.3945-1.9648 3.3086-6.8867-0.14453-8.7422-1.5508-0.80859-3.332-0.78906-4.8555 0.082031zm403.3-14.508c2.0977-3.668-0.97656-8.1094-5.1562-7.4297-1.4883 0.26172-2.7461 1.1211-3.5039 2.4297l-25 43.301c-2.0977 3.668 0.97656 8.1094 5.1562 7.4297 1.4883-0.26172 2.7461-1.1211 3.5039-2.4297zm-153.66 246.15c-2.0977 3.668 0.97656 8.1094 5.1562 7.4297 1.4883-0.26172 2.7461-1.1211 3.5039-2.4297l25-43.301c2.0977-3.668-0.97656-8.1094-5.1562-7.4297-1.4883 0.26172-2.7461 1.1211-3.5039 2.4297zm40-69.281c-2.0977 3.668 0.97656 8.1094 5.1562 7.4297 1.4883-0.26172 2.7461-1.1211 3.5039-2.4297l5-8.6602c2.0977-3.668-0.97656-8.1094-5.1562-7.4297-1.4883 0.26172-2.7461 1.1211-3.5039 2.4297zm20-34.641c-2.0977 3.668 0.97656 8.1094 5.1562 7.4297 1.4883-0.26172 2.7461-1.1211 3.5039-2.4297l25-43.301c2.0977-3.668-0.97656-8.1094-5.1562-7.4297-1.4883 0.26172-2.7461 1.1211-3.5039 2.4297zm40-69.281c-2.0977 3.668 0.97656 8.1094 5.1562 7.4297 1.4883-0.26172 2.7461-1.1211 3.5039-2.4297l5-8.6602c2.0977-3.668-0.97656-8.1094-5.1562-7.4297-1.4883 0.26172-2.7461 1.1211-3.5039 2.4297zm234.12 66.926c-0.023438-3.832-4.1133-6.2305-7.4609-4.3516-1.582 0.90625-2.5273 2.5312-2.5391 4.3516v50c0.023437 3.832 4.1133 6.2305 7.4609 4.3516 1.582-0.90625 2.5273-2.5312 2.5391-4.3516zm-10 136.52c0.023437 3.832 4.1133 6.2305 7.4609 4.3516 1.582-0.90625 2.5273-2.5312 2.5391-4.3516v-16.527c-0.023438-3.832-4.1133-6.2305-7.4609-4.3516-1.582 0.90625-2.5273 2.5312-2.5391 4.3516zm0-46.527c0.023437 3.832 4.1133 6.2305 7.4609 4.3516 1.582-0.90625 2.5273-2.5312 2.5391-4.3516v-10c-0.023438-3.832-4.1133-6.2305-7.4609-4.3516-1.582 0.90625-2.5273 2.5312-2.5391 4.3516zm338.03 42.977c1.9648 3.3945 6.8867 3.3086 8.7422-0.14453 0.80859-1.5508 0.78906-3.332-0.082031-4.8555l-5-8.6602c-1.9648-3.3945-6.8867-3.3086-8.7422 0.14453-0.80859 1.5508-0.78906 3.332 0.082031 4.8555zm-59.574-434.76-3.6211-2.0898zm292.77 180.58c3.668 2.0977 8.1094-0.97656 7.4297-5.1562-0.26172-1.4883-1.1211-2.7461-2.4297-3.5039l-29.301-16.918c-3.668-2.0977-8.1094 0.97656-7.4297 5.1562 0.26172 1.4883 1.1211 2.7461 2.4297 3.5039zm-258.13-160.58-3.625-2.0938zm-528.79-226.36c3.5742 0.9375 6.8672-2.1211 6.207-5.7578-0.36719-1.8945-1.75-3.3984-3.6211-3.9023l-48.297-12.941c-3.5742-0.9375-6.8672 2.1211-6.207 5.7578 0.36719 1.8945 1.75 3.3984 3.6211 3.9023zm-316.17-95.07c-3.5742-0.9375-6.8672 2.1211-6.207 5.7578 0.36719 1.8945 1.75 3.3984 3.6211 3.9023l9.6602 2.5898c3.5742 0.9375 6.8672-2.1211 6.207-5.7578-0.36719-1.8945-1.75-3.3984-3.6211-3.9023zm38.637 10.352c-3.5742-0.9375-6.8672 2.1211-6.207 5.7578 0.36719 1.8945 1.75 3.3984 3.6211 3.9023l48.297 12.941c3.5742 0.9375 6.8672-2.1211 6.207-5.7578-0.36719-1.8945-1.75-3.3984-3.6211-3.9023zm77.273 20.707c-3.5742-0.9375-6.8672 2.1211-6.207 5.7578 0.36719 1.8945 1.75 3.3984 3.6211 3.9023l9.6602 2.5898c3.5742 0.9375 6.8672-2.1211 6.207-5.7578-0.36719-1.8945-1.75-3.3984-3.6211-3.9023zm38.637 10.352c-3.5742-0.9375-6.8672 2.1211-6.207 5.7578 0.36719 1.8945 1.75 3.3984 3.6211 3.9023l48.297 12.941c3.5742 0.9375 6.8672-2.1211 6.207-5.7578-0.36719-1.8945-1.75-3.3984-3.6211-3.9023zm77.273 20.707c-3.5742-0.9375-6.8672 2.1211-6.207 5.7578 0.36719 1.8945 1.75 3.3984 3.6211 3.9023l9.6602 2.5898c3.5742 0.9375 6.8672-2.1211 6.207-5.7578-0.36719-1.8945-1.75-3.3984-3.6211-3.9023zm74.621-40.32c3.668 2.0977 8.1094-0.97656 7.4297-5.1562-0.26172-1.4883-1.1211-2.7461-2.4297-3.5039l-7.7227-4.457-0.007813-0.003906-43.301-25c-3.668-2.0977-8.1094 0.97656-7.4297 5.1562 0.26172 1.4883 1.1211 2.7461 2.4297 3.5039l7.7227 4.457 0.007813 0.003906zm-274.38-169.96c-1.0859-0.62109-2.2344-0.78906-3.3047-0.60938-0.40234-1.0664-1.1484-1.9609-2.1719-2.5508l-8.6602-5c-3.668-2.0977-8.1094 0.97656-7.4297 5.1562 0.26172 1.4883 1.1211 2.7461 2.4297 3.5039l8.6602 5c1.0859 0.62109 2.2344 0.78906 3.3047 0.60938 0.40234 1.0664 1.1484 1.9609 2.1719 2.5508l2.2578 1.3008c3.668 2.0977 8.1094-0.97656 7.4297-5.1562-0.26172-1.4883-1.1211-2.7461-2.4297-3.5039zm23.219 24.953 0.015624 0.011719 43.301 25c3.668 2.0977 8.1094-0.97656 7.4297-5.1562-0.26172-1.4883-1.1211-2.7461-2.4297-3.5039l-7.7148-4.4531-0.015625-0.011719-43.301-25c-3.668-2.0977-8.1094 0.97656-7.4297 5.1562 0.26172 1.4883 1.1211 2.7461 2.4297 3.5039zm69.285 40.004 0.011718 0.007812 8.6602 5c3.668 2.0977 8.1094-0.97656 7.4297-5.1562-0.26172-1.4883-1.1211-2.7461-2.4297-3.5039l-7.7188-4.457-0.011719-0.007812-8.6602-5c-3.668-2.0977-8.1094 0.97656-7.4297 5.1562 0.26172 1.4883 1.1211 2.7461 2.4297 3.5039zm34.641 20 0.015625 0.007812 43.301 25c3.668 2.0977 8.1094-0.97656 7.4297-5.1562-0.26172-1.4883-1.1211-2.7461-2.4297-3.5039l-7.7148-4.4531-0.015625-0.007813-43.301-25c-3.668-2.0977-8.1094 0.97656-7.4297 5.1562 0.26172 1.4883 1.1211 2.7461 2.4297 3.5039zm82.957 36.348-7.7266-4.4609zm69.203-42.484c1.7695 1.7539 4.5117 1.9609 6.5156 0.48047 2.457-1.832 2.707-5.3789 0.55469-7.5508l-35.355-35.355c-1.7695-1.7539-4.5117-1.9609-6.5156-0.48047-2.457 1.832-2.707 5.3789-0.55469 7.5508zm-185.16-199.3c-1.7695-1.7539-4.5117-1.9609-6.5156-0.48047-2.457 1.832-2.707 5.3789-0.55469 7.5508l22.527 22.527c1.7695 1.7539 4.5117 1.9609 6.5156 0.48047 2.457-1.832 2.707-5.3789 0.55469-7.5508zm43.742 43.742c-1.7695-1.7539-4.5117-1.9609-6.5156-0.48047-2.457 1.832-2.707 5.3789-0.55469 7.5508l7.0703 7.0703c1.7695 1.7539 4.5117 1.9609 6.5156 0.48047 2.457-1.832 2.707-5.3789 0.55469-7.5508zm28.285 28.285c-1.7695-1.7539-4.5117-1.9609-6.5156-0.48047-2.457 1.832-2.707 5.3789-0.55469 7.5508l35.355 35.355c1.7695 1.7539 4.5117 1.9609 6.5156 0.48047 2.457-1.832 2.707-5.3789 0.55469-7.5508zm56.57 56.57c-1.7695-1.7539-4.5117-1.9609-6.5156-0.48047-2.457 1.832-2.707 5.3789-0.55469 7.5508l7.0703 7.0703c1.7695 1.7539 4.5117 1.9609 6.5156 0.48047 2.457-1.832 2.707-5.3789 0.55469-7.5508zm160.5-145.17c0.60156 2.2305 2.6289 3.75 4.9375 3.707 3.2539-0.085938 5.5469-3.1484 4.7227-6.293l-12.941-48.297c-0.60156-2.2305-2.6289-3.75-4.9375-3.707-3.2539 0.085937-5.5469 3.1484-4.7227 6.293zm-25.207-132.71c-0.60156-2.2305-2.6289-3.75-4.9375-3.707-3.2539 0.085937-5.5469 3.1484-4.7227 6.293l3.8086 14.215c0.60156 2.2305 2.6289 3.75 4.9375 3.707 3.2539-0.085938 5.5469-3.1484 4.7227-6.293zm11.574 43.191c-0.60156-2.2305-2.6289-3.75-4.9375-3.707-3.2539 0.085938-5.5469 3.1484-4.7227 6.293l2.5898 9.6602c0.60156 2.2305 2.6289 3.75 4.9375 3.707 3.2539-0.085937 5.5469-3.1484 4.7227-6.293zm242.89 102.65c-0.9375 3.5742 2.1211 6.8672 5.7578 6.207 1.8945-0.36719 3.3984-1.75 3.9023-3.6211l12.941-48.297c0.9375-3.5742-2.1211-6.8672-5.7578-6.207-1.8945 0.36719-3.3984 1.75-3.9023 3.6211zm48.719-143.18c0.9375-3.5742-2.1211-6.8672-5.7578-6.207-1.8945 0.36719-3.3984 1.75-3.9023 3.6211l-8 29.859c-0.9375 3.5742 2.1211 6.8672 5.7578 6.207 1.8945-0.36719 3.3984-1.75 3.9023-3.6211zm-15.766 58.836c0.9375-3.5742-2.1211-6.8672-5.7578-6.207-1.8945 0.36719-3.3984 1.75-3.9023 3.6211l-2.5898 9.6602c-0.9375 3.5742 2.1211 6.8672 5.7578 6.207 1.8945-0.36719 3.3984-1.75 3.9023-3.6211zm25.672 207.54c-2.0977 3.668 0.97656 8.1094 5.1562 7.4297 1.4883-0.26172 2.7461-1.1211 3.5039-2.4297l25-43.301zm1.707-2.957-1.707 2.957zm120.48-208.68-0.007813 0.011719-2.1797 3.7773c-2.0977 3.668 0.97656 8.1094 5.1562 7.4297 1.4883-0.26172 2.7461-1.1211 3.5039-2.4297l1.7031-2.9492 0.007813-0.011719 25-43.301c2.0977-3.668-0.97656-8.1094-5.1562-7.4297-1.4883 0.26172-2.7461 1.1211-3.5039 2.4297l-24.52 42.473zm-17.184 29.762-0.003906 0.003906-5 8.6602c-2.0977 3.668 0.97656 8.1094 5.1562 7.4297 1.4883-0.26172 2.7461-1.1211 3.5039-2.4297l1.707-2.9531 0.003907-0.003906 5-8.6602c2.0977-3.668-0.97656-8.1094-5.1562-7.4297-1.4883 0.26172-2.7461 1.1211-3.5039 2.4297zm-43.297 74.988-1.707 2.957c-2.0977 3.668 0.97656 8.1094 5.1562 7.4297 1.4883-0.26172 2.7461-1.1211 3.5039-2.4297l9.5469-16.535 17.16-29.727c2.0977-3.668-0.97656-8.1094-5.1562-7.4297-1.4883 0.26172-2.7461 1.1211-3.5039 2.4297l-1.7031 2.9531-15.457 26.773zm-8.0469 33.938 1.707-2.957c2.0977-3.668-0.97656-8.1094-5.1562-7.4297-1.4883 0.26172-2.7461 1.1211-3.5039 2.4297l-5 8.6602-1.707 2.957c-2.0977 3.668 0.97656 8.1094 5.1562 7.4297 1.4883-0.26172 2.7461-1.1211 3.5039-2.4297zm-2.2461 146.23c-1.7539 1.7695-1.9609 4.5117-0.48047 6.5156 1.832 2.457 5.3789 2.707 7.5508 0.55469l35.355-35.355c1.7539-1.7695 1.9609-4.5117 0.48047-6.5156-1.832-2.457-5.3789-2.707-7.5508-0.55469zm199.91-185.77c1.7539-1.7695 1.9609-4.5117 0.48047-6.5156-1.832-2.457-5.3789-2.707-7.5508-0.55469l-23.137 23.137c-1.7539 1.7695-1.9609 4.5117-0.48047 6.5156 1.832 2.457 5.3789 2.707 7.5508 0.55469zm-44.352 44.352c1.7539-1.7695 1.9609-4.5117 0.48047-6.5156-1.832-2.457-5.3789-2.707-7.5508-0.55469l-7.0703 7.0703c-1.7539 1.7695-1.9609 4.5117-0.48047 6.5156 1.832 2.457 5.3789 2.707 7.5508 0.55469zm-28.285 28.285c1.7539-1.7695 1.9609-4.5117 0.48047-6.5156-1.832-2.457-5.3789-2.707-7.5508-0.55469l-35.355 35.355c-1.7539 1.7695-1.9609 4.5117-0.48047 6.5156 1.832 2.457 5.3789 2.707 7.5508 0.55469zm-56.57 56.57c1.7539-1.7695 1.9609-4.5117 0.48047-6.5156-1.832-2.457-5.3789-2.707-7.5508-0.55469l-7.0703 7.0703c-1.7539 1.7695-1.9609 4.5117-0.48047 6.5156 1.832 2.457 5.3789 2.707 7.5508 0.55469zm-66.918 147.72c-3.3945 1.9648-3.3086 6.8867 0.14453 8.7422 1.5508 0.80859 3.332 0.78906 4.8555-0.082031l43.301-25h0.003906l3.625-2.0938c3.3945-1.9648 3.3086-6.8867-0.14453-8.7422-1.5508-0.80859-3.332-0.78906-4.8555 0.082032l-43.301 25h-0.003906zm288.14-154.81 0.003906-0.003906 6.2734-3.6211c3.3945-1.9648 3.3086-6.8867-0.14453-8.7422-1.5508-0.80859-3.332-0.78906-4.8555 0.082032l-8.6602 5-0.003906 0.003906-3.6211 2.0898c-3.3945 1.9648-3.3086 6.8867 0.14453 8.7422 1.5508 0.80859 3.332 0.78906 4.8555-0.082031zm-31.988 18.469 0.007813-0.003906 3.6211-2.0898c3.3945-1.9648 3.3086-6.8867-0.14453-8.7422-1.5508-0.80859-3.332-0.78906-4.8555 0.082032l-43.301 25-0.007812 0.003906-3.6211 2.0898c-3.3945 1.9648-3.3086 6.8867 0.14453 8.7422 1.5508 0.80859 3.332 0.78906 4.8555-0.082031zm-69.281 40 0.007813-0.003906 3.6211-2.0898c3.3945-1.9648 3.3086-6.8867-0.14453-8.7422-1.5508-0.80859-3.332-0.78906-4.8555 0.082032l-8.6602 5-0.007812 0.003906-3.6211 2.0898c-3.3945 1.9648-3.3086 6.8867 0.14453 8.7422 1.5508 0.80859 3.332 0.78906 4.8555-0.082031zm-34.641 20 0.007813-0.003906 3.6211-2.0898c3.3945-1.9648 3.3086-6.8867-0.14453-8.7422-1.5508-0.80859-3.332-0.78906-4.8555 0.082032l-43.301 25-0.007812 0.003906-3.6211 2.0898c-3.3945 1.9648-3.3086 6.8867 0.14453 8.7422 1.5508 0.80859 3.332 0.78906 4.8555-0.082031zm-69.281 40 3.625-2.0938c3.3945-1.9648 3.3086-6.8867-0.14453-8.7422-1.5508-0.80859-3.332-0.78906-4.8555 0.082032l-8.6602 5-3.625 2.0938c-3.3945 1.9648-3.3086 6.8867 0.14453 8.7422 1.5508 0.80859 3.332 0.78906 4.8555-0.082031zm-86.566 106.47c-3.8125 1.0273-4.9883 5.8477-2.0781 8.5234 1.2734 1.1562 3.0039 1.5742 4.6641 1.1367l48.297-12.941c3.8125-1.0273 4.9883-5.8477 2.0781-8.5234-1.2734-1.1562-3.0039-1.5742-4.6641-1.1367zm321.34-75.75c3.8125-1.0273 4.9883-5.8477 2.0781-8.5234-1.2734-1.1562-3.0039-1.5742-4.6641-1.1367l-9.6602 2.5898c-3.8125 1.0273-4.9883 5.8477-2.0781 8.5234 1.2734 1.1562 3.0039 1.5742 4.6641 1.1367zm-38.637 10.352c3.8125-1.0273 4.9883-5.8477 2.0781-8.5234-1.2734-1.1562-3.0039-1.5742-4.6641-1.1367l-48.297 12.941c-3.8125 1.0273-4.9883 5.8477-2.0781 8.5234 1.2734 1.1562 3.0039 1.5742 4.6641 1.1367zm-77.273 20.707c3.8125-1.0273 4.9883-5.8477 2.0781-8.5234-1.2734-1.1562-3.0039-1.5742-4.6641-1.1367l-9.6602 2.5898c-3.8125 1.0273-4.9883 5.8477-2.0781 8.5234 1.2734 1.1562 3.0039 1.5742 4.6641 1.1367zm-38.637 10.352c3.8125-1.0273 4.9883-5.8477 2.0781-8.5234-1.2734-1.1562-3.0039-1.5742-4.6641-1.1367l-48.297 12.941c-3.8125 1.0273-4.9883 5.8477-2.0781 8.5234 1.2734 1.1562 3.0039 1.5742 4.6641 1.1367zm-77.273 20.707c3.8125-1.0273 4.9883-5.8477 2.0781-8.5234-1.2734-1.1562-3.0039-1.5742-4.6641-1.1367l-9.6602 2.5898c-3.8125 1.0273-4.9883 5.8477-2.0781 8.5234 1.2734 1.1562 3.0039 1.5742 4.6641 1.1367zm-534.59 81.953c3.832-0.023437 6.2305-4.1133 4.3516-7.4609-0.90625-1.582-2.5312-2.5273-4.3516-2.5391h-50c-3.832 0.023438-6.2305 4.1133-4.3516 7.4609 0.90625 1.582 2.5312 2.5273 4.3516 2.5391zm-330-10c-3.832 0.023438-6.2305 4.1133-4.3516 7.4609 0.90625 1.582 2.5312 2.5273 4.3516 2.5391h10c3.832-0.023437 6.2305-4.1133 4.3516-7.4609-0.90625-1.582-2.5312-2.5273-4.3516-2.5391zm40 0c-3.832 0.023438-6.2305 4.1133-4.3516 7.4609 0.90625 1.582 2.5312 2.5273 4.3516 2.5391h50c3.832-0.023437 6.2305-4.1133 4.3516-7.4609-0.90625-1.582-2.5312-2.5273-4.3516-2.5391zm80 0c-3.832 0.023438-6.2305 4.1133-4.3516 7.4609 0.90625 1.582 2.5312 2.5273 4.3516 2.5391h10c3.832-0.023437 6.2305-4.1133 4.3516-7.4609-0.90625-1.582-2.5312-2.5273-4.3516-2.5391zm40 0c-3.832 0.023438-6.2305 4.1133-4.3516 7.4609 0.90625 1.582 2.5312 2.5273 4.3516 2.5391h50c3.832-0.023437 6.2305-4.1133 4.3516-7.4609-0.90625-1.582-2.5312-2.5273-4.3516-2.5391zm80 0c-3.832 0.023438-6.2305 4.1133-4.3516 7.4609 0.90625 1.582 2.5312 2.5273 4.3516 2.5391h10c3.832-0.023437 6.2305-4.1133 4.3516-7.4609-0.90625-1.582-2.5312-2.5273-4.3516-2.5391zm-256.59-331.98c-3.668-2.0977-8.1094 0.97656-7.4297 5.1562 0.26172 1.4883 1.1211 2.7461 2.4297 3.5039l28.844 16.652c3.668 2.0977 8.1094-0.97656 7.4297-5.1562-0.26172-1.4883-1.1211-2.7461-2.4297-3.5039zm257.67 160.31 7.7266 4.4609zm131.96-132.14c1.9648 3.3945 6.8867 3.3086 8.7422-0.14453 0.80859-1.5508 0.78906-3.332-0.082032-4.8555l-25-43.301c-1.9648-3.3945-6.8867-3.3086-8.7422 0.14453-0.80859 1.5508-0.78906 3.332 0.082031 4.8555zm-136.34-256.15c-1.9648-3.3945-6.8867-3.3086-8.7422 0.14453-0.80859 1.5508-0.78906 3.332 0.082031 4.8555l25 43.301c1.9648 3.3945 6.8867 3.3086 8.7422-0.14453 0.80859-1.5508 0.78906-3.332-0.082032-4.8555zm40 69.281c-1.9648-3.3945-6.8867-3.3086-8.7422 0.14453-0.80859 1.5508-0.78906 3.332 0.082031 4.8555l5 8.6602c1.9648 3.3945 6.8867 3.3086 8.7422-0.14453 0.80859-1.5508 0.78906-3.332-0.082032-4.8555zm20 34.641c-1.9648-3.3945-6.8867-3.3086-8.7422 0.14453-0.80859 1.5508-0.78906 3.332 0.082031 4.8555l25 43.301c1.9648 3.3945 6.8867 3.3086 8.7422-0.14453 0.80859-1.5508 0.78906-3.332-0.082032-4.8555zm40 69.281c-1.9648-3.3945-6.8867-3.3086-8.7422 0.14453-0.80859 1.5508-0.78906 3.332 0.082031 4.8555l5 8.6602c1.9648 3.3945 6.8867 3.3086 8.7422-0.14453 0.80859-1.5508 0.78906-3.332-0.082032-4.8555zm215.46-61.926c0.023437 3.832 4.1133 6.2305 7.4609 4.3516 1.582-0.90625 2.5273-2.5312 2.5391-4.3516v-50c-0.023438-3.832-4.1133-6.2305-7.4609-4.3516-1.582 0.90625-2.5273 2.5312-2.5391 4.3516zm10-136.52c-0.023438-3.832-4.1133-6.2305-7.4609-4.3516-1.582 0.90625-2.5273 2.5312-2.5391 4.3516v16.527c0.023437 3.832 4.1133 6.2305 7.4609 4.3516 1.582-0.90625 2.5273-2.5312 2.5391-4.3516zm0 46.527c-0.023438-3.832-4.1133-6.2305-7.4609-4.3516-1.582 0.90625-2.5273 2.5312-2.5391 4.3516v10c0.023437 3.832 4.1133 6.2305 7.4609 4.3516 1.582-0.90625 2.5273-2.5312 2.5391-4.3516zm194.98 207.47 1.707-2.957c2.0977-3.668-0.97656-8.1094-5.1562-7.4297-1.4883 0.26172-2.7461 1.1211-3.5039 2.4297l-25 43.301zm141.71-245.45c2.0977-3.668-0.97656-8.1094-5.1562-7.4297-1.4883 0.26172-2.7461 1.1211-3.5039 2.4297l-5 8.6602c-2.0977 3.668 0.97656 8.1094 5.1562 7.4297 1.4883-0.26172 2.7461-1.1211 3.5039-2.4297zm229.54 257.84c3.3945-1.9648 3.3086-6.8867-0.14453-8.7422-1.5508-0.80859-3.332-0.78906-4.8555 0.082031l-29.301 16.918c-3.3945 1.9648-3.3086 6.8867 0.14453 8.7422 1.5508 0.80859 3.332 0.78906 4.8555-0.082031zm-344.33 319.08c-3.832 0.023438-6.2305 4.1133-4.3516 7.4609 0.90625 1.582 2.5312 2.5273 4.3516 2.5391h50c3.832-0.023437 6.2305-4.1133 4.3516-7.4609-0.90625-1.582-2.5312-2.5273-4.3516-2.5391zm330 10c3.832-0.023437 6.2305-4.1133 4.3516-7.4609-0.90625-1.582-2.5312-2.5273-4.3516-2.5391h-10c-3.832 0.023438-6.2305 4.1133-4.3516 7.4609 0.90625 1.582 2.5312 2.5273 4.3516 2.5391zm-40 0c3.832-0.023437 6.2305-4.1133 4.3516-7.4609-0.90625-1.582-2.5312-2.5273-4.3516-2.5391h-50c-3.832 0.023438-6.2305 4.1133-4.3516 7.4609 0.90625 1.582 2.5312 2.5273 4.3516 2.5391zm-80 0c3.832-0.023437 6.2305-4.1133 4.3516-7.4609-0.90625-1.582-2.5312-2.5273-4.3516-2.5391h-10c-3.832 0.023438-6.2305 4.1133-4.3516 7.4609 0.90625 1.582 2.5312 2.5273 4.3516 2.5391zm-40 0c3.832-0.023437 6.2305-4.1133 4.3516-7.4609-0.90625-1.582-2.5312-2.5273-4.3516-2.5391h-50c-3.832 0.023438-6.2305 4.1133-4.3516 7.4609 0.90625 1.582 2.5312 2.5273 4.3516 2.5391zm-80 0c3.832-0.023437 6.2305-4.1133 4.3516-7.4609-0.90625-1.582-2.5312-2.5273-4.3516-2.5391h-10c-3.832 0.023438-6.2305 4.1133-4.3516 7.4609 0.90625 1.582 2.5312 2.5273 4.3516 2.5391zm-232.96-425.76h-168.15v841.25h168.15zm16 97.367v646.52h34.801v-646.52zm-200.15 646.52v-646.52h-34.801v646.52zm250.95-519.52v393.05h42.781l0.50781-393.05zm-301.75 393.01v-393.01h-43.266v392.62z"/>
</svg>
