<?xml version="1.0" encoding="UTF-8"?>
<svg width="1200pt" height="1200pt" version="1.1" viewBox="0 0 1200 1200" xmlns="http://www.w3.org/2000/svg">
 <path d="m978.46 600-0.14453-0.14453v-480.67l-3.3594 0.35547c-3.4805 0.37109-6.957 0.55469-10.336 0.55469-1.4336 0-2.8555-0.046875-4.2734-0.10938v-92.977h-92.422c-0.046875-1.2305-0.09375-2.4609-0.09375-3.707 0-3.5078 0.21094-7.1719 0.625-10.887l0.37891-3.375h-268.55l-0.14453-0.14453-0.14062 0.14844h-268.67l0.37891 3.375c0.41406 3.6992 0.625 7.3633 0.625 10.887 0 1.2422-0.046876 2.4727-0.09375 3.707l-92.418-0.003907v92.977c-1.418 0.0625-2.8398 0.10938-4.2734 0.10938-3.375 0-6.8516-0.1875-10.336-0.55469l-3.3594-0.35547v480.53l-0.14453 0.14453 0.14453 0.14453v480.78l3.3594-0.35547c3.4648-0.37109 6.9453-0.55469 10.332-0.55469 1.4336 0 2.8555 0.046874 4.2734 0.10937v92.977h92.422c0.046874 1.2305 0.09375 2.4648 0.09375 3.707 0 3.5195-0.21094 7.1836-0.625 10.887l-0.37891 3.375h268.52l0.14453 0.14453 0.14453-0.14453h268.69l-0.37891-3.375c-0.41406-3.7148-0.625-7.3789-0.625-10.887 0-1.2422 0.046875-2.4727 0.09375-3.707h92.422v-92.977c1.418-0.0625 2.8398-0.10937 4.2734-0.10937 3.3906 0 6.8672 0.1875 10.332 0.55469l3.3594 0.35547v-81.328l0.007812-315.42v-83.891zm-21.148-21.148-14.93 14.93v-38.883l-0.054687-28.355 29.914 29.91v37.324zm12.555 21.148-12.559 12.559-12.555-12.559 12.559-12.559zm-33.562 0.14062v42.441l-11.891 11.891v-108.95l11.891 11.891v42.445l-0.14062 0.14062zm-108.33 548.71h-146.04l-17.91-17.914h-128.05l-17.914 17.914h-145.86c-11.059-54.434-53.926-97.449-108.28-108.73v-358.32l17.914-17.914v-128.05l-17.914-17.914v-358.08c54.352-11.281 97.219-54.297 108.28-108.73h146l17.914 17.914h128.05l17.914-17.914h145.89c11.059 54.434 53.926 97.453 108.28 108.73v358.22l-17.914 17.914v128.05l17.914 17.914v358.18c-54.352 11.281-97.219 54.301-108.28 108.73zm-227.97-0.089844-0.14062 0.14063h-42.441l-11.891-11.891h108.95l-11.891 11.891h-42.441zm-62.289-10.969 11.059 11.059h-22.121zm124.58 0 11.059 11.059h-22.117zm-398.42-537.79 0.14453-0.14453-0.14453-0.14453v-42.441l11.891-11.891v108.95l-11.891-11.887zm0.054687-73.492 11.059 11.059-11.059 11.059zm11.059 135.64-11.062 11.059 0.003906-22.117zm325.16-610.95 0.14453-0.14453h42.441l11.891 11.891h-108.95l11.891-11.891h42.438zm62.285 10.969-11.059-11.059h22.121zm-124.57 0-11.059-11.059h22.121zm387.33 475.55 11.059-11.059v22.117zm11.059 135.64-11.059-11.059 11.059-11.059zm35.992-125.48-28.602-28.602 16.711-16.711-0.003906-255.42h-6.0742v252.91l-11.891 11.891-0.054687-311.38v-2.6211l29.914 29.914zm0-328.61-29.914-29.914v-28.391c7.2617 1.1719 14.707 1.7891 22.297 1.7891 2.375 0 4.8906-0.078125 7.6172-0.24219zm-17.969-186.17v86.449c-4.0625-0.43359-8.0469-1.1367-11.945-2.0625v-72.441h-72.004c-0.89844-3.9023-1.5859-7.8789-1.9961-11.945zm-18.023 82.758c-30.781-9.457-55.055-33.879-64.328-64.738h64.328zm-74.152-100.73c-0.046875 0.5625-0.066406 1.1133-0.10156 1.668-0.03125 0.47656-0.0625 0.94531-0.085938 1.418-0.089844 1.7227-0.14844 3.4297-0.14844 5.0977 0 56.719 46.145 102.87 102.87 102.87 1.6016 0 3.2266-0.054688 4.8633-0.13281 0.42969-0.019531 0.85938-0.046875 1.293-0.074218 0.48828-0.027344 0.97266-0.046876 1.4609-0.082032v30.531c-2.7461 0.16797-5.2578 0.25-7.6172 0.25-73.535 0-133.36-59.828-133.36-133.36 0-2.5703 0.09375-5.2734 0.28125-8.1836zm-36.641 0c-0.17969 2.8984-0.26953 5.5977-0.26953 8.1836 0 7.3906 0.58203 14.645 1.6953 21.727h-27.375l-29.914-29.91zm-141.36 0h76.906l29.914 29.914h-3.9805v-0.054688h-98.719l11.891-11.891h40.25v-6.0742h-42.766l-16.707 16.707-28.602-28.602zm-40.402 0 29.914 29.914-67.234-0.054688 14.93-14.93-14.93-14.93zm-43.543 27.488-12.559-12.559 12.559-12.559 12.559 12.559zm-6.2188-27.488-14.93 14.93 14.93 14.93h-38.879l-28.355 0.054688 29.914-29.914zm-45.918 0-28.602 28.602-16.707-16.707h-42.766v6.0742h40.25l11.891 11.891h-98.719v0.054688h-4.0977l29.91-29.914zm-134.65 0h17.223l-29.91 29.914h-27.375c1.1133-7.082 1.6953-14.336 1.6953-21.727 0-2.5898-0.089843-5.2891-0.26953-8.1836zm-167.45 17.969h85.945c-0.41016 4.0625-1.0977 8.043-1.9961 11.945h-72.008v72.441c-3.8984 0.92188-7.8789 1.625-11.945 2.0625zm82.348 18.02c-9.2734 30.859-33.551 55.281-64.328 64.738v-64.738zm10.164-27.801c0-1.6758-0.058593-3.3867-0.14844-5.1094-0.023437-0.47656-0.054687-0.94922-0.085937-1.4258-0.035157-0.55078-0.054688-1.0977-0.10156-1.6523h30.551c0.1875 2.9141 0.28125 5.6133 0.28125 8.1836 0 73.539-59.824 133.36-133.36 133.36-2.3594 0-4.8711-0.082031-7.6172-0.25v-30.531c0.48828 0.035157 0.97266 0.050782 1.4609 0.082032 0.43359 0.027344 0.86328 0.050781 1.293 0.074218 1.6328 0.078126 3.2617 0.13281 4.8633 0.13281 56.719-0.003906 102.86-46.148 102.86-102.87zm-110.48 139.2c2.7266 0.16016 5.2422 0.24219 7.6172 0.24219 7.5859 0 15.031-0.61719 22.297-1.7891v28.391l-29.914 29.914zm0 353.42v-288.08l29.914-29.914v2.4766h-0.054687v311.38l-11.891-11.891v-252.91h-6.0742v255.43l16.707 16.711-28.602 28.602zm0 40.391 29.914-29.914-0.054687 67.234-14.93-14.93-14.93 14.93zm27.484 43.539-12.559 12.559-12.559-12.559 12.559-12.559zm-12.555 21.148 14.93-14.93 0.054687 67.234-29.914-29.914v-37.324zm-14.93 30.988 28.602 28.602-16.707 16.711v255.43h6.0742v-252.91l11.891-11.891v311.38h0.054687v2.7227l-29.914-29.914zm0 328.71 29.914 29.914v28.391c-7.2617-1.1719-14.707-1.7891-22.297-1.7891-2.3711 0-4.8867 0.078125-7.6172 0.23828zm17.969 186.17v-86.449c4.0625 0.43359 8.0469 1.1367 11.945 2.0586v72.441l72.004 0.003906c0.89844 3.9023 1.5859 7.8828 1.9961 11.945zm18.02-82.754c30.777 9.457 55.055 33.875 64.328 64.734h-64.328zm74.156 100.72c0.042969-0.55469 0.066406-1.0977 0.10156-1.6484 0.03125-0.47656 0.0625-0.95312 0.085937-1.4297 0.089844-1.7227 0.14844-3.4336 0.14844-5.1094 0-56.719-46.145-102.87-102.87-102.87-1.6055 0-3.2305 0.054688-4.8594 0.13281-0.44141 0.019532-0.88281 0.046876-1.3242 0.074219-0.47656 0.027344-0.95312 0.042969-1.4336 0.082031v-30.535c2.7539-0.16797 5.2266-0.25 7.6172-0.25 73.535 0 133.36 59.828 133.36 133.36 0 2.5703-0.09375 5.2734-0.28125 8.1836zm36.637 0c0.17969-2.8984 0.26953-5.5977 0.26953-8.1836 0-7.3906-0.58203-14.645-1.6953-21.727h27.375l29.91 29.914h-17.367zm141.36 0h-76.91l-29.91-29.914h3.9531v0.054687h98.715l-11.891 11.891h-40.25v6.0742h42.766l16.707-16.711 28.602 28.602zm40.375 0-29.914-29.914 67.238 0.054687-14.93 14.93 14.93 14.93zm43.543-27.484 12.559 12.559-12.559 12.559-12.559-12.559zm6.2227 27.484 14.93-14.93-14.93-14.93 67.234-0.054687-29.914 29.914zm45.91 0 28.602-28.602 16.711 16.711h42.766v-6.0742h-40.25l-11.891-11.891 102.85-0.054688-29.914 29.914h-76.91zm134.78 0h-17.32l29.914-29.914h27.375c-1.1133 7.082-1.6953 14.336-1.6953 21.727 0 2.5898 0.089844 5.2891 0.26953 8.1836zm167.36-17.969h-85.945c0.41016-4.0625 1.0977-8.043 1.9961-11.945h72.004v-72.441c3.8984-0.92188 7.8828-1.625 11.945-2.0625zm-82.352-18.02c9.2734-30.859 33.551-55.281 64.328-64.734v64.734zm-10.164 27.801c0 1.668 0.0625 3.375 0.14844 5.0977 0.023437 0.47266 0.054687 0.94531 0.085937 1.418 0.035157 0.55859 0.058594 1.1094 0.10156 1.668h-30.551c-0.1875-2.9141-0.28125-5.6133-0.28125-8.1836 0-73.535 59.824-133.36 133.36-133.36 2.3906 0 4.8633 0.082032 7.6172 0.25v30.535c-0.48047-0.035156-0.95312-0.050781-1.4336-0.082031-0.44531-0.027343-0.88281-0.054687-1.3242-0.074219-1.6289-0.078124-3.2539-0.13281-4.8594-0.13281-56.719 0.003906-102.86 46.148-102.86 102.87zm110.48-139.2c-2.7305-0.16016-5.2461-0.23828-7.6172-0.23828-7.5859 0-15.031 0.61719-22.297 1.7891v-28.391l29.914-29.914zm0-353.42v288.08l-29.914 29.914v-2.5781h0.054687v-311.38l11.891 11.891v252.91h6.0742v-255.42l-16.711-16.711 28.602-28.602zm0-40.488-29.914 29.914 0.054687-67.234 14.93 14.93 14.93-14.93z"/>
</svg>
