<?xml version="1.0" encoding="UTF-8"?>
<svg width="1200pt" height="1200pt" version="1.1" viewBox="0 0 1200 1200" xmlns="http://www.w3.org/2000/svg">
 <path d="m960.84 233.52c-0.12109 0-0.23828-0.12109-0.23828-0.12109s0.11719 0 0.23828 0.12109z"/>
 <path d="m1061.6 260.76c1.4414-10.922 0.12109-26.281-6-48.121-1.8008-6.3594-3.9609-12.121-6.4805-17.52 11.281-20.762 5.7617-36.719 5.2812-38.641-2.1602-6.3594-5.6406-10.559-10.078-11.762-6-1.6797-10.922 2.1602-11.52 2.6406-2.2812 1.8008-2.5195 5.1602-0.71875 7.3203 1.8008 2.2812 5.1602 2.5195 7.3203 0.71875h-0.12109c0.35938-0.35938 1.4414-0.83984 2.0391-0.71875 0.60156 0.12109 1.8008 1.3203 3 4.8008 1.4414 4.3203 0.96094 9.3594-1.4414 14.281-0.96094 1.9219-2.1602 3.7188-3.4805 5.5195-22.559-29.398-62.762-40.32-123-42 0 0-12.602-0.83984-33.602-0.60156h-650.52-0.23828c-53.281 0-96.602 43.32-96.602 96.602v0.48047 650.52c-0.23828 20.879 0.60156 33.602 0.60156 33.602 1.6797 60.359 12.602 100.44 42 123-1.8008 1.4414-3.6016 2.6406-5.5195 3.4805-4.9219 2.3984-9.9609 2.8789-14.281 1.4414-3.3594-1.1992-4.5586-2.3984-4.8008-3-0.12109-0.60156 0.35938-1.6797 0.71875-2.0391v0.12109c1.8008-2.2812 1.5586-5.5195-0.71875-7.3203-2.2812-1.8008-5.5195-1.5586-7.3203 0.71875-0.48047 0.60156-4.3203 5.5195-2.6406 11.52 1.3203 4.5586 5.5195 7.9219 11.762 10.078 1.9219 0.48047 17.879 6.1211 38.641-5.2812 5.3984 2.5195 11.16 4.6797 17.52 6.4805 21.961 6.1211 37.32 7.4414 48.121 6 1.4414 0.35938 66.121-8.5195 81.84-54.238 15.961-46.32-1.5586-87.359-27.719-100.2-24.121-11.879-39.121-8.3984-51.238-5.5195l-1.9219 0.48047c-4.0781 0.96094-8.3984 2.3984-12.719 3.7188-10.199 3.3594-21.84 7.0781-27 3.3594-2.6406-1.9219-4.0781-6.3594-4.0781-13.199-0.23828-29.52-21.602-37.68-31.922-40.32 13.922 6.6016 9.2383 33.48 6.4805 54.84-0.60156 4.6797-1.1992 9-1.5586 13.32-0.71875 8.1602 1.3203 15 6.1211 20.039 2.6406 2.7617 5.1602 4.4414 8.3984 5.8789-3.6016 3.3594-7.0781 8.0391-9.3594 14.762-3.8398 11.039-1.8008 18 0.12109 24 1.9219 6.6016 3.8398 12.84-0.83984 26.281-2.5195 7.4414-6 13.68-9.9609 18.719-18.48-14.641-38.398-46.922-40.32-124.68 1.5586 1.0781 3.3594 2.0391 5.3984 2.7617 24.961 8.6406 29.281-12.719 29.281-12.719s7.8008-21.48-12.48-28.441c-10.441-3.6016-17.281-1.4414-21.84 2.1602 0.12109-2.2812 0-6.8398-0.12109-6.8398v-465.84c3.9609 3.7188 9.2383 6.1211 15 6.1211 12 0 21.719-9.7188 21.719-21.719s-9.7188-21.719-21.719-21.719c-5.8789 0-11.16 2.2812-15 6.1211v-96.121c15.238 33.238 48.84 56.398 87.84 56.398 53.281 0 96.602-43.32 96.602-96.602 0-38.879-23.16-72.48-56.398-87.84h96.121c-3.7188 3.9609-6.1211 9.2383-6.1211 15 0 12 9.7188 21.719 21.719 21.719s21.719-9.7188 21.719-21.719c0-5.8789-2.2812-11.16-6.1211-15h465.6c0 0.12109 4.5586 0.23828 6.8398 0.12109-3.6016 4.4414-5.7617 11.398-2.1602 21.84 7.0781 20.281 28.441 12.48 28.441 12.48s21.359-4.1992 12.719-29.281c-0.71875-2.1602-1.6797-3.9609-2.7617-5.3984 77.641 1.9219 110.04 21.84 124.68 40.32-4.9219 3.9609-11.281 7.4414-18.719 9.9609-13.441 4.6797-19.68 2.7617-26.281 0.83984-6.1211-1.8008-13.078-3.8398-24-0.12109-6.7188 2.2812-11.398 5.7617-14.762 9.3594-1.4414-3.2383-3-5.7617-5.8789-8.3984-5.1602-4.8008-11.879-6.8398-20.039-6.1211-4.3203 0.35937-8.6406 0.96094-13.32 1.5586-21.238 2.7617-48.121 7.4414-54.84-6.4805 2.7617 10.32 10.801 31.68 40.32 31.922 6.8398 0 11.281 1.4414 13.199 4.0781 3.7188 5.1602 0 16.68-3.3594 27-1.4414 4.3203-2.7617 8.6406-3.7188 12.719l-0.48047 1.9219c-2.8789 12.121-6.3594 27.121 5.5195 51.238 12.84 26.16 53.879 43.68 100.2 27.719 46.438-16.445 55.316-81.125 54.957-82.562zm-784.92 783.24c-6.9609 20.762-44.398 11.16-44.398 11.16s35.281-2.5195 33.48-34.441c0 0.12109 18.961-0.95703 10.918 23.281zm19.203-130.56c3.8398 1.0781 8.7617 2.0391 13.441 4.3203 21.602 10.68 36.359 47.039 22.441 87.48-9.4805 27.602-34.441 39.84-48.961 44.762 0.96094-1.6797 1.6797-3.2383 2.2812-4.8008 3.8398-11.281 2.2812-26.039-11.039-30.602-13.441-4.6797-20.281-2.6406-20.281-2.6406s6.4805 6.9609 1.6797 21.121c-4.9219 14.039-26.641 20.762-50.52 12.48-0.60156-0.23828-1.3203-0.48047-1.9219-0.71875 11.398-8.5195 23.879-22.559 35.879-45 2.5195-4.6797 3.6016-8.7617 4.1992-13.078 5.2812 4.3203 12.121 7.9219 20.879 8.7617 10.32 0.96094 20.879-2.7617 29.398-5.8789 5.1602-1.8008 12.84-4.6797 14.52-3.3594 0.12109 0 4.1992 0.23828 3.3594 9.1211-0.60156 7.1992-11.039 12-11.16 12.121-2.7617 0.96094-4.9219-0.12109-4.0781 2.6406 0.96094 2.7617 3.8398 4.1992 6.6016 3.3594 0.71875-0.23828 10.078-2.7617 16.68-15.961 7.9219-18.359-11.16-33.602-23.879-37.32-30.48-9.1211-30.84-13.441-27.602-25.801 3.3594-13.809 15.238-24.008 28.082-21.008zm-91.684 105.84c5.7617-16.559 3.1211-25.441 0.96094-32.641-1.6797-5.7617-2.8789-9.8398-0.23828-17.641 5.3984-15.48 15.602-19.801 16.68-19.68-0.12109 0-12-4.9219-18.121-11.52-2.7617-2.8789-3.8398-6.8398-3.3594-11.879 0.35938-4.0781 0.96094-8.3984 1.5586-12.961 1.3203-10.199 2.8789-20.398 2.3984-30.121 1.1992 3.9609 2.1602 9 2.2812 14.398 0.12109 10.441 2.8789 17.52 8.3984 21.602 9.4805 6.8398 23.16 2.3984 36.359-1.9219 4.1992-1.3203 8.2812-2.6406 11.762-3.4805l6.7188-1.0781c-5.6406 4.4414-10.199 10.801-12.359 19.078-6 22.559 5.2812 29.762 34.68 38.641 4.5586 1.3203 8.1602 3.4805 11.039 5.3984-4.0781 0.60156-8.7617 2.5195-13.68 4.3203-7.9219 2.8789-16.801 6-24.84 5.2812-19.922-1.9219-30.961-20.398-32.16-22.922 0.83984 2.2812 5.1602 18.48-2.8789 32.398-12.359 21.48-24.121 34.441-33.238 41.641 3.3594-5.1562 5.8789-10.434 8.0391-16.914zm-59.16-131.28s3.1211-13.68 17.641-8.6406c12.238 4.1992 7.5586 17.039 7.5586 17.039s-2.5195 12.84-17.52 7.6797c-11.039-3.7188-7.6797-16.078-7.6797-16.078zm14.281-516.12c7.3203 0 13.199 6 13.199 13.199 0 7.3203-6 13.199-13.199 13.199-7.3203 0-13.199-6-13.199-13.199s6-13.199 13.199-13.199zm159.6-138.72c0 47.879-39 86.879-86.879 86.879-47.879 0-86.879-39-86.879-86.879s39-86.879 86.879-86.879c47.996 0 86.879 39 86.879 86.879zm65.16-59.52c-7.3203 0-13.199-6-13.199-13.199 0-7.3203 6-13.199 13.199-13.199 7.3203 0 13.199 6 13.199 13.199 0 7.3203-5.8789 13.199-13.199 13.199zm511.2-2.2812s-12.84 4.6797-17.039-7.5586c-5.0391-14.52 8.6406-17.641 8.6406-17.641s12.359-3.3594 16.078 7.6797c5.1602 14.879-7.6797 17.52-7.6797 17.52zm22.32 44.641c-4.0781-5.6406-11.039-8.3984-21.602-8.3984-5.3984 0-10.559-0.96094-14.398-2.2812 9.7188 0.48047 19.922-1.0781 30.121-2.3984 4.5586-0.60156 8.8789-1.1992 12.961-1.5586 5.1602-0.48047 9 0.60156 11.879 3.3594 6.4805 6.1211 11.52 18 11.52 18.121-0.12109-1.0781 4.1992-11.398 19.68-16.68 7.8008-2.7617 12-1.4414 17.641 0.23828 7.1992 2.1602 16.078 4.8008 32.641-0.96094 6.4805-2.1602 11.762-4.6797 16.68-7.9219-7.1992 9.1211-20.16 20.879-41.641 33.238-13.922 8.0391-30.121 3.7188-32.398 2.8789 2.5195 1.1992 21 12.359 22.922 32.16 0.71875 8.0391-2.3984 16.922-5.2812 24.84-1.8008 4.9219-3.6016 9.6016-4.3203 13.68-1.8008-2.8789-3.9609-6.4805-5.3984-11.039-8.7617-29.398-16.078-40.68-38.641-34.68-8.2812 2.1602-14.641 6.7188-19.078 12.359l1.0781-6.7188c0.83984-3.6016 2.1602-7.5586 3.4805-11.762 4.5547-13.316 8.9961-26.996 2.1562-36.477zm86.281 116.76c-40.32 13.922-76.801-0.83984-87.48-22.441-2.2812-4.6797-3.2383-9.6016-4.3203-13.441-2.8789-12.84 7.1992-24.602 20.762-28.32 12.359-3.3594 16.801-2.8789 25.801 27.602 3.8398 12.719 19.078 31.801 37.32 23.879 13.078-6.6016 15.719-15.961 15.961-16.68 0.96094-2.7617-0.60156-5.7617-3.3594-6.6016-2.7617-0.96094-1.6797 1.3203-2.6406 4.0781 0 0.12109-4.9219 10.441-12.121 11.16-8.7617 0.71875-9-3.3594-9.1211-3.3594-1.3203-1.6797 1.5586-9.3594 3.3594-14.52 3-8.5195 6.8398-18.961 5.8789-29.398-0.83984-8.7617-4.4414-15.602-8.7617-20.879 4.3203-0.48047 8.3984-1.6797 13.078-4.1992 22.559-12 36.48-24.48 45-35.879 0.23828 0.71875 0.48047 1.3203 0.71875 1.9219 8.2812 24 1.5586 45.719-12.48 50.52-14.039 4.9219-21.121-1.6797-21.121-1.6797s-1.9219 6.8398 2.6406 20.281c4.6797 13.441 19.32 15 30.602 11.039 1.5586-0.48047 3.1211-1.1992 4.8008-2.2812-4.6758 14.758-16.918 39.598-44.516 49.199zm38.879-55.082c-24.238 8.0391-23.16-10.922-23.16-10.922 31.922 1.8008 34.441-33.48 34.441-33.48-0.003906 0.003906 9.4766 37.562-11.281 44.402z"/>
 <path d="m232.44 962.04c0-0.12109-0.12109-0.23828-0.12109-0.23828 0.12109 0 0.12109 0.12109 0.12109 0.23828z"/>
 <path d="m214.68 233.16c0 9.6016 7.8008 17.52 17.52 17.52 9.6016 0 17.52-7.8008 17.52-17.52 0-9.6016-7.8008-17.52-17.52-17.52s-17.52 7.918-17.52 17.52z"/>
</svg>
