<?xml version="1.0" encoding="UTF-8"?>
<svg width="1200pt" height="1200pt" version="1.1" viewBox="0 0 1200 1200" xmlns="http://www.w3.org/2000/svg">
 <path d="m25.391 33.383c-4.4023 0-7.9922-3.5742-7.9922-7.9922 0-4.4023 3.5898-7.9922 7.9922-7.9922h1149.2c4.4023 0 7.9922 3.5898 7.9922 7.9922v1149.2c0 4.4023-3.5898 7.9922-7.9922 7.9922-4.4141 0-7.9922-3.5898-7.9922-7.9922v-563.98c0-0.55078-0.20312-1.0312-0.60156-1.4141l-34.801-34.402-0.011719 0.011719-29.293-29.293c-0.58984-0.57422-1.4141-0.74219-2.1836-0.43359-0.75781 0.32422-1.2227 1.0195-1.2227 1.8477v546.55c0 2.7617-2.2422 5.0039-5.0039 5.0039-2.7461 0-4.9922-2.2422-4.9922-5.0039v-560.53c0-0.55078-0.19141-1.0312-0.58984-1.4141l-116.54-116.54c-0.38281-0.39453-0.86328-0.58984-1.4023-0.58984l-175.21-0.27734c-4.3906 0-7.957-3.5625-7.957-7.957l-0.34766-175.27c0-0.55078-0.19141-1.0312-0.58984-1.4141l-117.42-117.42c-0.38281-0.39453-0.86328-0.58984-1.4141-0.58984h-560.53c-2.7617 0-5.0039-2.2422-5.0039-4.9922 0-2.7617 2.2422-5.0039 5.0039-5.0039h546.55c0.82812 0 1.5234-0.46875 1.8477-1.2227 0.3125-0.76953 0.14453-1.5977-0.43359-2.1836l-64.117-64.117c-0.39453-0.38281-0.86328-0.58984-1.4141-0.58984h-563.54zm1141.2 549.23v-44.953c0-0.55078-0.20312-1.0195-0.58984-1.4141l-64.117-64.117c-0.58984-0.58984-1.4141-0.75781-2.1836-0.43359-0.75781 0.3125-1.2227 1.0195-1.2227 1.8477v45.156c0 0.55078 0.19141 1.0195 0.57422 1.4141l43.43 43.414-0.023437 0.011718 20.723 20.484c0.58984 0.57422 1.4141 0.74219 2.1719 0.42188 0.76953-0.3125 1.2344-1.0195 1.2344-1.8359zm-78.109-77.891v-45.168c0-0.55078-0.19141-1.0195-0.58984-1.4023l-346.07-346.07c-0.38281-0.39453-0.85156-0.58984-1.4023-0.58984h-45.168c-0.81641 0-1.5234 0.46875-1.8359 1.2227-0.32422 0.76953-0.15625 1.5977 0.43359 2.1836l106.19 106.19-0.023438 0.023437c1.4414 1.4414 2.3281 3.4336 2.3281 5.6289l0.33594 169.51c0 1.0938 0.89844 1.9805 1.9922 1.9922l168.68 0.26562c0.046875 0 0.097656 0 0.15625-0.011718 2.2305-0.16797 4.5352 0.60156 6.2539 2.3164l105.31 105.31c0.58984 0.58984 1.4141 0.75781 2.1836 0.43359 0.75781-0.3125 1.2227-1.0195 1.2227-1.8359zm-407.21-403.22h45.156c0.82812 0 1.5352-0.46875 1.8477-1.2227 0.32422-0.76953 0.15625-1.5977-0.43359-2.1836l-64.117-64.117c-0.39453-0.38281-0.86328-0.58984-1.4141-0.58984h-45.156c-0.82813 0-1.5352 0.48047-1.8477 1.2344-0.3125 0.76953-0.15625 1.5977 0.43359 2.1836l64.117 64.117c0.39453 0.38281 0.86328 0.57422 1.4141 0.57422zm485.32 416.39v-32.34c0-0.55078-0.20312-1.0195-0.58984-1.4141l-64.117-64.117c-0.58984-0.58984-1.4141-0.75781-2.1836-0.43359-0.75781 0.3125-1.2227 1.0195-1.2227 1.8477v32.34c0 0.53906 0.19141 1.0195 0.57422 1.4023l64.117 64.117c0.58984 0.58984 1.4141 0.75781 2.1836 0.44531 0.75781-0.32422 1.2344-1.0195 1.2344-1.8477zm-78.109-78.109v-32.34c0-0.55078-0.19141-1.0195-0.58984-1.4023l-293.95-293.95c-0.38281-0.39453-0.85156-0.58984-1.4023-0.58984h-32.34c-0.82812 0-1.5352 0.46875-1.8477 1.2227-0.3125 0.76953-0.15625 1.5977 0.43359 2.1836l326.29 326.29c0.58984 0.58984 1.4141 0.74219 2.1836 0.43359 0.75781-0.3125 1.2227-1.0195 1.2227-1.8477zm-342.28-338.28h32.34c0.82812 0 1.5352-0.46875 1.8477-1.2227 0.32422-0.76953 0.15625-1.5977-0.43359-2.1836l-62.555-62.555c-0.39453-0.38281-0.73047-0.80469-1.0195-1.2461-0.38281-0.57422-0.97266-0.89844-1.668-0.89844h-32.629c-0.82812 0-1.5234 0.48047-1.8477 1.2344-0.3125 0.76953-0.14453 1.5977 0.44531 2.1836l64.117 64.117c0.38281 0.38281 0.86328 0.57422 1.4023 0.57422zm420.38 355.8v-421.91c0-1.1055-0.89844-2.0039-2.0039-2.0039h-421.91c-0.82812 0-1.5234 0.48047-1.8477 1.2344-0.3125 0.76953-0.14453 1.5977 0.44531 2.1836l64.117 64.117c0.38281 0.38281 0.86328 0.57422 1.4141 0.57422h135.65c1.1055 0 2.0039-0.88672 2.0039-1.9922v-32.652c0-4.4141 3.5742-7.9922 7.9805-7.9922h179.1c4.4141 0 7.9922 3.5742 7.9922 7.9922v179.1c0 4.4023-3.5742 7.9922-7.9922 7.9922h-31.066c-1.1055 0-1.9922 0.88672-1.9922 1.9922v137.23c0 0.55078 0.19141 1.0312 0.57422 1.4141l64.117 64.117c0.58984 0.58984 1.4141 0.75781 2.1836 0.43359 0.75781-0.3125 1.2344-1.0078 1.2344-1.8359zm-347.22-342.39 121.68 121.67c0.57422 0.58984 1.4023 0.75781 2.1719 0.43359 0.75781-0.3125 1.2344-1.0195 1.2344-1.8359v-121.68c0-1.0938-0.89844-1.9922-2.0039-1.9922h-121.67c-0.82813 0-1.5352 0.46875-1.8477 1.2227-0.3125 0.76953-0.14453 1.5977 0.43359 2.1836zm142.45 142.45 123.25 123.25c0.58984 0.57422 1.4141 0.74219 2.1836 0.43359 0.75781-0.3125 1.2227-1.0195 1.2227-1.8477v-123.25c0-1.1055-0.89844-1.9922-1.9922-1.9922h-123.25c-0.82812 0-1.5352 0.46875-1.8477 1.2227-0.32422 0.76953-0.15625 1.5977 0.43359 2.1836zm159.73-182.51h-159.12c-1.1055 0-2.0039 0.89844-2.0039 1.9922v22.668c0 1.1055 0.89844 1.9922 2.0039 1.9922h131.04c2.7617 0 5.0039 2.2422 5.0039 5.0039v129.46c0 1.1055 0.88672 2.0039 1.9922 2.0039h21.086c1.1055 0 1.9922-0.89844 1.9922-2.0039v-159.12c0-1.0938-0.88672-1.9922-1.9922-1.9922zm-161.12 38.641v122.47c0 1.1055 0.89844 2.0039 2.0039 2.0039h124.05c1.0938 0 1.9922-0.89844 1.9922-2.0039v-122.47c0-1.0938-0.89844-1.9922-1.9922-1.9922h-124.05c-1.1055 0-2.0039 0.89844-2.0039 1.9922z"/>
</svg>
