<?xml version="1.0" encoding="UTF-8"?>
<svg width="1200pt" height="1200pt" version="1.1" viewBox="0 0 1200 1200" xmlns="http://www.w3.org/2000/svg">
 <path d="m1046.8 198.84c-0.60156-0.48047-10.68-9-19.559 2.0391-9.1211 11.281 2.0391 19.559 2.0391 19.559s-7.1992 2.1602-19.32-7.6797c-12-9.7188-17.039-22.68-30.238-33.48-7.4414-6-21.602-12.238-36.84-10.922v0.12109l-314.16 0.003907c-6-0.12109-12 0.48047-17.879 1.9219-43.199 10.801-61.559 43.559-65.762 52.078 6.1211-14.281 5.5195-32.641 4.8008-38.879-1.0781-8.8789-8.0391-21.121-19.078-18.84-14.039 3-14.879 10.922-14.879 10.922s17.52-1.9219 22.559 18.359c9.3594 37.199-30.84 65.16-30.84 65.16s18.84-18.719 9.2383-57c-9.6016-38.281-45-42.602-61.559-38.52-16.559 4.0781-26.52 13.801-41.52 17.52s-20.762-1.1992-20.762-1.1992 13.559-2.8789 10.078-16.922c-3.4805-13.801-16.199-10.32-16.922-10.078-0.71875 0.23828-14.281 4.5586-10.68 19.078 2.0391 8.2812 11.039 24.121 31.078 22.199 10.559-1.0781 18.121-4.0781 18.121-4.0781s-9 8.6406-3 24.719c9.4805 25.199 26.641 26.762 45 22.199 0 0 17.281-3.9609 13.801-18-3.4805-13.801-16.199-10.32-16.922-10.078-0.71875 0.23828-12.602 5.2812-9.8398 16.078-11.641 1.8008-18.238-7.8008-19.922-14.398-1.9219-7.9219-5.1602-27 17.762-32.762 40.922-10.199 51.84 18.961 54.238 28.68 2.3984 9.7188 13.078 50.641-35.398 62.762-69.121 17.281-94.559-42.602-101.76-58.801-7.1992-16.199-18.121-41.16-37.078-54.238-18.961-13.078-35.281-3.4805-35.281-3.4805 23.039 16.078 36.719 44.762 33.121 69.84-2.3984 17.039-12.48 29.398-28.199 34.68-24.719 8.3984-34.801 2.5195-47.762-6.9609-1.6797-1.1992-2.6406-2.1602-4.8008-5.1602-0.12109-0.12109-11.16-17.762-5.8789-31.199 2.6406-6.6016 9.1211-11.281 19.441-13.922 10.32-2.5195 18.238 4.4414 19.922 10.441 0.35937 1.0781 0.35937 2.5195 0.35937 3.6016-1.3203-6.6016-6.2383-5.7617-10.199-4.8008-4.0781 0.96094-10.078 4.0781-6.8398 12.719s14.16 5.1602 14.16 5.1602c8.3984-3 12.48-10.441 10.078-18.84-3-10.32-15.121-19.32-29.281-15.84-12.84 3.2383-21.238 9.4805-24.719 18.602-3.8398 9.7188-1.3203 19.922 1.8008 27.602-0.12109 0 0 0.12109 0.12109 0.35937-0.60156-0.35937-1.0781-0.60156-0.96094-0.48047-7.6797-3.1211-17.879-5.5195-27.602-1.8008-9.1211 3.6016-15.359 11.879-18.602 24.719-3.6016 14.16 5.3984 26.281 15.84 29.281 8.3984 2.3984 15.719-1.6797 18.84-10.078 0 0 3.6016-10.801-5.1602-14.16-8.6406-3.2383-11.641 2.7617-12.719 6.8398-0.96094 4.0781-1.8008 8.8789 4.8008 10.199-1.0781 0.12109-2.6406 0-3.6016-0.35938-6-1.8008-13.078-9.7188-10.441-19.922 2.5195-10.32 7.1992-16.801 13.922-19.441 13.441-5.2812 31.078 5.7617 31.199 5.8789 1.3203 1.8008 3.9609 3.3594 5.2812 5.0391 9.4805 12.84 15.359 22.922 6.9609 47.52-5.3984 15.719-17.641 25.801-34.68 28.199-24.961 3.6016-53.641-10.078-69.84-33.121 0 0-9.6016 16.32 3.4805 35.281 13.078 18.961 38.039 29.879 54.238 37.078 16.199 7.1992 76.078 32.641 58.801 101.76-12.121 48.48-53.039 37.801-62.762 35.398-9.7188-2.3984-39-13.32-28.68-54.238 5.7617-22.922 24.84-19.68 32.762-17.762 6.6016 1.6797 16.32 8.2812 14.398 19.922-10.922-2.7617-15.961 9.1211-16.078 9.8398-0.23828 0.71875-3.6016 13.441 10.078 16.922 14.039 3.4805 18-13.801 18-13.801 4.5586-18.359 3.1211-35.52-22.199-45-16.078-6-24.719 3-24.719 3s3.1211-7.5586 4.0781-18.121c1.9219-20.039-13.922-29.039-22.199-31.078-14.52-3.6016-18.84 9.9609-19.078 10.68s-3.6016 13.441 10.078 16.922c14.039 3.4805 16.922-10.078 16.922-10.078s5.0391 5.6406 1.1992 20.762c-3.7188 15-13.441 24.961-17.52 41.52s0.12109 51.961 38.52 61.559c38.281 9.6016 57-9.2383 57-9.2383s-27.961 40.078-65.16 30.84c-20.281-5.0391-18.359-22.559-18.359-22.559s-7.9219 0.83984-10.922 14.879c-2.3984 11.039 9.8398 18 18.84 19.078 6.2383 0.71875 24.48 1.3203 38.879-4.8008-8.6406 4.1992-41.281 22.441-52.078 65.762-1.4414 5.8789-2.0391 11.879-1.9219 17.879v314.16h-0.12109c-1.3203 15.359 4.8008 29.398 10.922 36.84 10.68 13.199 23.641 18.238 33.48 30.238 9.7188 12 7.6797 19.32 7.6797 19.32s-8.3984-11.16-19.559-2.0391c-11.039 8.8789-2.5195 18.961-2.0391 19.559 0.48047 0.60156 10.199 11.039 21.84 1.6797 6.6016-5.3984 17.16-20.16 6.9609-37.559-5.3984-9.1211-11.398-14.641-11.398-14.641s11.641 4.5586 23.641-7.6797c18.84-19.199 12.961-35.398 1.0781-50.16 0 0-10.801-14.039-22.078-4.9219-11.039 8.8789-2.5195 18.961-2.0391 19.559 0.48047 0.60156 10.078 9.2383 18.719 2.1602 6.6016 9.7188 0.60156 19.801-4.6797 24.121-6.3594 5.1602-22.32 16.078-37.199-2.2812-9.1211-11.281-12.719-21.602-13.32-30.602l3.2383-317.76c0-7.3203 1.1992-14.879 3.6016-22.078 21-61.922 74.762-48.359 95.039-129.12 20.16-80.762-53.281-112.68-53.281-112.68s38.281 6.3594 44.762-19.559c3.3594-13.559-11.879-22.922-11.879-22.922s3.2383 44.762-53.52 30.48c-32.641-8.1602-40.922-30.719-40.922-30.719 16.801 12.121 37.32 18 56.398 15.238 20.039-2.8789 34.68-14.762 40.922-33.359 6.6016-19.559 4.3203-31.68-1.0781-41.762 10.199 5.5195 22.441 8.1602 42.238 1.3203 18.719-6.3594 30.602-20.879 33.359-40.922 2.7617-19.199-3.1211-39.602-15.238-56.398 0 0 22.559 8.1602 30.719 40.922 14.16 56.762-30.48 53.52-30.48 53.52s9.3594 15.238 22.922 11.879c25.922-6.4805 19.559-44.762 19.559-44.762s31.922 73.441 112.68 53.281c80.762-20.16 67.199-73.922 129.12-95.039 7.3203-2.5195 14.762-3.6016 22.078-3.6016l317.76-3.2383c9 0.60156 19.32 4.1992 30.602 13.32 18.359 14.879 7.4414 30.84 2.2812 37.199-4.3203 5.2812-14.281 11.281-24.121 4.6797 7.0781-8.7617-1.5586-18.238-2.1602-18.719-0.60156-0.48047-10.68-9-19.559 2.0391-9.1211 11.281 4.9219 22.078 4.9219 22.078 14.641 11.879 30.961 17.762 50.16-1.0781 12.238-12 7.6797-23.641 7.6797-23.641s5.6406 6 14.641 11.398c17.281 10.199 32.16-0.35937 37.559-6.9609 9.4766-11.633-0.96484-21.352-1.5625-21.832z"/>
</svg>
