<?xml version="1.0" encoding="UTF-8"?>
<!DOCTYPE svg PUBLIC "-//W3C//DTD SVG 1.1//EN" "http://www.w3.org/Graphics/SVG/1.1/DTD/svg11.dtd">
<!-- Creator: CorelDRAW (Evaluation Version) -->
<svg xmlns="http://www.w3.org/2000/svg" xml:space="preserve" width="38.229mm" height="32.647mm" version="1.1" style="shape-rendering:geometricPrecision; text-rendering:geometricPrecision; image-rendering:optimizeQuality; fill-rule:evenodd; clip-rule:evenodd"
viewBox="0 0 3822.9 3264.7"
 xmlns:xlink="http://www.w3.org/1999/xlink"
 xmlns:xodm="http://www.corel.com/coreldraw/odm/2003">
 <defs>
  <style type="text/css">
   <![CDATA[
    .fil1 {fill:#E4B050}
    .fil0 {fill:#E4B050;fill-rule:nonzero}
   ]]>
  </style>
 </defs>
 <g id="Layer_x0020_1">
  <metadata id="CorelCorpID_0Corel-Layer"/>
  <polygon class="fil0" points="1916.89,1849.62 2051.53,1651.06 2119.54,1651.06 2119.54,2756.74 2051.53,2756.74 2051.53,1746.27 1916.89,1944.83 1782.25,1746.27 1782.25,2756.74 1714.26,2756.74 1714.26,1651.06 1782.25,1651.06 "/>
  <path class="fil0" d="M1782.03 2867.21l-0.37 159.56 269.7 0.14 0.03 -159.57 -269.36 -0.13zm337.29 -42.85l0 245.49 -354.05 0.15 -52.82 -0.26 0 -245.49 359.73 -0.15 47.14 0.26z"/>
  <path class="fil0" d="M1923.54 2336.94c-114.61,0 -212.45,-25.62 -293.52,-76.87 -81.06,-51.24 -142.09,-118.57 -183.09,-201.96 -40.99,-83.4 -61.49,-172.15 -61.49,-266.26 0,-94.11 20.5,-182.86 61.49,-266.25 41,-83.4 102.03,-150.72 183.09,-201.97 81.07,-51.25 178.91,-76.87 293.52,-76.87 114.61,0 212.68,25.62 294.21,76.87 81.53,51.25 142.8,118.57 183.79,201.97 41,83.39 61.5,172.14 61.5,266.25 0,94.11 -20.5,182.86 -61.5,266.26 -40.99,83.39 -102.26,150.72 -183.79,201.96 -81.53,51.25 -179.6,76.87 -294.21,76.87zm0 -55.91c99.7,0 185.19,-23.05 256.47,-69.18 71.29,-46.12 124.86,-106.46 160.74,-181 35.87,-74.54 53.8,-153.74 53.8,-237.6 0,-84.8 -17.93,-164.7 -53.8,-239.7 -35.88,-75.01 -89.45,-135.57 -160.74,-181.7 -71.28,-46.12 -156.77,-69.19 -256.47,-69.19 -99.7,0 -184.72,23.07 -255.08,69.19 -70.35,46.13 -123.46,106.45 -159.33,181 -35.87,74.54 -53.82,154.21 -53.82,239 0,84.79 17.95,164.46 53.82,239 35.87,74.54 88.98,134.88 159.33,181 70.36,46.13 155.38,69.18 255.08,69.18z"/>
  <path class="fil1" d="M-1.6 1935.97c0,-333.83 72.72,-648.67 218.16,-944.5 145.44,-295.83 361.94,-534.65 649.51,-716.45 287.56,-181.79 634.63,-272.69 1041.2,-272.69 406.55,0 754.44,90.9 1043.66,272.69 289.22,181.8 506.55,420.62 651.99,716.45 155.26,315.79 226.38,652.13 217.39,1003.47l-242.91 -0.02c10.76,-309.29 -56.78,-625.41 -190.16,-904.3 -127.23,-266.06 -317.31,-480.93 -570.17,-644.54 -252.86,-163.62 -556.14,-245.43 -909.8,-245.43 -353.68,0 -655.3,81.81 -904.86,245.43 -249.55,163.61 -437.96,377.64 -565.21,642.07 -127.26,264.43 -190.88,547.04 -190.88,847.82 0,427 0.26,903.28 0.42,1330.28l-248.53 0c0.04,-427.01 0.19,-903.27 0.19,-1330.28z"/>
  <path class="fil1" d="M516.66 1880.21c0,-242.07 52.72,-470.36 158.18,-684.86 105.46,-214.51 262.44,-387.67 470.95,-519.49 208.51,-131.81 460.17,-197.73 754.97,-197.73 294.79,0 547.04,65.92 756.75,197.73 209.71,131.82 367.29,304.98 472.75,519.49 134.71,274 160.85,502.95 157.19,799.59l-174.8 0c2.01,-268.17 -19.82,-478.96 -138.77,-727.69 -92.27,-192.94 -230.08,-348.72 -413.43,-467.35 -183.35,-118.64 -403.25,-177.97 -659.69,-177.97 -256.44,0 -475.16,59.33 -656.1,177.97 -180.95,118.63 -317.56,273.82 -409.84,465.55 -92.27,191.74 -138.4,396.66 -138.4,614.76 0,307.72 -0.93,1073.52 -0.82,1386.83l-178.52 0c0.01,-319.07 -0.42,-1082.05 -0.42,-1386.83z"/>
  <path class="fil1" d="M889.03 1809.44c0,-178.1 38.79,-346.05 116.38,-503.87 77.58,-157.81 193.08,-285.22 346.49,-382.2 153.4,-96.98 338.56,-145.47 555.45,-145.47 216.88,0 402.47,48.49 556.76,145.47 154.29,96.98 270.23,224.39 347.82,382.2 105.49,214.55 127,453.31 119.53,689.37l-131.75 0c7.11,-220.95 -5.65,-433.27 -102.83,-636.47 -67.89,-141.95 -169.28,-256.57 -304.18,-343.85 -134.89,-87.28 -296.68,-130.92 -485.35,-130.92 -188.68,0 -349.59,43.64 -482.71,130.92 -133.14,87.28 -233.64,201.46 -301.53,342.53 -67.88,141.06 -101.83,291.83 -101.83,452.29 0,209.69 0.12,1134.31 0.2,1457.6l-130.37 0c-0.28,-324.4 -2.08,-1248.13 -2.08,-1457.6z"/>
 </g>
</svg>
