<svg xmlns="http://www.w3.org/2000/svg" viewBox="0 0 400 300" role="img" aria-label="Scatter Winding by Hand article placeholder">
  <rect width="400" height="300" fill="#181410"/>
  <g fill="none" stroke="#c9a24a" stroke-width="1" stroke-linecap="square">
    <path d="M14 30 L14 14 L30 14"/>
    <path d="M370 14 L386 14 L386 30"/>
    <path d="M14 270 L14 286 L30 286"/>
    <path d="M370 286 L386 286 L386 270"/>
  </g>
  <g fill="none" stroke="#c9a24a" stroke-width="0.6">
    <circle cx="200" cy="150" r="20" stroke-opacity="0.95"/>
    <circle cx="200" cy="150" r="32" stroke-opacity="0.8"/>
    <circle cx="200" cy="150" r="44" stroke-opacity="0.65"/>
    <circle cx="200" cy="150" r="56" stroke-opacity="0.5"/>
    <circle cx="200" cy="150" r="68" stroke-opacity="0.35"/>
    <circle cx="200" cy="150" r="80" stroke-opacity="0.2"/>
  </g>
  <g fill="#c9a24a">
    <circle cx="200" cy="150" r="5"/>
  </g>
  <g fill="none" stroke="#c9a24a" stroke-width="0.75" stroke-opacity="0.6">
    <path d="M120 70 l4 4 -4 4 -4 -4 z"/>
    <path d="M280 70 l4 4 -4 4 -4 -4 z"/>
    <path d="M120 230 l4 4 -4 4 -4 -4 z"/>
    <path d="M280 230 l4 4 -4 4 -4 -4 z"/>
  </g>
  <text x="200" y="262" text-anchor="middle" font-family="Inter, system-ui, sans-serif" font-size="10" fill="#9a8e74" letter-spacing="2.5">SCATTER WINDING · BY HAND</text>
</svg>
